<svg id="Grupo_18928" data-name="Grupo 18928" xmlns="http://www.w3.org/2000/svg" xmlns:xlink="http://www.w3.org/1999/xlink" width="140.742" height="140.692" viewBox="0 0 140.742 140.692">
  <defs>
    <clipPath id="clip-path">
      <rect id="Rectángulo_2835" data-name="Rectángulo 2835" width="140.742" height="140.692" fill="#b2945e"/>
    </clipPath>
  </defs>
  <g id="Grupo_3048" data-name="Grupo 3048" clip-path="url(#clip-path)">
    <path id="Trazado_618" data-name="Trazado 618" d="M102,0c2.73.834,4.875,2.325,5.613,5.253a11.283,11.283,0,0,1,.268,2.719q.024,21.017.008,42.035a9,9,0,0,1-.08,1.368,2.16,2.16,0,0,1-2.228,1.986,2.123,2.123,0,0,1-2.273-1.935,10.874,10.874,0,0,1-.112-1.775q-.009-20.674,0-41.349c0-2.982-.632-3.607-3.636-3.607H8.339c-2.955,0-3.608.663-3.608,3.657q0,62.023,0,124.046c0,2.973.646,3.611,3.648,3.611H99.593c2.966,0,3.595-.636,3.6-3.642q0-10.44,0-20.88a9.954,9.954,0,0,1,.056-1.369,2.251,2.251,0,0,1,2.35-2.187,2.192,2.192,0,0,1,2.241,2.282c.085,2.057.047,4.12.049,6.18q.006,8.173,0,16.347c-.013,5.184-2.8,7.949-8,7.949q-45.882,0-91.764,0c-5.336,0-8.076-2.767-8.076-8.154Q.05,70.789,0,9.041C-.009,4.554,1.4,1.417,5.821,0Z" transform="translate(0)" fill="#b2945e"/>
    <path id="Trazado_619" data-name="Trazado 619" d="M289.088,110.708l-2,4.306c1.49,1.324,1,2.768.075,4.313-1.763,2.934-3.437,5.92-5.205,8.983.644.388,1.222.732,1.8,1.083,3.641,2.227,4.789,6.121,2.718,9.824-2.969,5.309-6.05,10.556-9.109,15.814-.838,1.441-2.148,1.872-3.331,1.206-1.241-.7-1.513-2.039-.632-3.582,2.766-4.846,5.564-9.675,8.348-14.511,1.819-3.159,1.463-4.175-2.085-5.72-.247.4-.511.817-.756,1.241-5.618,9.749-11.311,19.456-16.811,29.271a84.51,84.51,0,0,1-7.711,10.646q-3.083,3.93-5.868,8.092c-1.8,2.684-4.116,4.044-7.388,3.76a1.983,1.983,0,0,0-1.438.659c-1.561,1.856-3.013,3.8-4.546,5.683-2.713,3.326-6.824,2.727-8.48-1.22-.4-.962-.789-1.931-1.253-3.07-.3.383-.518.637-.705.914-1.4,2.081-3.348,2.982-5.347,2.468-2.154-.554-3.439-2.32-3.64-4.926a78.92,78.92,0,0,0-.928-7.957c-.151.382-.32.759-.449,1.148-1.659,4.986-3.3,9.98-4.973,14.96-.636,1.889-2.152,2.5-3.6,1.512a2.256,2.256,0,0,1-.9-2.781c1.905-5.771,3.8-11.547,5.781-17.291a4.641,4.641,0,0,1,8.962.974c.37,3.032.584,6.084.887,9.373.51-.684.877-1.229,1.3-1.73a4.563,4.563,0,0,1,7.541.619c.736,1.3,1.233,2.737,1.891,4.231,1.657-2.028,3.264-3.96,4.813-5.938a1.214,1.214,0,0,0,.027-1.064,7.17,7.17,0,0,1,.2-7.329c2.963-5.048,4.48-10.692,6.657-16.063a17.981,17.981,0,0,1,1.056-2.222q9.241-16.055,18.506-32.1c.249-.431.487-.867.725-1.293-3.053-2.155-3.61-3.052-2.795-4.443.805-1.373,1.825-1.342,5.2.211.227-.35.482-.708.7-1.086,1.646-2.8,3.3-5.6,4.921-8.409a2.8,2.8,0,0,1,2.89-1.644,1.738,1.738,0,0,0,1.234-.864c1.17-2.084,2.69-3.723,5.107-4.25a7.049,7.049,0,0,1,8.3,4.844c.1.3.21.589.315.883Zm-32.3,51.744,18.748-32.491-8.112-4.684-18.749,32.484,8.113,4.691m21.093-36.547,4.687-8.111-8.114-4.683-4.674,8.108,8.1,4.687M254.1,166.3l-7.383-4.264-3.317,8.9,4.626,2.694L254.1,166.3m24.741-56.082,4.057,2.344c.672-1.433,2.1-2.583,1.14-4.193a3,3,0,0,0-2.182-1.227c-1.874-.024-2.165,1.768-3.015,3.076m-37.355,65.1c-.8,1.474-2.142,2.717-1.059,4.341a2.861,2.861,0,0,0,2.147,1.054c1.824-.074,2.108-1.814,2.966-3.065l-4.053-2.33" transform="translate(-148.346 -74.161)" fill="#b2945e"/>
    <path id="Trazado_620" data-name="Trazado 620" d="M81.654,55.782v4.692h1.828q27.613,0,55.226.006a9.507,9.507,0,0,1,2.043.164,2.267,2.267,0,0,1-.117,4.42,9.618,9.618,0,0,1-1.64.106q-29.33.007-58.661,0c-2.821,0-3.441-.638-3.443-3.5q0-3.572,0-7.144c0-2.717.708-3.436,3.4-3.436q15.729,0,31.46,0,13.6,0,27.2.008a7.6,7.6,0,0,1,1.9.193,2.069,2.069,0,0,1,1.611,2.26,2.117,2.117,0,0,1-1.925,2.156,12.146,12.146,0,0,1-1.781.071q-27.613,0-55.226,0Z" transform="translate(-55.719 -37.024)" fill="#b2945e"/>
    <path id="Trazado_621" data-name="Trazado 621" d="M54.642,372.024A20.132,20.132,0,0,1,34.6,355.9a19.859,19.859,0,0,1,11.851-22.121,19.354,19.354,0,0,1,18.719,1.761c1.792,1.141,2.277,2.39,1.478,3.7s-2.2,1.422-3.952.269a15.112,15.112,0,0,0-12.856-2.031A15.222,15.222,0,1,0,69.36,352.661c.1-2.115,1.469-3.352,3.1-2.759a2.432,2.432,0,0,1,1.592,2.6c.008,9.342-7.516,18-16.763,19.25-1.042.14-2.092.217-2.648.274" transform="translate(-24.794 -240.7)" fill="#b2945e"/>
    <path id="Trazado_622" data-name="Trazado 622" d="M164.776,183.505q-12.355,0-24.71,0a7.572,7.572,0,0,1-1.64-.089,2.1,2.1,0,0,1-1.751-2.015,2.075,2.075,0,0,1,1.354-2.3,5.312,5.312,0,0,1,1.88-.274q24.847-.02,49.695,0a5.127,5.127,0,0,1,1.749.243,2.276,2.276,0,0,1-.364,4.35,8.52,8.52,0,0,1-1.641.083q-12.286.006-24.573,0" transform="translate(-99.036 -129.584)" fill="#b2945e"/>
    <path id="Trazado_623" data-name="Trazado 623" d="M85.714,234.641q-11.047,0-22.093,0a10.663,10.663,0,0,1-1.639-.09,2.271,2.271,0,0,1-.025-4.5,9.125,9.125,0,0,1,1.5-.106q22.3-.008,44.6,0a8.729,8.729,0,0,1,1.231.058,2.3,2.3,0,0,1-.107,4.606,13.144,13.144,0,0,1-1.37.036q-11.047,0-22.094,0" transform="translate(-43.484 -166.629)" fill="#b2945e"/>
    <path id="Trazado_624" data-name="Trazado 624" d="M128.215,124.023q-11.116,0-22.233,0c-2.331,0-3.479-.791-3.471-2.373s1.123-2.325,3.5-2.325q22.233,0,44.466,0a8.572,8.572,0,0,1,1.773.122,2.269,2.269,0,0,1,.1,4.392,7.727,7.727,0,0,1-1.9.174q-11.117.017-22.233.007" transform="translate(-74.288 -86.47)" fill="#b2945e"/>
    <path id="Trazado_625" data-name="Trazado 625" d="M73.927,277.166c-3.754,0-7.508.01-11.262-.006-1.522-.006-2.441-.671-2.671-1.848-.3-1.545.761-2.768,2.548-2.815,1.922-.051,3.845-.014,5.768-.014q8.1,0,16.206,0a10.131,10.131,0,0,1,1.235.027A2.376,2.376,0,0,1,88,274.985a2.289,2.289,0,0,1-2.395,2.161c-2.609.045-5.219.018-7.828.02q-1.923,0-3.845,0" transform="translate(-43.439 -197.452)" fill="#b2945e"/>
    <path id="Trazado_626" data-name="Trazado 626" d="M80.808,388.9c2.734-2.758,5.209-5.324,7.776-7.793a3.421,3.421,0,0,1,2.221-1.054,3.026,3.026,0,0,1,1.962,1.384c.591.954.107,1.939-.66,2.709q-3.918,3.936-7.848,7.861c-.1.1-.206.18-.312.267a4.547,4.547,0,0,1-6.136,0c-1.8-1.617-3.494-3.357-5.165-5.109A2.325,2.325,0,1,1,76,383.956c1.6,1.559,3.12,3.2,4.812,4.948" transform="translate(-52.102 -275.414)" fill="#b2945e"/>
    <path id="Trazado_627" data-name="Trazado 627" d="M274.922,234.641c-2.423,0-4.845.007-7.268-.006a6.91,6.91,0,0,1-1.5-.126,2.278,2.278,0,0,1-.126-4.4,4.809,4.809,0,0,1,1.353-.168q7.542-.017,15.084,0a4.984,4.984,0,0,1,.817.071,2.249,2.249,0,0,1,2.1,2.287,2.176,2.176,0,0,1-2.24,2.279c-2.739.082-5.483.024-8.225.024v.039" transform="translate(-191.61 -166.629)" fill="#b2945e"/>
    <path id="Trazado_628" data-name="Trazado 628" d="M189.518,277.182c-2.561,0-5.123.013-7.684,0-1.724-.013-2.82-.95-2.805-2.341s1.108-2.323,2.845-2.33q7.684-.029,15.368,0c1.746.006,2.833.914,2.868,2.3.036,1.437-1.077,2.361-2.907,2.371-2.561.014-5.122,0-7.684,0" transform="translate(-129.737 -197.468)" fill="#b2945e"/>
  </g>
</svg>
