<svg id="Grupo_18929" data-name="Grupo 18929" xmlns="http://www.w3.org/2000/svg" xmlns:xlink="http://www.w3.org/1999/xlink" width="140.664" height="140.692" viewBox="0 0 140.664 140.692">
  <defs>
    <clipPath id="clip-path">
      <rect id="Rectángulo_2974" data-name="Rectángulo 2974" width="140.664" height="140.692" fill="#b2945e"/>
    </clipPath>
  </defs>
  <g id="Grupo_3070" data-name="Grupo 3070" clip-path="url(#clip-path)">
    <path id="Trazado_643" data-name="Trazado 643" d="M277.906,275.859a3.956,3.956,0,0,1-3.694,1.787q-38.155-.06-76.31-.029c-3.029,0-3.95-1.065-3.49-4.073.494-3.23,1.012-6.456,1.523-9.683.648-4.085,3-7,6.331-9.259,3.514-2.382,7.527-3.367,11.6-4.237,2.525-.54,5.036-1.156,7.535-1.81a8.564,8.564,0,0,0,5.679-4.619c-9.2-5.242-12.374-13.853-13.346-23.811-.867,0-1.689.024-2.509,0-1.813-.064-3.033-1.176-3.016-2.716.016-1.5,1.17-2.539,2.93-2.62.433-.02.869,0,1.447,0,.132-1.044.206-2.006.379-2.949a16.474,16.474,0,0,1,11.728-13.5c.6-.2,1.211-.375,1.827-.523.811-.194,1.317-.471,1.386-1.507a2.48,2.48,0,0,1,2.694-2.364q5.49-.1,10.983,0c1.645.032,2.381.9,2.751,2.506a2.044,2.044,0,0,0,1.067,1.212c1.294.554,2.711.833,3.987,1.42a16.215,16.215,0,0,1,9.792,13.249c.107.769.2,1.538.3,2.284,3.662.6,4.592,1.167,4.369,2.94-.427,3.39-3.251,2.309-5.377,2.667-.991,9.8-4.123,18.439-13.365,23.722a8.2,8.2,0,0,0,5.669,4.615c3.734.939,7.539,1.624,11.222,2.724a36.215,36.215,0,0,1,7.5,3.159,13.611,13.611,0,0,1,6.969,11.052c.3,2.791.95,5.544,1.443,8.314Zm-58.7-55.683a24.964,24.964,0,0,0,4.7,14.054c6.459,8.673,18.58,8.421,24.744-.465a24.393,24.393,0,0,0,3.874-9.552c.245-1.308.369-2.639.559-4.038Zm26.05,52.128,4.475-18.248c-1.883-1.408-3.322-1.021-4.866.421-1.992,1.862-4.211,3.481-6.333,5.2-1.9,1.543-2.826,1.541-4.761-.02-2.165-1.747-4.443-3.376-6.452-5.288a3.361,3.361,0,0,0-4.769-.442,1.132,1.132,0,0,0-.039.394c1.456,5.764,2.909,11.529,4.411,17.281a1.178,1.178,0,0,0,.883.668c5.756.04,11.513.03,17.449.03m16.045-.059V256.557l-6.332-1.414-4.183,17.1Zm-50.449-15.672v15.62H221.51l-4.342-17.057-6.32,1.437m28.033-57.19h-5.657v15.294h5.657Zm15.008,15.3c.318-5.708-4.452-11.428-9.486-11.407v11.407Zm-26.177,0V203.136c-5.77.938-10.25,6.435-9.453,11.549Zm8.452,40.031,6.163-5c-.791-1.269-1.454-2.4-2.2-3.479a1.452,1.452,0,0,0-.994-.566c-2.085-.059-4.173-.056-6.259-.031a1.13,1.13,0,0,0-.825.39c-.759,1.165-1.452,2.371-2.192,3.6l6.307,5.085m-30.834,4.333c-1.724,1.1-3.167,2.292-3.61,4.08-.732,2.954-1.149,5.985-1.713,9.057h5.323Zm61.48.04v13.133h5.272c-.485-2.9-.852-5.741-1.464-8.529-.446-2.034-1.916-3.406-3.808-4.6" transform="translate(-137.242 -136.954)" fill="#b2945e"/>
    <path id="Trazado_644" data-name="Trazado 644" d="M72.677,0c3.074.486,6.17.865,9.217,1.482A59.031,59.031,0,0,1,97.8,7.22a6.339,6.339,0,0,1,3.672,6.012q-.019,15.823-.009,31.646c0,2-1.009,3.177-2.639,3.178-1.676,0-2.681-1.218-2.683-3.311q-.01-15.457.016-30.914a1.967,1.967,0,0,0-1.176-2.087c-17.561-8.526-35.119-8.64-52.708-.08A2.045,2.045,0,0,0,40.956,13.8q.037,58.238.021,116.476v1.5c.641,0,1.162,0,1.684,0,2.1,0,4.2-.035,6.3.031a2.536,2.536,0,0,1,2.641,2.558,2.664,2.664,0,0,1-2.648,2.746c-.339.029-.683.014-1.025.014q-20.365,0-40.73,0c-4.763,0-7.2-2.447-7.2-7.22Q0,91.664,0,53.425C0,48.73,2.431,46.3,7.122,46.3H35.616v-1.77c0-10.158.057-20.317-.032-30.474a7.245,7.245,0,0,1,4.386-7.236A64.244,64.244,0,0,1,63.049.258C63.527.216,64,.088,64.471,0ZM35.526,131.775V51.613H34.013q-13.257,0-26.513,0c-2.137,0-2.181.046-2.181,2.257q0,37.865,0,75.731c0,2.081.085,2.171,2.117,2.172q13.257,0,26.513,0Z" transform="translate(0)" fill="#b2945e"/>
    <path id="Trazado_645" data-name="Trazado 645" d="M205.57,78.11c-2.782,0-5.565.011-8.347,0-1.963-.01-3.149-1.047-3.123-2.691.025-1.59,1.187-2.6,3.06-2.608q8.493-.017,16.986,0c1.9,0,3.016.995,3.031,2.617s-1.1,2.666-2.968,2.679c-2.88.021-5.76.005-8.64.006" transform="translate(-137.1 -51.42)" fill="#b2945e"/>
    <path id="Trazado_646" data-name="Trazado 646" d="M205.8,145.563c2.782,0,5.564-.017,8.346,0,1.915.015,3.014.991,3.028,2.619s-1.106,2.682-2.97,2.688q-8.566.027-17.132,0a2.678,2.678,0,0,1-2.975-2.7,2.639,2.639,0,0,1,2.916-2.6c2.928-.028,5.857-.008,8.786-.009" transform="translate(-137.102 -102.812)" fill="#b2945e"/>
    <path id="Trazado_647" data-name="Trazado 647" d="M200.428,223.64c-1.215,0-2.433.04-3.646-.011a2.646,2.646,0,0,1-2.685-2.684,2.593,2.593,0,0,1,2.74-2.6c2.333-.041,4.668-.043,7,.005A2.609,2.609,0,0,1,206.533,221a2.672,2.672,0,0,1-2.75,2.63c-1.116.043-2.236.008-3.354.008" transform="translate(-137.099 -154.202)" fill="#b2945e"/>
    <path id="Trazado_648" data-name="Trazado 648" d="M200.242,296.431c-1.118,0-2.238.035-3.354-.009a2.7,2.7,0,0,1-2.8-2.734,2.6,2.6,0,0,1,2.777-2.567q3.426-.059,6.854,0a2.638,2.638,0,0,1,2.808,2.545,2.735,2.735,0,0,1-2.785,2.761c-.1.006-.194,0-.292,0h-3.208" transform="translate(-137.093 -205.61)" fill="#b2945e"/>
    <path id="Trazado_649" data-name="Trazado 649" d="M198.5,369.107a15.545,15.545,0,0,1-2.04-.015,2.66,2.66,0,0,1-2.385-2.69,2.568,2.568,0,0,1,2.482-2.563,29.9,29.9,0,0,1,3.791-.014,2.644,2.644,0,0,1,2.618,2.605,2.725,2.725,0,0,1-2.57,2.686,18.632,18.632,0,0,1-1.9.011v-.02" transform="translate(-137.085 -256.947)" fill="#b2945e"/>
    <path id="Trazado_650" data-name="Trazado 650" d="M54.917,381.32c-1.123,0-2.247.024-3.369-.006a2.65,2.65,0,0,1-2.885-2.642,2.554,2.554,0,0,1,2.825-2.658q3.368-.046,6.738,0a2.594,2.594,0,0,1,2.825,2.527,2.68,2.68,0,0,1-2.765,2.776c-.1.006-.2,0-.293,0H54.917" transform="translate(-34.372 -265.577)" fill="#b2945e"/>
    <path id="Trazado_651" data-name="Trazado 651" d="M54.814,235.713c-1.172,0-2.345.042-3.515-.008a2.574,2.574,0,0,1-2.639-2.713,2.542,2.542,0,0,1,2.631-2.567c2.392-.05,4.786-.055,7.177.006a2.567,2.567,0,0,1,2.579,2.628,2.593,2.593,0,0,1-2.572,2.64c-1.218.06-2.441.012-3.662.014" transform="translate(-34.37 -162.731)" fill="#b2945e"/>
    <path id="Trazado_652" data-name="Trazado 652" d="M54.842,308.518c-1.123,0-2.247.025-3.369-.006a2.617,2.617,0,0,1-2.812-2.7,2.548,2.548,0,0,1,2.751-2.591q3.442-.056,6.885,0a2.589,2.589,0,0,1,2.752,2.6,2.65,2.65,0,0,1-2.838,2.686c-1.122.029-2.246.006-3.369.006" transform="translate(-34.371 -214.158)" fill="#b2945e"/>
  </g>
</svg>
