<svg id="Grupo_18938" data-name="Grupo 18938" xmlns="http://www.w3.org/2000/svg" xmlns:xlink="http://www.w3.org/1999/xlink" width="94" height="126" viewBox="0 0 94 126">
  <defs>
    <clipPath id="clip-path">
      <rect id="Rectángulo_4880" data-name="Rectángulo 4880" width="94" height="126" fill="#b2945e"/>
    </clipPath>
  </defs>
  <g id="Grupo_18937" data-name="Grupo 18937" clip-path="url(#clip-path)">
    <path id="Trazado_4381" data-name="Trazado 4381" d="M123.644,0a7.392,7.392,0,0,1,3.115,1.681,5.812,5.812,0,0,1,1.768,4.2c.011,2.333,0,4.665,0,7V75.655h-3.937v-.773q0-34.221,0-68.441c0-1.842-.662-2.5-2.521-2.5l-69.725,0c-1.783,0-2.459.679-2.459,2.5q0,33.964,0,67.928c0,1.343,0,1.343-1.353,1.343H45.949v-.74q0-34.509,0-69.019A5.883,5.883,0,0,1,50.308.2c.18-.051.351-.13.526-.2Z" transform="translate(-40.048)" fill="#b2945e"/>
    <path id="Trazado_4382" data-name="Trazado 4382" d="M275.393,622.667a2.576,2.576,0,0,1-2.674,1.421c-4.065-.048-8.131-.018-12.2-.018h-.807v29.488h.786c2.953,0,5.906-.006,8.858,0a1.926,1.926,0,0,1,2.079,1.756,1.9,1.9,0,0,1-1.863,2.156q-5.1.04-10.206-.009a3.782,3.782,0,0,1-2.773-1.427,1.3,1.3,0,0,0-.847-.393q-3.915-.045-7.831-.008a2.418,2.418,0,0,1-2.3-1.3c-3.772-6.317-7.578-12.614-11.357-18.927a.956.956,0,0,0-.967-.537c-1.24.031-2.482.028-3.723,0a1.5,1.5,0,0,0-1.191.469c-1.395,1.388-2.879,2.691-4.222,4.127a8.96,8.96,0,0,1-5.359,2.761,14.334,14.334,0,0,1-6.109-.051,7.023,7.023,0,0,1-4.7-3.684,2,2,0,0,1,.366-2.586c3.67-3.92,7.327-7.852,11.031-11.739a9.558,9.558,0,0,1,7.005-3.028c5.52-.064,11.04-.03,16.561-.014a10,10,0,0,1,4.506,1.124c1.432.722,2.9,1.381,4.275,2.206,1.267.763,2.585.538,4,.577,0-.356,0-.648,0-.94a3.9,3.9,0,0,1,3.938-3.967c4.536-.019,9.072,0,13.609-.012a2.332,2.332,0,0,1,2.109,1.4Zm-63.324,15.042a17.427,17.427,0,0,0,2.056.734,11.392,11.392,0,0,0,4.83-.28,3.892,3.892,0,0,0,1.987-1.089c1.844-1.816,3.7-3.627,5.6-5.382a2.689,2.689,0,0,1,1.568-.717c2.308-.078,4.621-.039,6.932-.029a1.918,1.918,0,0,1,1.7.974c.18.291.359.582.536.875q5.522,9.184,11.035,18.373a.912.912,0,0,0,.9.527c1.99-.028,3.98-.012,5.97-.016.164,0,.327-.026.5-.041V628.977c-.577,0-1.109-.028-1.638.006a7.06,7.06,0,0,1-3.934-.943c-1.405-.771-2.82-1.541-4.292-2.169a16.441,16.441,0,0,0-3.007-.8,6.2,6.2,0,0,0-1.281-.023q-7.286,0-14.572,0a6.579,6.579,0,0,0-5.08,2.188c-2.058,2.235-4.153,4.434-6.232,6.649l-3.582,3.817" transform="translate(-181.01 -540.483)" fill="#b2945e"/>
    <path id="Trazado_4383" data-name="Trazado 4383" d="M35.313,666.29c-.219-.071-.434-.156-.656-.212a6.369,6.369,0,0,1-3.85-2.884c-2.425-3.7-4.894-7.379-7.371-11.048a1.443,1.443,0,0,0-.891-.621c-.929-.083-1.869-.029-2.819-.029a12.1,12.1,0,0,1-.242,1.244,3.871,3.871,0,0,1-3.642,2.751c-3.295.024-6.589.019-9.884,0a1.966,1.966,0,1,1-.007-3.931c2.974-.023,5.947-.011,8.921-.012h.81V624.039h-.754c-4.108,0-8.216-.03-12.323.019A2.51,2.51,0,0,1,0,622.63v-1.156a2.668,2.668,0,0,1,2.76-1.4c4.044.047,8.09.063,12.133,0,2.243-.035,3.873.728,4.662,2.966H33.914a5.284,5.284,0,0,1-.331.457c-.961,1.034-1.909,2.082-2.905,3.083a1.466,1.466,0,0,1-.932.394c-3.081.029-6.163.018-9.245.018h-.8v20.517c.69,0,1.348.016,2,0a5.648,5.648,0,0,1,5.306,2.83c2.334,3.66,4.8,7.236,7.215,10.845a2.56,2.56,0,0,0,3.2,1,1.5,1.5,0,0,0,.738-2.4c-1.009-1.461-2.083-2.878-3.056-4.362a3.025,3.025,0,0,1-.477-1.6,1.792,1.792,0,0,1,1.411-1.635,1.987,1.987,0,0,1,2.185.852q2.622,3.687,5.232,7.384a2.6,2.6,0,0,0,3.078,1.084,1.451,1.451,0,0,0,.85-2.408c-1.3-1.885-2.645-3.737-3.958-5.612a1.949,1.949,0,0,1-.042-2.338,1.808,1.808,0,0,1,2.091-.733,2.985,2.985,0,0,1,1.273.986c1.782,2.434,3.5,4.911,5.261,7.363a2.55,2.55,0,0,0,3.19.853,1.579,1.579,0,0,0,.712-2.595q-2.636-3.638-5.264-7.282a2,2,0,0,1,.3-2.95,2.023,2.023,0,0,1,2.9.638q3.339,4.232,6.711,8.439a26.788,26.788,0,0,0,1.835,1.965,6.413,6.413,0,0,0,3.572,1.712,5.472,5.472,0,0,1-2.937,1.2,27.408,27.408,0,0,1-2.861-.139.772.772,0,0,0-.571.172c-2.259,3.029-5.018,3.753-8.7,2.22a6.313,6.313,0,0,1-4.523,2.545,6.716,6.716,0,0,1-5.016-1.521A6.839,6.839,0,0,1,37.5,666.29Z" transform="translate(0 -540.446)" fill="#b2945e"/>
    <path id="Trazado_4384" data-name="Trazado 4384" d="M255.338,405.868h23.11c1.714,0,2.421.7,2.42,2.4q0,3.563,0,7.125a2.021,2.021,0,0,1-2.239,2.277q-23.3,0-46.6,0a2,2,0,0,1-2.278-2.287q0-3.659,0-7.318a1.971,1.971,0,0,1,2.222-2.2q11.683,0,23.366,0m-21.672,3.984c0,1.087,0,2.13,0,3.173,0,.209.021.417.033.647h43.177v-3.82Z" transform="translate(-200.245 -353.749)" fill="#b2945e"/>
    <path id="Trazado_4385" data-name="Trazado 4385" d="M255.321,160.869H278.5c1.638,0,2.358.712,2.359,2.335q0,3.627,0,7.254a2,2,0,0,1-2.231,2.217q-23.3,0-46.6,0a1.993,1.993,0,0,1-2.286-2.278q-.005-3.659,0-7.318a1.972,1.972,0,0,1,2.22-2.208q11.683,0,23.366,0m21.563,3.985H233.69v3.819h43.194Z" transform="translate(-200.231 -140.211)" fill="#b2945e"/>
    <path id="Trazado_4386" data-name="Trazado 4386" d="M255.323,295.084H232.15c-1.74,0-2.414-.669-2.415-2.4q0-3.595,0-7.189a1.978,1.978,0,0,1,2.221-2.219q23.366,0,46.732.006a1.99,1.99,0,0,1,2.168,2.213q0,3.659,0,7.318a2,2,0,0,1-2.295,2.269q-11.619,0-23.237,0m21.549-7.824H233.707v3.864h43.165Z" transform="translate(-200.232 -246.9)" fill="#b2945e"/>
    <path id="Trazado_4387" data-name="Trazado 4387" d="M111.866,194.882c1.287-.959,2.515-1.884,3.755-2.795a1.978,1.978,0,1,1,2.352,3.155q-2.435,1.835-4.882,3.653a2.005,2.005,0,0,1-2.887-.151q-1.2-1.108-2.38-2.247a1.97,1.97,0,1,1,2.679-2.886c.448.395.874.814,1.363,1.271" transform="translate(-93.371 -166.975)" fill="#b2945e"/>
    <path id="Trazado_4388" data-name="Trazado 4388" d="M111.686,322a6.139,6.139,0,0,1-1.307-.658c-.91-.777-1.77-1.613-2.624-2.452a1.968,1.968,0,1,1,2.707-2.857,8.9,8.9,0,0,1,.881.841c.347.406.627.426,1.061.079,1.052-.841,2.143-1.634,3.23-2.429a1.973,1.973,0,1,1,2.356,3.145c-1.669,1.267-3.342,2.53-5.037,3.763a6.9,6.9,0,0,1-1.268.568" transform="translate(-93.363 -273.699)" fill="#b2945e"/>
    <path id="Trazado_4389" data-name="Trazado 4389" d="M111.848,439.747c1.294-.966,2.554-1.919,3.827-2.854a1.967,1.967,0,1,1,2.5,3.034c-1.757,1.365-3.545,2.69-5.344,4a1.887,1.887,0,0,1-2.478-.167c-.887-.806-1.765-1.622-2.615-2.466a1.934,1.934,0,0,1-.1-2.771,1.964,1.964,0,0,1,2.818-.065c.463.406.905.837,1.391,1.289" transform="translate(-93.35 -380.382)" fill="#b2945e"/>
    <path id="Trazado_4390" data-name="Trazado 4390" d="M660.4,823.194a1.971,1.971,0,1,1,1.952-1.966,1.971,1.971,0,0,1-1.952,1.966" transform="translate(-573.873 -714.05)" fill="#b2945e"/>
    <path id="Trazado_4391" data-name="Trazado 4391" d="M47.91,685.429a1.963,1.963,0,1,1,.072-3.926,1.963,1.963,0,0,1-.072,3.926" transform="translate(-40.065 -593.989)" fill="#b2945e"/>
  </g>
</svg>
