<svg id="Grupo_18930" data-name="Grupo 18930" xmlns="http://www.w3.org/2000/svg" xmlns:xlink="http://www.w3.org/1999/xlink" width="156.979" height="111.472" viewBox="0 0 156.979 111.472">
  <defs>
    <clipPath id="clip-path">
      <rect id="Rectángulo_2977" data-name="Rectángulo 2977" width="156.979" height="111.472" fill="#b2945e"/>
    </clipPath>
  </defs>
  <g id="Grupo_3072" data-name="Grupo 3072" clip-path="url(#clip-path)">
    <path id="Trazado_653" data-name="Trazado 653" d="M45.513,50.651V15.268c-2.744-.411-4.327-1.747-4.9-4.133a4.129,4.129,0,0,1-.078-.935c-.009-1.71.062-3.424-.024-5.13A4.854,4.854,0,0,1,45.577,0C54.15.04,62.723.015,71.3.014L111.33.008a4.755,4.755,0,0,1,5.007,3.728,3.778,3.778,0,0,1,.095.865c.011,1.62-.083,3.247.033,4.859a5.288,5.288,0,0,1-5.009,5.807V50.643h.78c13.075,0,26.15.019,39.224-.015a5.236,5.236,0,0,1,5.4,4.038,7.014,7.014,0,0,1,.1,1.472c0,16.653-.03,33.306.029,49.958a5.271,5.271,0,0,1-5.288,5.334c-6.031-.041-12.062-.008-18.093-.009q-10.8,0-21.6,0-8.975,0-17.95,0-13.6.02-27.2.052c-4.927,0-9.855-.039-14.782-.045q-15.694-.019-31.388-.021-7.662,0-15.325.019a5.1,5.1,0,0,1-4.7-2.608,5.009,5.009,0,0,1-.637-2.649q.016-10.4.006-20.793c0-9.857.03-19.713-.014-29.57a5.162,5.162,0,0,1,3.84-4.986,7.865,7.865,0,0,1,1.6-.162q19.646-.013,39.292-.006ZM91.17,106.3h15.113V15.243H50.708V106.3H65.8v-.722q0-8.98,0-17.959a6.347,6.347,0,0,1,6.514-6.584c4.073-.019,8.147-.01,12.22-.009a6.441,6.441,0,0,1,3.418.838,6.309,6.309,0,0,1,3.211,5.7c.017,5.9.006,11.793.006,17.689V106.3m-86.089,0H45.5V55.746H5.081Zm106.378.005H151.88V55.756H111.459ZM111.4,5.128H45.579v4.916H111.4ZM86.025,106.33c.013-.143.028-.23.028-.316q0-9.314,0-18.627c0-.857-.5-1.285-1.45-1.286q-6.074,0-12.148,0c-1.14,0-1.54.4-1.54,1.539q0,9.01,0,18.02c0,.216.02.433.031.671Z" transform="translate(-0.001 0)" fill="#b2945e"/>
    <path id="Trazado_654" data-name="Trazado 654" d="M600.024,402.375c0-1.373.039-2.747-.009-4.118a4.661,4.661,0,0,1,4.63-4.708q4.219-.061,8.439,0a4.651,4.651,0,0,1,4.643,4.775q0,4.118,0,8.237a4.663,4.663,0,0,1-4.741,4.732q-4.084.013-8.168,0a4.562,4.562,0,0,1-4.7-3.73,16.776,16.776,0,0,1-.094-2.892c-.011-.765,0-1.53,0-2.3m12.6-3.666h-7.544v7.484h7.544Z" transform="translate(-518.989 -340.38)" fill="#b2945e"/>
    <path id="Trazado_655" data-name="Trazado 655" d="M448.752,402.393c0,1.349,0,2.7,0,4.047a4.514,4.514,0,0,1-4.548,4.808c-2.987.075-5.978.017-8.966-.042a4.469,4.469,0,0,1-4.173-4.334c-.069-2.966-.043-5.935-.006-8.9a4.644,4.644,0,0,1,4.619-4.439c2.832-.039,5.666-.048,8.5,0a4.656,4.656,0,0,1,4.579,4.678c-.051,1.392-.009,2.787-.009,4.181Zm-12.592,3.78H443.7v-7.51H436.16Z" transform="translate(-372.819 -340.362)" fill="#b2945e"/>
    <path id="Trazado_656" data-name="Trazado 656" d="M439.931,205.222c-1.461,0-2.923.011-4.384,0a4.6,4.6,0,0,1-4.43-4.382q-.054-4.451,0-8.9a4.644,4.644,0,0,1,4.436-4.4q4.417-.035,8.835,0A4.6,4.6,0,0,1,448.8,192q.021,4.35,0,8.7a4.539,4.539,0,0,1-4.555,4.516c-1.439.008-2.878,0-4.317,0M436.2,200.17h7.538v-7.539H436.2Z" transform="translate(-372.878 -162.192)" fill="#b2945e"/>
    <path id="Trazado_657" data-name="Trazado 657" d="M608.852,205.274c-1.463,0-2.926.021-4.388,0a4.534,4.534,0,0,1-4.429-4.443q-.045-4.388,0-8.777a4.592,4.592,0,0,1,4.56-4.472q4.253-.014,8.507,0a4.655,4.655,0,0,1,4.625,4.638q.011,4.22,0,8.439a4.606,4.606,0,0,1-4.623,4.622c-1.418.01-2.836,0-4.253,0Zm3.8-12.594H605.1v7.536h7.545Z" transform="translate(-518.991 -162.242)" fill="#b2945e"/>
    <path id="Trazado_658" data-name="Trazado 658" d="M212.593,487.595c1.235,0,2.47-.008,3.705,0a2.585,2.585,0,0,1,2.593,2.474,2.421,2.421,0,0,1-2.3,2.515q-4.068.109-8.141,0a2.373,2.373,0,0,1-2.237-2.614,2.562,2.562,0,0,1,2.537-2.371c1.28-.01,2.56,0,3.84,0" transform="translate(-178.366 -421.75)" fill="#b2945e"/>
    <path id="Trazado_659" data-name="Trazado 659" d="M81.5,487.572c1.214,0,2.429-.006,3.643,0a2.492,2.492,0,0,1,2.635,2.4,2.366,2.366,0,0,1-2.38,2.619c-2.672.074-5.349.049-8.021-.035a2.334,2.334,0,0,1-2.2-2.636,2.471,2.471,0,0,1,2.405-2.343c1.3-.026,2.608-.006,3.913-.006Z" transform="translate(-65.03 -421.729)" fill="#b2945e"/>
    <path id="Trazado_660" data-name="Trazado 660" d="M212.523,680.233c-1.237,0-2.475,0-3.712,0a2.557,2.557,0,0,1-2.615-2.369,2.4,2.4,0,0,1,2.377-2.637c2.674-.068,5.351-.058,8.025.013a2.412,2.412,0,0,1,2.253,2.548,2.516,2.516,0,0,1-2.481,2.435c-1.282.023-2.565.005-3.847.005Z" transform="translate(-178.348 -584.008)" fill="#b2945e"/>
    <path id="Trazado_661" data-name="Trazado 661" d="M81.452,680.147c-1.237,0-2.475.006-3.712,0a2.5,2.5,0,0,1-2.568-2.323,2.352,2.352,0,0,1,2.3-2.676q3.976-.12,7.958-.014a2.374,2.374,0,0,1,2.342,2.583,2.484,2.484,0,0,1-2.611,2.431c-1.237.008-2.475,0-3.712,0" transform="translate(-65.016 -583.922)" fill="#b2945e"/>
    <path id="Trazado_662" data-name="Trazado 662" d="M212.545,586.472c-1.282,0-2.564.013-3.846,0a2.5,2.5,0,0,1-.022-5q3.879-.039,7.759,0a2.5,2.5,0,0,1-.046,5c-1.282.015-2.564,0-3.846,0" transform="translate(-178.379 -502.934)" fill="#b2945e"/>
    <path id="Trazado_663" data-name="Trazado 663" d="M81.459,586.482c-1.259,0-2.518.012-3.776,0a2.5,2.5,0,0,1-.048-5.005q3.877-.032,7.755.005a2.5,2.5,0,0,1-.019,5c-1.3.021-2.607,0-3.911,0Z" transform="translate(-65.041 -502.941)" fill="#b2945e"/>
    <path id="Trazado_664" data-name="Trazado 664" d="M868.693,487.6c1.238,0,2.476,0,3.713,0a2.557,2.557,0,0,1,2.583,2.333,2.393,2.393,0,0,1-2.275,2.662c-2.673.086-5.351.032-8.027.036a.546.546,0,0,1-.067-.011,2.543,2.543,0,0,1-2.3-2.611,2.578,2.578,0,0,1,2.594-2.41c1.26-.009,2.521,0,3.781,0" transform="translate(-745.87 -421.751)" fill="#b2945e"/>
    <path id="Trazado_665" data-name="Trazado 665" d="M1000.167,487.572c1.282,0,2.563-.018,3.845.006a2.493,2.493,0,0,1,2.434,2.393,2.347,2.347,0,0,1-2.181,2.592q-4.107.111-8.219-.008a2.337,2.337,0,0,1-2.212-2.561,2.486,2.486,0,0,1,2.488-2.419c1.281-.021,2.563,0,3.845,0" transform="translate(-859.63 -421.727)" fill="#b2945e"/>
    <path id="Trazado_666" data-name="Trazado 666" d="M1000.172,680.157c-1.237,0-2.475.006-3.712,0a2.5,2.5,0,0,1-2.638-2.409,2.382,2.382,0,0,1,2.324-2.594c2-.1,4-.047,6-.051a19.292,19.292,0,0,1,2.087.053,2.411,2.411,0,0,1,2.2,2.658,2.484,2.484,0,0,1-2.479,2.341c-1.26.014-2.52,0-3.78,0" transform="translate(-859.616 -583.932)" fill="#b2945e"/>
    <path id="Trazado_667" data-name="Trazado 667" d="M868.812,680.1c-1.238,0-2.476.01-3.713,0a2.545,2.545,0,0,1-2.654-2.4,2.409,2.409,0,0,1,2.416-2.611q3.943-.116,7.893.007a2.407,2.407,0,0,1,2.347,2.668,2.574,2.574,0,0,1-2.644,2.342c-1.215,0-2.43,0-3.646,0" transform="translate(-745.981 -583.879)" fill="#b2945e"/>
    <path id="Trazado_668" data-name="Trazado 668" d="M868.7,581.543c1.26,0,2.519-.01,3.779,0a2.5,2.5,0,0,1,.058,5q-3.914.037-7.827,0a2.5,2.5,0,0,1,.01-5c1.327-.02,2.654,0,3.981,0" transform="translate(-745.849 -503.01)" fill="#b2945e"/>
    <path id="Trazado_669" data-name="Trazado 669" d="M1000.221,581.518c1.281,0,2.562-.012,3.843,0a2.5,2.5,0,0,1,.081,4.991q-3.978.05-7.956,0a2.5,2.5,0,0,1,.054-4.993c1.326-.022,2.652-.005,3.978-.005Z" transform="translate(-859.653 -502.983)" fill="#b2945e"/>
  </g>
</svg>
