<svg xmlns="http://www.w3.org/2000/svg" viewBox="0 0 100 174.16"><defs><style>.cls-1{fill:#636569;}</style></defs><g id="Layer_2" data-name="Layer 2"><g id="Capa_1" data-name="Capa 1"><path class="cls-1" d="M83.6,151.83c0-.29.12-.23.12-.55-.36.07-.39.16-.3.55Z"/><path class="cls-1" d="M17.92,156.55l.09-.39a2.05,2.05,0,0,0-.78-.16C16.78,156.81,17.68,156.55,17.92,156.55Z"/><path class="cls-1" d="M29.51,161.45h-.05a.77.77,0,0,0-.4.48s0,0,0,0a2.81,2.81,0,0,1,.27,1.28,2.39,2.39,0,0,0,.11.76l0,0h0a.35.35,0,0,1,.16-.06l.1,0h0a2.89,2.89,0,0,0,0-1.58C29.79,162.11,29.68,161.55,29.51,161.45Z"/><path class="cls-1" d="M32.3,160.55a0,0,0,0,0,0-.05.39.39,0,0,0-.33.19c0,.05-.06.08-.09.08a0,0,0,0,0,0,0,3,3,0,0,0,.13.77,2.54,2.54,0,0,1,.13.56c-.27-.32-.91-1-1.32-1h0a.3.3,0,0,0-.25.12v0a5.79,5.79,0,0,0,.25,2.2v0a.44.44,0,0,0,.27.16h.06c.19-.09.15-.57.08-1.24,0-.13,0-.25,0-.35a2.19,2.19,0,0,0,1.34,1.12,0,0,0,0,0,0,0,2.19,2.19,0,0,0,0-1.61A4.05,4.05,0,0,1,32.3,160.55Z"/><path class="cls-1" d="M26.39,161.69a3.15,3.15,0,0,0-1.47-.46h0c-.15,0-.25,0-.28.11s0,.18.11.31h0l.14.06a.58.58,0,0,1,.28.17.45.45,0,0,1,0,.08c-.28,1.07-.36,1.64-.22,1.82a.14.14,0,0,0,.11.06c.38,0,.45-.55.52-1.08a2,2,0,0,1,.18-.73l.1.05c.07,0,.26.14.26.18a.07.07,0,0,0,0,0,.37.37,0,0,0,.42-.21A.35.35,0,0,0,26.39,161.69Z"/><path class="cls-1" d="M28.14,163.44l-.19.05a1.14,1.14,0,0,1,.42-.71c.2-.21.4-.41.35-.71a0,0,0,0,0,0,0l-.2-.06a2.56,2.56,0,0,0-1.31-.14s0,0,0,0,0,0,0,.05-.12.11-.09.32c0,0,0,0,0,0a.79.79,0,0,0,.22.08c.19,0,.32.1.32.21a1.09,1.09,0,0,1-.33.77.56.56,0,0,0-.05.85h.06a1.4,1.4,0,0,1,.78-.13c.39,0,.79,0,1-.31v0C28.89,163.24,28.48,163.35,28.14,163.44Z"/><path class="cls-1" d="M23.77,162.67a1.42,1.42,0,0,1-.35-.22,2.51,2.51,0,0,1,.1-.31c.23-.67.43-1.34.2-1.54s-.26-.07-.49,0l0,0a4.35,4.35,0,0,1-.42,1.15c-.17.37-.31.66-.2.91s.47.44,1.19.63h0c.22-.07.26-.17.34-.34l0-.05a.11.11,0,0,0,0-.05A1.63,1.63,0,0,0,23.77,162.67Z"/><path class="cls-1" d="M20.76,158.77h0a.64.64,0,0,0,.31-.61,1.38,1.38,0,0,0-.77-1.1,1.14,1.14,0,0,0-1.2.2,1.61,1.61,0,0,0-.31,1.13,1,1,0,0,0,.24.69.8.8,0,0,0,.59.46h.08c.1,0,.21-.15.16-.52l0,0a.87.87,0,0,1-.5-.74.62.62,0,0,1,.3-.58.71.71,0,0,1,.74.08v.06C20.4,158.18,20.4,158.57,20.76,158.77Z"/><path class="cls-1" d="M22.64,159.86h0a1.18,1.18,0,0,0-1.13-.92h-.07a1,1,0,0,0-1,.69,1.54,1.54,0,0,0,.51,1.62,1.11,1.11,0,0,0,.62.2,1,1,0,0,0,.5-.14A1.41,1.41,0,0,0,22.64,159.86Zm-1.52.82a1.06,1.06,0,0,1,.09-1.06.29.29,0,0,1,.18-.07.41.41,0,0,1,.2.06h0a.56.56,0,0,1,.5.57.66.66,0,0,1-.56.74h0A.4.4,0,0,1,21.12,160.68Z"/><path class="cls-1" d="M71.87,160.61a.77.77,0,0,0-.4,0l-.2,0a3,3,0,0,1,.41-1.38h0a.06.06,0,0,0,0,0c0-.24-.1-.51-.26-.56s-.18,0-.28.13l-.29,0a1.61,1.61,0,0,0-.79.23.05.05,0,0,0,0,0,.3.3,0,0,0,.09.24.54.54,0,0,0,.43.07,1.55,1.55,0,0,1,.31,0,2.83,2.83,0,0,1-.19.68,1.63,1.63,0,0,0-.16,1s0,0,0,0a1.74,1.74,0,0,0,.45,0,.68.68,0,0,1,.55.17h0l.09-.06c.25-.18.3-.25.17-.64Z"/><path class="cls-1" d="M74,158.47a.07.07,0,0,0,0-.05l-.36-.06h0a4,4,0,0,0-1,2.8s0,0,0,0a.39.39,0,0,0,.35,0,.88.88,0,0,0,.24-.64c.75,0,1.16.26,1.23.74,0,0,0,0,0,0h0l.07,0h0a.37.37,0,0,0,.18,0l.1,0h0s0-.18-.42-1.49C74.23,159.2,74,158.55,74,158.47ZM73.48,160a2.31,2.31,0,0,1,.16-.54c0,.15.11.44.15.57h0l-.25,0Z"/><path class="cls-1" d="M70,161a.05.05,0,0,0,0,0,2.87,2.87,0,0,1-1-1.62v0c-.06-.12-.13-.19-.22-.19h0c-.14,0-.29.17-.43.51-.31.73-.55,2.13-.22,2.49h0c.21,0,.34-.37.46-.73,0-.13.09-.27.13-.35a.58.58,0,0,1,.49,0l.25.09c0,.24.06.4.16.47s.25,0,.49,0l0,0s0,0,0,0A3.61,3.61,0,0,1,70,161Zm-1.1-.6c0,.07-.12.08-.2.07a1.44,1.44,0,0,1,0-.44A.42.42,0,0,1,68.86,160.37Z"/><path class="cls-1" d="M77.65,161.32a6.6,6.6,0,0,1,.08-1.47c0-.12,0-.24,0-.37a0,0,0,0,0,0,0l0,0-.06,0a1.07,1.07,0,0,0-.33-.07s0,0,0,0l0,.07c-.15.47-.59,1.89-.27,2.27a.29.29,0,0,0,.28.09.9.9,0,0,1,.57.12,3.39,3.39,0,0,0,.7.3h0c.26-.13.36-.25.33-.39C78.83,161.5,77.87,161.34,77.65,161.32Z"/><path class="cls-1" d="M77,159.84a.05.05,0,0,0,0,0c0-.05,0-.14,0-.24v-.11a.37.37,0,0,0-.16-.29,2.34,2.34,0,0,0-2-.18l0,0h0a.94.94,0,0,0-.06.29,0,0,0,0,0,.05.05h.07a1,1,0,0,1,.47,0,.26.26,0,0,1,.15.34,3.26,3.26,0,0,0,0,1.8.21.21,0,0,0,.16.08h0a.19.19,0,0,1,.12,0l.1,0a0,0,0,0,0,0,0v-.14a12.46,12.46,0,0,1,.18-1.58.05.05,0,0,0,0,0,.2.2,0,0,1,.09-.16c.14-.08.39,0,.64.1l.11,0Z"/><path class="cls-1" d="M66.64,159.43c-.4,0-.61,1-.74,1.71v0c-.19-.18-.84-.89-.93-1h-.06a.76.76,0,0,0-.26.48s0,0,0,0a3.83,3.83,0,0,1,.71,2,.05.05,0,0,0,0,0,.47.47,0,0,1,.09.06l.09.07h0c.38-.06.34-.36.31-.62a.81.81,0,0,1,0-.49c.11.33.21.48.32.46.26,0,.33-1.13.34-1.42.21,0,.23.48.26.85s0,.68.21.74.26,0,.47-.28c0,0,0,0,0,0a8.63,8.63,0,0,0-.87-2.69Z"/><path class="cls-1" d="M40.83,161.84c-.51-.17-.68.23-.85.65a2.05,2.05,0,0,1-.46.75l-.1,0h-.07a1.3,1.3,0,0,1,.14-1.28,2.37,2.37,0,0,0,.26-.72s0,0,0,0l-.08-.1h0a0,0,0,0,0,0,0,.23.23,0,0,0-.18,0c-.34.13-.69,1-.7,1.67a1,1,0,0,0,.56,1.09.33.33,0,0,0,.15,0,.75.75,0,0,0,.3-.08,2.88,2.88,0,0,0,1.16-1.9A.05.05,0,0,0,40.83,161.84Z"/><path class="cls-1" d="M38.79,161a.35.35,0,0,0,.19-.32.05.05,0,0,0,0-.05,1.23,1.23,0,0,1-.25-.08c-.12-.05-.21-.09-.29,0s-.11.12-.14.27a.38.38,0,0,0-.05.11c-.09.2-.26.6-.71.53a1.26,1.26,0,0,1,0-.57c.05-.24.09-.48,0-.58s-.19-.08-.37,0t0,0a11.72,11.72,0,0,0-.48,2.31c.1.21.19.31.29.3s.22-.31.29-.69a1.84,1.84,0,0,1,.06-.23.55.55,0,0,1,.43.14c.1.12.07.33,0,.53s-.09.51.17.59h0c.46-.1.64-1,.76-1.73C38.73,161.26,38.76,161.09,38.79,161Z"/><path class="cls-1" d="M64.14,167.19c-.21.11-.26.5-.26.88a2.27,2.27,0,0,1-.54-.92,0,0,0,0,0,0,0h-.22c-.23,0-.47,0-.57.35,0,.58-.06,1.17-.06,1.76,0,0,0,0,0,0l.12,0c.09,0,.1,0,.17,0l.1,0s0,0,0,0L63,167.7a4.9,4.9,0,0,1,.81,1.76,0,0,0,0,0,0,0c.1.11.15.16.21.16l.09,0,.13-.05s0,0,0,0a4.34,4.34,0,0,0,.1-1,3,3,0,0,1,.2-1.22,0,0,0,0,0,0-.06A.42.42,0,0,0,64.14,167.19Z"/><path class="cls-1" d="M56.85,168h0c-.44,0-.7.19-.7.52-.24.35-.65,1.94-.28,2.23h0s0,0,0,0c.28-.14.33-.46.38-.77a2.7,2.7,0,0,1,.08-.41,1.25,1.25,0,0,1,.62,0,.53.53,0,0,1,.29.17,2.12,2.12,0,0,0,.31.76s0,0,0,0a.37.37,0,0,0,.2-.07.4.4,0,0,1,.16-.06h0s0,0,0,0A3.89,3.89,0,0,0,56.85,168Zm0,1.13h-.27c-.1-.22-.1-.39,0-.45a.25.25,0,0,1,.3.06A.29.29,0,0,1,56.83,169.09Z"/><path class="cls-1" d="M53.2,168.42a.05.05,0,0,0,0,0,.61.61,0,0,1-.19-.1s0,0-.22,0c0,0,0,0,0,0-.06.31-.12.63-.15.92a1.42,1.42,0,0,1-.47,0H52a6.84,6.84,0,0,1,.06-.76v0a0,0,0,0,0,0,0c-.13-.18-.22-.26-.3-.25s-.12.08-.16.15-.07.12-.11.12a0,0,0,0,0,0,0,5.36,5.36,0,0,1-.08.63c-.1.63-.22,1.41,0,1.7a.34.34,0,0,0,.27.12l0,0a1.68,1.68,0,0,0,.13-.63c0-.28,0-.55.18-.64a.83.83,0,0,0,.43.15h0a5.58,5.58,0,0,1,.08.94h0c.09.21.16.27.25.27a.53.53,0,0,0,.16,0l.12,0a0,0,0,0,0,0,0,13.81,13.81,0,0,0,.1-2C53.2,168.69,53.2,168.56,53.2,168.42Z"/><path class="cls-1" d="M55.19,168.05h0a.43.43,0,0,0-.36.22h0a.08.08,0,0,0,0,0c0,.18,0,.36,0,.56a4.54,4.54,0,0,1-.05,1.28.14.14,0,0,1-.17.08.34.34,0,0,1-.22-.32v0a12.64,12.64,0,0,1-.17-1.77,0,0,0,0,0,0,0,.52.52,0,0,0-.47.39,2.48,2.48,0,0,0,.46,2.25.65.65,0,0,0,.45.19.7.7,0,0,0,.31-.07.21.21,0,0,0,.15-.05c.15-.12.42-.43.34-.66a2.52,2.52,0,0,1,0-.62c.07-.49.16-1.11,0-1.35A.31.31,0,0,0,55.19,168.05Z"/><path class="cls-1" d="M41.49,163.23a1.2,1.2,0,0,0,.2.18c.18.15.39.33.39.49,0,0,0,0,0,0s0,0,0,0a.66.66,0,0,1,.26,0s0,0,0,0a1.64,1.64,0,0,0-.89-1.55h0a.74.74,0,0,0-.53.33,3.24,3.24,0,0,0-.67,2,0,0,0,0,0,0,0,.86.86,0,0,1,.5.33,1.14,1.14,0,0,0,.44.35h0a.05.05,0,0,0,0,0,.34.34,0,0,1,.08-.09l0,0s0,0,0,0a1.49,1.49,0,0,0-.21-.56,1.19,1.19,0,0,1-.18-.85c.11,0,.17.15.24.28s.2.41.48.3c0,0,0,0,0,0a.62.62,0,0,0-.2-.55.63.63,0,0,1-.19-.31,0,0,0,0,0,0,0h0v0C41.39,163.28,41.39,163.27,41.49,163.23Z"/><path class="cls-1" d="M59.7,169c-.3.18-.71.4-.94.25s-.21-.38-.16-.82a.66.66,0,0,1,.21-.46.43.43,0,0,1,.35,0,.36.36,0,0,0,.32,0c.07-.06.1-.17.1-.36,0,0,0,0,0,0a1.28,1.28,0,0,0-1.2-.17,1,1,0,0,0-.44.89c0,.89.16,1.4.48,1.57a.55.55,0,0,0,.28.07,1.83,1.83,0,0,0,1-.4s0,0,0,0l0-.16c0-.11,0-.23.06-.32a0,0,0,0,0,0-.05Z"/><path class="cls-1" d="M61.51,167.2h-.18c-.37,0-.61,0-.67.52h0c-.2.35-.82,1.41-.66,1.91a.32.32,0,0,0,.19.22h0a1.16,1.16,0,0,0,.27-.14s0,0,0,0a2.53,2.53,0,0,0,.09-.35,2.54,2.54,0,0,1,.13-.44,2.79,2.79,0,0,0,.41-.14c.22-.08.38-.14.46-.08s.13.31.1.8l0,0s0,0,0,0a.36.36,0,0,0,.37-.24c.24-.52-.34-1.82-.58-2.08Zm-.09,1.08h-.29a0,0,0,0,1,0-.05.92.92,0,0,1,.22-.44C61.34,167.93,61.39,168.16,61.42,168.28Z"/><path class="cls-1" d="M44,164.73h0l-.23.07a2.08,2.08,0,0,1-.55.15,3.08,3.08,0,0,0,0-1c0-.1,0-.2-.05-.3a.05.05,0,0,0,0,0,.31.31,0,0,0-.3,0c-.21.14-.21.6-.22,1a2.57,2.57,0,0,1-.07.75l-.14.14c-.25.25-.46.47-.22.88,0,0,0,0,0,0a.34.34,0,0,0,.16,0h.11c.21-.08.42-.39.62-.94a4.93,4.93,0,0,0,.85-.1l.38-.06h0a.31.31,0,0,0,.1-.34A.48.48,0,0,0,44,164.73Z"/><path class="cls-1" d="M46.77,166.61a.69.69,0,0,0-.48-.35.83.83,0,0,0-1.11,0,1.53,1.53,0,0,0-.57,1.69.17.17,0,0,0,0,.12c.1.27.69.9,1,.93h.05a1.1,1.1,0,0,0,.29,0,.58.58,0,0,0,.44-.24,0,0,0,0,0,0,0,.63.63,0,0,1,0-.25,0,0,0,0,0,0,0c-.69,0-1.12-.23-1.2-.64a1.07,1.07,0,0,1,.62-1.09.65.65,0,0,1,.84.29v.05s0,0,0,0h.18a.05.05,0,0,0,0,0A.47.47,0,0,0,46.77,166.61Z"/><path class="cls-1" d="M48.08,167.21h0a1.23,1.23,0,0,0-1.22,1,1.44,1.44,0,0,0,.31,1.51,2.71,2.71,0,0,0,1,.29.87.87,0,0,0,.37-.08c.3-.15.48-.5.64-1.22S49,167.53,48.08,167.21ZM48,169.32h0a.62.62,0,0,1-.57-.47.9.9,0,0,1,.24-1,.64.64,0,0,1,.31-.09.47.47,0,0,1,.28.09.89.89,0,0,1,.29.84A.74.74,0,0,1,48,169.32Z"/><path class="cls-1" d="M50,169.72l-.15,0a2,2,0,0,1,.1-.87c.1-.41.19-.79,0-1a.44.44,0,0,0-.4-.12l0,0a6,6,0,0,0-.36,2.36,0,0,0,0,0,0,0,.61.61,0,0,0,.49.18.82.82,0,0,1,.58.24h0a.79.79,0,0,0,.28.06.46.46,0,0,0,.29-.08.17.17,0,0,0,.06-.16h0A1.15,1.15,0,0,0,50,169.72Z"/><path class="cls-1" d="M24.86,50.81A.19.19,0,0,0,25,51l1.29.58h.07a.19.19,0,0,0,.17-.1.2.2,0,0,0-.09-.24l-1-.45.74-.57a.17.17,0,0,0,0-.24.17.17,0,0,0-.24,0l-1,.75A.18.18,0,0,0,24.86,50.81Z"/><path class="cls-1" d="M24.16,51.29a.17.17,0,0,0-.09-.23l-1-.46.74-.57a.17.17,0,0,0,0-.24.17.17,0,0,0-.24,0l-1,.75a.16.16,0,0,0-.07.16.21.21,0,0,0,.1.14l1.3.58H24A.18.18,0,0,0,24.16,51.29Z"/><path class="cls-1" d="M23.42,48.87l1.3.58h.07a.16.16,0,0,0,.16-.1.17.17,0,0,0-.09-.23l-1-.46.74-.56a.18.18,0,0,0,0-.25.17.17,0,0,0-.24,0l-1,.74a.17.17,0,0,0-.07.16A.21.21,0,0,0,23.42,48.87Z"/><path class="cls-1" d="M79.84,42.61a.17.17,0,0,0-.19,0,.16.16,0,0,0-.1.16v1.47a2.17,2.17,0,0,0-.44,0,1.75,1.75,0,0,0-.56.18l-.27-.29a.17.17,0,0,0-.24,0,.17.17,0,0,0,0,.25l.22.24a1.69,1.69,0,0,0-.39.41l0,0-.25-.26a.16.16,0,0,0-.24,0,.17.17,0,0,0,0,.25l.31.33-.51.82a3.22,3.22,0,0,0-1,0,3.13,3.13,0,0,0-1.75,1l-.29-.45a.26.26,0,0,0-.37-.08.26.26,0,0,0-.08.36l.4.62h0l-.72,1.2-.53-.81a.26.26,0,0,0-.36-.08.27.27,0,0,0-.08.37l.67,1-.91,1.52c.14.1.29.19.44.28l.8-1.33a.26.26,0,0,0,.16.07.3.3,0,0,0,.15,0,.26.26,0,0,0,.07-.36l-.09-.14.73-1.21.22.33a.28.28,0,0,0,.23.12.23.23,0,0,0,.14,0,.26.26,0,0,0,.08-.36l-.35-.53a2.6,2.6,0,0,1,4.63,1.43,2.68,2.68,0,0,1-.49,1.71l-.23-.15a.26.26,0,1,0-.29.44l.17.11-.91.93L77.33,52A.27.27,0,0,0,77,52a.26.26,0,0,0,.08.36l.18.12L76.1,53.66l.42.33,1.15-1.18.81.53a.24.24,0,0,0,.14,0,.27.27,0,0,0,.22-.12.27.27,0,0,0-.07-.37l-.72-.47L79,51.5l.82.54a.27.27,0,0,0,.14,0,.27.27,0,0,0,.23-.12.26.26,0,0,0-.08-.36l-.77-.51a3,3,0,0,0,.57-2,3,3,0,0,0-.22-.94h0l.76-.65.41.28.1,0a.17.17,0,0,0,.15-.08.17.17,0,0,0-.06-.24l-.33-.22a1.84,1.84,0,0,0,.29-.42l.35.24.1,0a.17.17,0,0,0,.15-.08.17.17,0,0,0-.06-.24l-.41-.27a1.81,1.81,0,0,0,.07-.52,2,2,0,0,0-.09-.49l1.37-.22a.19.19,0,0,0,.14-.12.17.17,0,0,0-.06-.18l-.77-.67a1,1,0,1,0-1.18-1Zm1,3.36a1.63,1.63,0,0,1,0,.31l-.12-.08a.19.19,0,0,0-.25,0,.17.17,0,0,0,.06.24l.19.13a1.46,1.46,0,0,1-.29.41l-.21-.13a.19.19,0,0,0-.25.05.17.17,0,0,0,.06.24l.12.08-.6.52h0a3.22,3.22,0,0,0-.85-1,3.3,3.3,0,0,0-1.13-.55h0l.38-.63.14.15a.19.19,0,0,0,.13,0,.13.13,0,0,0,.11,0,.16.16,0,0,0,0-.24l-.19-.22.07-.12a1.77,1.77,0,0,1,.33-.34l.23.24a.16.16,0,0,0,.12.06.17.17,0,0,0,.12,0,.17.17,0,0,0,0-.25l-.17-.18a1.21,1.21,0,0,1,.36-.1,1.34,1.34,0,0,1,.4,0v-.1l0,1a.16.16,0,0,0,.06.13.15.15,0,0,0,.11,0h0l1.26-.2-.31.05A1.71,1.71,0,0,1,80.82,46Zm-.9-.68,0-2.16.71.62-.36.47a.1.1,0,0,0,0,.15l.06,0a.1.1,0,0,0,.09,0l.35-.46,0,0a.87.87,0,0,0,.27.23l0,0-.33.43a.1.1,0,0,0,0,.14.09.09,0,0,0,.06,0,.13.13,0,0,0,.09,0l.32-.42L82,45Zm1-2a.67.67,0,0,1,.66-.66.66.66,0,0,1,.65.66.65.65,0,0,1-.65.65.73.73,0,0,1-.3-.07l-.24-.21A.65.65,0,0,1,80.93,43.29Z"/><path class="cls-1" d="M73.85,51.54a.18.18,0,0,0,.17.11h.06l1.33-.49a.19.19,0,0,0,.11-.14.17.17,0,0,0-.06-.16L74.54,50a.18.18,0,0,0-.25,0,.17.17,0,0,0,0,.25l.7.61L74,51.31A.19.19,0,0,0,73.85,51.54Z"/><path class="cls-1" d="M76.19,51.54a.16.16,0,0,0,.16.11h.06l1.34-.49a.22.22,0,0,0,.11-.14.17.17,0,0,0-.06-.16L76.87,50a.18.18,0,1,0-.23.27l.71.61-1.06.39A.18.18,0,0,0,76.19,51.54Z"/><path class="cls-1" d="M75.69,49.68h.06l1.33-.5a.16.16,0,0,0,.11-.13.18.18,0,0,0-.06-.17l-.92-.8a.17.17,0,0,0-.25,0,.16.16,0,0,0,0,.24l.7.61-1.06.4a.17.17,0,0,0-.1.22A.18.18,0,0,0,75.69,49.68Z"/><path class="cls-1" d="M86.12,102.23c0-.17,0-.34,0-.51v-.27c0-.23,0-.47,0-.71l0-.53c0-.14,0-.28,0-.42s0-.56,0-.84v-.09a48.07,48.07,0,0,0-10-26.56,3,3,0,0,0,.7-1.74,2.89,2.89,0,0,0-.72-2.13,3,3,0,0,0-4-.44,32.63,32.63,0,0,0-19-8.87A.81.81,0,0,0,53,59a3,3,0,0,0-2.9-3h0a3,3,0,0,0-3,2.91,1.32,1.32,0,0,0,0,.27,32.63,32.63,0,0,0-19.78,9.64,3,3,0,0,0-2-.68,2.83,2.83,0,0,0-2,1,3,3,0,0,0,.18,4.18,48.78,48.78,0,0,0-9.5,28.56v1.48c0,.17,0,.34,0,.5a2.44,2.44,0,0,0,0,.27c0,.24,0,.48,0,.72s0,.35,0,.53,0,.28,0,.42,0,.56,0,.83v.1c1.53,21.14,15.54,38,33,39.74a.78.78,0,0,0,0,.21,3,3,0,0,0,.83,2.12,2.89,2.89,0,0,0,2.07.91h0a3,3,0,0,0,3-2.91,1.08,1.08,0,0,0,0-.33,32.8,32.8,0,0,0,20.36-10.21,3,3,0,0,0,1.78.59h.24a2.88,2.88,0,0,0,2-1,3,3,0,0,0-.22-4.07,48.94,48.94,0,0,0,9-27.93ZM49.85,146.87H51.1a1.14,1.14,0,0,1-1.09.95h0a1.19,1.19,0,0,1-1.11-1Q49.36,146.87,49.85,146.87ZM15.06,106.42c0-.26,0-.52,0-.77l0-.46c0-.16,0-.32,0-.48s0-.48,0-.73a1.93,1.93,0,0,0,0-.24v-.55l34.53,0v42.17c-17.95-.32-32.8-17.34-34.4-38.82A.61.61,0,0,0,15.06,106.42ZM74.71,70.85q-.69-.8-1.41-1.53a1.08,1.08,0,0,1,1.24.27A1.21,1.21,0,0,1,74.71,70.85ZM84.93,99.06c0,.26,0,.52,0,.77s0,.3,0,.45,0,.33,0,.49l0,.72v.25c0,.14,0,.29,0,.44l-34.54,0V60.09c18,.33,32.81,17.35,34.4,38.83C84.92,99,84.93,99,84.93,99.06ZM50.52,145.38V103.21l34.54,0C84.82,126.32,69.47,145,50.52,145.38Zm-1.05-43.22-34.53,0c.28-23,15.61-41.69,34.53-42Zm.67-43.49H48.9a1.11,1.11,0,0,1,.31-.62,1.12,1.12,0,0,1,.78-.33h0a1.19,1.19,0,0,1,1.11,1ZM25.3,70.76l-.82.94a1.12,1.12,0,0,1,0-1.44,1.16,1.16,0,0,1,1.45-.2C25.74,70.28,25.52,70.51,25.3,70.76Zm50,63.17c.23-.27.45-.54.67-.82a1.13,1.13,0,0,1,0,1.41,1.17,1.17,0,0,1-1.41.27C74.8,134.51,75.05,134.22,75.29,133.93Zm.09-65a2.16,2.16,0,0,1,.55,1.62,2.3,2.3,0,0,1-.45,1.22c-.17-.21-.35-.41-.52-.61a1.56,1.56,0,0,0-.15-1.77h0a1.45,1.45,0,0,0-1-.48,1.48,1.48,0,0,0-.75.17l-.58-.56A2.29,2.29,0,0,1,75.38,68.9ZM50,56.65h0a2.25,2.25,0,0,1,2.2,2.12l-.79-.06A1.54,1.54,0,0,0,50,57.38h0a1.49,1.49,0,0,0-1.46,1.31l-.79,0A2.29,2.29,0,0,1,50,56.65ZM23.72,69.5a2.18,2.18,0,0,1,1.55-.72h.1a2.27,2.27,0,0,1,1.4.47c-.19.17-.38.36-.57.56a1.54,1.54,0,0,0-2,.2h0a1.48,1.48,0,0,0,0,2c-.17.21-.34.42-.49.62A2.29,2.29,0,0,1,23.72,69.5ZM50,148.89h0a2.15,2.15,0,0,1-1.57-.69,2.27,2.27,0,0,1-.64-1.43l.8.06A1.53,1.53,0,0,0,50,148.16h0a1.47,1.47,0,0,0,1.44-1.31l.8,0A2.31,2.31,0,0,1,50,148.89Zm26.8-13.64a2.18,2.18,0,0,1-1.52.78,2.33,2.33,0,0,1-1.48-.39l.54-.58a1.45,1.45,0,0,0,.76.21,1.57,1.57,0,0,0,1.16-.51h0a1.47,1.47,0,0,0,0-1.92l.48-.62A2.28,2.28,0,0,1,76.77,135.25Z"/><path class="cls-1" d="M71.06,47.79l.29.09h.08a.27.27,0,0,0,.25-.18.27.27,0,0,0-.17-.33l-.29-.09a2.24,2.24,0,0,0,0-1A2.3,2.3,0,0,0,70,44.77a2.29,2.29,0,0,0-2.89.65L66.76,45a.26.26,0,0,0-.37,0,.27.27,0,0,0,0,.37l.47.51a.61.61,0,0,0,0,.12l-.13.39-.59-.64a.27.27,0,0,0-.39.36l.78.85-.27.83.48.21.2-.61a.23.23,0,0,0,.17.07.24.24,0,0,0,.18-.07.27.27,0,0,0,0-.37l-.18-.19.18-.51.29.32a.25.25,0,0,0,.2.09.28.28,0,0,0,.17-.07.27.27,0,0,0,0-.38l-.44-.47a1.74,1.74,0,0,1,.83-.66,1.81,1.81,0,0,1,1.46.08,1.79,1.79,0,0,1,.91,1.15,1.85,1.85,0,0,1,0,.74l-.85-.27a.26.26,0,0,0-.33.17.25.25,0,0,0,.17.33l.84.27a1.18,1.18,0,0,1-.11.19l-.16.22-.64-.2a.25.25,0,0,0-.33.17.26.26,0,0,0,.17.33l.47.15-.6.81.47.25.66-.89.64.2h.08a.27.27,0,0,0,.25-.18.26.26,0,0,0-.17-.33l-.47-.15.06-.08A3.72,3.72,0,0,0,71.06,47.79Z"/><path class="cls-1" d="M11.82,117.68a3,3,0,1,0,3,3A3,3,0,0,0,11.82,117.68Zm0,5.22a2.26,2.26,0,1,1,2.26-2.25A2.26,2.26,0,0,1,11.82,122.9Z"/><path class="cls-1" d="M11.82,119.17a1.48,1.48,0,1,0,0,3,1.48,1.48,0,0,0,0-3Zm0,2.6a1.13,1.13,0,1,1,0-2.25,1.13,1.13,0,0,1,0,2.25Z"/><path class="cls-1" d="M30.53,146.28a3,3,0,1,0,3,3A3,3,0,0,0,30.53,146.28Zm0,5.22a2.26,2.26,0,1,1,2.26-2.26A2.26,2.26,0,0,1,30.53,151.5Z"/><path class="cls-1" d="M30.53,147.77a1.48,1.48,0,1,0,0,2.95,1.48,1.48,0,0,0,0-2.95Zm0,2.6a1.13,1.13,0,1,1,0-2.25,1.13,1.13,0,0,1,0,2.25Z"/><path class="cls-1" d="M69.16,144.32a3,3,0,1,0,3,3A3,3,0,0,0,69.16,144.32Zm0,5.22a2.26,2.26,0,1,1,2.26-2.25A2.26,2.26,0,0,1,69.16,149.54Z"/><path class="cls-1" d="M69.16,145.81a1.48,1.48,0,1,0,0,2.95,1.48,1.48,0,0,0,0-2.95Zm0,2.6a1.13,1.13,0,0,1,0-2.25,1.13,1.13,0,0,1,0,2.25Z"/><path class="cls-1" d="M88.19,88a3,3,0,1,0-3-3A3,3,0,0,0,88.19,88Zm0-5.23A2.26,2.26,0,1,1,85.93,85,2.27,2.27,0,0,1,88.19,82.73Z"/><path class="cls-1" d="M88.19,86.47a1.48,1.48,0,0,0,0-3,1.48,1.48,0,1,0,0,3Zm0-2.6a1.13,1.13,0,0,1,0,2.25,1.13,1.13,0,1,1,0-2.25Z"/><path class="cls-1" d="M32.07,58.17l1.65-.66c.88-.39,1.19.09.59.63A18.91,18.91,0,0,1,31.53,60c.2.29.4.54.6.83a11,11,0,0,0,2.89-2c1.28-1.13.46-3.06-1.5-2.24l-1.31.57c-.68.39-1-.06-.34-.54A21.51,21.51,0,0,1,34.45,55c-.17-.31-.36-.57-.53-.85A16.16,16.16,0,0,0,31,55.9,1.26,1.26,0,0,0,32.07,58.17Z"/><path class="cls-1" d="M48.19,54.08H51l.51.88,1.36,0-3.43-5L46.34,55h1.22Zm1.33-2.35.88,1.41H48.64Z"/><polygon class="cls-1" points="58.4 55.27 58.46 54.31 55.08 54.08 55.34 50.11 54.32 50.05 53.98 54.99 55.03 55.05 58.4 55.27"/><path class="cls-1" d="M65.84,58.11l1-.45,2.35,1.47v1l1.14.71-.26-6-5.31,2.67Zm3.4-1.76,0,1.67-1.5-.93Z"/><path class="cls-1" d="M61.75,56.55c2.1.65,3.43-.11,3.8-1.45s-.54-2.78-2.41-3.4-3.52.08-3.89,1.41S59.68,55.92,61.75,56.55ZM60.36,53.4c.23-.82,1.33-1.14,2.5-.77s1.81,1.36,1.59,2.16S63.28,56,62,55.61,60.13,54.22,60.36,53.4Z"/><polygon class="cls-1" points="38.97 57.17 37.18 52.72 36.3 53.06 38.09 57.51 38.97 57.17"/><polygon class="cls-1" points="41.35 56.41 40.64 53 44.44 55.5 45.24 55.36 44.44 50.65 43.56 50.76 44.13 54.16 40.33 51.75 39.45 51.92 40.41 56.55 41.35 56.41"/><polygon class="cls-1" points="38.39 153.62 39.39 153.93 40.78 149.36 39.78 149.05 38.39 153.62"/><polygon class="cls-1" points="59.19 149.25 60.61 153.82 61.6 153.5 60.18 148.94 59.19 149.25"/><path class="cls-1" d="M47.22,152.48a1.56,1.56,0,0,0,.22-.88c0-.76-.36-1.33-1.47-1.36s-1.51.6-1.51,1.36a1.43,1.43,0,0,0,.2.77,1.65,1.65,0,0,0-.71,1.36c0,.88.46,1.59,1.91,1.65s2-.77,2-1.65A1.31,1.31,0,0,0,47.22,152.48ZM46,151.15c.4,0,.48.2.48.51s-.06.45-.31.51c-.09,0-.17,0-.28,0h-.12c-.23-.06-.28-.2-.28-.45S45.54,151.12,46,151.15Zm-.11,3.29c-.6,0-.83-.26-.83-.68s.23-.74.83-.74.87.28.87.74S46.48,154.47,45.86,154.44Z"/><path class="cls-1" d="M55.42,152a1.66,1.66,0,0,0,.08-.91c-.14-.71-.68-1.22-1.79-1.05l-1.39.14,0,1,1.47-.2s0,0,0,0c.43,0,.63-.09.68.22s-.08.43-.42.51l-1.51.26.12.91,1.44-.29c.8-.14,1.14.2,1.22.63s-.28.71-1.07.85a2.18,2.18,0,0,1-1.88-.54l-.51.88a3.43,3.43,0,0,0,2.64.59c1.56-.25,2-1.07,1.85-1.95A1.29,1.29,0,0,0,55.42,152Z"/><path class="cls-1" d="M22,115.32a.25.25,0,0,0,.19.07l1.52,0,1.33.46h.09a.3.3,0,0,0,.15,0,.26.26,0,0,0,.11-.21,16.55,16.55,0,0,1,.12-2.08l2.87.07h0a1.78,1.78,0,0,0,0-3.56l-1.67,0a1,1,0,0,1,.08-.11,2,2,0,0,1,.9-.62,2.51,2.51,0,0,1,3.05,1.43,8,8,0,0,1,.65,2.54.24.24,0,0,0,.11.19l.77.52a.29.29,0,0,0,.27,0l.94-.48.85.33a.23.23,0,0,0,.24,0,.3.3,0,0,0,.12-.21,10.33,10.33,0,0,0-.31-3,11.28,11.28,0,0,0-.61-1.46,5.84,5.84,0,0,0-6.4-3.14,5,5,0,0,0-.66.2,7.52,7.52,0,0,0-3.95,3.75l-2.27,0a.28.28,0,0,0-.19.07.25.25,0,0,0-.08.18l-.06,3a.27.27,0,0,0,.26.27l1.49,0c-.05.54-.07,1.1-.07,1.71A.27.27,0,0,0,22,115.32Zm2.86-.11-1-.35-.09,0h0l-1.3,0c0-.5,0-1,.07-1.42l2.46,0A15,15,0,0,0,24.88,115.21Zm-1-6.08a6.33,6.33,0,0,1,3.1-2.5,3.66,3.66,0,0,1,.59-.17,5.31,5.31,0,0,1,5.81,2.86A10.62,10.62,0,0,1,34,110.7a9.35,9.35,0,0,1,.29,2.47l-.6-.24a.28.28,0,0,0-.22,0l-.91.47L32,113a8.37,8.37,0,0,0-.68-2.58,3,3,0,0,0-3.71-1.7,2.52,2.52,0,0,0-1.13.78,4.56,4.56,0,0,0-.31.42l-2.73-.06A6.53,6.53,0,0,1,23.9,109.13Zm-3.06,1.24,7.63.17a1.25,1.25,0,0,1,0,2.5l-7.62-.17Z"/><path class="cls-1" d="M26.59,124h.06v2.12a.27.27,0,0,0,.14.23.28.28,0,0,0,.13,0,.23.23,0,0,0,.14,0l1.13-.76,1.66.64a.26.26,0,0,0,.24,0,.25.25,0,0,0,.12-.22v-2h.11c2.44-.2,4.69-3.75,4.63-7.3a.27.27,0,0,0-.16-.24l-1-.44a.29.29,0,0,0-.24,0l-.83.53-.79-.68a.26.26,0,0,0-.28,0,.26.26,0,0,0-.15.25,13.23,13.23,0,0,1-.06,1.6,3,3,0,0,1-1.21,2.07v-.48a1.78,1.78,0,0,0-3.56,0v.31a3,3,0,0,1-1-2,6.71,6.71,0,0,1,0-.78.27.27,0,0,0-.08-.19.33.33,0,0,0-.2-.08l-.79,0-.4-.44A.27.27,0,0,0,24,116l-1.74,0a.26.26,0,0,0-.26.26C21.92,119.47,23.1,123.36,26.59,124Zm5.35-6.28c0-.34.06-.7.07-1.09l.5.42a.26.26,0,0,0,.31,0l.87-.56.73.32c0,3.18-2,6.42-4.12,6.6h-.09v-3.09A3.45,3.45,0,0,0,31.94,117.75Zm-4.76,1.53a1.25,1.25,0,0,1,2.5,0v6.34l-1.43-.55a.24.24,0,0,0-.23,0l-.84.56Zm-3.32-2.71.4.45a.28.28,0,0,0,.21.08h.64a5,5,0,0,0,0,.55,3.47,3.47,0,0,0,1.52,2.6v3.26c-3-.61-4.14-4-4.15-6.89Z"/><path class="cls-1" d="M33,125.5H30.9a.24.24,0,0,0-.22.12.25.25,0,0,0,0,.25,23.19,23.19,0,0,0,2.26,3.66c.22.3.43.61.64.91a.27.27,0,0,0,.22.11h2.27a.25.25,0,0,0,.24-.14.26.26,0,0,0,0-.28,33.88,33.88,0,0,1-3.07-4.5A.28.28,0,0,0,33,125.5Zm1,4.53-.55-.8a24.58,24.58,0,0,1-2-3.21H32.8a34.13,34.13,0,0,0,2.72,4Z"/><path class="cls-1" d="M28.44,130.41a.24.24,0,0,0,0-.28,32.52,32.52,0,0,1-2.83-4.5.28.28,0,0,0-.23-.13H23.6a.26.26,0,0,0-.26.26.28.28,0,0,0,0,.13v0a29.33,29.33,0,0,0,2.55,4.53.26.26,0,0,0,.21.11h2.07A.24.24,0,0,0,28.44,130.41ZM26.28,130A27.65,27.65,0,0,1,24,126h1.17a34,34,0,0,0,2.48,4Z"/><path class="cls-1" d="M28.21,126.31a.11.11,0,0,0-.11.06,3.76,3.76,0,0,0-.58,1.24.69.69,0,0,0,.69.69.68.68,0,0,0,.68-.69,3.76,3.76,0,0,0-.58-1.24A.11.11,0,0,0,28.21,126.31Z"/><path class="cls-1" d="M38.94,120.46v1.3a.26.26,0,1,0,.52,0v-1.3A1.53,1.53,0,0,0,40.73,119v-1a1.53,1.53,0,0,0-1.27-1.5v-1.36a1.53,1.53,0,0,0,1.27-1.51v-1A1.54,1.54,0,0,0,39.46,111v-1.1a1.54,1.54,0,0,0,1.27-1.51v-1a1.54,1.54,0,1,0-3.07,0v1a1.54,1.54,0,0,0,1.28,1.51V111a1.54,1.54,0,0,0-1.28,1.51v1a1.53,1.53,0,0,0,1.28,1.51v1.36a1.52,1.52,0,0,0-1.28,1.5v1A1.53,1.53,0,0,0,38.94,120.46Zm-.75-12.06v-1a1,1,0,1,1,2,0v1a1,1,0,1,1-2,0Zm0,5.15v-1a1,1,0,0,1,2,0v1a1,1,0,1,1-2,0Zm0,4.37a1,1,0,0,1,2,0v1a1,1,0,1,1-2,0Z"/><path class="cls-1" d="M41.66,111.38c.94,3-.11,4.53-.13,4.55a.27.27,0,0,0,.07.37.27.27,0,0,0,.36-.06c0-.08,1.23-1.78.2-5a7.64,7.64,0,0,1-.36-1.73,4,4,0,0,1,.2-1.82,1.62,1.62,0,0,1,.56-.74,2.2,2.2,0,0,1,1.43-.24,1.91,1.91,0,0,1,1,.47,4.44,4.44,0,0,1,.82,1.23h0a2.88,2.88,0,0,0-1.82-.25,1.21,1.21,0,0,0-.83,1.26,4.28,4.28,0,0,0,.4,1.58q.13.36.24.69a8.21,8.21,0,0,1,.31,4.35.24.24,0,0,0,.05.24.24.24,0,0,0,.22.09,2.85,2.85,0,0,0,2-1.42,5,5,0,0,1-.57,3.36,5.48,5.48,0,0,1-4.16,2.21.26.26,0,0,0,0,.52h0a6,6,0,0,0,4.54-2.46,5.83,5.83,0,0,0,.47-4.48.26.26,0,0,0-.24-.18.26.26,0,0,0-.26.16,2.78,2.78,0,0,1-1.55,1.67,9.44,9.44,0,0,0-.41-4.2c-.07-.25-.17-.5-.26-.74a4,4,0,0,1-.36-1.38c0-.24.06-.66.44-.76a2.5,2.5,0,0,1,1.49.23l.09,0a3.28,3.28,0,0,1,.5.22.27.27,0,0,0,.3,0,.26.26,0,0,0,.07-.29,6.09,6.09,0,0,0-1.22-2,2.58,2.58,0,0,0-1.34-.61,2.75,2.75,0,0,0-1.79.33,2,2,0,0,0-.76,1,4.53,4.53,0,0,0-.24,2A8.64,8.64,0,0,0,41.66,111.38Z"/><path class="cls-1" d="M41.77,118.44a4.83,4.83,0,0,0,1.79-.55.17.17,0,0,0,.07-.24.17.17,0,0,0-.23-.07,4.56,4.56,0,0,1-1.67.51.19.19,0,0,0-.16.2.18.18,0,0,0,.18.16Z"/><path class="cls-1" d="M65.76,135.46l-2,.22a.26.26,0,0,0-.21.17.27.27,0,0,0,0,.27l.59.69-3.67,2.66V133h1.65a.27.27,0,0,0,0-.53H60.53V131a1.34,1.34,0,1,0-.53,0v1.49H58.36a.27.27,0,1,0,0,.53H60v6.48l-3.65-2.65.6-.7a.27.27,0,0,0,0-.27.26.26,0,0,0-.21-.17l-2-.22a.28.28,0,0,0-.23.1.26.26,0,0,0-.06.24l.52,1.92a.29.29,0,0,0,.2.19h.06a.27.27,0,0,0,.2-.09l.51-.6,4.11,3a.24.24,0,0,0,.16.05.21.21,0,0,0,.15-.05l4.13-3,.52.61a.25.25,0,0,0,.2.09h.06a.28.28,0,0,0,.19-.19l.53-1.92a.26.26,0,0,0-.06-.24A.29.29,0,0,0,65.76,135.46Zm-6.3-5.8a.81.81,0,0,1,1.62,0,.81.81,0,0,1-1.62,0Zm-4.05,7.44L55.12,136l1.1.12-.4.48Zm9.74,0-.41-.47-.4-.48,1.1-.12Z"/><path class="cls-1" d="M39.09,128.16a.36.36,0,0,0,0,.71h1.84V137h-.28l-.18,0h-.16l-.08.06s-.07,0-.09.06a.48.48,0,0,0-.07.24,3.22,3.22,0,0,0,.12.69s0,0,0,.08-.07.05-.12.07a.4.4,0,0,0-.25.45s0,.11,0,.16a.25.25,0,0,1-.11.14.48.48,0,0,0-.08.58.69.69,0,0,0,.3.26,2,2,0,0,0,.86.16c.3,0,.59,0,.89,0a1.51,1.51,0,0,0,.3,0l.26-.11a.74.74,0,0,0,.29-.12.59.59,0,0,0,.13-.37c.09,0,.15-.11.18-.2a1.26,1.26,0,0,0,.08-.93,1.08,1.08,0,0,0-.35-.42,3.54,3.54,0,0,0-.94-.59v-8.25h1.84a.36.36,0,0,0,0-.71H41.64v-1.85a.36.36,0,0,0-.71,0v1.85Z"/><path class="cls-1" d="M45.88,134l-.12-.09-.3-.2-.2-.12c-.33-.18-.44.15-.74.15s-.26.17-.29.38l0,.06v.06l-.12.06,0,0a.23.23,0,0,0-.06.12,3.7,3.7,0,0,0-.17,1.12,1.27,1.27,0,0,0-.42.18,1,1,0,0,0-.32,1.23c.26.5,1.12.3,1.53.3a.72.72,0,0,0,.68-.41l.06-.12,0-.06h.26l.35.09.18,0a2.37,2.37,0,0,0,.65,0s.06,0,.09-.06c.32-.18.11-.71.06-1l0-.15a.1.1,0,0,1,0-.06l0,0,.11,0,.06,0a.43.43,0,0,0,.21-.5l-.06-.11v-.06l.09-.06a.54.54,0,0,0,.23-.44c0-.53-.82-.71-1.18-.74S46,133.7,45.88,134Z"/><path class="cls-1" d="M34.7,135H35l.12,0,0,.06.06.17c.12.48.06,1.27.56,1.59l1,.36a4.94,4.94,0,0,0,1.38.09.28.28,0,0,0,.18,0,3.58,3.58,0,0,0,1-.27.48.48,0,0,0-.12-.88l-.47-.09c.09-.35-.2-.85-.26-1.15,0-.09-.06-.18-.12-.2a.61.61,0,0,0,.12-.45c0-.5-.68-.41-1-.41a5.39,5.39,0,0,1-1-.12,6.23,6.23,0,0,0-1.59-.23C34.05,133.5,34.05,134.88,34.7,135Z"/><path class="cls-1" d="M55.88,112.33a3.81,3.81,0,0,0-.83,3.66c.39,2.11,3.28,2.31,3.4,2.32h0a.27.27,0,0,0,.27-.23.27.27,0,0,0-.23-.29A2,2,0,0,1,57,116.21,3.33,3.33,0,0,1,58.07,113l0,0c1.15-1.28,2.24-2.49,1.9-3.9-.38-1.6-1.88-1.65-3.3-1.48-1.6.19-2.67,1-2.87,2.26a2.17,2.17,0,0,0,.57,1.8A2.25,2.25,0,0,0,55.88,112.33ZM54.35,110c.16-1,1-1.66,2.41-1.82,1.75-.2,2.49.09,2.73,1.08.27,1.14-.73,2.26-1.78,3.43l0,0a3.84,3.84,0,0,0-1.2,3.69,3.28,3.28,0,0,0,.52,1.06,2.17,2.17,0,0,1-1.43-1.53,3.44,3.44,0,0,1,1.09-3.65.24.24,0,0,0,0-.29.25.25,0,0,0-.23-.15h0a1.94,1.94,0,0,1-1.66-.5A1.64,1.64,0,0,1,54.35,110Z"/><path class="cls-1" d="M61.38,114.64v0h0a.27.27,0,0,0,.17.06.26.26,0,0,0,.17-.46h0l0,0a1.37,1.37,0,0,1-.26-1.43,2.3,2.3,0,0,1,1.82-1.46h0c1.16-.33,2.35-.66,2.7-1.69s-.52-1.79-1.47-2.25a2.2,2.2,0,0,0-2.7.29,1.44,1.44,0,0,0-.31,1.2,1.76,1.76,0,0,0,.66,1,2.9,2.9,0,0,0-1.75,2C59.89,113.22,61.16,114.44,61.38,114.64ZM60.89,113a1.34,1.34,0,0,1,0-.9,2.38,2.38,0,0,1,1.94-1.82.27.27,0,0,0,.2-.23.26.26,0,0,0-.15-.26,1.47,1.47,0,0,1-.87-1,.9.9,0,0,1,.19-.74,1.28,1.28,0,0,1,1-.43,2.52,2.52,0,0,1,1.06.27c1.09.52,1.42,1,1.2,1.6s-1.27,1-2.37,1.36A2.81,2.81,0,0,0,61,112.66,1.67,1.67,0,0,0,60.89,113Z"/><path class="cls-1" d="M81.14,110.3a.26.26,0,0,0-.37.07L79.64,112a1.22,1.22,0,0,1-1,.53H77.53v-2.18a1.28,1.28,0,0,1,.43-1l2.45-2.09a.27.27,0,0,0,0-.37.26.26,0,0,0-.37,0L77.62,109a1.79,1.79,0,0,0-.62,1.35v3.43a.68.68,0,0,1-.3.57L75,115.54l-.14.07a3.61,3.61,0,0,0-1.41-1.73,3.75,3.75,0,0,0-1.46-.54v-1.09H73.1a1.75,1.75,0,0,0,1.42-.76l1.14-1.67a.27.27,0,1,0-.44-.3l-1.13,1.67a1.22,1.22,0,0,1-1,.53H72v-2.1a1.22,1.22,0,0,1,.43-.93l2.45-2.1a.26.26,0,1,0-.34-.4l-2.45,2.1a1.74,1.74,0,0,0-.61,1.33v3.68a3.58,3.58,0,0,0-1.5.32l-3.85,1.79L65,116l-1.11.54-1,.46-.74.37-.09,0a1.93,1.93,0,0,0-.34.19,1.67,1.67,0,0,0-.39.43,1.57,1.57,0,0,0-.22,1.1s0,.1,0,.15c.22.65,1,.78,1.74.91l.48.09c1.34,2,3.18,1.6,4.66,1.28l.38-.08a6,6,0,0,0-.07,4.7,7,7,0,0,0,3.93,3.37h.08a.27.27,0,0,0,.19-.08l3.65-3.83a.24.24,0,0,0,0-.29c-.72-1.56-1-4.6-1-6.49a7,7,0,0,0,2.71-3.42.28.28,0,0,0,0-.25.26.26,0,0,0-.21-.11h0a9.47,9.47,0,0,0-1.12.07l.47-.32a1.21,1.21,0,0,0,.53-1v-.72h1.12a1.7,1.7,0,0,0,1.42-.76l1.14-1.67A.26.26,0,0,0,81.14,110.3Zm-3.89,5.31c-.4.85-1.52,2.92-3.27,3a.26.26,0,0,0-.24.29.26.26,0,0,0,.26.24h0a2.69,2.69,0,0,0,.64-.13,22.26,22.26,0,0,0,1,6.34L72.26,129a6.43,6.43,0,0,1-3.45-3,5.68,5.68,0,0,1,.26-4.72.25.25,0,0,0,0-.26.26.26,0,0,0-.21-.11h0c-.28,0-.57.1-.88.17-1.36.29-2.76.58-3.87-.75a16.5,16.5,0,0,0,3.31-.74.27.27,0,0,0-.15-.51,10.86,10.86,0,0,1-3.62.74h0l-.61-.12c-.75-.13-1.21-.22-1.33-.56a.29.29,0,0,1,0-.09,1.07,1.07,0,0,1,.4-1,1.27,1.27,0,0,1,.26-.15l.1,0,.73-.36,1-.47,1.12-.53,1.18-.55,3.84-1.79a3.12,3.12,0,0,1,4.21,1.75,2.42,2.42,0,0,0-.87.85.28.28,0,0,0,.12.36A.26.26,0,0,0,74,117a1.63,1.63,0,0,1,.19-.24l.1,0,1-.65A5.79,5.79,0,0,1,77.25,115.61Z"/><path class="cls-1" d="M70.36,116.08a.63.63,0,1,0,.62.63A.63.63,0,0,0,70.36,116.08Z"/><path class="cls-1" d="M53,130.85a1,1,0,0,1,.51.12A1.61,1.61,0,0,0,55,131a1,1,0,0,1,.51-.12,1,1,0,0,1,.52.12,1.49,1.49,0,0,0,.74.18,1.53,1.53,0,0,0,.74-.18,1,1,0,0,1,.51-.12.27.27,0,0,0,0-.53,1.42,1.42,0,0,0-.74.18,1.09,1.09,0,0,1-.51.12,1.14,1.14,0,0,1-.52-.12,1.39,1.39,0,0,0-.74-.18,1.42,1.42,0,0,0-.74.18,1.14,1.14,0,0,1-1,0,1.42,1.42,0,0,0-.74-.18.27.27,0,1,0,0,.53Z"/><path class="cls-1" d="M67.51,130.32a1.39,1.39,0,0,0-.74.18,1.14,1.14,0,0,1-.52.12,1.12,1.12,0,0,1-.51-.12,1.61,1.61,0,0,0-1.48,0,1.12,1.12,0,0,1-.51.12,1.14,1.14,0,0,1-.52-.12,1.38,1.38,0,0,0-.73-.18.27.27,0,1,0,0,.53A1,1,0,0,1,63,131a1.49,1.49,0,0,0,.74.18,1.53,1.53,0,0,0,.74-.18,1.14,1.14,0,0,1,1,0,1.56,1.56,0,0,0,.74.18A1.49,1.49,0,0,0,67,131a1,1,0,0,1,.52-.12.27.27,0,0,0,0-.53Z"/><path class="cls-1" d="M55.1,133a1.18,1.18,0,0,0,.56.13,1.1,1.1,0,0,0,.55-.13.58.58,0,0,1,.32-.08.27.27,0,1,0,0-.53,1.08,1.08,0,0,0-.55.14.68.68,0,0,1-.32.08.73.73,0,0,1-.33-.08,1.15,1.15,0,0,0-1.1,0,.73.73,0,0,1-.33.08.68.68,0,0,1-.32-.08,1.08,1.08,0,0,0-.55-.14.27.27,0,1,0,0,.53.58.58,0,0,1,.32.08,1.1,1.1,0,0,0,.55.13,1.18,1.18,0,0,0,.56-.13.56.56,0,0,1,.32-.08A.58.58,0,0,1,55.1,133Z"/><path class="cls-1" d="M67.32,132.35a1.16,1.16,0,0,0-.56.14.68.68,0,0,1-.64,0,1.16,1.16,0,0,0-.56-.14,1.08,1.08,0,0,0-.55.14.68.68,0,0,1-.32.08.73.73,0,0,1-.33-.08,1.08,1.08,0,0,0-.55-.14.27.27,0,0,0,0,.53.62.62,0,0,1,.33.08,1.23,1.23,0,0,0,1.1,0,.58.58,0,0,1,.32-.08.62.62,0,0,1,.33.08,1.23,1.23,0,0,0,1.1,0,.62.62,0,0,1,.33-.08.27.27,0,0,0,0-.53Z"/><path class="cls-1" d="M76,98.32l-.81-.47A.14.14,0,0,0,75,98l.09.42H68.66v.36h6.57a.18.18,0,0,1,.18.18.19.19,0,0,1-.18.19H68.66v.35H75l-.09.38a.13.13,0,0,0,.2.11l.81-.47.81-.47a.13.13,0,0,0,0-.23Z"/><path class="cls-1" d="M60.8,98a.14.14,0,0,0-.21-.12l-.81.47-.81.47A.13.13,0,0,0,59,99l.81.47.81.47a.14.14,0,0,0,.21-.11l-.09-.43h6.37v-.35H60.52a.19.19,0,1,1,0-.37h6.56v-.35H60.71Z"/><path class="cls-1" d="M67.17,76.75a3.28,3.28,0,0,0-.2,3.14.3.3,0,0,0,.27.18h0a.3.3,0,0,0,.27-.19,2.65,2.65,0,0,1,.23-.48,2.61,2.61,0,0,1,3.58-.81,2.61,2.61,0,0,1,1,1.28.3.3,0,0,0,.27.2.32.32,0,0,0,.29-.18,3.29,3.29,0,0,0-5.77-3.14Zm5.46,2.43a3,3,0,0,0-1-1,3.11,3.11,0,0,0-4.3,1,.21.21,0,0,0,0,.06A2.75,2.75,0,0,1,70,75.75a2.74,2.74,0,0,1,2.67,3.43Z"/><path class="cls-1" d="M63.45,77.08h1.63a.27.27,0,0,0,.27-.27V74a.26.26,0,0,0-.27-.26H62.89V72.31H67.3a1.34,1.34,0,0,0,.46-2.59v-.11A1.53,1.53,0,0,0,65,68.77h-.18a1.21,1.21,0,0,0-.38.06v-1a.26.26,0,0,0-.26-.26H58.74a2.23,2.23,0,0,0-1-.71,1.48,1.48,0,0,0-.55-.13A1.24,1.24,0,0,0,56,66.07h-.18a1.53,1.53,0,0,0-2.81.84V67a1.34,1.34,0,0,0,.46,2.59h.75v1.1a.26.26,0,0,0,.26.26h1.22v2.71H53.56a.26.26,0,0,0-.27.26v2.86a.27.27,0,0,0,.27.27h1.63v4.77L54.1,84.44a.36.36,0,0,0,0,.1v5.07h0V93a.26.26,0,0,0,.27.26H77a.26.26,0,0,0,.26-.26V89.61a.24.24,0,0,0-.26-.26H75.92V85.69a.27.27,0,0,0-.27-.26h-.07L77,81.88a.26.26,0,0,0,0-.24.25.25,0,0,0-.22-.12H63.45Zm-9.19-9.23v1.24h-.75a.81.81,0,0,1-.12-1.61.25.25,0,0,0,.18-.11.27.27,0,0,0,0-.21,1,1,0,0,1,0-.24,1,1,0,0,1,.78-1,.83.83,0,0,1,.22,0,1,1,0,0,1,.91.59.25.25,0,0,0,.32.13.85.85,0,0,1,.23,0,.7.7,0,0,1,.68.5.26.26,0,0,0,.29.18.89.89,0,0,1,.48.08h0a1.65,1.65,0,0,1,.44.22H54.52A.26.26,0,0,0,54.26,67.85Zm.53.27H58v1.25a.17.17,0,0,0,.17.17.17.17,0,0,0,.18-.17V68.12h2v1.25a.18.18,0,0,0,.36,0V68.12h3.19v2.33H54.79ZM64.13,71a.26.26,0,0,0,.26-.26V69.4a.7.7,0,0,1,.38-.11h0a.91.91,0,0,1,.23,0,.25.25,0,0,0,.32-.13,1,1,0,0,1,1.91.42,1,1,0,0,1,0,.24.26.26,0,0,0,0,.21.25.25,0,0,0,.18.11.82.82,0,0,1,.68.86.81.81,0,0,1-.8.75H62.89V71Zm-7.87,0h6.11v2.67H56.26Zm-2.44,3.19h3v1.17a.18.18,0,0,0,.17.18.18.18,0,0,0,.18-.18V74.21h2v1.17a.18.18,0,0,0,.36,0V74.21h1.87v1.17a.18.18,0,0,0,.18.18.18.18,0,0,0,.17-.18V74.21h3.1v2.34h-11ZM55.69,82a.3.3,0,0,0,0-.1V77.19l7.2-.11v4.7a.3.3,0,0,0,0,.1l1.11,2.71V85.7a.26.26,0,0,0,.26.26H67V87.7a.26.26,0,0,0,.26.27h1.37a.3.3,0,0,0,.19-.08.29.29,0,0,0,.07-.18V86h.87v1.75A.26.26,0,0,0,70,88h1.37a.26.26,0,0,0,.26-.26V86h1v1.75a.27.27,0,0,0,.26.26h1.37a.27.27,0,0,0,.27-.26V86h.83v3.39H62.12v-1.2a.18.18,0,0,0-.18-.17h-.83V83.09h.72a.18.18,0,0,0,.18-.18V81s0,0,0,0h0a.05.05,0,0,0,0,0s0,0,0,0h0l-1.38-1.53a.19.19,0,0,0-.13-.05h0l0,.12.26-.91a.2.2,0,0,0,0-.15.16.16,0,0,0-.14-.07H58.15a.15.15,0,0,0-.14.07.2.2,0,0,0,0,.15l.58,2.06v.65l-.17,0-1.25-.28,1.12-1.26h0l-.1-.35h0a.24.24,0,0,0-.14.05l-1.37,1.55h0a0,0,0,0,0,0,0,.05.05,0,0,0,0,0h0a0,0,0,0,0,0,0v1.87a.18.18,0,0,0,.18.18h.72V88H56.7a.18.18,0,0,0-.18.17v1.2H54.61V84.6ZM57,81.26l.55.12v1.35H57Zm3.36-1.59h0l1.13,1.24-1.32.31-.09,0v-.7Zm-.25,1.94.16,0,.51-.08V88h-.67Zm1-.24.55-.13v1.49h-.55ZM59.88,80a.76.76,0,0,0-.55-.24.78.78,0,0,0-.57.25l-.38-1.35h1.88Zm-1.32,1.61V88h-.68V81.49l.44.07Zm3.21,6.72v.93h-4.9v-.93Zm9.67,2.79V89.87h3v1.25Zm-.35,0h-3V89.87h3Zm-3.39,0h-3V89.87h3Zm-3.39,0h-3V89.87h3Zm-6.43,0V89.87h3v1.25Zm-.35-1.25v1.25H54.61V89.87Zm1.65,1.61v1.25h-3V91.48Zm.35,0h3v1.25h-3Zm3.36,0h3v1.25h-3Zm3.37,0h3v1.25h-3Zm3.36,0h3v1.25h-3Zm3.36,0h3v1.25H73Zm1.85-.36V89.87h1.94v1.19h0v.06Zm-20.22.36h1.2v1.25h-1.2Zm21.74,1.25V91.48h.42v1.25ZM63.58,82.05H76.34L75,85.43h-.73a.27.27,0,0,0-.26.27v1.74h-.84V85.7a.27.27,0,0,0-.08-.19.25.25,0,0,0-.18-.08H71.41a.27.27,0,0,0-.27.27v1.74H70.3V85.7a.26.26,0,0,0-.26-.27H68.65a.26.26,0,0,0-.26.27v1.74h-.85V85.7a.26.26,0,0,0-.26-.27h-2.7v-.89a.44.44,0,0,0,0-.1l-1.11-2.71Z"/><path class="cls-1" d="M64.58,97h0a.18.18,0,0,0,.18-.16.19.19,0,0,0-.17-.19l-8.07-.48a.18.18,0,0,1-.17-.19.2.2,0,0,1,.06-.13.24.24,0,0,1,.14,0l8.06.48a.18.18,0,0,0,.19-.16.19.19,0,0,0-.17-.19l-2.42-.14c-.78-.48-3.31-2-4.53-2.06a2.35,2.35,0,1,0-.28,4.63h.11a16.34,16.34,0,0,0,4.63-1.5Zm-7.14.91a1.9,1.9,0,1,1,.22-3.72,11.34,11.34,0,0,1,3.56,1.54l-1.36-.08-1-.7a.18.18,0,0,0-.24,0,.16.16,0,0,0,0,.24l.54.37-.76,0h0l-1.19-.81a.16.16,0,0,0-.24,0A.18.18,0,0,0,57,95l.73.49-1.17-.07a.57.57,0,0,0-.39.14.51.51,0,0,0-.18.37.52.52,0,0,0,.13.38.51.51,0,0,0,.37.18l1.18.07L56.9,97a.18.18,0,0,0-.07.24.17.17,0,0,0,.16.09.13.13,0,0,0,.08,0l1.27-.66a0,0,0,0,0,0,0l.76,0-.58.3a.18.18,0,0,0-.08.24.19.19,0,0,0,.16.09l.08,0,1.1-.57,1.36.08A12.17,12.17,0,0,1,57.44,97.87Z"/><path class="cls-1" d="M86.12,122.16a1.76,1.76,0,0,0,.54-1,.93.93,0,0,0-.65-.86,1,1,0,0,0-1.11.44h0a16.83,16.83,0,0,0-1.64,4.88c-.13,1.1-.17,1.47.42,2a3.18,3.18,0,0,0,1.93.66,1.69,1.69,0,0,0,.53-.08,1.05,1.05,0,0,0,.65-.5,1.19,1.19,0,0,0,0-.93A2,2,0,0,0,86,126c-.36-.26-.74-.53-.83-.88a3.6,3.6,0,0,1,.42-2.22A2.94,2.94,0,0,1,86.12,122.16Z"/><path class="cls-1" d="M86.78,128.59a.45.45,0,0,0-.34-.14.47.47,0,0,0-.32.14A.57.57,0,0,0,86,129v.34a.56.56,0,0,0,.52.57.55.55,0,0,0,.49-.6l0-.32A.54.54,0,0,0,86.78,128.59Z"/><path class="cls-1" d="M85.38,128.73a.37.37,0,0,0-.27.1.49.49,0,0,0-.17.33l0,.26a.46.46,0,0,0,.09.36.39.39,0,0,0,.27.15h0a.4.4,0,0,0,.26-.1.49.49,0,0,0,.15-.34l0-.24A.45.45,0,0,0,85.38,128.73Z"/><path class="cls-1" d="M84.56,128.64a.37.37,0,0,0-.29.06.41.41,0,0,0-.17.27l0,.23a.39.39,0,0,0,.28.47h.07a.42.42,0,0,0,.39-.34l0-.22A.4.4,0,0,0,84.56,128.64Z"/><path class="cls-1" d="M83.84,128.31a.37.37,0,0,0-.44.27l-.06.2a.39.39,0,0,0,.21.5h.08A.4.4,0,0,0,84,129l.06-.2A.38.38,0,0,0,83.84,128.31Z"/><path class="cls-1" d="M83.38,128.47l.08-.17a.39.39,0,0,0,0-.3.32.32,0,0,0-.16-.18.31.31,0,0,0-.25,0,.37.37,0,0,0-.22.22l-.09.17a.44.44,0,0,0,0,.3.3.3,0,0,0,.17.18.31.31,0,0,0,.13,0A.37.37,0,0,0,83.38,128.47Z"/><path class="cls-1" d="M91.4,111.91a3.36,3.36,0,0,1,.3.82,3.56,3.56,0,0,1-.24,2.24,2.58,2.58,0,0,1-1,.76,2.54,2.54,0,0,0-.9.62,1.14,1.14,0,0,0-.27.85.87.87,0,0,0,.44.56,3,3,0,0,0,1.37.27,3.32,3.32,0,0,0,1.39-.26c.68-.36,1-.7.89-1.86a46.3,46.3,0,0,0-.4-5.08h0a.85.85,0,0,0-.85-.71h0a1,1,0,0,0-1,.68A1.8,1.8,0,0,0,91.4,111.91Z"/><path class="cls-1" d="M89.55,117.91a.56.56,0,0,0-.64.45l-.08.32a.58.58,0,0,0,0,.45.51.51,0,0,0,.29.23h.12a.56.56,0,0,0,.51-.44l.08-.32A.57.57,0,0,0,89.55,117.91Z"/><path class="cls-1" d="M90.5,118.45a.47.47,0,0,0-.49.41l0,.25a.46.46,0,0,0,.33.53h0a.48.48,0,0,0,.43-.42l0-.26a.46.46,0,0,0-.07-.36A.38.38,0,0,0,90.5,118.45Z"/><path class="cls-1" d="M91.59,118.69a.36.36,0,0,0-.25-.13.32.32,0,0,0-.26.1A.44.44,0,0,0,91,119l0,.23a.4.4,0,0,0,.37.43h0a.33.33,0,0,0,.24-.1.44.44,0,0,0,.13-.32V119A.43.43,0,0,0,91.59,118.69Z"/><path class="cls-1" d="M92.46,118.79a.36.36,0,0,0-.37-.37.41.41,0,0,0-.34.42l0,.22a.4.4,0,0,0,.37.36h0a.35.35,0,0,0,.24-.14.37.37,0,0,0,.07-.28l0-.2Z"/><path class="cls-1" d="M93.14,118.39a.43.43,0,0,0-.15-.26.31.31,0,0,0-.24,0,.28.28,0,0,0-.23.15.5.5,0,0,0,0,.28l0,.18a.41.41,0,0,0,.17.27.41.41,0,0,0,.17.05h.06a.28.28,0,0,0,.2-.12.41.41,0,0,0,.06-.31Z"/><path class="cls-1" d="M9.73,87.51a1.8,1.8,0,0,0,0-1.17,3.12,3.12,0,0,1-.11-.86,3.78,3.78,0,0,1,.66-2.17,2,2,0,0,1,1.15-.38,2,2,0,0,0,1-.33,1.18,1.18,0,0,0,.42-.82,1.05,1.05,0,0,0-.33-.75,3.09,3.09,0,0,0-2.45-.64c-.78.2-.91.55-1.31,1.58A16.44,16.44,0,0,0,8,87.06H8a1,1,0,0,0,.78.91h.16A.93.93,0,0,0,9.73,87.51Z"/><path class="cls-1" d="M12.73,80.65a.45.45,0,0,0,.21.27.53.53,0,0,0,.24.06.3.3,0,0,0,.13,0,.54.54,0,0,0,.34-.29l.18-.3a.56.56,0,0,0-.17-.76.57.57,0,0,0-.72.28l-.15.29A.6.6,0,0,0,12.73,80.65Z"/><path class="cls-1" d="M12,80a.36.36,0,0,0,.2.22l.13,0a.46.46,0,0,0,.43-.31l.09-.22a.5.5,0,0,0,0-.38.38.38,0,0,0-.21-.22.39.39,0,0,0-.3,0,.44.44,0,0,0-.25.27l-.1.24A.46.46,0,0,0,12,80Z"/><path class="cls-1" d="M11.38,79.88h.08a.42.42,0,0,0,.38-.31l.06-.22a.39.39,0,0,0-.25-.5.41.41,0,0,0-.47.3l-.06.21a.39.39,0,0,0,0,.32A.39.39,0,0,0,11.38,79.88Z"/><path class="cls-1" d="M10.59,79.84h.05a.38.38,0,0,0,.37-.34l0-.21a.35.35,0,1,0-.69-.12l0,.21h0A.38.38,0,0,0,10.59,79.84Z"/><path class="cls-1" d="M9.89,80h0a.31.31,0,0,0,.22-.09.42.42,0,0,0,.12-.27v-.19a.35.35,0,0,0-.31-.39.31.31,0,0,0-.24.08.4.4,0,0,0-.12.28v.18a.38.38,0,0,0,.09.3A.3.3,0,0,0,9.89,80Z"/><path class="cls-1" d="M9.38,99.77a.84.84,0,0,0,.42.12.93.93,0,0,0,.68-.34h0a46.91,46.91,0,0,0,2.71-4.31c.61-1,.52-1.43.09-2.06a3.67,3.67,0,0,0-2.45-1.29.89.89,0,0,0-.64.3,1.11,1.11,0,0,0-.16.88,2.57,2.57,0,0,0,.5,1,2.41,2.41,0,0,1,.56,1.15,3.44,3.44,0,0,1-.83,2.09,3,3,0,0,1-.65.59,1.74,1.74,0,0,0-.75.87A.94.94,0,0,0,9.38,99.77Z"/><path class="cls-1" d="M11.11,90.24a.46.46,0,0,0-.36.06.56.56,0,0,0-.25.38l-.08.33a.55.55,0,0,0,.38.69h0a.57.57,0,0,0,.54-.48l.08-.32A.53.53,0,0,0,11.11,90.24Z"/><path class="cls-1" d="M12.26,90.52a.46.46,0,0,0-.54.32l-.09.24a.46.46,0,0,0,.25.58.2.2,0,0,0,.11,0,.39.39,0,0,0,.18,0,.48.48,0,0,0,.23-.29l.1-.25A.46.46,0,0,0,12.26,90.52Z"/><path class="cls-1" d="M12.67,92a.32.32,0,0,0,.14,0A.35.35,0,0,0,13,92a.39.39,0,0,0,.22-.23l.11-.19a.5.5,0,0,0,0-.34.42.42,0,0,0-.18-.21.4.4,0,0,0-.53.22l-.08.2a.41.41,0,0,0,0,.34A.34.34,0,0,0,12.67,92Z"/><path class="cls-1" d="M13.29,91.72l-.13.2a.4.4,0,0,0,.1.52.34.34,0,0,0,.17,0,.44.44,0,0,0,.34-.21l.11-.17a.38.38,0,0,0-.08-.53A.38.38,0,0,0,13.29,91.72Z"/><path class="cls-1" d="M13.63,92.54a.47.47,0,0,0-.07.32.29.29,0,0,0,.12.18.32.32,0,0,0,.2.07h0a.39.39,0,0,0,.26-.17l.11-.13a.41.41,0,0,0,.09-.31.25.25,0,0,0-.11-.19.32.32,0,0,0-.23-.07.36.36,0,0,0-.28.15Z"/><path class="cls-1" d="M44.56,15.58a.55.55,0,0,0,.37.14h0l1.14-.12a.27.27,0,0,0,.24-.28l-.06-.67a.24.24,0,0,0-.09-.18.23.23,0,0,0-.19-.06l-1.48.14a.27.27,0,0,0-.24.29l0,.27A.67.67,0,0,0,44.56,15.58ZM45.8,15v.15l-.88.08h0a.16.16,0,0,1,0-.11v0Z"/><path class="cls-1" d="M45.63,7.63a.18.18,0,0,0,.15-.21.17.17,0,0,0-.18-.18.18.18,0,0,0-.15.21A.18.18,0,0,0,45.63,7.63Z"/><path class="cls-1" d="M71.13,96.18a.18.18,0,0,0-.16.2.19.19,0,0,0,.2.15l8-1a.18.18,0,0,1,.2.16.17.17,0,0,1,0,.14.21.21,0,0,1-.13.07l-8,1a.16.16,0,0,0-.15.19.17.17,0,0,0,.17.16h0l2.42-.3a17.46,17.46,0,0,0,4.55,1.2l.28,0a2.35,2.35,0,1,0-.59-4.6c-1.24.16-3.83,2-4.38,2.35ZM78,94l.35,0a2,2,0,0,1,2.16,1.58,2.13,2.13,0,0,1-2,2.14,11.76,11.76,0,0,1-3.79-.86L76,96.64l1.14.5h.07a.18.18,0,0,0,.16-.11.18.18,0,0,0-.09-.23l-.6-.26.75-.09h0l1.32.58h.07A.18.18,0,0,0,79,97a.17.17,0,0,0-.09-.23l-.81-.36,1.17-.14a.54.54,0,0,0,.46-.6.54.54,0,0,0-.2-.36.57.57,0,0,0-.4-.11L78,95.31l.7-.55a.17.17,0,0,0,0-.24.18.18,0,0,0-.25,0l-1.13.88,0,0-.75.09.52-.4a.18.18,0,0,0-.22-.28l-1,.77-1.34.17A11.53,11.53,0,0,1,78,94Z"/><path class="cls-1" d="M36.72,95.17H35.56V93.61a.69.69,0,0,0-.69-.69h-.22a1.73,1.73,0,0,0-1.44.77l-1.74-5.26a.27.27,0,0,0-.25-.18h-.68a2.35,2.35,0,0,0,0-2.16h.81a.79.79,0,0,1,.65.34l2.63,3.88a1.3,1.3,0,0,0,1.77.35,1.32,1.32,0,0,0,.42-1.81l-3.47-5.59a1.32,1.32,0,0,0-1.12-.61H28.67a2.41,2.41,0,0,0-2.41,2.41v3.19h-.89a.26.26,0,0,0-.25.18l-1.74,5.26a1.79,1.79,0,0,0-1.45-.77h-.21a.69.69,0,0,0-.7.69v1.56H19.87a.7.7,0,0,0-.7.69v.81a.7.7,0,0,0,.7.69h.88v2.29a.26.26,0,0,0,.26.26h3.78a.26.26,0,0,0,.26-.26V97.87a1.33,1.33,0,0,1,1.33-1.33h3.83a1.31,1.31,0,0,1,.93.39,1.29,1.29,0,0,1,.39.94v1.78a.27.27,0,0,0,.27.26h3.77a.27.27,0,0,0,.27-.26V97.36h.88a.69.69,0,0,0,.69-.69v-.81A.69.69,0,0,0,36.72,95.17Zm.16,1.5a.17.17,0,0,1-.16.17H35.57a.26.26,0,0,0-.26.26v2.28H32.06V97.87A1.84,1.84,0,0,0,30.21,96H26.38a1.85,1.85,0,0,0-1.86,1.85v1.51H21.27V97.1a.26.26,0,0,0-.26-.26H19.87a.18.18,0,0,1-.17-.17v-.81a.17.17,0,0,1,.17-.16h1.42a.27.27,0,0,0,.26-.27V93.61a.16.16,0,0,1,.17-.16h.21a1.22,1.22,0,0,1,1.21,1,.26.26,0,0,0,.51,0l1.91-5.77h1a.27.27,0,0,0,.27-.26V85.06a1.89,1.89,0,0,1,1.88-1.89h3.56a.79.79,0,0,1,.67.37l3.47,5.59a.8.8,0,0,1-.28,1.1.75.75,0,0,1-1-.22l-2.63-3.87a1.32,1.32,0,0,0-1.09-.58H30.06a.28.28,0,0,0-.24.15.26.26,0,0,0,0,.28,1.89,1.89,0,0,1,0,2.36.26.26,0,0,0,0,.28.28.28,0,0,0,.24.15h1l1.9,5.77a.27.27,0,0,0,.28.18.28.28,0,0,0,.24-.23,1.22,1.22,0,0,1,1.2-1h.22a.16.16,0,0,1,.16.16v1.82a.26.26,0,0,0,.27.26h1.42a.17.17,0,0,1,.16.17Z"/><path class="cls-1" d="M30.21,97.06H26.37a.76.76,0,0,0-.76.76v1.33a.76.76,0,0,0,.76.76h3.84a.76.76,0,0,0,.76-.76V97.82A.76.76,0,0,0,30.21,97.06Zm.23,2.09a.23.23,0,0,1-.23.23H26.37a.23.23,0,0,1-.23-.23V97.82a.23.23,0,0,1,.23-.23h3.84a.23.23,0,0,1,.23.23Z"/><path class="cls-1" d="M27.28,74a.83.83,0,1,0,.83-.83A.83.83,0,0,0,27.28,74Z"/><path class="cls-1" d="M31.39,71.85a.83.83,0,1,0-.83-.83A.83.83,0,0,0,31.39,71.85Z"/><path class="cls-1" d="M34.68,68.93a.84.84,0,1,0-.83-.84A.84.84,0,0,0,34.68,68.93Z"/><circle class="cls-1" cx="39.4" cy="65.44" r="0.83"/><path class="cls-1" d="M43.79,66.52a.83.83,0,1,0-.83-.83A.83.83,0,0,0,43.79,66.52Z"/><path class="cls-1" d="M47.17,70.77a.83.83,0,1,0-.83-.83A.83.83,0,0,0,47.17,70.77Z"/><path class="cls-1" d="M46.43,75a.83.83,0,1,0-.83-.83A.84.84,0,0,0,46.43,75Z"/><path class="cls-1" d="M31.14,75.82a.37.37,0,0,0,.37-.37.38.38,0,0,0-.37-.37.37.37,0,0,0-.37.37A.36.36,0,0,0,31.14,75.82Z"/><path class="cls-1" d="M28.42,77.33l-.11.1a1.59,1.59,0,0,0-.59.93.88.88,0,0,0,.27.77,1.12,1.12,0,0,0,1,.24l.11,0-.27.46a.32.32,0,0,1-.26.15H26.06a1,1,0,0,0-1,.71l-2.16,4.46a0,0,0,0,0,0,0,.05.05,0,0,0,0,0,1.63,1.63,0,0,0,1-.53h0l1.5-3.22c.32-.72.47-.78.83-.75a1.58,1.58,0,0,0-.48.71c0,.07-.06.15-.1.23l-1.52,3.2h0a1.23,1.23,0,0,0,.32.82l0,0h0a.05.05,0,0,0,0,0l2.15-4.56a1.24,1.24,0,0,1,1-.39h1.11a.32.32,0,0,0,.28-.16L30,79s0,0,0,0v0a.65.65,0,0,0,.48-.55l0-.23-.22-.06-.23-.09v0A5.94,5.94,0,0,1,31,77.3l.09-.06c.22-.17.34-.16.36-.15a.13.13,0,0,1,0,.08l-.08.14v0l0,.21a1.94,1.94,0,0,1-.38.7l-.23.18h0l-1.14,1.95a.22.22,0,0,0,0,.22.21.21,0,0,0,.19.11l8.06.05h0a.35.35,0,0,0,.24-.1.33.33,0,0,0,.1-.25V75.78a.26.26,0,0,1,.26-.25h.15a.25.25,0,0,1,.25.25v.65l0,0h0a1.36,1.36,0,0,0,.75-.39,0,0,0,0,0,0,0v-.9a.34.34,0,0,0-.34-.34H37.72a.35.35,0,0,0-.35.34v.67a.26.26,0,0,1-.25.26H35.48a.35.35,0,0,0-.35.34V78.1s0,0,0,0a1.52,1.52,0,0,0,.74.68,0,0,0,0,0,0,0,.05.05,0,0,0,0,0V77.08a.26.26,0,0,1,.25-.26h.93a.26.26,0,0,1,.25.26v2.65a.24.24,0,0,1-.07.18.25.25,0,0,1-.18.08h0l-6.25,0a.12.12,0,0,1-.09,0,.11.11,0,0,1,0-.11l.29-.53a1,1,0,0,0,.37.13.61.61,0,0,0,.47-.15c.09-.06.17-.19.46-.69.14-.24.35-.6.4-.65l.06-.07a5.7,5.7,0,0,0,.45-.94c.07-.18.15-.38.25-.61a2.33,2.33,0,0,0,.11-.28,5.61,5.61,0,0,1,1.3-2.22c.12-.12.25-.24.36-.37a14.57,14.57,0,0,1,4.07-3.06c1.52-.76,2.5-.81,2.76-.53s.09.68-.27,1.33a6.91,6.91,0,0,0-1.06,3l-.13,8.54-2.09,1.2a.56.56,0,0,0-.29.49V88.5h0v.56h1.37v6.26a.36.36,0,0,0,.36.36h.44L39,99.49a.4.4,0,0,0,0,.34.36.36,0,0,0,.3.15h5.75a.36.36,0,0,0,.3-.15.34.34,0,0,0,0-.34L44,95.57a1.42,1.42,0,0,0,.85-1.29v-.59h.85a.37.37,0,0,0,.37-.36v-4.8h0V86.44h0v-2.3a.57.57,0,0,0-.31-.5l-1.67-.85c0-1.69,0-4.14.07-6.31,0-.54,0-1.07,0-1.58a4.43,4.43,0,0,1,.4-1.64,11.47,11.47,0,0,0,.76-2.54,3.46,3.46,0,0,0,.07-1h0a3,3,0,0,0-1.13-2.11A4.42,4.42,0,0,0,41,66.81a10.75,10.75,0,0,0-4.81,2.25,18,18,0,0,0-2.62,2.46,26.73,26.73,0,0,0-1.9,2.36,3.47,3.47,0,0,0-1.37.73A5.36,5.36,0,0,0,29,76.38l-.09.19A2.49,2.49,0,0,1,28.42,77.33Zm17.11,11.2H38.86a0,0,0,0,1,0,0V87l3.36-1.94,3.35,1.71ZM41,95.85h1.11v3.61H39.61Zm1.46,3.61V95.85h1.12l1.35,3.61Zm1.89-5.18a.88.88,0,0,1-.88.88H40.18v-1.9h2.07a.18.18,0,0,0,0-.36H40.18V91.27h2.07a.17.17,0,0,0,.17-.18.17.17,0,0,0-.17-.17H40.18V89.06h3.25a.87.87,0,0,1,.88.88Zm1.22-1.12h-.69V89.94a1.36,1.36,0,0,0-.32-.88h1Zm0-9v2l-3.36-1.72-3.35,1.94v-2l3.36-2,3.33,1.7S45.53,84.13,45.53,84.14ZM29.36,76.79l.09-.19A5,5,0,0,1,30.6,75a3.07,3.07,0,0,1,1.18-.62.53.53,0,0,0,.31-.26,28.48,28.48,0,0,1,1.83-2.26,18.64,18.64,0,0,1,2.54-2.39,10.09,10.09,0,0,1,4.59-2.14A3.9,3.9,0,0,1,44,68a2.49,2.49,0,0,1,.94,1.74,3.43,3.43,0,0,1-.06.88,11.67,11.67,0,0,1-.73,2.44,4.67,4.67,0,0,0-.44,1.84c0,.51,0,1,0,1.58-.06,2.06-.12,4.36-.08,6l-1.21-.61a.34.34,0,0,0-.34,0l-.8.46.13-8.2a6.41,6.41,0,0,1,1-2.75c.5-.9.57-1.56.19-2-.73-.76-2.6.05-3.39.44a15.19,15.19,0,0,0-4.22,3.17c-.1.12-.22.23-.33.34a6.3,6.3,0,0,0-1.44,2.45,1.8,1.8,0,0,1-.08.21c-.11.24-.19.45-.26.64a4.8,4.8,0,0,1-.39.83,4.67,4.67,0,0,0-.48.75c-.13.22-.3.51-.34.56s0,0-.1,0a.54.54,0,0,1-.27-.14,2.71,2.71,0,0,0,.7-1.32l0-.08a.59.59,0,0,0-.21-.68.84.84,0,0,0-1,.17l-.08.06a5.59,5.59,0,0,0-1,.86l0,.05a.49.49,0,0,0-.05.45.4.4,0,0,0,.1.15l-.1.16a.91.91,0,0,0-.62.26l-.13,0a.57.57,0,0,1-.49-.12.34.34,0,0,1-.11-.3,1.18,1.18,0,0,1,.43-.63l.11-.1A2.91,2.91,0,0,0,29.36,76.79Z"/><path class="cls-1" d="M42.25,86.69a.37.37,0,0,0,.36-.37,1.87,1.87,0,0,0-.31-.65.05.05,0,0,0,0,0,.07.07,0,0,0-.06,0,2.06,2.06,0,0,0-.3.65A.37.37,0,0,0,42.25,86.69Z"/><path class="cls-1" d="M42.25,84.06a.36.36,0,0,0,.36-.36,1.87,1.87,0,0,0-.31-.65.05.05,0,0,0,0,0,.07.07,0,0,0-.06,0,2.06,2.06,0,0,0-.3.65A.36.36,0,0,0,42.25,84.06Z"/><path class="cls-1" d="M99.72,102.24l-1.12-.6-.58-.38c-.74-17.06-5-26.75-11.25-36l-.92-1.35.45-1.55a.67.67,0,0,0-.14-.65h0a.35.35,0,0,0-.08-.13.55.55,0,0,0-.44-.17l-1.57.14-.67-.79a.65.65,0,0,0-.36-.22l-2-2.14h0a43.68,43.68,0,0,0-22.85-13.1,3.22,3.22,0,0,0-.68-1,1,1,0,0,1-.2-1.1A6,6,0,0,1,58,41.91h0a5.71,5.71,0,0,0-.33.55l1-.06h0c.69,0,1.43-.12,2.13-.21h0a13.26,13.26,0,0,0,1.63-.31,2.36,2.36,0,0,0,1.22-1.1,1.53,1.53,0,0,0,.11-.79,2.67,2.67,0,0,0,.55.07,2.53,2.53,0,0,0,1.09-.26h0a3.81,3.81,0,0,0,1.57.44,1.16,1.16,0,0,0,1.25-1,.52.52,0,0,0-.1-.4C64.51,34,57.89,31,55.66,30.08a1.26,1.26,0,0,0,.64-.49h.19a2.17,2.17,0,0,0,1.69-.67,2.36,2.36,0,0,0,.54-1.33,1.41,1.41,0,0,0,.81-.61,1.65,1.65,0,0,0,0-1.4,2.25,2.25,0,0,0,1.2-2.24h0a1.62,1.62,0,0,0,.63-1.5,3.15,3.15,0,0,0,1.39-2h0a2.1,2.1,0,0,0,1-2.1c0,.11,0,.22,0,.33a5,5,0,0,0,1.59-2.34h0a3.07,3.07,0,0,0,1.37-1.79,2.69,2.69,0,0,0,1.75-1.56,4,4,0,0,0,.28-.89h0a6.55,6.55,0,0,0,5.35-3h0a6.5,6.5,0,0,0,4.19-2.9l-.07.1a4.71,4.71,0,0,0,2.11-2.09,2.05,2.05,0,0,0,.19-1.22A.52.52,0,0,0,80,1.9h-.06L78,2.09A.26.26,0,0,0,77.79,2c-9.2,1.32-13.52,1.78-14.63,1.89a1.2,1.2,0,0,0-.66.29l-6.58,5.85a1.48,1.48,0,0,0-.48,1.18c.07,2.19.1,3.53.11,4.13a1,1,0,0,1-.16.58,34.84,34.84,0,0,1-4.12,5.19l-.18.09c-.44.14-.83.28-1.16.4.15-.13.32-.26.5-.39a2.25,2.25,0,0,0,.86-1.83,3.23,3.23,0,0,0-1.37-2.19,1.64,1.64,0,0,1-.55-.88,1.91,1.91,0,0,0,.49-.85.42.42,0,0,0,0-.36.63.63,0,0,0-.12-.11L51,14.88a.28.28,0,0,0,.24-.25c0-1-1.12-1.72-1.56-2h0a6.76,6.76,0,0,0-.39-2.76h0a1.16,1.16,0,0,0-.58-.75c-.63-.35-1.42,0-2.25.4a4.8,4.8,0,0,1-1.23.46.41.41,0,0,1,0-.12A2.58,2.58,0,0,0,46.49,9a2.42,2.42,0,0,0,.66-2.35.9.9,0,0,1,.35-.19c.71-.24.46-1.31.43-1.43a.26.26,0,0,0-.32-.19.27.27,0,0,0-.19.32c.06.24.1.74-.08.8a1.42,1.42,0,0,0-.56.31.93.93,0,0,0-.42-.1h0a2.39,2.39,0,0,0-1.62,1A2.92,2.92,0,0,0,44,9V9a2.42,2.42,0,0,0,.4,2.14c.69.66,1.73.18,2.64-.24a3.4,3.4,0,0,1,.37-.16.56.56,0,0,1,.52,0,.81.81,0,0,1,.41.59,4.07,4.07,0,0,1,.05,1.28l-4,.44a.74.74,0,0,0-.49.26A7,7,0,0,1,41.67,15a.87.87,0,0,0-.44.84l.64,8.25a.35.35,0,0,0,.05.13l.13.95v-.05a2.38,2.38,0,0,1-.39,0c-.26,0-.53,0-.73-.05a1,1,0,0,1-.62-.35c-1.12-1.36-5.8-7.06-7.33-9.26a10.47,10.47,0,0,0-3.6-3.57s-8.44-4.76-11.5-6.26c-1.2-1.35-.95-2.31-.95-2.31S27.3,9.21,34.56,13.65l.1,0c2.67.76,3.59,4.32,3.81,5.42a1.33,1.33,0,0,0,.27.56c.55.63,2.14,2.41,3.08,3.68l-.08-1c-.6-.76-1.37-1.67-2.29-2.7-.12-.15-.23-.27-.31-.36A.72.72,0,0,1,39,19a12,12,0,0,0-1-3,5.32,5.32,0,0,0-3.13-2.85C27.64,8.79,17.29,2.91,17.19,2.85a.59.59,0,0,0-.26-.07.54.54,0,0,0-.21.05.48.48,0,0,0-.28.28L12,.09a.55.55,0,0,0-.3-.09.48.48,0,0,0-.26.07.54.54,0,0,0-.27.5,7.77,7.77,0,0,0,2.51,4.87,4,4,0,0,0,1.55,2.94,3.74,3.74,0,0,0,2.16,2A7.58,7.58,0,0,0,19.22,13a5.3,5.3,0,0,0,2.52,2.3,5.09,5.09,0,0,0,3,2.72,6.47,6.47,0,0,0,2.24,2,4,4,0,0,0,1.72,1.3,3.14,3.14,0,0,0,2.26,1.74,3,3,0,0,0,1.61,1.32,3.28,3.28,0,0,0,1.57,2A4.3,4.3,0,0,0,36,28.28a2.61,2.61,0,0,0,1.42,1.36,2.51,2.51,0,0,0,2,1,1.55,1.55,0,0,0,.33,0,2.17,2.17,0,0,0,1.48.74,1.49,1.49,0,0,0,.36,0,1.89,1.89,0,0,0,1,.31,1.58,1.58,0,0,0,.66-.14h0c.32.38.89,1,1.64,1.77a2.44,2.44,0,0,0-2.3,2.3A3.52,3.52,0,0,0,43.37,38a5.13,5.13,0,0,0,2.05,1.48h0a1.47,1.47,0,0,1,.81,1,1.44,1.44,0,0,1-.32,1.26.7.7,0,0,0-.11.23h0a9.29,9.29,0,0,0-.83.89l-3,.38a1.75,1.75,0,0,0-.13-.68A3.07,3.07,0,0,0,40,41.19a1.53,1.53,0,0,0-1.34.27,2.35,2.35,0,0,0-.8,1.7c0,.07,0,.08-.12.09a.87.87,0,0,1-.52-.15l.06-.05a5.32,5.32,0,0,0,1.59-3.91A3.39,3.39,0,0,0,38,36.82a1.21,1.21,0,0,0-1.26-.14,2,2,0,0,0-1.1,1.84,2.62,2.62,0,0,0-2.44.29.8.8,0,0,0-.09,1,.6.6,0,0,0,.83.19,1.27,1.27,0,0,1,1.41,0l.1.08a.25.25,0,0,0,.15,0h.11c1.12,0,1.23-1,1.27-1.46s.1-.57.24-.62h0a2.73,2.73,0,0,1,.25,1.13,3.83,3.83,0,0,1-1,2.68,1.5,1.5,0,0,0-.58,1.67,1.91,1.91,0,0,0,2,1.19,1.47,1.47,0,0,0,1.3-1.35,1.17,1.17,0,0,1,.25-.71.33.33,0,0,1,.23,0,1.82,1.82,0,0,1,1,.64s0,0,0,.13a1.17,1.17,0,0,0,.07,1l.12.17a2.87,2.87,0,0,0,.12.83,41.65,41.65,0,0,0-7.17,2.33h0l.42-.17-.05-.18.83-.8a.26.26,0,1,0-.36-.38l-.63.6-.11-.41,0-.11.5-.48a.26.26,0,0,0,0-.37.27.27,0,0,0-.37,0l-.38.37a2.39,2.39,0,0,0-1-.82,2.31,2.31,0,0,0-1.89,0,2.28,2.28,0,0,0-1.27,1.41,2.24,2.24,0,0,0-.09,1l-.29.07a.26.26,0,0,0-.19.32.26.26,0,0,0,.25.2h.07l.29-.07a2.31,2.31,0,0,0,.18.35l0,.08-.47.12a.27.27,0,0,0-.2.32.27.27,0,0,0,.26.2h.06l.66-.16.35.54.25-.13c-.94.48-1.86,1-2.77,1.57l.22-.14-.67-1.29.74-1a.27.27,0,0,0-.06-.37.26.26,0,0,0-.37.05l-.58.78-.64-1.24v0L27,47a.26.26,0,1,0-.42-.31l-.33.43A3.17,3.17,0,0,0,24.52,46a3.23,3.23,0,0,0-1-.09L23.09,45l.33-.31a.18.18,0,0,0-.24-.26l-.26.24,0-.05a1.61,1.61,0,0,0-.35-.43l.24-.22a.18.18,0,0,0,0-.25.17.17,0,0,0-.24,0l-.29.27a1.74,1.74,0,0,0-.55-.21,1.6,1.6,0,0,0-.44,0l.11-1.47a.17.17,0,0,0-.28-.15l-.79.6a1,1,0,0,0-2-.1,1,1,0,0,0,.77,1l-.82.62a.16.16,0,0,0-.06.17.17.17,0,0,0,.13.14l1.35.3a1.61,1.61,0,0,0-.12.48,1.87,1.87,0,0,0,0,.53l-.43.24a.18.18,0,0,0-.06.24.16.16,0,0,0,.15.09l.08,0,.37-.21a1.72,1.72,0,0,0,.36.53l.87.85h0a3.24,3.24,0,0,0-.28.93,3.14,3.14,0,0,0,.45,2.07l-.8.45a.25.25,0,0,0-.1.36.24.24,0,0,0,.23.13l.13,0,.85-.48.85,1-.75.42a.28.28,0,0,0-.1.36.27.27,0,0,0,.23.14.2.2,0,0,0,.13,0l.84-.47,1,1.2a54.69,54.69,0,0,0-5.33,4.66,20.46,20.46,0,0,0-2.39,3l-.46.66,0,0-.58.74-1.84,0a.53.53,0,0,0-.42.2.51.51,0,0,0-.1.46L13,65.29A65.46,65.46,0,0,0,1.67,100.8c0,.14,0,.28,0,.42l-1.43,1a.56.56,0,0,0-.22.41.55.55,0,0,0,.19.42l1.44,1.19c0,.21,0,.4,0,.59s0,.51,0,.82a65.43,65.43,0,0,0,12.3,36l-.45,1.89a.54.54,0,0,0,.11.47.56.56,0,0,0,.45.17l1.77-.17c.32.39.64.76,1,1.13v0a.46.46,0,0,0-.1.25,4.18,4.18,0,0,0-3.1,3.66,8,8,0,0,0,1.81,6.06,5.52,5.52,0,0,0-1,4,4.85,4.85,0,0,0-5,2,4,4,0,0,0-3.32.18A4.79,4.79,0,0,0,3.69,165a3.83,3.83,0,0,0-2.9,2.92,5.19,5.19,0,0,0,2,5.15c.89.64,2.77,1.47,5.43-.14.34-.24,1.2.1,1.9.37.94.37,1.91.75,2.65.31a1.46,1.46,0,0,0,.56-.66c1.52.8,3,1.32,4.52-.78l.46.16c2,.7,5.23,1.86,7.8-.2a7.76,7.76,0,0,1,3.85.21c1.71.4,3.47.81,5.63-1.11,1.14,2.07,4.14,1.45,6,1.06a11.5,11.5,0,0,1,1.17-.2c1.54,1.63,5.17,1,6.88.42a20.89,20.89,0,0,0,8.64-.3,18.65,18.65,0,0,1,8.73-.08h.19a21.61,21.61,0,0,1,9.76.93c2.88.78,5.39,1.46,7.88,0a1,1,0,0,0,.8.42h.23a.76.76,0,0,0,.81-.42.9.9,0,0,0,.18-.45c.07.07.16.13.23.19a5.41,5.41,0,0,0,1.69,1l.11.05.07,0a4.73,4.73,0,0,0,2.34-.05,2.46,2.46,0,0,1,1.3-.06l.06,0a6.41,6.41,0,0,0,2.11.4,4,4,0,0,0,3-1.24,5.19,5.19,0,0,0,.88-5.43,4.12,4.12,0,0,0-3.39-2.56,3.52,3.52,0,0,0-1.55-2.77,4.12,4.12,0,0,0-3.44-.32c-.47-2.66-1.84-3.71-2.66-4.11a3.2,3.2,0,0,0-2.31-.23A5.27,5.27,0,0,0,84,156.22a7.7,7.7,0,0,0,1.58-5.34,5.17,5.17,0,0,0-2.76-4.57c0-.17,0-.4.06-.54a3.42,3.42,0,0,0,0-.44.59.59,0,0,0-.07-.26l.83-1,.38-.46a.69.69,0,0,0,.47-.25l.77-.91,1.36.2h.1a.66.66,0,0,0,.53-.24.69.69,0,0,0,.15-.66L87,140.21l.6-.88a.66.66,0,0,0,.1-.56,63.31,63.31,0,0,0,10.32-33,.76.76,0,0,0,.21-.5V104.2l1.57-1.06a.53.53,0,0,0,0-.9ZM97,101.37a1.41,1.41,0,0,0,0,2.69c0,.39,0,.79,0,1.18a2.5,2.5,0,0,1,0-4.95C96.94,100.65,97,101,97,101.37ZM82.51,61.5l.79.86A1.4,1.4,0,0,0,85,64.49l.6.89a2.66,2.66,0,0,1-1.27.34,2.47,2.47,0,0,1-2-1A2.54,2.54,0,0,1,82.51,61.5ZM56.84,43a1.58,1.58,0,0,0,.33,1.67,2.43,2.43,0,0,1,.5.68l-2.17.21a.28.28,0,0,0-.23.23c-.07.47-.26,2,.35,2.47a.67.67,0,0,0,.19.09,1.74,1.74,0,0,1-.65.07l-.22-2.75a.27.27,0,0,0-.29-.24.26.26,0,0,0-.24.28l.21,2.61a.58.58,0,0,1-.33.13.31.31,0,0,1-.25-.09L54,48h0l-.16-2v0a.26.26,0,0,0-.28-.24.27.27,0,0,0-.25.28l.15,1.88a.57.57,0,0,1-.48.05l-.22-2.71L55.41,44a1.33,1.33,0,0,0,.62-.6l1.45-2.76a1.64,1.64,0,0,1,.43,0,1.73,1.73,0,0,1,.31.07h0A8.72,8.72,0,0,0,56.84,43Zm-9.08-.22v0Zm0,.08a.5.5,0,0,1,0,.13A.5.5,0,0,0,47.76,42.86Zm0-.26h0ZM49,41.51a12.37,12.37,0,0,1,.85-1.18.92.92,0,0,0,0-1.25.84.84,0,0,1-.29-.88h.24a9.92,9.92,0,0,1,2.16.38l.15,0h.07a7.91,7.91,0,0,0,.78.22,1.87,1.87,0,0,0,0-.25,2.55,2.55,0,0,0-.11-.33,10.19,10.19,0,0,1-2.39-1l.1,0a.91.91,0,0,0,.53-.57,12.63,12.63,0,0,0,1.11,1,1.58,1.58,0,0,1,.76,1,5.17,5.17,0,0,1-.6,2.92l0,.05-.05.18s0,0,0,0S52,43.25,51,43.58l-.51-.75a.54.54,0,0,0-.45-.24.55.55,0,0,0-.44.26l-.56,1-2.56.25a5.3,5.3,0,0,0,1-.75h0A5.58,5.58,0,0,0,49,41.51Zm-1.39,1.65h0Zm-3-11a.8.8,0,0,0,.26-.38,1.35,1.35,0,0,0,.94.52.44.44,0,0,0,.16,0,1.33,1.33,0,0,0,.81-.89c.27.26.75.63,1.19.51h0a15.85,15.85,0,0,0,1.52,2.83,1.62,1.62,0,0,1-.77-.37.16.16,0,0,0-.16,0,.19.19,0,0,0-.12.11q-.18.6-.51.66a.5.5,0,0,1-.27,0A39.49,39.49,0,0,1,44.61,32.2ZM47,24.92A2.29,2.29,0,0,1,47.1,24a5.54,5.54,0,0,1,.58-1.21l.47-.1a5.2,5.2,0,0,0-.89,1.8.17.17,0,0,0,0,.07v.06c.06,1.4.6,8.58,5.31,12a2.53,2.53,0,0,1,1.14,1.61,6,6,0,0,1-.66,3.6A.11.11,0,0,0,53,42a3.37,3.37,0,0,1-1.44,2.37L51.35,44a2.92,2.92,0,0,0,1.38-2.19l.05-.14a5.47,5.47,0,0,0,.64-3.27,2.07,2.07,0,0,0-1-1.35C47.75,33.62,47.08,26.9,47,24.92Zm-.38-1.05A2.75,2.75,0,0,0,46.46,25c0,.15,0,.34,0,.54-.26.82-.49.92-.58.92h0c-.22,0-.52-.48-.66-.8a.19.19,0,0,0-.18-.11.18.18,0,0,0-.15.14c-.07.32-.27.82-.48.85s-.3,0-.68-.75a.19.19,0,0,0-.15-.09.18.18,0,0,0-.15.07c-.49.67-.68.62-.7.61h0l-.29-2.13,4.48-1.13A4.8,4.8,0,0,0,46.6,23.87Zm2.71-8.39,0,0v0Zm-.11,3c.22.16.72.64.74,1a.75.75,0,0,1-.3.56,10.06,10.06,0,0,0-1.27,1.07,4.2,4.2,0,0,1-1.81-.56.35.35,0,0,1-.15-.26l-.2-2.56a.33.33,0,0,1,0-.2l0-.07a1.14,1.14,0,0,1,1.39-.78,1.63,1.63,0,0,0,.44.14A3.06,3.06,0,0,0,49.2,18.46ZM48.12,22.2a6,6,0,0,0-.44.63A6,6,0,0,1,48.12,22.2Zm3.7.26h0Zm7.1-11.09h0ZM53.75,20Zm.11,0h0ZM51,23.33l.1,0Zm5.42,9.26c.2.18.39.37.58.56l.07.07,0,0,.07.06a8.3,8.3,0,0,1,1,1.87h0c.33.77.69,1.72,1.06,2.83v0h0c0,.09.06.19.1.28l0,.11.06.18,0,.1c0,.08,0,.16.08.24l0,.08,0,.18,0,0,.22.7h0l-.06.08,0,0-.07.08,0,0a.92.92,0,0,1-.32.2h0a1.1,1.1,0,0,1-.88-.12H58.4a2.46,2.46,0,0,0-.84-.14h-.33a2.23,2.23,0,0,0-.41.1l-1.88-2.18h0L53.15,36a5,5,0,0,1-1-1.76A4.12,4.12,0,0,1,52,33.11v0a2.44,2.44,0,0,1,0-.27v0a2.48,2.48,0,0,1,0-.27v0a1.5,1.5,0,0,1,.06-.29h0a2.49,2.49,0,0,1,.11-.29v0a.51.51,0,0,1,.27-.27h.05a5.71,5.71,0,0,1,.74-.15h.13l.2,0h.27l.4,0h0l.23,0A3.92,3.92,0,0,1,56.46,32.59ZM58,40.7h0Zm-1.18.12h0l-.43.82-.19-1.32.36.42h0a.29.29,0,0,0,.26.08Zm-8.06,3.57h-.38l.39,0Zm3.59.07a4.2,4.2,0,0,0,1.19-2.35,7,7,0,0,0,.78-3.33,4.28,4.28,0,0,0,.43-.14l1.54,1.78-.73-.84.4,2.7a.21.21,0,0,0,0,.11l-.41.78a.76.76,0,0,1-.37.36l-2.24,1ZM52.89,31h0Zm-.59.14h0l.08,0Zm-.79,1.24a.5.5,0,0,1,0,.12,1.64,1.64,0,0,0,0,.22s0,.1,0,.15v.38s0,.09,0,.13,0,.16,0,.24h0a.56.56,0,0,1-.26.41.72.72,0,0,1-.6-.09,8.57,8.57,0,0,1-.52-.81,1.19,1.19,0,0,0,.13-.39.88.88,0,0,0,.88.14.86.86,0,0,0,.39-.66l0,0Zm-.15,2a.62.62,0,0,0,.22-.17h0a5.83,5.83,0,0,0,.66,1.6h0A9.34,9.34,0,0,1,51,34.39.7.7,0,0,0,51.36,34.33Zm3,3.88-.14,0a.07.07,0,0,0,0,0h0L54.15,38Zm.24-7.68a.25.25,0,0,0-.25,0,.27.27,0,0,0-.09.24v.09H54.2l-.35,0h-.12l-.33,0h0a1.37,1.37,0,0,0,.14-.58c.26.13.58.22.77.05a.47.47,0,0,0,.1-.47,3.14,3.14,0,0,0,.64.07,6.05,6.05,0,0,1,.07.72ZM54,29.81a.66.66,0,0,1,.06.31,1.28,1.28,0,0,1-.63-.25.17.17,0,0,0-.19,0,.18.18,0,0,0-.08.18c0,.16,0,.63-.18.82a.72.72,0,0,1-.67,0,.19.19,0,0,0-.18,0,.19.19,0,0,0,0,.19l0,.05-.08,0a.29.29,0,0,0-.15.12,3,3,0,0,0-.17.36l0,0s0,0,0,.08l0,.1-.19-.12a.17.17,0,0,0-.19,0,.19.19,0,0,0-.09.16c0,.17,0,.56-.22.65s-.41,0-.74-.26a.19.19,0,0,0-.18,0,.21.21,0,0,0-.1.15,1.33,1.33,0,0,1-.06.3c-.23-.43-.43-.87-.62-1.31a1,1,0,0,0,.65,0,1.06,1.06,0,0,0,.54-.69,1,1,0,0,0,.92.15q.44-.2.51-1a.66.66,0,0,0,.66,0c.39-.27.3-1,.25-1.24l0-.13-.17-.21,1.16,1.44a.31.31,0,0,0,.15.1Zm-1.58-1.29a.14.14,0,0,0,0,.09c.06.31.07.81-.1.93s-.29,0-.54-.13a.15.15,0,0,0-.17,0,.16.16,0,0,0-.09.15c0,.55-.12.9-.32,1s-.65-.15-.77-.26a.18.18,0,0,0-.29.12s-.06.53-.39.67a.84.84,0,0,1-.69-.12c-.15-.39-.28-.79-.4-1.17a.86.86,0,0,0,.46-.06,1.06,1.06,0,0,0,.56-.69,1.12,1.12,0,0,0,1,.15c.3-.14.47-.49.52-1a.73.73,0,0,0,.71,0,.75.75,0,0,0,.27-.5l-.26-.31.67.82Zm-.62-1.3c0,.25,0,.53-.14.63s-.3,0-.57-.13a.19.19,0,0,0-.18,0,.2.2,0,0,0-.09.15c0,.55-.12.89-.33,1s-.68-.14-.82-.25a.19.19,0,0,0-.18,0,.15.15,0,0,0-.1.14s-.07.53-.41.68a.73.73,0,0,1-.44,0c-.11-.39-.2-.76-.28-1.12a1.66,1.66,0,0,0,.19-.48,1,1,0,0,0,.87.32c.27-.09.43-.36.5-.83.24.17.51.29.73.16s.26-.61.22-.88a3.62,3.62,0,0,0,.4-.13h0Zm-1.26-1a.2.2,0,0,0-.12.08.13.13,0,0,0,0,.13c.06.3,0,.64,0,.69s-.2,0-.58-.33a.15.15,0,0,0-.18,0,.15.15,0,0,0-.11.15c0,.69-.21.82-.29.84s-.6-.28-.75-.46a.18.18,0,0,0-.19-.06.17.17,0,0,0-.12.16l0,.2C48,27,48,26.5,47.9,26a1.19,1.19,0,0,0,.08-.2c.2.23.51.49.82.42s.44-.3.55-.75c.21.2.46.35.69.25a.54.54,0,0,0,.26-.42l.66.81A2.8,2.8,0,0,1,50.56,26.25Zm-2.78-1.62h0a4.62,4.62,0,0,1,.67-1.38,1.26,1.26,0,0,0,.12.5,1.18,1.18,0,0,0,.68.67l.24.08h0l.08,0h0l.32.39c0,.26,0,.48-.09.51s-.13,0-.52-.41a.18.18,0,0,0-.18-.05.18.18,0,0,0-.13.14c-.1.69-.28.78-.34.8s-.51-.32-.68-.57a.18.18,0,0,0-.18-.08l0,0C47.8,25,47.78,24.79,47.78,24.63Zm.61-2.2v0Zm.32,12.37a1.31,1.31,0,0,0,1,.29,12.81,12.81,0,0,0,1,1.21.7.7,0,0,1-.37.51.81.81,0,0,1-.57,0c-.61-.43-1.19-.87-1.74-1.33A1.06,1.06,0,0,0,48.71,34.8Zm0,10.65a1.42,1.42,0,0,0,2.81,0l.76.05.08,1a2.54,2.54,0,0,1-2.1,1.33h-.11a2.55,2.55,0,0,1-2.49-2.4Zm9.5-3.55H58c.09-.14.19-.26.28-.38l0,0-.16.21Zm.24-.55a1.71,1.71,0,0,0-.11.14c.16-.21.31-.39.44-.54a1.65,1.65,0,0,0,.31,0,1.42,1.42,0,0,0,.45-.08l.07,0,.09,0,.06.07a.57.57,0,0,1,.11.11.69.69,0,0,1,.11.13.41.41,0,0,1,.09.1l.1.12a.86.86,0,0,0,.07.1l.08.1.06.11,0,0c-.52.06-1.06.11-1.57.14Zm3.89,0a11.86,11.86,0,0,1-1.36.26,5.48,5.48,0,0,0-.85-1.12l.08-.08,0,0,.07-.09,0,0a.35.35,0,0,0,.05-.08l0,0,0,0,0,0a.25.25,0,0,0,0-.19c0-.07-.18-.6-.42-1.35a8.18,8.18,0,0,1,2.67,2.63A2.19,2.19,0,0,1,62.32,41.38Zm.9-.81a1.38,1.38,0,0,1-.14.24,9.57,9.57,0,0,0-3.33-3.05c-.16-.46-.34-1-.53-1.48l0-.08-.13-.36,0-.06.18.12.13.09.31.22.12.09a3.55,3.55,0,0,1,.31.23l.1.07.33.25.06,0,.7.57a.46.46,0,0,1,.07.07l.23.2.11.09.18.17.1.1.16.15.1.11.13.14.09.1.12.13a.76.76,0,0,1,.08.11l.11.13.07.09.09.13.06.09.08.13,0,.08a.89.89,0,0,1,.08.17l0,0A1.14,1.14,0,0,1,63.22,40.57Zm.4-1.2,0-.07-.06-.11-.06-.11L63.38,39l-.07-.12-.1-.13-.08-.11a1.71,1.71,0,0,1-.11-.14l-.09-.1-.14-.16-.09-.1-.15-.16-.1-.1-.18-.18-.1-.09-.2-.19-.1-.08-.23-.2-.1-.09-.25-.21-.1-.08-.28-.22-.1-.08c-.16-.12-.32-.25-.5-.37l-.23-.17-.16-.12-.3-.21-.14-.1-.35-.24L59,35.12l-.33-.22A13.1,13.1,0,0,0,58,33.5c4,2.5,6.68,4.55,7.39,5.75A1.92,1.92,0,0,1,63.62,39.37Zm4.15-.23a.65.65,0,0,1-.73.58A3.06,3.06,0,0,1,66,39.45a.26.26,0,0,0,0-.21c-.86-1.92-6.09-5.24-9.15-7.06a5.6,5.6,0,0,0-1.31-.92h0a.32.32,0,0,0,.14-.27v-.33C58,31.64,64.29,34.59,67.77,39.14ZM55.63,30.32v0Zm-.14-.73a.21.21,0,0,1,0,.11.31.31,0,0,0-.35-.26,2.53,2.53,0,0,1-1-.13l-3.8-4.7a1.22,1.22,0,0,0,.71-.4l.1-.11A47.61,47.61,0,0,0,56,29,.79.79,0,0,1,55.49,29.59Zm.92-.2a.17.17,0,0,0,0-.05A.17.17,0,0,1,56.41,29.39Zm.1-.32v0a.53.53,0,0,0-.17-.51,47.56,47.56,0,0,1-4.79-4.9l.44-.5c2,2.19,6.2,4,6.2,4A1.64,1.64,0,0,1,56.51,29.07Zm2.19-2a.25.25,0,0,1,0,.07.53.53,0,0,0-.32-.43s-4.18-1.8-6.06-3.9l.75-.86a28.43,28.43,0,0,0,5.76,3.4C59.46,26.42,59.09,26.86,58.7,27Zm0,.13h0Zm.62-2.06,0,0a.55.55,0,0,0-.25-.23,28.47,28.47,0,0,1-5.64-3.31l0-.05h0l.72-.82a26.43,26.43,0,0,0,6,2.41A1.82,1.82,0,0,1,59.34,25.11Zm1.38-2v0Zm-.11-.34h0a.54.54,0,0,0-.3-.21,26.28,26.28,0,0,1-5.77-2.31l.79-.91a24.48,24.48,0,0,0,5.45,2.18A1.18,1.18,0,0,1,60.61,22.77Zm.67-1.41a.9.9,0,0,1,.07.27A.9.9,0,0,0,61.28,21.36Zm0-.05a.54.54,0,0,0-.34-.3,25.14,25.14,0,0,1-5.24-2.07l.71-.82a18.33,18.33,0,0,0,5.92,1.34A2.9,2.9,0,0,1,61.26,21.31Zm1.57-1.78a.34.34,0,0,0,0-.1A.34.34,0,0,1,62.83,19.53Zm-.08-.36h0l0-.05a.56.56,0,0,0-.38-.19,18,18,0,0,1-5.63-1.24,1.08,1.08,0,0,0,.08-.19c.07-.2.18-.51.33-.89a18.61,18.61,0,0,0,6.09,1.15h0A1.58,1.58,0,0,1,62.75,19.17Zm.08.2s0,0,0,0A0,0,0,0,1,62.83,19.37Zm0-.11h0Zm.9-1.7v0Zm-.06-.11a.53.53,0,0,0-.43-.21h0a18.16,18.16,0,0,1-5.9-1.13l0,0,7.58-.74A5,5,0,0,1,63.64,17.45Zm1.77-2.28v0Zm0-.11a.51.51,0,0,0-.45-.26h-.06l-7.3.72c.16-.39.35-.81.55-1.26l8.19-.81A2.85,2.85,0,0,1,65.36,15.06Zm1.35-1.15.09-.3Zm.09-.59a.52.52,0,0,0-.5-.4h-.06l-7.89.78c.28-.6.59-1.22.93-1.85l9-.89A2.92,2.92,0,0,1,66.8,13.32Zm2-2.39a.52.52,0,0,0-.52-.49h-.06l-8.64.85c.39-.7.83-1.41,1.29-2.08L73.74,8S72.61,10.55,68.81,10.93Zm5.45-3.09a.52.52,0,0,0-.51-.42h-.07L61.29,8.65a14.28,14.28,0,0,1,2.07-2.28L77.83,5.23A5.89,5.89,0,0,1,74.26,7.84Zm4.08-2.76v0ZM80,2.42S80.26,3.69,78.29,5a.55.55,0,0,0-.45-.26h0L64.13,5.78h0l12-1.18.11,0c.59-.39,1.76-1.24,1.91-1.95ZM51.26,21.73a1,1,0,0,0,.33-.18,32.89,32.89,0,0,0,4.23-5.31,1.4,1.4,0,0,0,.26-.87c0-.61,0-2-.12-4.15a1,1,0,0,1,.31-.77l6.58-5.84a.57.57,0,0,1,.36-.16c1.1-.11,5.36-.56,14.38-1.86A5.25,5.25,0,0,1,76,4.08L64,5.26a.25.25,0,0,0-.12,0c-.26.17-.5.36-.75.56l-.27,0a.55.55,0,0,0-.31.14A16.38,16.38,0,0,0,60.11,9h0a27.51,27.51,0,0,0-1.61,2.68h0c-.4.77-.8,1.59-1.18,2.43h0c-.27.6-.53,1.22-.78,1.83h0c0,.15-.11.28-.16.41h0c-.19.51-.32.87-.38,1l-.25.29h0l-1,1.2h0a.52.52,0,0,1,.4-.18.52.52,0,0,0-.4.18l-1.14,1.31h0l-1.08,1.25h0l-1.06,1.23h0l-.67.77h0l-.13.1-.26.3a2.82,2.82,0,0,1-.44-.07h-.11a.51.51,0,0,0-.37.15l.1.06a.85.85,0,0,1-.39-.42,1.16,1.16,0,0,1,0-.86.64.64,0,0,1,.32-.27C49.83,22.23,50.46,22,51.26,21.73Zm-.38,1.62h0Zm-1.26-5.7a2.73,2.73,0,0,1,1.14,1.79,1.7,1.7,0,0,1-.65,1.39,8.3,8.3,0,0,0-1.43,1.25l-.56.12A9,9,0,0,1,50,20.46a1.25,1.25,0,0,0,.5-1c0-.76-1-1.42-1-1.43a3,3,0,0,1-1-2.76l.29,0A2.44,2.44,0,0,0,49.62,17.65Zm-.8-6.41a1.38,1.38,0,0,0-.68-1,1.13,1.13,0,0,0-.54-.13,1.12,1.12,0,0,0-.44.09l-.38.17c-.8.37-1.62.75-2.06.34s-.33-1.07-.25-1.61a.28.28,0,0,0,0-.13,2.33,2.33,0,0,1,.64-1.55,1.88,1.88,0,0,1,1.22-.76.3.3,0,0,1,.27.11c.25.28.09,1.11-.54,1.85A1.92,1.92,0,0,1,45,9.4a.27.27,0,0,0-.24.25c0,.58.12.72.16.76.27.26.83.07,1.83-.39.71-.33,1.38-.64,1.79-.42a.69.69,0,0,1,.32.44,6.28,6.28,0,0,1,.37,2.5l-.29,0A5.2,5.2,0,0,0,48.82,11.24Zm-7.07,4.51a.33.33,0,0,1,.16-.32,7.77,7.77,0,0,0,2.32-1.75.19.19,0,0,1,.14-.08l5-.55.11.07c.33.18,1.14.65,1.28,1.26l-3.13.34a.25.25,0,0,0-.23.26.25.25,0,0,0,.22.26l.38,0a4.23,4.23,0,0,0,0,.95l-.16,0h0a1.66,1.66,0,0,0-2,1.05l0,.07a.87.87,0,0,0-.1.48l.21,2.56a.84.84,0,0,0,.42.68,5.23,5.23,0,0,0,1.61.59,6.87,6.87,0,0,0-.56.74l-5,1ZM11.74.53l4.64,3.18A3.9,3.9,0,0,0,17.49,6a.51.51,0,0,0,.16.13l.16.08a25.7,25.7,0,0,1-3.33-1.46.59.59,0,0,0-.25-.07.52.52,0,0,0-.29.09.28.28,0,0,0-.1.09A7.35,7.35,0,0,1,11.74.53Zm2.49,4.65a18.59,18.59,0,0,0,5.48,2L21.34,8a47.52,47.52,0,0,1-5.57-.53h-.08a.58.58,0,0,0-.42.2h0A3.74,3.74,0,0,1,14.23,5.18ZM15.69,8a47.13,47.13,0,0,0,5.86.54l.72,0,2.2,1.2H24.1c-3,0-6.21-.32-6.25-.32H17.8a.52.52,0,0,0-.42.22.53.53,0,0,0-.08.17A3.56,3.56,0,0,1,15.69,8ZM17.8,10s3.22.32,6.3.32l1.28,0,2.36,1.31-8.14.54a.46.46,0,0,0-.35.16A8,8,0,0,1,17.8,10Zm3.87,4.59a.47.47,0,0,0-.05.1,5.39,5.39,0,0,1-2-2l9-.58.55.3a11.92,11.92,0,0,1,1.67,1.25l-8.73.7A.5.5,0,0,0,21.67,14.54Zm.45.27,9.19-.73.27.29c-1.51,1.36-5.25,2.35-6.66,2.64a.52.52,0,0,0-.38.31,0,0,0,0,0,0,0A4.61,4.61,0,0,1,22.12,14.81ZM25,17.52s4.91-1,6.89-2.73a4.78,4.78,0,0,1,.41.59c-1.57,2-5.25,3.7-5.28,3.71a.55.55,0,0,0-.25.25A7.36,7.36,0,0,1,25,17.52Zm2.24,2.05a19,19,0,0,0,5.35-3.71l.55.75a14.63,14.63,0,0,1-4.4,3.8.57.57,0,0,0-.24.27A3.76,3.76,0,0,1,27.27,19.57ZM29,20.87a15.47,15.47,0,0,0,4.48-3.81c.22.3.47.62.73,1a25.62,25.62,0,0,1-3.37,4.13.53.53,0,0,0-.15.34A3,3,0,0,1,29,20.87Zm2.21,1.65a25.69,25.69,0,0,0,3.34-4.07l.63.79a17.36,17.36,0,0,1-2.64,4.35.46.46,0,0,0-.1.18A2.43,2.43,0,0,1,31.24,22.52ZM33,23.94a17.62,17.62,0,0,0,2.62-4.23l.82,1a18.36,18.36,0,0,1-2.35,4.93l0,.06A3.19,3.19,0,0,1,33,23.94Zm1.51,2a18.42,18.42,0,0,0,2.33-4.75l.79,1a26.57,26.57,0,0,1-1.67,5.43A4.38,4.38,0,0,1,34.47,26Zm1.92,1.87A27.86,27.86,0,0,0,38,22.75l.69.85A42.74,42.74,0,0,1,37.25,29,2.42,2.42,0,0,1,36.39,27.86Zm1.34,1.33a47.13,47.13,0,0,0,1.43-5.06l.74.91.14.14a40.82,40.82,0,0,1-.64,4.71.55.55,0,0,0,0,.18h0A2,2,0,0,1,37.73,29.19Zm2.18.81a41.46,41.46,0,0,0,.64-4.5,1.16,1.16,0,0,0,.32.08l.39,0a29.53,29.53,0,0,1-.16,5,.49.49,0,0,0,0,.17A2,2,0,0,1,39.91,30Zm3,1a1,1,0,0,1-.31.05,1.45,1.45,0,0,1-.93-.38,30,30,0,0,0,.17-5l.33,0,.72,5.33a.31.31,0,0,0,.06.13Zm.21.27,0,0Zm-.15-.18ZM42.8,26.7c.22,0,.47-.19.77-.55.29.47.56.7.84.7h.07c.32,0,.53-.39.64-.69.18.3.47.63.81.62s.45-.19.63-.52c.06.51.14,1.1.27,1.74-.18.57-.36.67-.44.68-.26,0-.63-.45-.76-.7a.18.18,0,0,0-.19-.08.17.17,0,0,0-.14.15c0,.33-.2.86-.42.91s-.33,0-.78-.64a.18.18,0,0,0-.15-.08.19.19,0,0,0-.14.09c-.45.75-.66.72-.68.71h0l0,.36c.25,0,.51-.21.81-.66.37.46.69.65,1,.57s.5-.47.59-.78c.21.26.52.56.88.51A.73.73,0,0,0,47,28.6c.08.38.18.77.29,1.17a.4.4,0,0,1-.22.17c-.36.1-.91-.42-1.08-.62a.16.16,0,0,0-.17-.05.15.15,0,0,0-.13.13c-.06.23-.29.85-.68.94s-.63-.16-1-.64a.17.17,0,0,0-.27,0,1.23,1.23,0,0,1-.41.35l0,.36a1.32,1.32,0,0,0,.49-.34,1.56,1.56,0,0,0,1.07.63.55.55,0,0,0,.18,0,1.38,1.38,0,0,0,.84-.91c.28.26.78.64,1.24.51a.72.72,0,0,0,.23-.12c.14.47.31.95.5,1.44-.35.06-.85-.44-1-.63a.18.18,0,0,0-.17-.06.17.17,0,0,0-.13.14c-.06.23-.28.85-.65.93s-.6-.16-1-.65a.17.17,0,0,0-.18-.06.18.18,0,0,0-.13.15c-.05.34-.14.48-.21.5h0c-.53-.58-.88-1-1-1.13Zm2.88,12.36a4.69,4.69,0,0,1-1.9-1.35,3,3,0,0,1-.71-2.16,2.08,2.08,0,0,1,2.26-1.87,33.54,33.54,0,0,0,4.61,3.83l.33.18-.48,0c-.4,0-.7.08-.74.3a1.4,1.4,0,0,0,.42,1.49.4.4,0,0,1,0,.53c-.53.59-1.22,1.83-1.79,2.48a1.93,1.93,0,0,0-.45-.58,1.19,1.19,0,0,0-.54-.3A2,2,0,0,0,45.68,39.06Zm.83,2.51h0Zm-.14,0-.18.12Zm-.24.17-.1.08Zm-1,1.65a.22.22,0,0,0,.17-.09,6.87,6.87,0,0,1,1.27-1.26,1.22,1.22,0,0,1,.41.32,1,1,0,0,1,.22.37,4.53,4.53,0,0,1-1.32,1c-.87.56-1.77,1.14-1.87,1.8a.86.86,0,0,0,.09.5h-.07a.55.55,0,0,1-.4-.35A1.21,1.21,0,0,1,44,44.57a.26.26,0,0,0,0-.36.27.27,0,0,0-.18-.08.25.25,0,0,0-.18.08,12.25,12.25,0,0,0-1.47,1.73.68.68,0,0,1-.11-.48,1.22,1.22,0,0,1,.58-.7.25.25,0,0,0,.14-.27.24.24,0,0,0-.21-.22c-.11,0-.64-.06-1.15.93a2.41,2.41,0,0,1,0-1.29ZM39.8,42.1h0a.87.87,0,0,0-.7.15,1.58,1.58,0,0,0-.44,1,1,1,0,0,1-.85.9,1.4,1.4,0,0,1-1.42-.83,1,1,0,0,1,.41-1.1A4.27,4.27,0,0,0,38,39.17s0-1.22-.48-1.56a.48.48,0,0,0-.52,0c-.49.2-.53.62-.58,1.06-.06.62-.19,1-.72,1h0l0,0a1.79,1.79,0,0,0-2,0s-.06,0-.11,0-.08-.29,0-.32a2,2,0,0,1,2.18-.09.28.28,0,0,0,.2,0l.07,0a.32.32,0,0,0,.12-.11,1.68,1.68,0,0,0,.09-.49,1.47,1.47,0,0,1,.78-1.4.69.69,0,0,1,.73.08,2.82,2.82,0,0,1,.64,1.92,4.74,4.74,0,0,1-1.39,3.48c-.17.13-.36.34-.29.56a1.16,1.16,0,0,0,1.14.58.61.61,0,0,0,.58-.55,1.88,1.88,0,0,1,.6-1.35,1,1,0,0,1,.88-.19s1.19.36,1.52,1.14a1.12,1.12,0,0,1,.09.54l-.24,0,0,0a.69.69,0,0,0,0-.38A2.33,2.33,0,0,0,39.8,42.1Zm-9.21,6.54.47-.12a.27.27,0,0,0,.2-.32.27.27,0,0,0-.32-.19l-.66.16L30.14,48a2,2,0,0,1-.1-.21l.86-.22a.26.26,0,0,0,.19-.32.27.27,0,0,0-.32-.19l-.87.22A1.86,1.86,0,0,1,30,46.5a1.78,1.78,0,0,1,1.7-1.24,1.76,1.76,0,0,1,.74.16,1.81,1.81,0,0,1,.79.71l-.47.45a.26.26,0,0,0,0,.37.25.25,0,0,0,.19.09A.25.25,0,0,0,33.1,47l.32-.3.14.52-.19.18a.27.27,0,0,0,0,.37.25.25,0,0,0,.16.08c-1,.41-1.9.86-2.84,1.35l.17-.09ZM19.26,43.36a.64.64,0,0,1-.61-.69.65.65,0,0,1,.69-.61.64.64,0,0,1,.61.69.55.55,0,0,1-.14.37l-.25.19A.6.6,0,0,1,19.26,43.36Zm.29.4.29.44a.09.09,0,0,0,.08,0,.07.07,0,0,0,.06,0,.1.1,0,0,0,0-.14l-.3-.44,0,0a1,1,0,0,0,.22-.14l.07-.08,0,0,.33.48a.12.12,0,0,0,.09,0,.07.07,0,0,0,.06,0,.1.1,0,0,0,0-.14l-.34-.5.75-.57-.16,2.16-2.06-.46Zm.75,2.8a1.57,1.57,0,0,1-.3-.47l.21-.11a.18.18,0,0,0,.06-.24.19.19,0,0,0-.24-.07l-.12.07a1,1,0,0,1,0-.3A1.35,1.35,0,0,1,20,45l.94.21h0a.15.15,0,0,0,.11,0,.19.19,0,0,0,.07-.13l.07-.92h.1a1.36,1.36,0,0,1,.29,0,1.48,1.48,0,0,1,.35.13l-.18.17a.17.17,0,0,0,0,.24.18.18,0,0,0,.13.06.18.18,0,0,0,.12-.05l.24-.22a1.47,1.47,0,0,1,.31.35l.07.13-.22.2a.18.18,0,0,0,0,.25.16.16,0,0,0,.13.06.21.21,0,0,0,.12-.05l.14-.13.34.65h0A3.09,3.09,0,0,0,22,46.4a3.22,3.22,0,0,0-.91.93Zm2.77,5.64.19-.1a.27.27,0,0,0,.1-.36.26.26,0,0,0-.36-.1l-.28.16-.85-1,.17-.1a.26.26,0,0,0,.1-.36.27.27,0,0,0-.36-.1l-.23.14a2.54,2.54,0,0,1-.38-1.74,2.6,2.6,0,0,1,2.57-2.25,2.82,2.82,0,0,1,.65.08,2.58,2.58,0,0,1,1.48,1l-.37.5a.26.26,0,0,0,.05.37.25.25,0,0,0,.16.06.26.26,0,0,0,.21-.11l.24-.32.65,1.25-.1.14a.26.26,0,0,0,.06.37.27.27,0,0,0,.15,0,.25.25,0,0,0,.15,0l.58,1.12.05,0c-1.35.83-2.68,1.75-4,2.74l.35-.26ZM16.65,66a2.55,2.55,0,0,1-3.3.7c.19-.3.39-.59.59-.88a1.48,1.48,0,0,0,1.73-.52,1.44,1.44,0,0,0-.09-1.68h0c.24-.33.47-.63.68-.94A2.56,2.56,0,0,1,16.65,66Zm-14,37.79h0l.15.1h0Zm.05-1.93v0l-.36.21h0Zm0-.46a3.93,3.93,0,0,1,0-.48.11.11,0,0,0,0-.05c0-.2,0-.4,0-.6h.06a2.51,2.51,0,1,1,0,5l-.07-1a1.48,1.48,0,0,0,1.36-1.5A1.46,1.46,0,0,0,2.7,101.38Zm81.88,70.47c-2.21,1.56-4.5.94-7.4.15a27.67,27.67,0,0,0-6.9-1.18,12.83,12.83,0,0,0-2.87.07.3.3,0,0,1,0,.1l-.33,0-.17,0c.07-.28.31-.33.31-.87l-.32-.09a3.27,3.27,0,0,0-.51.87l-.5-.08a.62.62,0,0,1,.23-.44c0-.22-.18-.22-.18-.39-.32,0-.53.44-.68.74l-.52-.07-.08,0c0-.22.36-.71-.15-.71-.06.1-.54.65-.54.65h-.27l-.29,0c.07-.27.49-1-.15-.79-.12.19-.33.39-.33.65a1,1,0,0,1-.28.13h-.71c0-.29,1.15-.67.36-.92a4,4,0,0,0-1.28.94c-.36,0-.78.12-1.23.2s-1.13.21-1.67.32a18.62,18.62,0,0,1-5.15.52c-7.72-.46-9-4.16-13-6.44-.54-1.17-2.27-1.4-3.25-1.95a7.19,7.19,0,0,0-3.7.19c-.65.72-1-.48-.92,1,0,0-.06.07-.12.1a1.49,1.49,0,0,0-.36-.72c-.18.2-.36.26-.42.43a.64.64,0,0,1,.3.61c-.27,0-.65-1-.89-.16.56-.06,1,1.3.53,1.3-.06-.13-.26-.29-.26-.42a1,1,0,0,1-.3.13c0,.16.09.26.12.39a2.39,2.39,0,0,1-.51,1.69.38.38,0,0,0-.18,0c-.33.52-1.52,1.37-2.15,1.14-.5.45-3.6.32-4.11.16-2.33.13-6.14-1.43-8.23.13-.8.52-1.34,3.55.72,2.83a.75.75,0,0,1-.43.46,2,2,0,0,1-1.46-.23.9.9,0,0,1-.17-.26c-.87-3.45,2.68-4.78,5.07-4.36.15,0,.18-.1,0-.29a4.27,4.27,0,0,0-5.4.22c2.12-2.79,5.93-1.33,8.35,0,1.73.56,5.25,1.89,5-1.39-.72-2.64-4.95-2.61-6.95-3a4.92,4.92,0,0,0,0-.94,1.2,1.2,0,0,0-.27-.07c-.09.26-.06.65-.15,1a.91.91,0,0,1-.62-.26,1.78,1.78,0,0,1,.3-.88.67.67,0,0,0-.48-.2,1.63,1.63,0,0,0-.27.65c-.6,0-1-1.14-.24-1.36,0-.1-.3-.36-.3-.43-.18.1-.29.13-.59.59-.42-.46-.48-1.14.24-1.3,0-.07-.06-.26-.06-.36a1.59,1.59,0,0,0-.78.26,3.85,3.85,0,0,1-.12-.49,1.15,1.15,0,0,1,.81-.35v-.33a2.69,2.69,0,0,0-.93.13,2.91,2.91,0,0,1,.09-1c.3,0,.54-.1.72,0-.06,0,.06-.52,0-.55a1.91,1.91,0,0,0-.72,0c-.32-.44.27-2.21,1.05-1.82,0,.13.5.2.53.39a1.91,1.91,0,0,1,.3-.26,1.09,1.09,0,0,1-.08-.15.32.32,0,0,1,.31-.49l.22,0,0-.06c.23,0,.88.69,1.16,1.12a.46.46,0,0,0,.49.2h0a.42.42,0,0,0,.28-.47c-.05-.36-.09-.63-.15-1,.21-.3.77.13.95.13,0,.29.12-.29.12-.33s-.48-.58-1.31-.71a3.05,3.05,0,0,1-.06-.69,1.61,1.61,0,0,1,1,.33,1.7,1.7,0,0,0,0-.39,1.73,1.73,0,0,0-1.07-.39,4.94,4.94,0,0,1,0-.65c.24.13.51.09.71.26.66-.23-.26-.59-.53-.72,0-.49.42-1.14.92-1.14a.26.26,0,0,0,.24.22,5.33,5.33,0,0,1-.06,1.38c.6,0,.48-.78.65-1,.55.48,1.1,1,1.66,1.41.79.71,1.6,1.41,2,1.71v.16c-1.91.59-3,4.23-.9,6.21,1.52,1.63,6.41-.39,8.11-1,2.68-1,7.57,1.07,10.74,4,3.93,3.67,6.7,4.22,9.21,4,3.22-.17,8-1.24,9.51-1a10.32,10.32,0,0,1,4.23.74c.45.2.87-.19.87-.91a2.36,2.36,0,0,1-1-2.6c.24,0,.57-.1.69,0a3,3,0,0,0,.84,2.77c-.33.19-.54.52.09.52,0,.16-.06.09-.09.29.26.45.14.52.14,1.07-.62,0-1.49.39-.62,1,.6-.16,1-.49,1.91.09.53-.16,1.37.4,1.9.36,2.26.62,4.49,1.36,6.75,2l0,0c1.9.39,3.44.74,5.37.12,2.18-.91-.36-3.48-.6-2.27-.06.32,0,.45-.23.68s-.78.13-.72-.23c1.79-2.8,3.07.52,2.74,1.07a2.49,2.49,0,0,1-.35.59A.49.49,0,0,0,84.58,171.85Zm-41.2-.63a.54.54,0,0,0-.28-.19,4.43,4.43,0,0,0-1.78.19,12.22,12.22,0,0,1-3.06.36,4.67,4.67,0,0,1-1.28-.36,1.66,1.66,0,0,1-.67-.91.51.51,0,0,0-.2-.27,1.14,1.14,0,0,1,.68-1.1,1.09,1.09,0,0,1,0-.29,3.5,3.5,0,0,0-1,.22c-.12-.19-.3-.32-.48-.22a2,2,0,0,0,0,.42c.24.13.12.59.21.85a.6.6,0,0,0-.11.06.19.19,0,0,0-.1,0,.39.39,0,0,0-.19.12l-.06.05a7.71,7.71,0,0,1-2.76,1.39H32.1a9,9,0,0,1-2-.31,14.14,14.14,0,0,0-1.87-.35,2.64,2.64,0,0,0-2,.05l-.62.12a.53.53,0,0,0-.21.11l-.22.16-.37.15a.37.37,0,0,1-.08.15,4.29,4.29,0,0,1-.58.26c-.5.12-1.11.09-1.19,0,0,.23-1.37.45-1.64,0a2.25,2.25,0,0,0,1.58-.3,1.64,1.64,0,0,0,1.67-.39c.39-.58,3.1-1.13,3.76-.84,2.33.13,3.82-.1,5.4-1.47.24,0,1.1-1.26,1.1-1.49a.22.22,0,0,1,.15,0,3.33,3.33,0,0,0,.3.87.88.88,0,0,0,.6,0v-.32c-1-.36-.39-1.33.32-1.33.15-.53,3.31-.91,3.76-.91v.06c.42,0,.54.68.89.91,0,.33-.38-.19-.23.78-.12.23-.24.2-.48.2,0-.1,0-.17.12-.17-.24-.94-.72-.16-.72.26-.27,0-.41.36-.74.26,0-.39.18-.74-.06-1.07-.51,0-.39.65-.45,1.07h-.15a1.48,1.48,0,0,1-.36.78c-.44,2.35,2.9,1.53,4.27,1.53v-.13c1.52,0,2.44,1.11,3.43.85,0,.33,1.84,0,2.08,0,0,.48.72.19.87.48a2,2,0,0,1-.84.43,9.18,9.18,0,0,1-1.49.16.47.47,0,0,1-.12-.07,5.78,5.78,0,0,1-.93,0A2.54,2.54,0,0,1,43.38,171.22Zm-26.84,0c-.47.52-.74-1.5-.29-1.86a1.15,1.15,0,0,0,.09.26C16.63,170,16.51,170.79,16.54,171.22Zm.87-.39c-.09,0-.24.09-.36.09s-.06-.39-.09-.52c.27-.32-.36-.84-.24-1.14.12-.09.21-.12.24-.29.33,0,.3.1.51.17A2.94,2.94,0,0,0,17.41,170.83Zm1.1.32a1.4,1.4,0,0,1-.65-.13c0-.68-.12-1.33-.06-2.05a1,1,0,0,1,.71,0A3.48,3.48,0,0,0,18.51,171.15Zm1.16-.49c0,.23.45.52.39.75a2.25,2.25,0,0,1-1.07-.19c0-.82-.39-1.21-.15-2.21a4.69,4.69,0,0,1,.75,0C19.53,169.26,19.41,170.5,19.67,170.66Zm1.35.62a1.15,1.15,0,0,1-.6.1c.09-.2-.06-.68-.3-.68,0-.2-.24-1.27.12-1.63a.88.88,0,0,1,.63.16C20.36,169.46,20.78,171.09,21,171.28Zm1.25-.32h.06c.24.48-.27.16-.57.39a1.58,1.58,0,0,1-.39-2h.69a6.47,6.47,0,0,0,.06,1h.06A1.14,1.14,0,0,0,22.27,171Zm1.25-.23-.09.39c0-.13-.48-.13-.59-.13a2.22,2.22,0,0,1-.15-1.69c0,.09.41.23.53.23C23.22,170,23.1,170.5,23.52,170.73Zm.24-1.24h.66a5.74,5.74,0,0,0,.15,1.08c-.18,0-.27.06-.42.06v.07H24s0-.1,0-.1C23.58,170.6,23.73,169.82,23.76,169.49Zm1.16.17c.3-.07.87-.2.87.35l-.78.26C25,170.11,25,169.82,24.92,169.66Zm1.23-.1a3.64,3.64,0,0,1,1.22.06.46.46,0,0,0,0,.2,4.45,4.45,0,0,0-1.08.13A1.4,1.4,0,0,1,26.15,169.56Zm2.86.29c-.27,0-.69,0-1.11,0,0-.52.72-.68,1.14-.68A1.14,1.14,0,0,0,29,169.85Zm1.22-1.66a1.69,1.69,0,0,1-.69,1.73A1.37,1.37,0,0,1,30.23,168.19Zm.51-.52a3.72,3.72,0,0,0,.5-.65,3.88,3.88,0,0,1-.29,2.7,4,4,0,0,1-.57,0A3,3,0,0,0,30.74,167.67Zm3.93-1.36s0,0-.06.06c-.09-.13-.15-.26-.21-.33h0a2.67,2.67,0,0,0-2.27-1.13c-.09-.26.48-.16.48-.52C33.75,164.48,34.64,165,34.67,166.31Zm-1-2.18V164a2.93,2.93,0,0,1,1.22-.39c.66.13.87,2.31.42,2.54v.07h-.09A2.59,2.59,0,0,0,33.66,164.13Zm.63,3.38.14.16H34.2c0-.23-.6-1.92-2-1.88-.09,0-.36.06-.39,0,.06-.27.09-.46.15-.69A2.51,2.51,0,0,1,34.29,167.51ZM31.84,166v.17c1.1-.43,1.85,1,1.94,2A2.44,2.44,0,0,1,33,169c-.12-.75.21-2-1.31-2.64C31.63,166.24,31.66,165.92,31.84,166Zm.63,3.09a1.41,1.41,0,0,1-.9.52c-.12,0,.75-1.92-.15-2.79,0-.07.12-.17.21-.26A2.58,2.58,0,0,1,32.47,169.1Zm3.4-5.33c.35-.2.17-.16.53,0a3.89,3.89,0,0,1-.15,2.24c-.12.26-.62.42-.29-.29C36,165,35.75,164.32,35.87,163.77Zm1.07.42c.06-.13.09-.29.15-.42.68,0,.3,2.08-.15,2.08C36.73,165.43,37.3,164.78,36.94,164.19Zm.92-.06c.21.06.3.29.42.52-.27.36,0,.71-.51.94A3.91,3.91,0,0,1,37.86,164.13Zm.63,1.33c.12-.19.09-.71.15-.81a2.61,2.61,0,0,0,.83.71ZM41.83,170a.61.61,0,0,1-.33,0,6.54,6.54,0,0,0,.66-2.15c.33-.16.56.16.59.49S41.83,170,41.83,170Zm1.31-1.5a.86.86,0,0,1,.21,1.56,1.75,1.75,0,0,0-.81-.19A3.24,3.24,0,0,0,43.14,168.45Zm-1.7-.58V168h.15c-.12,1.3-.36,2.12-1.64,2.12a7.46,7.46,0,0,0,.75-1.92C40.81,168,41.23,167.93,41.44,167.87Zm-.24-1.24a2.85,2.85,0,0,0,.6.78c-.15.16-.42.1-.69.16C41.11,167.22,41,166.7,41.2,166.63ZM39.41,170c-.15,0-.44,0-.47-.23.44-.49.32-2.37,1.22-1.37C40,168.74,39.41,169.92,39.41,170Zm-.53-1.14a1.23,1.23,0,0,1-.42.78c-.15-.1-.06-.68,0-.85A1.75,1.75,0,0,1,38.88,168.81Zm4.95,1.46a1.48,1.48,0,0,1,.44-1c0,.23.15.26.3.46a1.71,1.71,0,0,0-.47.65A.9.9,0,0,0,43.83,170.27Zm.89.23a1.22,1.22,0,0,1,.27-.65,1.24,1.24,0,0,1,.36.23,2,2,0,0,0-.12.58A1.11,1.11,0,0,1,44.72,170.5Zm1,.2v-.23c.21-.2.51,0,.69.1v.09C46.12,170.73,46,170.83,45.7,170.7Zm-29.84.84s-.09.07-.12.1c-.3-.32-.27-.68-.18-1.3A1.83,1.83,0,0,1,15.86,171.54Zm-3,.07h0a.93.93,0,0,0-.33-.43c-.42.23,0,1-.36,1.43a1.66,1.66,0,0,1-.66,0,10.27,10.27,0,0,1-1-.33,4.31,4.31,0,0,0-1.88-.65,2.74,2.74,0,0,0-2,.62,1.84,1.84,0,0,1-.67.38,3.21,3.21,0,0,1-2.64-.5,4.13,4.13,0,0,1-1.54-4,2.85,2.85,0,0,1,2.44-2.21l.33.69c-2.15,0-3.22,2.57-2,4.45.54,1.31,2.86,1.17,3.67.36,1.22-1.2,3.46-.26,4.62.55.39,0,1.07-.06,1.07-.74-.12,0-1.13-.43-.56-.75.09.36,1.52.36,1.9.45a2,2,0,0,0,.09.72l-.35,0A.21.21,0,0,0,12.89,171.61Zm2-29.15.28-1h0Zm57.47,11.88.5-.39c.07.22.13.44.23.68-.18.32,1.58,2.57,2,2.7a.56.56,0,0,0-.21.06c-.84-.52-2.66-1.65-2.66-2.76A2.86,2.86,0,0,1,72.38,154.34ZM71,155.47c0,.75.54,1,.54,1.34a1,1,0,0,0-.42,0,3,3,0,0,0-1.4-.58v-.07c.23-.16.45-.3.65-.45l.52-.34A.1.1,0,0,0,71,155.47Zm2.33-1.59a1,1,0,0,1,.77-.58c.21,1.23,1.58,3.57,2.83,4,.18.13,0,.39-.38.29A5.28,5.28,0,0,1,73.32,153.88Zm-8.61,4.6a.58.58,0,0,1,.32.09c-.24.13-.45.32-.69.48a.47.47,0,0,1,.15-.48Zm-1,1c-.23,0-.53.22-.77.29s.09-.52.12-.55l.62-.2C63.8,159.18,63.68,159.31,63.74,159.48Zm-1.28,0c0,.59-.39.62-.77.62a.18.18,0,0,0-.12,0C61.57,159.7,62.22,159.38,62.46,159.44Zm-1.34.36c0,.16,0,.26-.12.42-.09,0-.51.1-.51-.13C60.73,160.06,60.82,159.83,61.12,159.8Zm-5.64,1.46c.07.79-.41.85-.86,1.05a8.76,8.76,0,0,1,.27-1.21C55.28,161,55.34,161,55.48,161.26Zm-12.67.56a6.08,6.08,0,0,0-.5-.52C42.57,160.19,43.68,161.82,42.81,161.82Zm-1-.72a.16.16,0,0,1-.12-.06v-.13c.06,0,.15,0,.24,0C42,161.17,42,161,41.86,161.1Zm-7.51-2.47a2.27,2.27,0,0,1-.42.33c-.12-.13-.06-.39,0-.56S34.26,158.6,34.35,158.63Zm-.93.42a.88.88,0,0,0-.3.07,1.15,1.15,0,0,1-.14-1.25l.45.2C33.55,158.38,33.44,158.6,33.42,159.05Zm-.83-1.23a1.63,1.63,0,0,0,.09,1.4.92.92,0,0,0-.33.16,2.11,2.11,0,0,1-.23-1.91l.31.14A.37.37,0,0,0,32.59,157.82ZM31,157.07c.26-.13.89.32.77.49-.72.06.09,1.85.15,1.95-.3.1-.75.39-1,.29a4.49,4.49,0,0,1-.06-2.73c-1.23,0-.6,2.18-.51,2.93-.42.06-.45.19-.84.09-.14-.32-.62-3.31.48-3.57a.34.34,0,0,1,.23-.08l.54.3A2.87,2.87,0,0,1,31,157.07Zm-1.88,3.15c-.45.17-1.34.56-1.76.39-.12-2.57.39-3.31,1.67-4.68,0-.08,0-.11.06-.12h0v0l.47.27C28.8,157.23,28.53,158.21,29.07,160.22Zm-2.18.46c-.8,0-.78-.16-1.25-.49.21-.26-.27-3.8,2.71-4.65a3.17,3.17,0,0,1,.44.12l0,0a.19.19,0,0,1,.09.15C26.71,156.22,26.89,159.35,26.89,160.68Zm.21-5.82c-.57,0-2.3,1.4-2.3,2h-.09a3,3,0,0,1,1.73-2.44C26.56,154.43,27.25,154.53,27.1,154.86Zm.89.32c0,.13.06.13.09.23-2.47.75-2.74,2.7-2.74,4.39h-.06C23.67,157.82,26.15,154.63,28,155.18Zm21.82,6.61h0l-.19-.37Zm-6.13-.69c.15-.13.89.1.77.33-.21.55-.35.88-.83,1.07,0-.1-.36-.42-.39-.55C43.44,162,43.59,161.3,43.68,161.1Zm1.22.23a.64.64,0,0,1,1,.42c.06.13-1.34,1.37-1.49,1.24s-.18-.13-.27-.2A3.28,3.28,0,0,0,44.9,161.33Zm.09,1.76c.77-.13,1-1,1.52-1.79,0,.32.24.26.45.42,0,.78-1.26,1.85-1.85,2C44.93,163.48,44.69,163.38,45,163.09Zm.69.91c.53-.39,1.78-1.76,1.78-2.51.57.2.66,1.11.81,1.56-.39.39-1.34,1.63-1.79,1.5C46.15,164.65,45.56,164.48,45.68,164Zm2,.39c.53-1.15,2-.76,1.58-.85-.4-.79-.86-1.65-1.26-2.42l.24,0,.51.09.49.9a.7.7,0,0,0,.56.36h.05a.72.72,0,0,0,.57-.28l.67-.9.32,0a1.65,1.65,0,0,0-.18.33,2.45,2.45,0,0,1,.42.07c-.17.84-1,1.8-1.14,2.58a.28.28,0,0,1-.23.22c-.77.12-1.53.2-2.32.3A.28.28,0,0,1,47.64,164.39Zm4.63-3.16c.11-.09.5.07.71.36a4.77,4.77,0,0,1-1.07,2.54c-.3.06-.6.13-.9.22A10.6,10.6,0,0,0,52.27,161.23Zm1.61-.06c0,.06,0,.06,0,0,.42,0,.15.16.42.26a2.78,2.78,0,0,1-1.55,2.37S53.64,161.46,53.88,161.17Zm-29.17,4.45c-1.34-.45.12,2.57-.35,2.25,0,0-.81-.36-.69-.49-.54-1.2.18-1.69.27-2.08.42,0,.45-.13.71.19a1.32,1.32,0,0,1,1.2.49c-.33.49-.57,1.89.36,1.43a1.17,1.17,0,0,1,0-1c.54,0,.42.2.6.78a1.66,1.66,0,0,1-1.58.75,1.86,1.86,0,0,1-.21-2.11A1.34,1.34,0,0,0,24.71,165.62Zm-1.64,1.76c-.17,0-.29-.16-.44-.23-1.08-.19-.57-1.88-.24-2.34a2.88,2.88,0,0,1,1.34.42C22.81,165.69,23.07,166.47,23.07,167.38Zm3.52-1c-1.37-1.63-3.43-1.82-5.33-2A4.82,4.82,0,0,1,19,163.7a4.81,4.81,0,0,1-3.54-3.63.59.59,0,0,0,0-.23c-.11-2.64,0-2.74,1.05-4.49l0,0a.52.52,0,0,0,.06-.42.5.5,0,0,0-.27-.33c-.77-.39-2-3-1.7-5.32a3.17,3.17,0,0,1,2.79-2.9.51.51,0,0,0,.28-.15l.11.12.2.21a.42.42,0,0,1,.05.22c-4.41.16-2.62,6.89-.17,7.74-2.75,2.11-1.23,7.15.95,8.58,0,.59,4.05,1,4.23,1.08,1.2.09,3.43.91,3.58,2.21Zm-5,.42c-.12,0-.68-.13-.68-.29.06,0,.06-.16.06-.23-.36,0-.33-1.49.21-1.66a5.36,5.36,0,0,1,.77.13A3.22,3.22,0,0,0,21.55,166.76Zm-1.22-.52a.11.11,0,0,1,.09,0c0,.1.06.16.09.29h-.09c-.12-.13-.45-.16-.63-.26-.12-.78-.65-1.56.36-1.89a2.61,2.61,0,0,0,.27.33C20.33,165.07,20,165.88,20.33,166.24Zm-1.07-1.53c-.33,0-.21,1-.18,1.14l-.3,0c-.48-.16-.63-1.59-.27-1.59a.82.82,0,0,1,.06-.26c.42-.13.24.36.72.32C19.29,164.52,19.2,164.58,19.26,164.71Zm-1.26.81a.56.56,0,0,0-.2.14.56.56,0,0,0-.09-.14c-.66,0-.3-1.56,0-1.88.09.06.15.32.5.39C18.21,164.35,17.59,165.07,18,165.52Zm-1.1-.13a4.37,4.37,0,0,0-.65,0c0-.39-.09-1.88.53-1.88,0-.07,0-.13,0-.17-.3-.32-.47,0-.65.26-.54.26-.42,1.44-.36,1.86a1.46,1.46,0,0,0-.42.19c-.36-.81-.77-4.06,0-4.06a.62.62,0,0,1,.12-.46c.18,1.24,1.37,1.6,1.82,2.57C16.9,164,16.84,164.87,16.9,165.39Zm-4.35,1.5c-.72-.81-1.64-2.83-1.37-3.84a3.41,3.41,0,0,1,.62-.94c0,1,.36,3.71,1.34,4.23,0,.29.45.71.12.91C13.14,167.05,12.76,167,12.55,166.89Zm.3.75v.81a2.58,2.58,0,0,1-1.43-1.1c-.51,0-.45-.72-.84-.72-.06-.36-.33-2.57.18-2.57C10.94,165.07,11.71,167.41,12.85,167.64Zm-.6-5.72a1.19,1.19,0,0,1,1.19-.75v.39c-1.28.62.54,4.32.72,4.68-.15,0-.21.23-.36.23C12.67,165.36,12.31,162.73,12.25,161.92Zm1.67-.92a1.17,1.17,0,0,1,1.31.23c-1.13,0-.59,4-.21,4.59a1.71,1.71,0,0,0-.38.13A6.46,6.46,0,0,1,13.92,161Zm5.37-13.14.2.1c.13.15.27.3.41.44a1.52,1.52,0,0,1,.22,1.38.35.35,0,0,0-.21,0c-.38-.72-1.73-2.44-2.65-2.41,0-.74,1.4,0,1.77.09l.1.1C19.19,147.7,19.29,147.84,19.29,147.86Zm-.48,5.37c-.21-.52-1.16-.06-1.4.33-.24-.26-.54-.36-.48-1,.3-.26.9-.42,1.76.16A1.59,1.59,0,0,0,18.81,153.23Zm-2.24-.88c-.32-.16-.56-1.3-.56-1.62.38-.88,2.8.58,2.8,1.59C18.33,152,17.11,151.48,16.57,152.35Zm1.35,1.53c0-.49.68-.49,1-.32,0,.19.21.52.18.71a1.72,1.72,0,0,0-.72.07C18.09,154.24,18.21,153.88,17.92,153.88Zm1-2.5A3.87,3.87,0,0,0,16,150.21c0-.36-.18-1,0-1.37a3.65,3.65,0,0,1,3.1,2.08Zm-2.83-3c0-.42.38-.56.47-.94a.5.5,0,0,1,.57.25c.81,0,2.06,1.63,2.45,2.28a1.73,1.73,0,0,0-.09.42h-.06C18.36,149.26,17.53,148.52,16.1,148.42ZM21.26,150l.06.26c-1.32.72-1.71,3.68-.69,4.78l-.1.26c-.12-.16-.32-.29-.35-.55C18.6,154.11,19,149.33,21.26,150Zm-.63-.68c.06,0,.09,0,.12,0l.12.26s0,.06-.06.09h-.12C20.63,149.59,20.63,149.46,20.63,149.33ZM10,162.1c1.38-1.84,2.94-2.41,4.79-1.74a.5.5,0,0,0,.32,0c0,.13.06.27.07.34-.5-.1-2.62-.32-3.22.78a3.29,3.29,0,0,0-.8.78c-1.91,2.86-.84,5.11-.06,5.73a2.73,2.73,0,0,0,1.64.94,1.63,1.63,0,0,0,.21.81c.74,0,.06-1,.74-1,0-.26.75-1,1-1.13a4,4,0,0,1,3.25-.39,3.84,3.84,0,0,0-4,1.85c-.54.29-.18.85-.48,1.17-.59.26-2.35-.23-3.4-1.37-.58-.51-2.42-3.9-.5-6.56A.52.52,0,0,0,10,162.1Zm.5,9.18c-.18.16-.24,0-.62-.1a6,6,0,0,1,0-1.75H10c0,.23.63.45.63.84A7,7,0,0,1,10.52,171.28Zm-2.41-.84-.39,0c-.18-.13-.42-.13-.6-.29a1.91,1.91,0,0,1,.3-.07c0-.85-.06-3.09,1.1-3.41a7,7,0,0,0,.27,1.2C7.87,167.9,8,169.85,8.11,170.44ZM7,170v.1H6.88a4.11,4.11,0,0,1-.68-1.5c0-1,1.1-3.16,2.17-3.09a8.82,8.82,0,0,0,0,.91c-1.34.55-1.46,2.28-1.46,3.58Zm-1.64,1.33a1.15,1.15,0,0,1-1.22.16c-.3-1.3,1-3.93,1.46-2.37h.06v.1C4.74,169.17,5.15,170.7,5.36,171.28Zm-.59-3.74a2.34,2.34,0,0,0-2.12,1.63,1.86,1.86,0,0,1,2-2.18A4.6,4.6,0,0,0,4.77,167.54Zm.35.59v.26c-1.46,0-1.55,1.88-1.55,3a1.44,1.44,0,0,1-.68-.62C2.89,169.75,3.78,167,5.12,168.13Zm3.28-3.78c0,.23,0,.75-.15.88-1,0-2.11,1.63-2.29,2.34C4.89,166.44,7.42,164.58,8.4,164.35ZM5.9,167.7a1,1,0,0,1-.18.59c-.18-.07-.21-.26-.21-.46A3,3,0,0,1,5.9,167.7Zm2.3-3.77c-.18-.39-3,1.66-3,2.73-.38-.45,0-1.65.24-1.91a4.14,4.14,0,0,1,3.19-1.44C8.61,163.54,8.55,164.19,8.2,163.93Zm-2.36,5.43c.45,0,.48.88,1,1.21-.06.26-.62.32-1.07.45C5.72,170.63,5.51,169.72,5.84,169.36ZM9.06,168c0,.88.45,1.11.42,1.47a1.1,1.1,0,0,0-.15.81,1.09,1.09,0,0,1,.15.68,4.81,4.81,0,0,1-1-.39C8.52,170.05,8.31,168,9.06,168Zm-.15-5.1c-.27-.87-2.91.34-4.06,1.69a3.53,3.53,0,0,1,1.76-2.31,2.89,2.89,0,0,1,2.53-.09C9.11,162.41,8.91,162.62,8.91,162.86Zm47.89,3.87v-.1c.35-.26.59-.71,1.19-.49C58,166.76,57.24,166.63,56.8,166.73Zm1.67-1c.8-.23.86-.56,1.25.55a1.78,1.78,0,0,0-1,.1C58.71,166.18,58.29,166.31,58.47,165.69Zm1.34-.36c.24-.23.18-.36.59-.13a6.11,6.11,0,0,1,.3,1h-.65A5.54,5.54,0,0,1,59.81,165.33Zm1.61-.55c.12,0,.42,1,.42,1.2a1,1,0,0,1-.72-.06C60.73,164.68,61,164.94,61.42,164.78Zm.63.16c.35-.39.29-.23.62-.23,0,.52.21.95.21,1.37C62.13,166.21,62.1,165.46,62.05,164.94Zm2.32,1.24c-.24.06-.86,0-1-.23a1.47,1.47,0,0,1-.33-1.24c.27,0,.45.26.62,0C63.63,165.39,64.13,166.21,64.37,166.18Zm.36,0c-.21-.48-.57-.78-.57-1.43.21.1.21-.1.72-.1C64.91,165.13,66.1,167.05,64.73,166.14Zm.56-1.62c.12-.23.63-.3.9-.46.57.39,0,1.89,1.43,2.44-.39.33-.89.13-1.22.07C66.19,166.34,65.21,165.39,65.29,164.52Zm6.89.94c-.09.2-.35.2-.62.13-.33-.78-1.08-1-1-2.67.24-.39.6-.19,1-.19A3.65,3.65,0,0,0,72.18,165.46Zm1.08.06c-.24,0-.36.07-.57,0-.45-.94-1-1.72-.69-2.89a2.13,2.13,0,0,1,.78.13A2.93,2.93,0,0,0,73.26,165.52Zm.32-1.2c.39.55.57.65.57,1.4-.21,0-.39-.1-.66-.1a2.1,2.1,0,0,0-.38-1.14c-.09-.45-.18-1.56.18-1.95.35.17,1.64.23,1.37.62C74.18,162.76,73.11,163.35,73.58,164.32Zm2.45,1.6a.52.52,0,0,1,.54,0c2.59-.56,4.5,2.08,7,1.75.75.2,2.06-1,1.14-1.72-1,.26-.57-.65.09-.13,1.19.22.38,2-.39,2,0,.33-2.89.2-2.89,0a7.54,7.54,0,0,0-2.36-.65,3.22,3.22,0,0,0-1.46-.36v.1a1.53,1.53,0,0,1-.93-.65c-.23.07-.23.07-.23.33.15.06.41.19.41.35,1.26,0,.9,3.39-1,3.16-.21,0-.84-.33-.72-.69a.48.48,0,0,1,.39.3c1.94.39.9-2.51-1-2.38-.15-.13-.75-.39-.75-.06-.38-.36-2.14-.46-2.38.06H71c-.18-1.07-.66-.74-.51,0h-.09a2.18,2.18,0,0,0-.06.22,2.65,2.65,0,0,0-.44.17c0-.17.18-1-.3-.78-.06.32-.15.68-.21,1l-.27.09c-.18-.35.36-1.07-.45-1.07v-.1a2.35,2.35,0,0,1,2.18-.78A.33.33,0,0,1,71,166c.63.13,1.7-.06,2.47,0,.21,0,.57.06.75-.06C74.9,166.47,75.28,165.79,76,165.92Zm-1.46-.85c.24-.06.8.06.8.39a4.16,4.16,0,0,1-.8.29A.77.77,0,0,1,74.57,165.07Zm8.17-8.47,0,0,.31.23a4.08,4.08,0,0,1,1.44,1.52l0,.07a2,2,0,0,1,0,1.31,5.2,5.2,0,0,1-4.09,4.68,4.64,4.64,0,0,1-3.28-.39A.93.93,0,0,0,77,164a1.71,1.71,0,0,1,0-.39c.15-.07.36,0,.48-.13,1.16.52,1.55-.23,3.25,0,1.46-.59,2.77-1.46,3-3.32,0-1.53-.12-2.18-1.28-2.93C82.28,157.05,82.57,156.84,82.74,156.6Zm5,6.52c.06.45,0,1.75-.42,1.92-.66-.23-2.18-1.27-2.15-2.21-.15-.1-.38-1.05-.15-1.17C84.91,162.79,86.91,163.28,87.69,163.12ZM85,161.2a.62.62,0,0,1,.06-.26c1.67.49,2.09.52,2.63-.16a3.93,3.93,0,0,1,.12,1.85C87.45,163,85.21,162.34,85,161.2Zm.63,3.09c0,.65,1.4.81,1.67,1.23A8.59,8.59,0,0,1,87,167c-1,.1-.86-.39-1.22-.84-.15-1-.9-.1-1-1.6a2.65,2.65,0,0,1-.36-2.53A3.84,3.84,0,0,0,85.63,164.29Zm1,3.32c-.74,1-.44.68-1.16.55,0-.2.09-.78.3-.91,0-.46.39.1.51.26Zm-3.93-.36h-.15c-1.16-.13-.45-3.29-.18-3A6.18,6.18,0,0,0,82.71,167.25Zm.42-3.58c.2.49.11,1.2.35,1.72-.18.56-.24,1,.24,1,0,.23.06.49.12.75l-.42.06C82.8,166.79,82.26,164.13,83.13,163.67Zm.59-.62a9,9,0,0,0,.66,2.12c-.18,0-.36.1-.54.13C83.81,165,83.22,163.05,83.72,163.05Zm-2.15,3.78h-.12c-.83-.46-.44-2.83.21-2.12A5.36,5.36,0,0,0,81.57,166.83Zm-1.1-.49-.09,0c-.68-.23-.65-1.66.18-1.46A5.71,5.71,0,0,0,80.47,166.34Zm-1-1.24V166c-.3,0-.3-.13-.51-.13C78.86,165.2,78.83,164.84,79.49,165.1Zm-1.11,0a2.74,2.74,0,0,0,0,.49,1.46,1.46,0,0,0-.74.07c0-.17-.21-.43-.24-.75l.18-.13A1.37,1.37,0,0,0,78.38,165.1Zm-1.31.26a3.11,3.11,0,0,1-1.22-.06c0-.49.75-.62.75-1.17C77,164,77.07,165.1,77.07,165.36Zm7.22.82c.24.13.3-.07.3.39a.74.74,0,0,0-.3.13C84.14,166.53,84,166.34,84.29,166.18ZM84,168.62v-.14c.87-.16,1.13-.71,1.22.07.33,0-.06.52-.06.65v-.06A7.94,7.94,0,0,0,84,168.62Zm-1,0c-.06.12-.15.16-.3.22-.33-.13,0-.36.24-.36C82.89,168.52,82.92,168.55,83,168.62Zm-5.25,2.43A5.86,5.86,0,0,0,80,167.77c.42,0,.57.23.93.36-.15.81-1.61,3.05-2.51,3.22a6.75,6.75,0,0,0-.68-.17Zm-.9,0a1.28,1.28,0,0,0-.59-.23v-.09c1.67-.62,1.91-1.6,1.91-3.13.47-.42.77,0,1.25-.13C79.82,168.52,77.46,170.89,76.8,171Zm2.57.3a7.63,7.63,0,0,0,2.12-3.19l.29.06c.06.2.09.39.15.59a5.82,5.82,0,0,1-1.73,2.89,4.29,4.29,0,0,0-.83-.23ZM82,170.21a1.41,1.41,0,0,1,.42.84c-.12.69-.95,1-1.28.62A11,11,0,0,0,82,170.21Zm-7.06,0a6.36,6.36,0,0,1-1-.26,5.76,5.76,0,0,0,.69-2.34c1,.22,1.16.22,1.52,1.1s-1,.46-1.07-.39C74.21,168.62,75,170.31,74.9,170.21Zm-2.75-2.64c.06-.22.12-.26.36-.32.63,0-.12,1.82-.12,2.05a2.36,2.36,0,0,1-.65,0C71.74,168.84,72.27,168.35,72.15,167.57Zm1-.06c.18-.2.47-.1.71-.2a2.9,2.9,0,0,1-.53,2.44l-.57-.22A5.05,5.05,0,0,0,73.14,167.51Zm-1.73,1.63c-.57-.17-.21-1-.18-1.57C71.85,167.44,71.71,168.65,71.41,169.14Zm-.81-.4c-.44.3-.68.27-1,0,0-.23.66-.55.86-.71C70.72,168,70.6,168.55,70.6,168.74Zm.48-3.12a1,1,0,0,1-.69.1,3.13,3.13,0,0,1-1.22-2.44.92.92,0,0,1,.93-.29C70.1,164.26,70.69,164.68,71.08,165.62Zm-1.28.2c-.12.26-.42.26-.81.36a2.66,2.66,0,0,1-.77-2.83h.47A3.54,3.54,0,0,0,69.8,165.82ZM83,170.7c.56-.2.44.81-.18,1C82.68,171.41,83,170.92,83,170.7Zm1.13-.62c.18.32.48,1.14-.15,1.14C83.66,171,83.51,170.08,84.08,170.08Zm2.33.58c0-.61,1.13-.52.89.23A2.22,2.22,0,0,1,86.41,170.66Zm6.67-7.61a2.6,2.6,0,0,1,1.07,2.37.52.52,0,0,0,.52.53,3.07,3.07,0,0,1,2.93,2,4.14,4.14,0,0,1-.67,4.29c-.92,1-2.28,1.17-3.94.58a3.09,3.09,0,0,0-1.95,0,3.91,3.91,0,0,1-1.79.08l-.12-.05-.1,0a4.6,4.6,0,0,1-1.35-.86c-.23-.18-.43-.34-.62-.46,1.63.33,2.27,1,4.18.76.38-.16,1-.55,1.34,0a5.16,5.16,0,0,0,2.35.23c2.36-.23,3-5.43.48-5.89a7.11,7.11,0,0,1-.33,5.11,1.77,1.77,0,0,1-.68.26.66.66,0,0,1,.26-.52c.42-1.24.9-3.19.33-4.43a2,2,0,0,1,.27-.42c-.6-.42-.86-.32-1.55-.29a3.47,3.47,0,0,0-2.52-3.51A2.84,2.84,0,0,1,93.08,163.05Zm-2.14,5.89a10.39,10.39,0,0,1-.3,2.57c-.12,0-.39.32-.39.06.15-1.33.45-3.41-1-4a1.72,1.72,0,0,1,.39-1.39C89.48,166.57,91.27,167,90.94,168.94Zm-.6-4.81c0-.52,2.09.26,2.24,1.33.06,0,.09-.07.15-.07a5.31,5.31,0,0,1,.23,1.37c1.5-.1.78,2.93-.11,3.38.11-2.31-.21-4.87-2.72-5.53C90.07,164.55,90.25,164.13,90.34,164.13Zm-.18-1.08c1.55.07,3,.88,2.72,2.22-.57-1.24-1-1.6-2.72-1.66A1.18,1.18,0,0,1,90.16,163.05Zm4,4c0-.46-.27-.62.09-.65,1.76,1.72-.66,6.11-.54,5.43a2,2,0,0,1-1.22-.33l.09-.42C94,171.48,94.4,167.09,94.13,167.09Zm-3.91-2.15c2.06.58,3.58,6.67.84,6.67.21-.88,1.13-4.91-1.29-5.57C89.89,164.71,90,164.91,90.22,164.94Zm-.36,6.54a1.27,1.27,0,0,0,0,.32c-.17,0-.35-.13-.71-.19,0-.69-.24-2.35-1.07-2.25,0-.35.44-1.53.83-1.53A4.11,4.11,0,0,1,89.86,171.48Zm-1.55-1.66a3.35,3.35,0,0,1,.33,1.1h.06c.06.2.09.46-.12.52a1.17,1.17,0,0,0-.77-.22c0-.36-.09-1-.42-1.17a.76.76,0,0,1,.45-.56C88,169.66,88.07,169.88,88.31,169.82Zm7.79-2.44c.71,0,.56,3.77-.42,4C96.25,170.47,96,168.19,96.1,167.38Zm-10.82-8.76a1.94,1.94,0,0,1,1.8.06c.69.33,1.89,1.29,2.17,4a.52.52,0,0,0,.27.4l0,0a4.93,4.93,0,0,1-.39,2.91c-.27.13-1.46,4.33-3.37,3.9-.12-.16-.09-.26-.06-.45.92-.29,2-3.29,2.15-4,.32-1.72.74-4.06-.21-5.88-.72-.36-1.4-.81-2.21-.39v.19c.75-.22,2.74.33,1.82,1.5-2.27.33-2.83-.59-1.94-1.56-.24-.15-.22-.32-.23-.57A.39.39,0,0,0,85.28,158.62ZM84.51,151c.13,2.14-.76,4.32-1.66,4.83a0,0,0,0,1,0,0,.84.84,0,0,1,.24-.36,4.81,4.81,0,0,0,1-2.73,8.58,8.58,0,0,0,0-3.61l0,0A5.57,5.57,0,0,1,84.51,151Zm-2.65-4a.45.45,0,0,0,.23.2,3.56,3.56,0,0,1,.58.31,2.85,2.85,0,0,0,.56.63.24.24,0,0,1,.15.19c.07.68.34,1.18.44,1.85a.25.25,0,0,1-.1.25c-.06,0-.08.09,0,.26a.59.59,0,0,1,.21,0,4.54,4.54,0,0,1-.09,1.55.28.28,0,0,1-.31.26c-.4-.06-.92.17-.67.57a4,4,0,0,0,.47-.09.28.28,0,0,1,.34.33l-.06.22a.27.27,0,0,1-.35.16,2.87,2.87,0,0,0-1.24-.1c.25.95.6.4,1.08.42a.27.27,0,0,1,.23.36,3,3,0,0,1-.24.47.27.27,0,0,1-.22.12c-.58,0-1.13,0-1.29-.59a.66.66,0,0,0-.27,0v.2s0,0,.09,0c0,.68.71.88,1.19.88a.54.54,0,0,1-.36.42v-.06a.81.81,0,0,0-.58-.11.22.22,0,0,1-.14,0c-.43-.2-1.1-.55-1.22-1a1.2,1.2,0,0,0-.27-.07c0,.81,1.2,1.5,1.82,1.73v.09a1.94,1.94,0,0,0-.29.23c-.93-.32-2.66-.49-2.66-1.89a1.45,1.45,0,0,0-.12-.22c-.65.71.74,2,1.38,2.34a.33.33,0,0,0,.17,0,2.26,2.26,0,0,1,.33,0,4.17,4.17,0,0,1,.24,2.14,2.68,2.68,0,0,0,.27.07,1.6,1.6,0,0,0,.12-1.34c.3-.16.18-.42.18-.68l.23-.06a1.92,1.92,0,0,0,.18.48l.24-.06c.26-.12,2.14,2.09.64,4.06a.28.28,0,0,1-.46,0c-.16-.27-.36-.55-.36-.59-.18,0-.35,0-.35.22.53.59.17,1.14-.1,1.66a2,2,0,0,0-.08-1c-.21-.33-.66,0-.36.29a2,2,0,0,1-.24,1,.38.38,0,0,0-.18,0c0-.55.18-.81-.51-.91-.09.23.06.45.06.71-.12,0-.09.26-.29.26,0-.91-.6-.94-.6,0a.88.88,0,0,0-.27.06c-.13-.86-.5-.35-.77,0a.26.26,0,0,1-.24.1h-.54c-.77,0-.75-1.5-1.61-1.21-.07.23.11.3.26.35a.3.3,0,0,1,.18.17,1.72,1.72,0,0,1-1,2.18.23.23,0,0,1-.18,0c-.31-.08-1.16-.36-1.16-.59-.33,0-.08-.91.43-.73a.32.32,0,0,1,.17.19c.16.54.5.76.86.21a3.36,3.36,0,0,0-.36-1.2.26.26,0,0,0-.14-.09,6.07,6.07,0,0,0-2.41-.24h-.07a6.93,6.93,0,0,0-3.73.69.17.17,0,0,1-.12,0,12.29,12.29,0,0,0-4.2,1.33,2.42,2.42,0,0,0-.36-.1c.06-.26.06-.61.12-.84-.65-1.17-.71.42-.71.94a2.27,2.27,0,0,0-.45,0c0-.26.48-1.26-.24-1.26a1.55,1.55,0,0,1-.33,1.13.28.28,0,0,1-.23.13H62a.28.28,0,0,1-.29-.38c.11-.24.14-.44-.09-.92h-.09c-.17.54-.1.8-.46,1.19a.26.26,0,0,1-.11.07,16,16,0,0,1-2.33.9.26.26,0,0,1-.26-.12c-.24-.36-.9-.83-.9-.15a2.09,2.09,0,0,1,.26.25.28.28,0,0,1-.05.41,1.09,1.09,0,0,1-.44.2.28.28,0,0,1-.31-.19c0-.18-.12-.2-.26-.41-.18,0-.3-.07-.45.07a1.19,1.19,0,0,0,.22.52.29.29,0,0,1-.23.4c-1.66.13-1.07-2.13-.14-1.54.36.58,1.14-.43-.3-.46s-1.18,1.4-.64,2.11a.28.28,0,0,1-.14.43,9.91,9.91,0,0,1-7-.78.28.28,0,0,1,.15-.51c3.09-.18,5.32-1.51,7.89-3.38a.31.31,0,0,0,.09-.11c.27-.55,1.38-.77,1.81-.78l.08,0c2.39-.84,3.73,0,6.61-1.75a.38.38,0,0,0,.11-.11A9.62,9.62,0,0,1,67,157.52l.83-.38a.26.26,0,0,1,.18.22v0a.28.28,0,0,0,.54,0,.68.68,0,0,1,.1-.21c-.16-.15,0-.47.31-.68l.32-.17c.14,0,.25,0,.27.17s.27.13.39.19a.41.41,0,0,1-.19.29.26.26,0,0,0-.12.21c0,.41,0,1.26.43.77a1,1,0,0,1,.27-.83.31.31,0,0,1,.29-.06,5.07,5.07,0,0,0,2.69.3.24.24,0,0,1,0-.13c-.73,0-2.15-1.27-1.91-2.22l.43-.3c.15.84,1.64,1.8,1.7,2.58a.28.28,0,0,0,.28.26.86.86,0,0,1,.57.14.16.16,0,0,1,.06-.13,6.58,6.58,0,0,0,2.26.36.19.19,0,0,1,.13,0,6,6,0,0,0,2.66.1.27.27,0,0,1,.35.1,1.22,1.22,0,0,1,.14.42.28.28,0,0,0,.55-.06,9.26,9.26,0,0,0-.1-1.15c-.09-.29-.46-.42-.71-.52a1.83,1.83,0,0,1-.85-.38l-.1-.12a3.11,3.11,0,0,0-.28-.23,4.11,4.11,0,0,1-.3-.29c-.19-.19-.36-.39-.55-.59a5.57,5.57,0,0,0-.51-.46,1,1,0,0,0-.44-.21h-.08a2.66,2.66,0,0,0,1.19,1.8,2.61,2.61,0,0,1,.72.51c.1.1.22.19.33.28a.28.28,0,0,1-.2.5,6.67,6.67,0,0,1-.86-.27,2.35,2.35,0,0,1-.66-.36,6.78,6.78,0,0,1-2.48-3.52,1.3,1.3,0,0,1,.22-1.13l1-.73.2,0a.25.25,0,0,0,.2-.09c.13-.14.29-.33.45-.36A.31.31,0,0,0,77,151a1.42,1.42,0,0,1,.11-.18l4.69-4.23a.66.66,0,0,0,.08.3h0a.24.24,0,0,0,0,.08ZM51.31,159.89a1.48,1.48,0,0,0-1.4-1.11,1.49,1.49,0,0,0-1.36,1.12l-1.15-.05a2.54,2.54,0,0,1,2.5-2.27h0a2.56,2.56,0,0,1,2.47,2.25ZM17.46,144.26c-.25-.28-.49-.57-.73-.86a1.46,1.46,0,0,0,.25-2,1.49,1.49,0,0,0-2-.29l-.6-.84a2.6,2.6,0,0,1,1.58-.54,2.49,2.49,0,0,1,2,.94A2.53,2.53,0,0,1,17.46,144.26Zm35.62,15.52a3.33,3.33,0,0,0-.9-1.92,3.13,3.13,0,0,0-2.26-1h0a3.24,3.24,0,0,0-3.2,2.91c-9.76-.77-19-5.16-26.52-12.63-.52-.56-1-1.15-1.53-1.75a.57.57,0,0,0-.15-.12,2,2,0,0,1-.24-.16l-.06,0-.27-.31a3.19,3.19,0,0,0-2-5.72,3.29,3.29,0,0,0-2,.68v0A64.59,64.59,0,0,1,2.77,106h.1a3.35,3.35,0,0,0,2.26-1A3.16,3.16,0,0,0,6,102.69a3.25,3.25,0,0,0-3.23-3.15h0A64.41,64.41,0,0,1,13,67.27a3.22,3.22,0,0,0,1.64.44,3.17,3.17,0,0,0,3.15-3.77,3.23,3.23,0,0,0-1.07-1.87l.11-.14a19,19,0,0,1,2.27-2.86C25.85,52.34,33.6,48,41.77,46.27a3,3,0,0,0,.23.3.27.27,0,0,0,.22.08.28.28,0,0,0,.2-.12l.3-.44L43.2,46a1,1,0,0,0,.82.65h.07a.73.73,0,0,0,.62-.36.26.26,0,0,0,0-.31.41.41,0,0,1-.1-.2c.78-.11,1.57-.19,2.36-.25a3.26,3.26,0,0,0,3.19,3.06h.14a3.15,3.15,0,0,0,2.16-1l0,.46a.28.28,0,0,0,.13.21,1.11,1.11,0,0,0,.92.1v.13a.21.21,0,0,0,.08.17,1,1,0,0,0,.68.3h0a1,1,0,0,0,.45-.12l.11,0a1.93,1.93,0,0,0,1.41-.23.8.8,0,0,0,.28-.67.28.28,0,0,0-.13-.21.27.27,0,0,0-.26,0c-.07,0-.18.08-.23,0-.22-.15-.26-1-.17-1.76l.68-.07A42.58,42.58,0,0,1,80.3,59.08L82,61a3.26,3.26,0,0,0-.26,4.2,3.14,3.14,0,0,0,2.55,1.24A3.24,3.24,0,0,0,86,66c5.86,8.77,10,18,10.9,33.63a3.2,3.2,0,0,0,0,6.36,62.18,62.18,0,0,1-10,32.1,3.38,3.38,0,0,0-1.44-.33A3.16,3.16,0,0,0,82.88,139a3.25,3.25,0,0,0,.23,4.16l-.25.31C74.67,153.11,64.2,158.84,53.08,159.78ZM84.4,140.11a1.44,1.44,0,0,0-.08,1.51c-.25.32-.5.64-.76.95a2.56,2.56,0,0,1-.12-3.19,2.52,2.52,0,0,1,3-.73l-.63.92A1.45,1.45,0,0,0,84.4,140.11Zm1.1,1.7.74.11-.74-.11Zm1.24.18h0l-.39-1.33h0Z"/><path class="cls-1" d="M58.31,123.39a.64.64,0,0,0-.7-.24l-1.61.49a.64.64,0,0,0-.44.51l-.05.31-.86.45a.62.62,0,0,0-.3.32l-.52,1.32a.25.25,0,0,0,0,.25.27.27,0,0,0,.22.11H66.55a.27.27,0,0,0,.22-.11.28.28,0,0,0,0-.25l-.53-1.32a.65.65,0,0,0-.29-.32l-.86-.45-.06-.32a.63.63,0,0,0-.43-.5L63,123.15a.64.64,0,0,0-.7.24l-.58.84-1.3.81-.12.11a.43.43,0,0,0-.12-.11l-1.27-.79Zm2.36,2.14,0,0,1.3-.82a.34.34,0,0,0,.12-.12l.61-.86a.14.14,0,0,1,.12,0l1.61.5a.08.08,0,0,1,.07.08l.06.36a.44.44,0,0,0,.24.32l.89.47a.12.12,0,0,1,0,.05l.38,1H60.31l.36-.86Zm-.72,0,.08.18-.29.68H54.46l.38-1a.12.12,0,0,1,0-.05l.9-.47a.43.43,0,0,0,.23-.32l.06-.36a.1.1,0,0,1,.07-.08l1.62-.5a.11.11,0,0,1,.11,0l.61.86a.37.37,0,0,0,.13.12l1.29.82Z"/></g></g></svg>