<svg xmlns="http://www.w3.org/2000/svg" width="94.744" height="97" viewBox="0 0 94.744 97">
  <path id="_4433ea502e56ab37465dafc088b7a683" data-name="4433ea502e56ab37465dafc088b7a683" d="M100.488,13.767H82.713A9.039,9.039,0,0,0,73.983,7a2.256,2.256,0,1,0,0,4.512,4.512,4.512,0,0,1,0,9.023,2.256,2.256,0,1,0,0,4.512,9.039,9.039,0,0,0,8.73-6.767h15.52V31.814H12.512V18.279H35.07a2.256,2.256,0,1,0,0-4.512H32.882a4.5,4.5,0,1,1,3.88,6.767,2.256,2.256,0,1,0,0,4.512,9.023,9.023,0,1,0-8.73-11.279H10.256A2.262,2.262,0,0,0,8,16.023v85.721A2.262,2.262,0,0,0,10.256,104h90.233a2.262,2.262,0,0,0,2.256-2.256V16.023A2.262,2.262,0,0,0,100.488,13.767ZM12.512,58.884H30.558V76.93H12.512Zm22.558,0H53.116V76.93H35.07Zm22.558,0H75.674V76.93H57.628Zm22.558,0H98.233V76.93H80.186Zm18.047-4.512H80.186V36.326H98.233Zm-22.558,0H57.628V36.326H75.674Zm-22.558,0H35.07V36.326H53.116ZM30.558,36.326V54.372H12.512V36.326ZM12.512,81.442H30.558V99.488H12.512Zm22.558,0H53.116V99.488H35.07Zm22.558,0H75.674V99.488H57.628Zm40.6,18.047H80.186V81.442H98.233ZM53.68,16.023a4.51,4.51,0,0,0-4.512-4.512,2.256,2.256,0,1,1,0-4.512,9.023,9.023,0,0,1,0,18.047,2.256,2.256,0,1,1,0-4.512A4.51,4.51,0,0,0,53.68,16.023Zm12.407,0a4.51,4.51,0,0,0-4.512-4.512,2.256,2.256,0,1,1,0-4.512,9.023,9.023,0,1,1,0,18.047,2.256,2.256,0,1,1,0-4.512A4.51,4.51,0,0,0,66.087,16.023Zm5.538,50.09-1.782,1.793L71.636,69.7a2.26,2.26,0,0,1,0,3.192,2.331,2.331,0,0,1-1.6.654,2.248,2.248,0,0,1-1.59-.665L66.651,71.1l-1.793,1.793a2.284,2.284,0,0,1-1.59.654,2.261,2.261,0,0,1-1.59-3.857l1.782-1.782-1.793-1.793a2.257,2.257,0,0,1,3.192-3.192l1.793,1.793,1.793-1.793a2.253,2.253,0,1,1,3.181,3.192Z" transform="translate(-8 -7)" fill="#b2945e"/>
</svg>
