<svg id="Grupo_3055" data-name="Grupo 3055" xmlns="http://www.w3.org/2000/svg" xmlns:xlink="http://www.w3.org/1999/xlink" width="111.066" height="79.792" viewBox="0 0 111.066 79.792">
  <defs>
    <clipPath id="clip-path">
      <rect id="Rectángulo_2838" data-name="Rectángulo 2838" width="111.066" height="79.792" fill="#892e34"/>
    </clipPath>
  </defs>
  <g id="Grupo_3054" data-name="Grupo 3054" clip-path="url(#clip-path)">
    <path id="Trazado_635" data-name="Trazado 635" d="M111.066,41.417a14.673,14.673,0,0,1-2.55,5.773c-.252.305-.49.626-.77.9q-13.994,13.991-28,27.971A11.786,11.786,0,0,1,62.411,60.1c2.37-2.58,4.929-4.985,7.4-7.472.241-.242.462-.5.862-.941h-1.5q-28.311,0-56.622.015A12.7,12.7,0,0,1,3.884,48.65a11.807,11.807,0,0,1-1.491-15.87A12.217,12.217,0,0,1,12.506,28.09q28.311.053,56.622.015h1.533c-.412-.451-.631-.71-.87-.949-2.349-2.354-4.748-4.659-7.043-7.064A11.774,11.774,0,0,1,67.542.6c.75-.243,1.527-.4,2.292-.6h2.821c3.976.653,6.68,3.237,9.372,5.962Q93.633,17.714,105.4,29.31c2.637,2.6,5.009,5.28,5.67,9.072Zm-28,5.017.349.441a4.851,4.851,0,0,0-1.022.609q-7.613,7.57-15.2,15.172a14.887,14.887,0,0,0-1.3,1.451,6.469,6.469,0,0,0,2.227,9.629c2.758,1.382,5.725.82,8.112-1.564q13.507-13.486,27-26.981c3.444-3.442,3.443-7.142-.011-10.6Q89.806,21.179,76.375,7.77a12.61,12.61,0,0,0-1.382-1.215,6.615,6.615,0,0,0-9.565,2.113c-1.5,2.744-.978,5.726,1.476,8.184q7.776,7.791,15.573,15.562c.254.254.483.533.859.95H81.76q-34.5,0-69,0c-.506,0-1.013,0-1.518.032a6.517,6.517,0,0,0-5.309,9.421c1.373,2.609,3.613,3.632,6.511,3.629q34.662-.037,69.324-.013h1.293" transform="translate(-0.001)" fill="#892e34"/>
  </g>
</svg>
