<svg xmlns="http://www.w3.org/2000/svg" xmlns:xlink="http://www.w3.org/1999/xlink" width="140" height="140" viewBox="0 0 140 140">
  <defs>
    <clipPath id="clip-path">
      <rect id="Rect치ngulo_2977" data-name="Rect치ngulo 2977" width="124.703" height="88.552" fill="#b2945e"/>
    </clipPath>
  </defs>
  <g id="Grupo_19120" data-name="Grupo 19120" transform="translate(-1024 -550)">
    <g id="Grupo_18930" data-name="Grupo 18930" transform="translate(1031.648 582.447)">
      <g id="Grupo_3072" data-name="Grupo 3072" clip-path="url(#clip-path)">
        <path id="Trazado_653" data-name="Trazado 653" d="M36.155,40.237V12.129c-2.18-.327-3.437-1.387-3.893-3.283A3.28,3.28,0,0,1,32.2,8.1c-.007-1.359.049-2.72-.019-4.075A3.856,3.856,0,0,1,36.206,0c6.81.031,13.621.011,20.431.011l31.8,0a3.777,3.777,0,0,1,3.977,2.962,3,3,0,0,1,.075.687c.009,1.287-.066,2.58.026,3.86a4.2,4.2,0,0,1-3.979,4.613v28.1h.62c10.386,0,20.773.015,31.159-.012a4.16,4.16,0,0,1,4.286,3.208,5.572,5.572,0,0,1,.076,1.169c0,13.229-.024,26.458.023,39.686a4.187,4.187,0,0,1-4.2,4.237c-4.791-.032-9.582-.007-14.373-.007q-8.581,0-17.162,0-7.13,0-14.259,0-10.806.016-21.611.041c-3.914,0-7.828-.031-11.743-.036Q28.888,88.5,16.421,88.5q-6.087,0-12.174.015A4.053,4.053,0,0,1,.513,86.444a3.979,3.979,0,0,1-.506-2.1q.013-8.259,0-16.518c0-7.83.024-15.66-.011-23.49A4.1,4.1,0,0,1,3.051,40.37a6.248,6.248,0,0,1,1.271-.128q15.607-.01,31.213-.005Zm36.269,44.21H84.43V12.109H40.282V84.447H52.271v-.573q0-7.133,0-14.267a5.042,5.042,0,0,1,5.174-5.23c3.236-.015,6.472-.008,9.708-.007a5.117,5.117,0,0,1,2.715.666,5.012,5.012,0,0,1,2.551,4.529c.013,4.684,0,9.368,0,14.052v.83m-68.388,0h32.11V44.285H4.036Zm84.506,0h32.11V44.292H88.542Zm-.05-80.373H36.208V7.979H88.493ZM68.338,84.468c.011-.114.022-.182.023-.251q0-7.4,0-14.8c0-.681-.395-1.021-1.152-1.021q-4.825,0-9.651,0c-.905,0-1.223.32-1.223,1.223q0,7.158,0,14.315c0,.172.016.344.025.533Z" transform="translate(-0.001 0)" fill="#b2945e"/>
        <path id="Trazado_654" data-name="Trazado 654" d="M600.021,400.554c0-1.091.031-2.182-.007-3.271a3.7,3.7,0,0,1,3.678-3.74q3.351-.048,6.7,0a3.694,3.694,0,0,1,3.688,3.793q0,3.272,0,6.543a3.7,3.7,0,0,1-3.766,3.759q-3.244.01-6.489,0a3.624,3.624,0,0,1-3.732-2.963,13.324,13.324,0,0,1-.075-2.3c-.009-.608,0-1.216,0-1.823m10.005-2.912h-5.993v5.945h5.993Z" transform="translate(-535.648 -351.306)" fill="#b2945e"/>
        <path id="Trazado_655" data-name="Trazado 655" d="M445.107,400.564c0,1.072,0,2.143,0,3.215a3.586,3.586,0,0,1-3.613,3.819c-2.372.059-4.749.013-7.122-.033a3.55,3.55,0,0,1-3.315-3.443c-.055-2.356-.034-4.715-.005-7.072a3.689,3.689,0,0,1,3.669-3.526c2.25-.031,4.5-.038,6.751,0a3.7,3.7,0,0,1,3.638,3.716c-.041,1.106-.008,2.214-.008,3.322Zm-10,3h5.987V397.6H435.1Z" transform="translate(-384.786 -351.288)" fill="#b2945e"/>
        <path id="Trazado_656" data-name="Trazado 656" d="M438.113,201.581c-1.161,0-2.322.009-3.483,0a3.654,3.654,0,0,1-3.52-3.481q-.043-3.536,0-7.072a3.689,3.689,0,0,1,3.524-3.5q3.509-.028,7.019,0a3.655,3.655,0,0,1,3.508,3.552q.017,3.456,0,6.911a3.605,3.605,0,0,1-3.618,3.588c-1.143.006-2.286,0-3.429,0m-2.964-4.013h5.988v-5.989H435.15Z" transform="translate(-384.847 -167.399)" fill="#b2945e"/>
        <path id="Trazado_657" data-name="Trazado 657" d="M607.035,201.634c-1.162,0-2.324.017-3.486,0a3.6,3.6,0,0,1-3.518-3.53q-.036-3.486,0-6.972a3.648,3.648,0,0,1,3.623-3.552q3.379-.011,6.758,0a3.7,3.7,0,0,1,3.674,3.684q.008,3.352,0,6.7a3.659,3.659,0,0,1-3.673,3.672c-1.126.008-2.253,0-3.379,0Zm3.015-10h-5.994v5.986h5.994Z" transform="translate(-535.649 -167.45)" fill="#b2945e"/>
        <path id="Trazado_658" data-name="Trazado 658" d="M211.281,487.594c.981,0,1.962-.006,2.944,0a2.054,2.054,0,0,1,2.06,1.965,1.923,1.923,0,0,1-1.824,2q-3.232.087-6.467,0a1.885,1.885,0,0,1-1.777-2.077,2.035,2.035,0,0,1,2.015-1.884c1.017-.008,2.034,0,3.051,0" transform="translate(-184.092 -435.287)" fill="#b2945e"/>
        <path id="Trazado_659" data-name="Trazado 659" d="M80.2,487.571c.965,0,1.929-.005,2.894,0a1.979,1.979,0,0,1,2.093,1.908,1.88,1.88,0,0,1-1.891,2.08c-2.122.058-4.25.039-6.372-.028a1.854,1.854,0,0,1-1.744-2.094,1.963,1.963,0,0,1,1.911-1.861c1.036-.021,2.072,0,3.108,0Z" transform="translate(-67.117 -435.266)" fill="#b2945e"/>
        <path id="Trazado_660" data-name="Trazado 660" d="M211.221,679.194c-.983,0-1.966,0-2.949,0a2.032,2.032,0,0,1-2.077-1.882,1.906,1.906,0,0,1,1.888-2.1c2.124-.054,4.251-.046,6.375.011a1.916,1.916,0,0,1,1.79,2.024,2,2,0,0,1-1.971,1.934c-1.018.018-2.037,0-3.056,0Z" transform="translate(-184.073 -602.754)" fill="#b2945e"/>
        <path id="Trazado_661" data-name="Trazado 661" d="M80.16,679.106c-.983,0-1.966.005-2.949,0a1.983,1.983,0,0,1-2.04-1.846A1.869,1.869,0,0,1,77,675.132q3.158-.1,6.321-.011a1.886,1.886,0,0,1,1.86,2.052,1.973,1.973,0,0,1-2.074,1.931c-.983.006-1.966,0-2.949,0" transform="translate(-67.103 -602.665)" fill="#b2945e"/>
        <path id="Trazado_662" data-name="Trazado 662" d="M211.246,585.439c-1.018,0-2.037.01-3.055,0a1.986,1.986,0,0,1-.017-3.971q3.082-.031,6.164,0a1.986,1.986,0,0,1-.036,3.972c-1.018.012-2.037,0-3.055,0" transform="translate(-184.105 -519.077)" fill="#b2945e"/>
        <path id="Trazado_663" data-name="Trazado 663" d="M80.171,585.449c-1,0-2,.009-3,0a1.988,1.988,0,0,1-.038-3.976q3.08-.026,6.16,0a1.988,1.988,0,0,1-.015,3.973c-1.035.016-2.071,0-3.107,0Z" transform="translate(-67.128 -519.085)" fill="#b2945e"/>
        <path id="Trazado_664" data-name="Trazado 664" d="M867.381,487.6c.983,0,1.967,0,2.95,0a2.031,2.031,0,0,1,2.052,1.853,1.9,1.9,0,0,1-1.808,2.115c-2.123.069-4.251.025-6.376.028a.432.432,0,0,1-.053-.008,2.02,2.02,0,0,1-1.83-2.074,2.048,2.048,0,0,1,2.061-1.914c1-.007,2,0,3,0" transform="translate(-769.812 -435.289)" fill="#b2945e"/>
        <path id="Trazado_665" data-name="Trazado 665" d="M998.864,487.57c1.018,0,2.036-.015,3.054,0a1.98,1.98,0,0,1,1.934,1.9,1.865,1.865,0,0,1-1.732,2.059q-3.263.088-6.529-.006a1.856,1.856,0,0,1-1.757-2.034,1.975,1.975,0,0,1,1.976-1.921c1.018-.016,2.036,0,3.054,0" transform="translate(-887.223 -435.264)" fill="#b2945e"/>
        <path id="Trazado_666" data-name="Trazado 666" d="M998.865,679.116c-.983,0-1.966.005-2.949,0a1.989,1.989,0,0,1-2.1-1.914,1.892,1.892,0,0,1,1.846-2.061c1.587-.076,3.179-.038,4.769-.04a15.321,15.321,0,0,1,1.658.042,1.915,1.915,0,0,1,1.744,2.112,1.973,1.973,0,0,1-1.969,1.86c-1,.011-2,0-3,0" transform="translate(-887.208 -602.675)" fill="#b2945e"/>
        <path id="Trazado_667" data-name="Trazado 667" d="M867.5,679.061c-.983,0-1.967.008-2.95,0a2.022,2.022,0,0,1-2.108-1.909,1.914,1.914,0,0,1,1.919-2.074q3.133-.093,6.27.006A1.912,1.912,0,0,1,872.5,677.2a2.045,2.045,0,0,1-2.1,1.86c-.965,0-1.931,0-2.9,0" transform="translate(-769.926 -602.621)" fill="#b2945e"/>
        <path id="Trazado_668" data-name="Trazado 668" d="M867.381,581.542c1,0,2-.008,3,0a1.985,1.985,0,0,1,.046,3.969q-3.109.029-6.218,0a1.985,1.985,0,0,1,.008-3.968c1.054-.016,2.108,0,3.163,0" transform="translate(-769.789 -519.156)" fill="#b2945e"/>
        <path id="Trazado_669" data-name="Trazado 669" d="M998.913,581.515c1.018,0,2.036-.01,3.053,0a1.985,1.985,0,0,1,.064,3.965q-3.16.04-6.32,0a1.987,1.987,0,0,1,.043-3.967c1.053-.018,2.107,0,3.16,0Z" transform="translate(-887.247 -519.128)" fill="#b2945e"/>
      </g>
    </g>
    <rect id="Rect치ngulo_5067" data-name="Rect치ngulo 5067" width="140" height="140" transform="translate(1024 550)" fill="none"/>
  </g>
</svg>
