<svg id="Grupo_18940" data-name="Grupo 18940" xmlns="http://www.w3.org/2000/svg" xmlns:xlink="http://www.w3.org/1999/xlink" width="82.794" height="93.796" viewBox="0 0 82.794 93.796">
  <defs>
    <clipPath id="clip-path">
      <rect id="Rectángulo_4881" data-name="Rectángulo 4881" width="82.794" height="93.796" fill="#b2945e"/>
    </clipPath>
  </defs>
  <g id="Grupo_18939" data-name="Grupo 18939" clip-path="url(#clip-path)">
    <path id="Trazado_4392" data-name="Trazado 4392" d="M65.032,0a4.162,4.162,0,0,1,3.139,3.825c.172,1.205.494,2.388.717,3.586.12.642.437.849,1.089.761,1.511-.2,3.027-.4,4.547-.505,3.255-.233,5.049,2.382,3.7,5.354-.58,1.277-1.167,2.551-1.793,3.8-.293.586-.208.932.388,1.242,1.271.66,2.512,1.379,3.771,2.064a3.6,3.6,0,0,1,.014,6.636c-1.266.67-2.5,1.4-3.771,2.064-.581.3-.709.634-.408,1.235.641,1.281,1.242,2.582,1.827,3.89,1.308,2.924-.512,5.524-3.714,5.282-1.49-.113-2.978-.278-4.456-.491-.725-.1-1.081.076-1.208.822-.2,1.2-.554,2.381-.711,3.587-.359,2.761-2.534,4.554-5.608,3.274v12.9c.994.051,1.965.053,2.924.159A5.135,5.135,0,0,1,69.9,62.855a5.2,5.2,0,0,1-.812,5.427c-.128.165-.249.337-.368.5a5.591,5.591,0,0,1-.911,8.549c1.612,3.01,1.163,5.654-1.579,7.843a5.9,5.9,0,0,1,.887,3.868,5.439,5.439,0,0,1-4.868,4.713,12.25,12.25,0,0,1-1.28.041q-29.3,0-58.608,0C.425,93.8,0,93.371,0,91.431Q0,76.546,0,61.662c0-1.793.48-2.27,2.287-2.27,7.479,0,14.957-.011,22.436.015a3.082,3.082,0,0,0,1.929-.63Q33,54.2,39.383,49.666a5.521,5.521,0,0,1,6.724-.2,5.428,5.428,0,0,1,.5,8.44c-.51.467-1.071.877-1.731,1.413h8.186V46.654a13.752,13.752,0,0,1-3.12-.046,3.225,3.225,0,0,1-2.3-2.713c-.315-1.46-.633-2.921-.9-4.389-.12-.652-.419-.86-1.072-.773-1.511.2-3.027.386-4.547.5-3.252.253-5.069-2.377-3.718-5.35.555-1.221,1.1-2.45,1.719-3.637.378-.723.3-1.131-.464-1.508-1.23-.6-2.4-1.322-3.613-1.97a3.6,3.6,0,0,1-.018-6.634c1.268-.667,2.5-1.4,3.773-2.059a.784.784,0,0,0,.4-1.24c-.638-1.282-1.24-2.583-1.827-3.89-1.3-2.887.478-5.488,3.635-5.287,1.551.1,3.1.308,4.638.51.641.084.961-.1,1.091-.757.25-1.255.628-2.487.836-3.748A4.185,4.185,0,0,1,50.563,0h1.465c.858.6,1.749,1.162,2.566,1.814a26.912,26.912,0,0,1,2.37,2.139c.6.607,1.031.588,1.684.024C60.245,2.6,61.922,1.32,63.567,0ZM21.9,90.675H61.276a3.946,3.946,0,0,0,.73-.028,2.372,2.372,0,0,0,1.952-1.711,2.046,2.046,0,0,0-.771-2.36,4.334,4.334,0,0,0-1.584-.618,1.577,1.577,0,0,1-1.412-1.534,1.53,1.53,0,0,1,1.493-1.55c.543-.062,1.1-.016,1.645-.044A2.4,2.4,0,0,0,65.568,81a2.346,2.346,0,0,0-1.383-2.616,5.931,5.931,0,0,0-1.059-.255,1.54,1.54,0,0,1,.249-3.07,18.982,18.982,0,0,0,1.915-.1,2.241,2.241,0,0,0,1.791-1.639,1.974,1.974,0,0,0-.623-2.241,11.62,11.62,0,0,0-1.7-.759c-.494-.283-1.125-.617-1.3-1.079a1.915,1.915,0,0,1,.387-1.544c.244-.315.854-.383,1.317-.483a2.545,2.545,0,0,0,2.021-2.1,2.327,2.327,0,0,0-1.413-2.347,4.578,4.578,0,0,0-1.609-.235q-10.621-.022-21.243-.01c-.977,0-1.954.007-2.93-.014a1.493,1.493,0,0,1-1.524-1.088,1.6,1.6,0,0,1,.773-1.881c1.674-1.226,3.358-2.439,5.012-3.691a2.41,2.41,0,0,0,.768-3.019,2.33,2.33,0,0,0-2.717-1.168,4.28,4.28,0,0,0-1.273.687q-6.563,4.669-13.1,9.373a3.807,3.807,0,0,1-2.535.814c-1.145-.056-2.294-.013-3.483-.013ZM74.215,36.083c1.486.108,1.581-.03,1.051-1.164-.581-1.243-1.184-2.475-1.75-3.724a3.575,3.575,0,0,1,1.621-4.983c1.3-.739,2.618-1.439,3.921-2.17.813-.457.82-.713.025-1.164-1.193-.677-2.4-1.329-3.6-1.992-2.433-1.344-2.971-3.02-1.783-5.562.568-1.215,1.153-2.422,1.705-3.644.338-.747.2-.968-.623-.893-1.549.142-3.093.33-4.637.515a3.617,3.617,0,0,1-4.212-2.9c-.325-1.4-.578-2.807-.9-4.2a5.392,5.392,0,0,0-.474-1.026,6.033,6.033,0,0,0-.985.573c-1.04.9-2.046,1.833-3.074,2.744a3.675,3.675,0,0,1-5.4-.031C54,5.48,52.92,4.49,51.82,3.523c-.644-.566-.876-.485-1.077.369-.349,1.483-.655,2.977-1.024,4.455a3.634,3.634,0,0,1-4.359,2.936Q43.137,11,40.9,10.789c-.847-.078-1,.161-.652.939.6,1.332,1.252,2.645,1.855,3.978A3.579,3.579,0,0,1,40.5,20.691c-1.272.723-2.569,1.4-3.838,2.13a3.811,3.811,0,0,0-.682.66,4.051,4.051,0,0,0,.653.587c1.192.679,2.4,1.327,3.6,1.992,2.286,1.267,2.858,3,1.769,5.356-.575,1.245-1.167,2.483-1.732,3.733-.374.827-.222,1.045.7.961,1.4-.128,2.793-.273,4.184-.451,2.622-.335,4.157.742,4.67,3.307.263,1.315.52,2.632.8,3.943.212.994.507,1.1,1.253.437,1.1-.97,2.174-1.964,3.27-2.937a3.658,3.658,0,0,1,5.332-.009c1.1.972,2.175,1.963,3.271,2.936.749.664,1.059.56,1.264-.412.309-1.461.581-2.931.916-4.386A3.607,3.607,0,0,1,70.2,35.622c1.422.182,2.848.328,4.013.461M3.153,90.617H18.664V62.582H3.153ZM59.367,59.34V58.289q0-6.856,0-13.712a5.989,5.989,0,0,0-.006-.639c-.065-.609-1.246-1.588-1.738-1.453a2.448,2.448,0,0,0-1.376,1.838q0,7.13,0,14.261c0,.236.021.473.036.757Z" transform="translate(0)" fill="#b2945e"/>
    <path id="Trazado_4393" data-name="Trazado 4393" d="M259.251,84.719a12.484,12.484,0,1,1,12.6-12.418,12.5,12.5,0,0,1-12.6,12.418m1.7-15.636c-.048-.153-.083-.3-.138-.435a1.481,1.481,0,0,0-1.715-1.036,1.447,1.447,0,0,0-1.29,1.342c-.141.889.455,1.242,1.165,1.493.774.275,1.559.527,2.315.848a4.049,4.049,0,0,1,2.7,3.593,4.262,4.262,0,0,1-2.128,4.342,1.623,1.623,0,0,0-.882,2.126A9.164,9.164,0,0,0,268.7,72.02c-.159-5.577-4.827-8.809-7.747-8.849a1.655,1.655,0,0,0,.959,2.109,4.061,4.061,0,0,1,2.074,3.8ZM257.7,63.121c-4.175.333-7.9,4.915-7.728,9.32.213,5.378,4.654,8.774,7.747,8.864.118-1.355.112-1.346-.968-2.077a4.571,4.571,0,0,1-2.078-3.842h3.034c.058.145.117.283.169.424a1.452,1.452,0,0,0,1.7,1.049,1.434,1.434,0,0,0,1.3-1.33c.139-.89-.432-1.249-1.146-1.5-.8-.285-1.616-.547-2.4-.884a4.048,4.048,0,0,1-2.647-3.728,4.21,4.21,0,0,1,2.134-4.161,1.639,1.639,0,0,0,.886-2.133" transform="translate(-201.528 -48.784)" fill="#b2945e"/>
  </g>
</svg>
