<?xml version="1.0" encoding="utf-8"?>
<!-- Generator: Adobe Illustrator 27.1.1, SVG Export Plug-In . SVG Version: 6.00 Build 0)  -->
<svg version="1.1" id="Capa_1" xmlns="http://www.w3.org/2000/svg" xmlns:xlink="http://www.w3.org/1999/xlink" x="0px" y="0px"
	 viewBox="0 0 1400 455" style="enable-background:new 0 0 1400 455;" xml:space="preserve">
<style type="text/css">
	.st0{fill:#636569;}
	.st1{fill:#691C32;}
</style>
<g>
	<g>
		<path class="st1" d="M1.03,154.33C1.03,48.46,76.36,0,155.36,0c70.85,0,139.67,39.09,139.67,140.89
			c0,105.87-74.92,154.33-153.51,154.33C70.66,295.22,1.03,256.13,1.03,154.33z M213.59,154.33c0-88.77-34.61-117.68-70.04-117.68
			c-29.73,0-61.08,19.95-61.08,103.84c0,88.36,35.02,118.09,70.44,118.09C183.46,258.58,213.59,236.99,213.59,154.33z"/>
		<path class="st1" d="M571.52,206.45c0,43.97-38.69,82.66-119.72,82.66H325.16c16.29-16.29,21.58-37.46,21.58-59.04V65.15
			c0-21.58-5.29-42.76-21.58-59.04h140.08c60.67,0,89.99,22.4,89.99,62.3c0,31.76-18.32,53.75-57.01,67.19
			C532.83,136.01,571.52,161.66,571.52,206.45z M442.43,39.5h-22.4v87.96h17.92c26.06,0,46.01-20.77,46.01-49.68
			C483.97,52.53,468.9,39.5,442.43,39.5z M450.17,255.72c27.28,0,46.01-24.02,46.01-54.97c0-28.1-15.47-42.76-41.53-42.76
			l-34.61,8.14v89.58H450.17z"/>
		<path class="st1" d="M762.49,289.11c3.26-6.92,6.11-19.96,6.11-32.98c0-37.46-30.13-74.93-70.04-74.93h-3.67v48.87
			c0,21.58,5.29,42.75,21.58,59.04H600.01c16.29-16.29,21.58-37.46,21.58-59.04V65.15c0-21.58-5.29-42.76-21.58-59.04h150.26
			c17.1,0,90,0,90,67.19c0,40.31-26.47,69.63-59.04,81.85c33.8,12.62,48.05,45.61,60.26,84.7c4.48,14.25,13.03,35.84,27.69,49.27
			H762.49z M725.43,40.72h-30.54v103.84h26.06c26.06,0,46.02-23.62,46.02-58.23C766.97,56.6,751.9,40.72,725.43,40.72z"/>
		<path class="st1" d="M1066.67,289.11c8.15-9.37,12.62-17.92,12.62-30.95c0-30.54-22.4-45.61-65.15-45.61
			c-26.06,0-47.24,5.7-62.31,13.03c-1.22,5.29-2.03,10.18-2.03,14.25c0,13.44,5.29,37.87,13.03,49.27h-93.66
			c7.33-6.51,20.77-31.76,35.83-64.75c32.58-71.26,72.08-177.13,72.08-195.46c0-8.55-6.11-19.14-10.59-22.8h100.99
			c12.62,52.53,45.2,144.15,78.99,218.67c12.62,28.1,24.43,51.31,33.8,64.34H1066.67z M1038.17,172.25h7.33
			c-9.78-24.84-26.06-67.19-37.87-98.13c-10.18,34.61-30.95,79.81-44.79,116.05C984.01,178.76,1011.7,172.25,1038.17,172.25z"/>
		<path class="st1" d="M1196.57,285.04v-91.62c29.32,46.83,73.29,67.19,103.02,67.19c24.84,0,35.02-13.44,35.02-29.32
			c0-56.19-138.04-56.19-138.04-147c0-50.9,43.16-84.29,103.02-84.29c34.61,0,57.42,11.4,83.89,11.4v87.95
			c-25.24-42.35-61.89-64.74-89.58-64.74c-20.36,0-32.17,10.59-32.17,26.88c0,53.75,138.04,50.49,138.04,143.34
			c0,51.71-42.35,90.39-107.1,90.39C1259.28,295.22,1225.07,285.04,1196.57,285.04z"/>
	</g>
	<g>
		<path class="st0" d="M0.24,410.83c0-33.19,23.49-48.39,48.01-48.39c12.38,0,21.06,3.83,28.85,3.83v30.01
			c-9.58-15.83-18.13-21.96-29.49-21.96c-10.73,0-21.19,5.37-21.19,32.43c0,26.81,10.34,36.39,22.86,36.39
			c9.19,0,18.77-5.11,27.83-15.58v22.98c-8.68,0-17.88,4.47-31.92,4.47C21.94,455,0.24,442.75,0.24,410.83z"/>
		<path class="st0" d="M89.21,410.83c0-33.19,23.62-48.39,48.39-48.39c22.22,0,43.79,12.25,43.79,44.17
			c0,33.19-23.49,48.39-48.13,48.39C111.04,455,89.21,442.75,89.21,410.83z M155.85,410.83c0-27.83-10.85-36.9-21.96-36.9
			c-9.32,0-19.15,6.25-19.15,32.56c0,27.7,10.98,37.02,22.09,37.02C146.4,443.51,155.85,436.74,155.85,410.83z"/>
		<path class="st0" d="M281.07,364.35c-4.98,5.11-6.64,11.75-6.64,18.51v70.22h-25.54c-3.95-19.53-28.6-42.52-38.68-64.98v41.24
			c0,10.85,3.95,18.39,12.51,23.75H190.8c4.98-5.11,6.64-11.75,6.64-18.51v-51.71c0-6.89-1.66-13.4-6.64-18.51h32.81
			c3.7,19.02,27.32,41.11,38.04,62.94v-39.32c0-10.73-3.95-18.26-12.51-23.62H281.07z"/>
		<path class="st0" d="M318.06,451.81v-28.72c9.19,14.68,22.98,21.07,32.3,21.07c7.79,0,10.98-4.22,10.98-9.19
			c0-17.62-43.28-17.62-43.28-46.09c0-15.96,13.53-26.43,32.3-26.43c10.85,0,18,3.58,26.3,3.58v27.58
			c-7.91-13.28-19.4-20.3-28.09-20.3c-6.38,0-10.08,3.32-10.08,8.43c0,16.85,43.28,15.83,43.28,44.94
			c0,16.21-13.28,28.34-33.58,28.34C337.72,455,326.99,451.81,318.06,451.81z"/>
		<path class="st0" d="M432.94,440.96c9.7,0,19.66-1.79,28.21-15.57L456.43,455c-7.02-1.79-15.7-1.91-23.87-1.91h-41.24
			c5.11-5.11,6.77-11.75,6.77-18.51v-51.71c0-6.77-1.66-13.4-6.77-18.51h36.77c8.17,0,16.85-0.13,23.87-1.91l3.83,24
			c-8.3-8.81-17.88-9.96-27.32-9.96h-6.77v26.04c12.64-0.13,22.22-1.02,27.7-7.02l-1.4,29.37c-4.09-9.06-14.43-10.6-26.3-10.85
			v26.94H432.94z"/>
		<path class="st0" d="M559.06,364.35c-4.98,5.11-6.64,11.75-6.64,18.51v70.22h-25.54c-3.95-19.53-28.6-42.52-38.68-64.98v41.24
			c0,10.85,3.95,18.39,12.51,23.75h-31.92c4.98-5.11,6.64-11.75,6.64-18.51v-51.71c0-6.89-1.66-13.4-6.64-18.51h32.81
			c3.7,19.02,27.32,41.11,38.04,62.94v-39.32c0-10.73-3.95-18.26-12.51-23.62H559.06z"/>
		<path class="st0" d="M617.25,376.48v58.09c0,6.77,1.66,13.4,6.77,18.51h-37.15c5.11-5.11,6.77-11.75,6.77-18.51v-58.09h-0.89
			c-9.7,0-19.02,1.15-27.32,9.96l3.7-24c7.02,1.79,15.71,1.91,23.88,1.91h25.02c8.17,0,16.85-0.13,23.88-1.91l3.7,24
			c-8.3-8.81-17.75-9.96-27.32-9.96H617.25z"/>
		<path class="st0" d="M651.95,453.09c5.11-5.11,6.77-11.75,6.77-18.51v-51.71c0-6.77-1.66-13.4-6.77-18.51h37.15
			c-5.1,5.11-6.77,11.75-6.77,18.51v51.71c0,6.77,1.66,13.4,6.77,18.51H651.95z"/>
		<path class="st0" d="M788.3,406.87c0,30.13-20.56,46.22-45.96,46.22h-44.3c5.11-5.11,6.77-11.75,6.77-18.51v-51.71
			c0-6.77-1.66-13.4-6.77-18.51h44.3C767.74,364.35,788.3,376.74,788.3,406.87z M743.1,441.6c10.59,0,19.66-6.77,19.66-31.54
			c0-24.9-9.19-34.22-22.09-34.22h-12.26v65.75H743.1z"/>
		<path class="st0" d="M798.48,410.83c0-33.19,23.62-48.39,48.39-48.39c22.22,0,43.79,12.25,43.79,44.17
			c0,33.19-23.49,48.39-48.13,48.39C820.32,455,798.48,442.75,798.48,410.83z M865.13,410.83c0-27.83-10.85-36.9-21.96-36.9
			c-9.32,0-19.15,6.25-19.15,32.56c0,27.7,10.98,37.02,22.09,37.02C855.68,443.51,865.13,436.74,865.13,410.83z"/>
		<path class="st0" d="M927.66,451.81v-28.72c9.19,14.68,22.98,21.07,32.3,21.07c7.79,0,10.98-4.22,10.98-9.19
			c0-17.62-43.28-17.62-43.28-46.09c0-15.96,13.53-26.43,32.3-26.43c10.85,0,18,3.58,26.3,3.58v27.58
			c-7.91-13.28-19.4-20.3-28.09-20.3c-6.38,0-10.08,3.32-10.08,8.43c0,16.85,43.28,15.83,43.28,44.94
			c0,16.21-13.28,28.34-33.58,28.34C947.32,455,936.59,451.81,927.66,451.81z"/>
		<path class="st0" d="M1001.56,410.83c0-33.19,23.62-48.39,48.39-48.39c22.22,0,43.79,12.25,43.79,44.17
			c0,33.19-23.49,48.39-48.13,48.39C1023.39,455,1001.56,442.75,1001.56,410.83z M1068.2,410.83c0-27.83-10.85-36.9-21.96-36.9
			c-9.32,0-19.15,6.25-19.15,32.56c0,27.7,10.98,37.02,22.09,37.02C1058.75,443.51,1068.2,436.74,1068.2,410.83z"/>
		<path class="st0" d="M1103.92,410.83c0-33.19,23.49-48.39,48.01-48.39c12.38,0,21.06,3.83,28.85,3.83v30.01
			c-9.58-15.83-18.13-21.96-29.49-21.96c-10.73,0-21.19,5.37-21.19,32.43c0,26.81,10.34,36.39,22.86,36.39
			c9.19,0,18.77-5.11,27.83-15.58v22.98c-8.68,0-17.88,4.47-31.92,4.47C1125.62,455,1103.92,442.75,1103.92,410.83z"/>
		<path class="st0" d="M1192.24,453.09c5.11-5.11,6.77-11.75,6.77-18.51v-51.71c0-6.77-1.66-13.4-6.77-18.51h37.15
			c-5.1,5.11-6.77,11.75-6.77,18.51v51.71c0,6.77,1.66,13.4,6.77,18.51H1192.24z"/>
		<path class="st0" d="M1294.5,453.09c2.55-2.93,3.96-5.62,3.96-9.7c0-9.57-7.02-14.3-20.43-14.3c-8.17,0-14.81,1.79-19.53,4.08
			c-0.38,1.66-0.64,3.19-0.64,4.47c0,4.22,1.66,11.87,4.09,15.45h-29.37c2.3-2.04,6.51-9.96,11.23-20.3
			c10.22-22.34,22.6-55.54,22.6-61.28c0-2.68-1.91-6-3.32-7.15h31.66c3.95,16.47,14.17,45.19,24.77,68.56
			c3.95,8.81,7.66,16.09,10.59,20.17H1294.5z M1285.57,416.44h2.3c-3.07-7.79-8.17-21.07-11.87-30.77
			c-3.19,10.85-9.7,25.02-14.04,36.39C1268.59,418.49,1277.27,416.44,1285.57,416.44z"/>
		<path class="st0" d="M1371.08,440.96c9.7,0,19.66-1.79,28.22-15.57l-4.72,29.62c-7.02-1.79-15.71-1.91-23.88-1.91h-37.41
			c5.11-5.11,6.77-11.75,6.77-18.51v-51.71c0-6.77-1.66-13.4-6.77-18.51h37.15c-5.1,5.11-6.77,11.75-6.77,18.51v58.09H1371.08z"/>
	</g>
</g>
</svg>
