<svg id="Grupo_3053" data-name="Grupo 3053" xmlns="http://www.w3.org/2000/svg" xmlns:xlink="http://www.w3.org/1999/xlink" width="142.371" height="136.943" viewBox="0 0 142.371 136.943">
  <defs>
    <clipPath id="clip-path">
      <rect id="Rectángulo_2837" data-name="Rectángulo 2837" width="142.371" height="136.943" fill="#b2945e"/>
    </clipPath>
  </defs>
  <g id="Grupo_3052" data-name="Grupo 3052" clip-path="url(#clip-path)">
    <path id="Trazado_632" data-name="Trazado 632" d="M42.344,371.068c.441.566.826,1.033,1.181,1.521a5.862,5.862,0,0,1-1.037,8.237q-5.6,4.613-11.213,9.217c-1.745,1.431-2.711,1.307-4.138-.465q-13.049-16.2-26.107-32.4c-1.514-1.879-1.388-2.855.559-4.229q5.754-4.061,11.5-8.131a14.319,14.319,0,0,1,1.544-.974,4.807,4.807,0,0,1,5.955.7c.819.737,1.518,1.607,2.341,2.492q3.181-2.549,6.359-5.1c4.608-3.706,9.247-7.376,13.813-11.134,5.139-4.228,10.741-5.085,16.89-2.592,7.272,2.948,14.554,5.871,21.813,8.85a1.818,1.818,0,0,0,1.951-.234q8.283-5.6,16.6-11.143a9.33,9.33,0,0,1,5.7-1.941c2.677.14,4.436,1.8,6,3.749.268.336.529.677.8,1.009.041.05.123.066.234.123.886-.551,1.773-1.157,2.71-1.673,3.95-2.175,7.229-1.542,10.113,1.936a17.7,17.7,0,0,1,1.545,2.064.966.966,0,0,0,1.394.46,12.008,12.008,0,0,1,7.189-.434c4.268,1.087,6.87,5.286,6.234,9.994a9.029,9.029,0,0,1-3.992,6.559q-17.492,12.134-34.881,24.414c-5.432,3.858-11.291,5.184-17.72,3.594-7.684-1.9-15.326-3.978-22.988-5.97-3.605-.937-7.21-1.876-10.826-2.771a6.506,6.506,0,0,0-5.76,1.342c-1.24.957-2.472,1.924-3.765,2.931M39.659,367.8c1.4-1.077,2.666-2.069,3.95-3.039a10.3,10.3,0,0,1,8.056-2.237c1.624.258,3.236.622,4.828,1.039q14.61,3.83,29.209,7.707a17.808,17.808,0,0,0,15.741-3.073c11.388-8.169,22.932-16.122,34.441-24.121a4.841,4.841,0,0,0,2.157-3.3c.645-3.674-1.406-6.058-5.124-5.931a8.2,8.2,0,0,0-4.441,1.427q-11.9,8.123-23.83,16.21a2.257,2.257,0,0,0-1.006,1.648c-1.1,6.175-6.64,9.246-12.463,6.966-4.3-1.686-8.623-3.339-12.934-5.01q-6.164-2.39-12.325-4.79A2.132,2.132,0,0,1,64.356,349a2.006,2.006,0,0,1,1.829-1.824,3.922,3.922,0,0,1,1.553.318q9.077,3.5,18.14,7.041c2.338.909,4.669,1.836,7.016,2.722a4.452,4.452,0,0,0,5.857-1.895,5.544,5.544,0,0,0-2.836-8.084q-8.417-3.42-16.847-6.808c-7.111-2.871-14.216-5.757-21.337-8.6-4.271-1.707-8.139-.876-11.667,1.971q-9.792,7.9-19.606,15.777c-.293.236-.564.5-.892.793L39.659,367.8M5.164,355.6l24.477,30.34c3.306-2.718,6.487-5.329,9.664-7.946,1.61-1.326,1.66-1.906.346-3.527Q31.327,364.2,23.006,353.928c-1.557-1.92-3.131-3.826-4.68-5.752-.638-.792-1.3-1.048-2.191-.363-.822.633-1.693,1.2-2.54,1.8-2.771,1.965-5.541,3.932-8.43,5.982m93.355-12.154,4.732,4.92,21.173-14.415c-.443-.631-.781-1.134-1.141-1.622-2.137-2.89-3.4-3.12-6.372-1.149q-3.18,2.109-6.349,4.234l-12.042,8.032m-10.971-4.108c1.829.743,3.454,1.368,5.045,2.069a1.549,1.549,0,0,0,1.678-.192c3.894-2.622,7.808-5.214,11.716-7.816l3.369-2.245c-1.579-3.379-3.587-3.98-6.551-2.042l-.179.119q-6.389,4.276-12.778,8.553c-.7.469-1.4.945-2.3,1.555" transform="translate(0.001 -254.079)" fill="#b2945e"/>
    <path id="Trazado_633" data-name="Trazado 633" d="M229.611,35.639A35.626,35.626,0,1,1,265.382,71.25a35.572,35.572,0,0,1-35.771-35.611m4.2-.017A31.412,31.412,0,1,0,265.337,4.188a31.4,31.4,0,0,0-31.529,31.433" transform="translate(-180.209 0)" fill="#b2945e"/>
    <path id="Trazado_634" data-name="Trazado 634" d="M353.69,98.727a15.687,15.687,0,0,1-7.514-2.8,2.2,2.2,0,0,1-1.042-2.2c.264-1.65,2.011-2.263,3.5-1.23A11.865,11.865,0,0,0,358.8,94.1a7.006,7.006,0,0,0,2.213-1.057,2.652,2.652,0,0,0,.245-4.4,12.158,12.158,0,0,0-3.141-1.809c-2.287-.933-4.639-1.706-6.951-2.579a14.262,14.262,0,0,1-1.931-.942c-2.484-1.4-4.065-3.373-3.987-6.378.081-3.143,1.3-5.653,4.177-7.119a16.3,16.3,0,0,1,3.433-1.2c.669-.168.866-.429.842-1.078-.042-1.146-.023-2.295,0-3.442a2.115,2.115,0,1,1,4.214-.061c.033,1.147.036,2.3-.006,3.442-.025.685.154.991.907,1.119a11.421,11.421,0,0,1,6.543,3.219,2.122,2.122,0,0,1,.462,2.651,2.09,2.09,0,0,1-3.308.479c-3.157-2.865-6.814-2.977-10.558-1.662-2.933,1.031-3.321,4.294-.73,6.046a27.937,27.937,0,0,0,4.94,2.305c1.981.829,4.047,1.465,5.985,2.379,2.729,1.286,4.415,3.393,4.382,6.57a7.229,7.229,0,0,1-4.423,6.7,16.244,16.244,0,0,1-3.346,1.13c-.657.164-.892.427-.854,1.081.045.786.014,1.577.01,2.366-.009,1.608-.788,2.571-2.089,2.589s-2.124-.97-2.135-2.537c-.007-1.034,0-2.068,0-3.194" transform="translate(-270.854 -48.482)" fill="#b2945e"/>
  </g>
</svg>
