<svg xmlns="http://www.w3.org/2000/svg" width="111.607" height="141.943" viewBox="0 0 111.607 141.943">
  <g id="Capa_2" data-name="Capa 2" transform="translate(1.501 1.509)">
    <g id="Capa_1" data-name="Capa 1" transform="translate(1.003 0.991)">
      <path id="Trazado_427" data-name="Trazado 427" d="M31.45-1.509h0c.147,0,.3,0,.452.013h.012A7.778,7.778,0,0,1,35.6-.623a6.85,6.85,0,0,1,2.711,3.755,6.146,6.146,0,0,0,1.176,1.139,10.068,10.068,0,0,1,2.6,2.87,6.134,6.134,0,0,1,.484,4.6c.312,1.255.534,2.516.75,3.742.521,2.964,1.014,5.763,2.688,8.087l.058.081.052.086a3.038,3.038,0,0,0,2.322,1.448l.063.006c.465.053.949.1,1.417.149a20.934,20.934,0,0,1,7.694,1.776,9.612,9.612,0,0,1,3.45,2.983,12.391,12.391,0,0,1,1.99,4.937,1.954,1.954,0,0,0,.51.74,18.639,18.639,0,0,0,1.728,1.559,20.529,20.529,0,0,1,2.321,2.151c1.855,2.118,1.882,3.907,1.579,5.034a5.021,5.021,0,0,1-3.608,3.38c-.661.23-1.649.588-1.382,3.229a33.229,33.229,0,0,0,1.891,8.949,15.184,15.184,0,0,0,5.275,6.835c4.611,3.362,6.773,8.589,8.28,13.259A5.188,5.188,0,0,0,80.789,82.5a3.637,3.637,0,0,0,1.565-.744,7.453,7.453,0,0,1,4.172-1.361,5.8,5.8,0,0,1,4.92,2.619l0,.005q.316.481.636.959c2.62,3.938,5.589,8.4,4.8,14.635l-.013.113c-.346,2.934-.424,4.8,2.224,6.212l.033.018a6.946,6.946,0,0,1,3.111,3.712,21.273,21.273,0,0,1,1.011,3.957,14.348,14.348,0,0,0,1.04,3.773l.02.04a6.837,6.837,0,0,1,.523,1.612,6.278,6.278,0,0,1,4.522,2.406,5.06,5.06,0,0,1,.646,3.758,16.533,16.533,0,0,1-.824,2.778c-.161.446-.314.867-.434,1.262l-.017.052c-.123.374-.264.75-.4,1.114a10.392,10.392,0,0,0-.58,1.864c.853,1.976,1.758,4.779.348,6.937a4.607,4.607,0,0,1-2.638,1.882,9.368,9.368,0,0,1-2.715.332c-.877,0-1.823-.072-2.55-.135-.013,0-.042,0-.1,0s-.143,0-.226,0c-.1,0-.219.006-.342.006a3.379,3.379,0,0,1-3.354-2.089c-1.107-2.626-3.214-4.592-5.445-6.673-1.039-.969-2.113-1.971-3.114-3.069l0,0a181.558,181.558,0,0,1-11.894-14.664c-4.036-5.49-7.818-11.134-10.662-15.438-3.188-4.834-8.226-8.49-13.1-12.025-1.014-.736-2.062-1.5-3.08-2.258a58.254,58.254,0,0,1-17.41-20.076,28.839,28.839,0,0,0-5.556-7.733,15.875,15.875,0,0,0-8.22-4.19l-.012,0A17.871,17.871,0,0,1,6.936,45.535,7.382,7.382,0,0,0,5.066,43.9l-.015-.01C1.773,41.844-.3,39.31-1.119,36.358c-.834-3.019-.3-6.269,1.588-9.659l.012-.021a22.87,22.87,0,0,1,3.674-5.039,17.358,17.358,0,0,1,6.031-3.832,30.952,30.952,0,0,0,8.928-5.4,23.558,23.558,0,0,0,6.217-8.527c.078-.189.155-.386.236-.594a9.549,9.549,0,0,1,1.6-2.953A5.428,5.428,0,0,1,31.45-1.509Zm.166,5c-.058,0-.113,0-.166,0-.4,0-.466.073-.517.131A6.227,6.227,0,0,0,30.225,5.1c-.088.226-.179.459-.279.7l-.006.015a28.515,28.515,0,0,1-7.521,10.34,35.935,35.935,0,0,1-10.371,6.29l-.022.009c-3.663,1.437-5.356,3.459-7.195,6.687-1.221,2.2-1.6,4.177-1.13,5.883s1.812,3.256,3.988,4.615a12.37,12.37,0,0,1,3.147,2.764l.028.035a12.875,12.875,0,0,0,7.744,4.732,21.123,21.123,0,0,1,5.979,2.05,21.6,21.6,0,0,1,4.756,3.416,33.607,33.607,0,0,1,6.551,9.041l0,0a53.254,53.254,0,0,0,15.93,18.363l.033.024c.994.744,2.033,1.5,3.038,2.227,5.234,3.8,10.647,7.726,14.335,13.318,7.543,11.415,14.186,20.8,22.082,29.492.865.948,1.82,1.839,2.83,2.781,2.283,2.13,4.636,4.324,6.19,7.411.1,0,.188.009.279.016h.008c.627.054,1.436.117,2.124.117a6.185,6.185,0,0,0,1.076-.075,8.3,8.3,0,0,0-.716-2.218c-.817-1.862-.063-3.87.544-5.483.121-.321.235-.625.324-.894.156-.507.334-1,.506-1.475a12.519,12.519,0,0,0,.623-2.063,5.809,5.809,0,0,0-1.727-.293h-.01a3.363,3.363,0,0,1-2.831-1.941,7.261,7.261,0,0,1-.551-1.738c-.043-.194-.107-.484-.148-.6a18.568,18.568,0,0,1-1.495-5.111c-.419-2.229-.759-3.728-1.611-4.209A8.879,8.879,0,0,1,92,103.575a14.73,14.73,0,0,1-.092-5.437L91.927,98c.557-4.394-1.557-7.571-4-11.25q-.325-.489-.649-.979a.8.8,0,0,0-.747-.375,2.549,2.549,0,0,0-1.364.5l0,0A7.907,7.907,0,0,1,80.77,87.5a5.038,5.038,0,0,1-4.023-2.022,11.627,11.627,0,0,1-1.857-3.764c-1.262-3.909-3.015-8.24-6.468-10.759a20.044,20.044,0,0,1-6.971-9.016,37.752,37.752,0,0,1-2.224-10.307,9.506,9.506,0,0,1,.492-4.526,6.761,6.761,0,0,1,4.23-3.929l.024-.008c.053-.018.1-.035.146-.052-.068-.095-.155-.206-.267-.334a16.831,16.831,0,0,0-1.765-1.607c-1.641-1.371-3.5-2.925-3.942-5.186-.562-2.917-1.81-3.9-2.835-4.433a17.178,17.178,0,0,0-5.892-1.239c-.475-.048-.966-.1-1.455-.153a8.057,8.057,0,0,1-6.068-3.747c-2.3-3.233-2.936-6.861-3.5-10.065-.247-1.4-.481-2.732-.832-3.987l-.217-.774.275-.755c.4-1.106.265-1.386-1.338-2.722a7.881,7.881,0,0,1-2.665-3.246l-.007-.018a3.38,3.38,0,0,0-.586-1.183A7.028,7.028,0,0,0,31.616,3.5Z" transform="translate(-1.003 -0.991)" fill="#b2945e"/>
    </g>
  </g>
</svg>
