<?xml version="1.0" encoding="UTF-8" standalone="no"?>
<!-- Created with Inkscape (http://www.inkscape.org/) -->

<svg
   width="155.69099"
   height="193.44783"
   viewBox="0 0 41.193241 51.183071"
   version="1.1"
   id="svg5"
   xml:space="preserve"
   inkscape:version="1.2.2 (b0a8486, 2022-12-01)"
   sodipodi:docname="draws.svg"
   inkscape:export-filename="o_6_m.svg"
   inkscape:export-xdpi="96"
   inkscape:export-ydpi="96"
   xmlns:inkscape="http://www.inkscape.org/namespaces/inkscape"
   xmlns:sodipodi="http://sodipodi.sourceforge.net/DTD/sodipodi-0.dtd"
   xmlns="http://www.w3.org/2000/svg"
   xmlns:svg="http://www.w3.org/2000/svg"><sodipodi:namedview
     id="namedview7"
     pagecolor="#ffffff"
     bordercolor="#000000"
     borderopacity="0.25"
     inkscape:showpageshadow="2"
     inkscape:pageopacity="0.0"
     inkscape:pagecheckerboard="0"
     inkscape:deskcolor="#d1d1d1"
     inkscape:document-units="mm"
     showgrid="false"
     inkscape:zoom="0.9667301"
     inkscape:cx="37.756143"
     inkscape:cy="166.02359"
     inkscape:window-width="1440"
     inkscape:window-height="765"
     inkscape:window-x="0"
     inkscape:window-y="25"
     inkscape:window-maximized="0"
     inkscape:current-layer="layer1" /><defs
     id="defs2" /><g
     inkscape:label="Layer 1"
     inkscape:groupmode="layer"
     id="layer1"
     transform="translate(-5.0530078,-0.71278424)"><path
       style="fill:#999999;stroke:none;stroke-width:0.434191"
       d="m 24.184617,50.45293 c -62.886387,-68.194566 67.551409,-63.903201 4.194578,-0.06749 -1.899612,1.478514 -2.40869,1.480032 -4.194578,0.06749 z"
       id="path104-5-1-5"
       sodipodi:nodetypes="ccc"
       inkscape:export-filename="o_9_m.svg"
       inkscape:export-xdpi="96"
       inkscape:export-ydpi="96" /><path
       style="fill:#ffffff;stroke:none;stroke-width:0.436649"
       d="m 22.689946,50.83343 c -62.886387,-68.969121 67.551376,-64.629014 4.194578,-0.06832 -1.899612,1.495297 -2.40869,1.496833 -4.194578,0.06832 z"
       id="path104-2-5"
       sodipodi:nodetypes="ccc" /><path
       style="fill:#000000;stroke:none;stroke-width:0.381769"
       d="m 22.943585,47.483343 c -55.676524,-59.549591 59.806691,-55.8022409 3.713672,-0.05908 -1.681817,1.29107 -2.132539,1.29239 -3.713672,0.05908 z"
       id="path104-1-0-6"
       sodipodi:nodetypes="ccc" /><path
       style="fill:#008080;fill-opacity:1;fill-rule:evenodd;stroke:none;stroke-width:0.34555"
       d="m 23.130535,45.079753 c -50.363039,-53.9341186 54.098958,-50.5401324 3.359263,-0.05347 -1.521323,1.169342 -1.929021,1.170529 -3.359263,0.05347 z"
       id="path104-1-3-4-3"
       sodipodi:nodetypes="ccc" /><path
       fill="#75994f"
       d="m 22.532858,19.220266 3.418829,4.306066 c 0,0 -0.654585,4.037924 -3.020556,5.91887 -2.362028,1.880948 -10.512798,1.344661 -10.512798,1.344661 0,0 0.149845,-0.9109 0.433761,-2.18458 l 3.730346,-4.424365 c 0.157732,-0.185334 -0.03549,-0.457422 -0.260254,-0.374612 l -2.381743,0.871466 c 0.567831,-1.64435 1.289451,-3.154628 2.153033,-3.844703 2.362025,-1.88489 6.439382,-1.612803 6.439382,-1.612803 z m 9.385018,5.323434 c -1.735046,0 -3.146741,1.411695 -3.146741,3.150684 0,1.738988 1.407752,3.150684 3.146741,3.150684 1.738988,0 3.146742,-1.411696 3.146742,-3.150684 0,-1.742932 -1.411698,-3.150684 -3.146742,-3.150684 z M 37.51734,11.893643 36.736569,10.907821 C 36.519688,10.635735 36.12536,10.592358 35.853273,10.8053 l -9.168135,7.015104 -1.344662,-1.695612 c -0.201106,-0.252371 -0.595437,-0.205052 -0.73345,0.08676 l -0.997653,2.153033 3.418829,4.306068 2.318651,-0.488968 c 0.315464,-0.06703 0.449535,-0.441648 0.248428,-0.694018 l -1.344659,-1.69167 9.168135,-7.015102 c 0.272087,-0.21688 0.315463,-0.615154 0.09858,-0.887239 z"
       id="path8020"
       style="fill:#ffffff;stroke-width:0.0394327" /></g></svg>
