<?xml version="1.0" encoding="UTF-8" standalone="no"?>
<!-- Created with Inkscape (http://www.inkscape.org/) -->

<svg
   width="155.69099"
   height="193.44783"
   viewBox="0 0 41.193241 51.183071"
   version="1.1"
   id="svg5"
   xml:space="preserve"
   inkscape:version="1.2.2 (b0a8486, 2022-12-01)"
   sodipodi:docname="o_1_m.svg"
   inkscape:export-filename="o_1_m.svg"
   inkscape:export-xdpi="96"
   inkscape:export-ydpi="96"
   xmlns:inkscape="http://www.inkscape.org/namespaces/inkscape"
   xmlns:sodipodi="http://sodipodi.sourceforge.net/DTD/sodipodi-0.dtd"
   xmlns="http://www.w3.org/2000/svg"
   xmlns:svg="http://www.w3.org/2000/svg"><sodipodi:namedview
     id="namedview7"
     pagecolor="#ffffff"
     bordercolor="#000000"
     borderopacity="0.25"
     inkscape:showpageshadow="2"
     inkscape:pageopacity="0.0"
     inkscape:pagecheckerboard="0"
     inkscape:deskcolor="#d1d1d1"
     inkscape:document-units="mm"
     showgrid="false"
     inkscape:zoom="1.2947313"
     inkscape:cx="84.573533"
     inkscape:cy="144.81769"
     inkscape:window-width="1440"
     inkscape:window-height="765"
     inkscape:window-x="0"
     inkscape:window-y="25"
     inkscape:window-maximized="0"
     inkscape:current-layer="layer1" /><defs
     id="defs2" /><g
     inkscape:label="Layer 1"
     inkscape:groupmode="layer"
     id="layer1"
     transform="translate(-5.0530078,-0.71278424)"><path
       style="fill:#999999;stroke:none;stroke-width:0.434191"
       d="m 24.184617,50.45293 c -62.886387,-68.194566 67.551409,-63.903201 4.194578,-0.06749 -1.899612,1.478514 -2.40869,1.480032 -4.194578,0.06749 z"
       id="path104-5-1-5"
       sodipodi:nodetypes="ccc"
       inkscape:export-filename="o_11_m.svg"
       inkscape:export-xdpi="96"
       inkscape:export-ydpi="96" /><path
       style="fill:#ffffff;stroke:none;stroke-width:0.436649"
       d="m 22.689946,50.83343 c -62.886387,-68.969121 67.551376,-64.629014 4.194578,-0.06832 -1.899612,1.495297 -2.40869,1.496833 -4.194578,0.06832 z"
       id="path104-2-5"
       sodipodi:nodetypes="ccc" /><path
       style="fill:#000000;stroke:none;stroke-width:0.381769"
       d="m 22.943585,47.483343 c -55.676524,-59.549591 59.806691,-55.8022409 3.713672,-0.05908 -1.681817,1.29107 -2.132539,1.29239 -3.713672,0.05908 z"
       id="path104-1-0-6"
       sodipodi:nodetypes="ccc" /><path
       style="fill:#3c2c7d;fill-opacity:1;fill-rule:evenodd;stroke:none;stroke-width:0.34555"
       d="m 23.130535,45.079753 c -50.363039,-53.9341186 54.098958,-50.5401324 3.359263,-0.05347 -1.521323,1.169342 -1.929021,1.170529 -3.359263,0.05347 z"
       id="path104-1-3-4-3"
       sodipodi:nodetypes="ccc" /><path
       fill="#3c2c7d"
       stroke="#000000"
       d="m 26.066257,12.955038 c -0.326517,0 -0.648992,0.05644 -0.955359,0.165265 L 13.80391,17.203731 c -0.382943,0.141103 -0.636896,0.503879 -0.636896,0.911015 0,0.40712 0.253953,0.769912 0.636896,0.910998 l 2.333962,0.842494 c -0.661089,1.039988 -1.035961,2.269452 -1.035961,3.56341 v 1.13272 c 0,1.144801 -0.435374,2.325893 -0.898919,3.257058 -0.262039,0.52403 -0.560319,1.040005 -0.906988,1.515663 -0.129055,0.173334 -0.16528,0.399066 -0.09275,0.604648 0.07245,0.205582 0.241856,0.358766 0.451465,0.41118 l 2.579861,0.644949 c 0.169292,0.04439 0.350679,0.01155 0.499837,-0.08054 0.149189,-0.09275 0.253952,-0.245899 0.286199,-0.419217 0.346669,-1.725288 0.173334,-3.273198 -0.08466,-4.381725 -0.129056,-0.572397 -0.302324,-1.156894 -0.54418,-1.69302 v -0.991651 c 0,-1.217365 0.411163,-2.36621 1.12465,-3.285279 0.520002,-0.624798 1.193172,-1.128694 1.983251,-1.439071 l 6.328702,-2.487146 c 0.330545,-0.129056 0.705417,0.03218 0.834407,0.362792 0.129056,0.330544 -0.03218,0.705433 -0.362792,0.834423 l -6.328686,2.487147 c -0.499835,0.197511 -0.939236,0.499835 -1.297984,0.870681 l 6.433498,2.321882 c 0.306367,0.108756 0.628842,0.165264 0.955343,0.165264 0.326518,0 0.648992,-0.05644 0.95536,-0.165264 l 11.311032,-4.071331 c 0.382942,-0.137143 0.636895,-0.503879 0.636895,-0.911015 0,-0.40712 -0.253953,-0.769929 -0.636895,-0.911 L 27.021552,13.120368 C 26.7152,13.011612 26.39271,12.955104 26.066209,12.955104 Z m -7.739553,15.156616 c 0,1.422947 3.466685,2.902335 7.739553,2.902335 4.272887,0 7.739554,-1.479388 7.739554,-2.902335 l -0.616745,-5.861082 -5.732108,2.07194 c -0.447438,0.161237 -0.919069,0.241856 -1.390701,0.241856 -0.471631,0 -0.947288,-0.08054 -1.390699,-0.241856 l -5.732108,-2.07194 z"
       id="path5063"
       style="fill:#ffffff;stroke:none;stroke-width:0.04031" /></g></svg>
