<?xml version="1.0" encoding="UTF-8" standalone="no"?>
<!-- Created with Inkscape (http://www.inkscape.org/) -->

<svg
   width="155.69099"
   height="193.44783"
   viewBox="0 0 41.193241 51.183071"
   version="1.1"
   id="svg5"
   xml:space="preserve"
   inkscape:version="1.2.2 (b0a8486, 2022-12-01)"
   sodipodi:docname="draws.svg"
   inkscape:export-filename="o_1_m.svg"
   inkscape:export-xdpi="96"
   inkscape:export-ydpi="96"
   xmlns:inkscape="http://www.inkscape.org/namespaces/inkscape"
   xmlns:sodipodi="http://sodipodi.sourceforge.net/DTD/sodipodi-0.dtd"
   xmlns="http://www.w3.org/2000/svg"
   xmlns:svg="http://www.w3.org/2000/svg"><sodipodi:namedview
     id="namedview7"
     pagecolor="#ffffff"
     bordercolor="#000000"
     borderopacity="0.25"
     inkscape:showpageshadow="2"
     inkscape:pageopacity="0.0"
     inkscape:pagecheckerboard="0"
     inkscape:deskcolor="#d1d1d1"
     inkscape:document-units="mm"
     showgrid="false"
     inkscape:zoom="0.9667301"
     inkscape:cx="37.756143"
     inkscape:cy="166.02359"
     inkscape:window-width="1440"
     inkscape:window-height="765"
     inkscape:window-x="0"
     inkscape:window-y="25"
     inkscape:window-maximized="0"
     inkscape:current-layer="layer1" /><defs
     id="defs2" /><g
     inkscape:label="Layer 1"
     inkscape:groupmode="layer"
     id="layer1"
     transform="translate(-5.0530078,-0.71278424)"><path
       style="fill:#999999;stroke:none;stroke-width:0.434191"
       d="m 24.184617,50.45293 c -62.886387,-68.194566 67.551409,-63.903201 4.194578,-0.06749 -1.899612,1.478514 -2.40869,1.480032 -4.194578,0.06749 z"
       id="path104-5-1-5"
       sodipodi:nodetypes="ccc"
       inkscape:export-filename="o_1_m.svg"
       inkscape:export-xdpi="96"
       inkscape:export-ydpi="96" /><path
       style="fill:#ffffff;stroke:none;stroke-width:0.436649"
       d="m 22.689946,50.83343 c -62.886387,-68.969121 67.551376,-64.629014 4.194578,-0.06832 -1.899612,1.495297 -2.40869,1.496833 -4.194578,0.06832 z"
       id="path104-2-5"
       sodipodi:nodetypes="ccc" /><path
       style="fill:#000000;stroke:none;stroke-width:0.381769"
       d="m 22.943585,47.483343 c -55.676524,-59.549591 59.806691,-55.8022409 3.713672,-0.05908 -1.681817,1.29107 -2.132539,1.29239 -3.713672,0.05908 z"
       id="path104-1-0-6"
       sodipodi:nodetypes="ccc" /><path
       style="fill:#f4d03f;fill-opacity:1;fill-rule:evenodd;stroke:none;stroke-width:0.34555"
       d="m 23.130535,45.079753 c -50.363039,-53.9341186 54.098958,-50.5401324 3.359263,-0.05347 -1.521323,1.169342 -1.929021,1.170529 -3.359263,0.05347 z"
       id="path104-1-3-4-3"
       sodipodi:nodetypes="ccc" /><path
       fill="#f4d03f"
       stroke="#000000"
       d="M 32.73623,18.276262 H 27.018314 L 29.129087,9.421006 C 29.327284,8.3840283 28.757472,7.3606925 27.979559,7.3606925 h -7.135006 c -0.594587,0 -1.09998,0.6071779 -1.179259,1.4190255 l -1.585556,16.37335 c -0.09414,0.982404 0.460802,1.85565 1.179255,1.85565 h 5.881429 l -2.284197,13.269247 c -0.17838,1.036974 0.396392,2.012551 1.154487,2.012551 0.41621,0 0.812597,-0.300177 1.030613,-0.818672 L 33.76189,20.732265 c 0.460801,-1.084735 -0.109013,-2.456003 -1.02566,-2.456003 z"
       id="path1854"
       style="fill:#ffffff;stroke:none;stroke-width:0.0581405" /></g></svg>
