<?xml version="1.0" encoding="UTF-8" standalone="no"?>
<!-- Created with Inkscape (http://www.inkscape.org/) -->

<svg
   width="155.69099"
   height="193.44783"
   viewBox="0 0 41.193241 51.183071"
   version="1.1"
   id="svg5"
   xml:space="preserve"
   inkscape:version="1.2.2 (b0a8486, 2022-12-01)"
   sodipodi:docname="draws.svg"
   inkscape:export-filename="o_1_m.svg"
   inkscape:export-xdpi="96"
   inkscape:export-ydpi="96"
   xmlns:inkscape="http://www.inkscape.org/namespaces/inkscape"
   xmlns:sodipodi="http://sodipodi.sourceforge.net/DTD/sodipodi-0.dtd"
   xmlns="http://www.w3.org/2000/svg"
   xmlns:svg="http://www.w3.org/2000/svg"><sodipodi:namedview
     id="namedview7"
     pagecolor="#ffffff"
     bordercolor="#000000"
     borderopacity="0.25"
     inkscape:showpageshadow="2"
     inkscape:pageopacity="0.0"
     inkscape:pagecheckerboard="0"
     inkscape:deskcolor="#d1d1d1"
     inkscape:document-units="mm"
     showgrid="false"
     inkscape:zoom="0.9667301"
     inkscape:cx="37.756143"
     inkscape:cy="166.02359"
     inkscape:window-width="1440"
     inkscape:window-height="765"
     inkscape:window-x="0"
     inkscape:window-y="25"
     inkscape:window-maximized="0"
     inkscape:current-layer="layer1" /><defs
     id="defs2" /><g
     inkscape:label="Layer 1"
     inkscape:groupmode="layer"
     id="layer1"
     transform="translate(-5.0530078,-0.71278424)"><path
       style="fill:#999999;stroke:none;stroke-width:0.434191"
       d="m 24.184617,50.45293 c -62.886387,-68.194566 67.551409,-63.903201 4.194578,-0.06749 -1.899612,1.478514 -2.40869,1.480032 -4.194578,0.06749 z"
       id="path104-5-1-5"
       sodipodi:nodetypes="ccc"
       inkscape:export-filename="o_1_m.svg"
       inkscape:export-xdpi="96"
       inkscape:export-ydpi="96" /><path
       style="fill:#ffffff;stroke:none;stroke-width:0.436649"
       d="m 22.689946,50.83343 c -62.886387,-68.969121 67.551376,-64.629014 4.194578,-0.06832 -1.899612,1.495297 -2.40869,1.496833 -4.194578,0.06832 z"
       id="path104-2-5"
       sodipodi:nodetypes="ccc" /><path
       style="fill:#000000;stroke:none;stroke-width:0.381769"
       d="m 22.943585,47.483343 c -55.676524,-59.549591 59.806691,-55.8022409 3.713672,-0.05908 -1.681817,1.29107 -2.132539,1.29239 -3.713672,0.05908 z"
       id="path104-1-0-6"
       sodipodi:nodetypes="ccc" /><path
       style="fill:#1a5276;fill-opacity:1;fill-rule:evenodd;stroke:none;stroke-width:0.34555"
       d="m 23.130535,45.079753 c -50.363039,-53.9341186 54.098958,-50.5401324 3.359263,-0.05347 -1.521323,1.169342 -1.929021,1.170529 -3.359263,0.05347 z"
       id="path104-1-3-4-3"
       sodipodi:nodetypes="ccc" /><path
       fill="#1a5276"
       d="m 25.063068,24.191929 c 0.84019,0 1.518982,-0.678835 1.518982,-1.519005 V 12.671286 l 1.205722,1.20569 c 0.593332,0.593352 1.556971,0.593352 2.150306,0 0.59337,-0.593354 0.59337,-1.556952 0,-2.150324 L 26.140609,7.9291682 c -0.593367,-0.5933524 -1.55698,-0.5933524 -2.150327,0 l -3.797486,3.7974838 c -0.593359,0.593372 -0.593359,1.55697 0,2.150324 0.593361,0.593352 1.556962,0.593352 2.150339,0 l 1.200946,-1.20569 v 10.001638 c 0,0.84017 0.678806,1.519005 1.518987,1.519005 z m -0.878174,3.318028 c -1.068033,0.735765 -2.373416,1.238949 -3.678814,1.238949 -1.276916,0 -2.62501,-0.512676 -3.674064,-1.238949 v 0 c -0.564877,-0.403504 -1.333875,-0.370265 -1.860771,0.08065 -0.683547,0.56488 -1.542727,0.996839 -2.401912,1.196179 -0.816457,0.189829 -1.324371,1.006369 -1.134498,1.82283 0.189869,0.816441 1.006336,1.324352 1.822793,1.134483 1.162984,-0.270566 2.131345,-0.783202 2.762678,-1.186706 1.376588,0.74051 2.91932,1.229417 4.485774,1.229417 1.51426,0 2.876614,-0.469905 3.816485,-0.897157 0.275327,-0.128115 0.526886,-0.251582 0.740503,-0.36548 0.213622,0.113859 0.460447,0.242071 0.740509,0.36548 0.939886,0.427252 2.306981,0.897157 3.816489,0.897157 1.566448,0 3.109192,-0.488907 4.485785,-1.224652 0.636051,0.398739 1.599702,0.916121 2.762655,1.186686 0.816465,0.18983 1.632965,-0.318021 1.822808,-1.134483 0.189849,-0.816481 -0.318047,-1.63298 -1.134515,-1.822789 -0.85917,-0.19938 -1.718336,-0.63136 -2.401912,-1.196219 -0.526904,-0.446215 -1.295873,-0.479435 -1.860737,-0.08065 v 0 c -1.04432,0.721468 -2.397185,1.234144 -3.674084,1.234144 -1.305406,0 -2.610784,-0.503165 -3.678823,-1.238928 -0.526901,-0.374991 -1.229439,-0.374991 -1.756349,0 z M 20.50608,16.596943 h -6.835476 c -1.257915,0 -2.278492,1.020567 -2.278492,2.278479 v 8.781693 c 0.251585,-0.147255 0.531649,-0.256349 0.830701,-0.327534 0.621839,-0.147059 1.267413,-0.46518 1.770581,-0.882941 1.053802,-0.887628 2.577541,-0.954048 3.707299,-0.161316 0.854437,0.588608 1.903485,0.963618 2.805387,0.963618 z m 18.227947,2.278479 c 0,-1.257912 -1.020579,-2.278479 -2.27847,-2.278479 h -6.835491 v 10.656686 0 c 0.901907,0 1.955724,-0.37499 2.810133,-0.963598 1.129744,-0.792733 2.648763,-0.726273 3.707297,0.161316 0.503171,0.417722 1.14874,0.74049 1.770596,0.882921 0.299022,0.07109 0.574361,0.180455 0.830679,0.327514 v -8.786438 z"
       id="path4910"
       style="fill:#ffffff;stroke-width:0.0474684" /></g></svg>
