<?xml version="1.0" encoding="UTF-8" standalone="no"?>
<!-- Created with Inkscape (http://www.inkscape.org/) -->

<svg
   width="155.69099"
   height="193.44783"
   viewBox="0 0 41.193241 51.183071"
   version="1.1"
   id="svg5"
   xml:space="preserve"
   inkscape:version="1.2.2 (b0a8486, 2022-12-01)"
   sodipodi:docname="draws.svg"
   inkscape:export-filename="o_1_m.svg"
   inkscape:export-xdpi="96"
   inkscape:export-ydpi="96"
   xmlns:inkscape="http://www.inkscape.org/namespaces/inkscape"
   xmlns:sodipodi="http://sodipodi.sourceforge.net/DTD/sodipodi-0.dtd"
   xmlns="http://www.w3.org/2000/svg"
   xmlns:svg="http://www.w3.org/2000/svg"><sodipodi:namedview
     id="namedview7"
     pagecolor="#ffffff"
     bordercolor="#000000"
     borderopacity="0.25"
     inkscape:showpageshadow="2"
     inkscape:pageopacity="0.0"
     inkscape:pagecheckerboard="0"
     inkscape:deskcolor="#d1d1d1"
     inkscape:document-units="mm"
     showgrid="false"
     inkscape:zoom="0.9667301"
     inkscape:cx="37.756143"
     inkscape:cy="166.02359"
     inkscape:window-width="1440"
     inkscape:window-height="765"
     inkscape:window-x="0"
     inkscape:window-y="25"
     inkscape:window-maximized="0"
     inkscape:current-layer="layer1" /><defs
     id="defs2" /><g
     inkscape:label="Layer 1"
     inkscape:groupmode="layer"
     id="layer1"
     transform="translate(-5.0530078,-0.71278424)"><path
       style="fill:#999999;stroke:none;stroke-width:0.434191"
       d="m 24.184617,50.45293 c -62.886387,-68.194566 67.551409,-63.903201 4.194578,-0.06749 -1.899612,1.478514 -2.40869,1.480032 -4.194578,0.06749 z"
       id="path104-5-1-5"
       sodipodi:nodetypes="ccc"
       inkscape:export-filename="o_2_m.svg"
       inkscape:export-xdpi="96"
       inkscape:export-ydpi="96" /><path
       style="fill:#ffffff;stroke:none;stroke-width:0.436649"
       d="m 22.689946,50.83343 c -62.886387,-68.969121 67.551376,-64.629014 4.194578,-0.06832 -1.899612,1.495297 -2.40869,1.496833 -4.194578,0.06832 z"
       id="path104-2-5"
       sodipodi:nodetypes="ccc" /><path
       style="fill:#000000;stroke:none;stroke-width:0.381769"
       d="m 22.943585,47.483343 c -55.676524,-59.549591 59.806691,-55.8022409 3.713672,-0.05908 -1.681817,1.29107 -2.132539,1.29239 -3.713672,0.05908 z"
       id="path104-1-0-6"
       sodipodi:nodetypes="ccc" /><path
       style="fill:#6c5353;fill-opacity:1;fill-rule:evenodd;stroke:none;stroke-width:0.34555"
       d="m 23.130535,45.079753 c -50.363039,-53.9341186 54.098958,-50.5401324 3.359263,-0.05347 -1.521323,1.169342 -1.929021,1.170529 -3.359263,0.05347 z"
       id="path104-1-3-4-3"
       sodipodi:nodetypes="ccc" /><path
       fill="#2c3e50"
       d="M 38.709863,29.597898 32.178162,12.593199 C 31.945939,11.988469 31.439905,11.60108 30.882943,11.60108 H 26.32304 l 0.114476,1.230716 c 0.02337,0.250819 -0.149987,0.469755 -0.371932,0.469755 h -1.362503 c -0.221945,0 -0.395295,-0.218936 -0.371932,-0.469755 l 0.114476,-1.230716 h -4.559903 c -0.557428,0 -1.063462,0.387389 -1.295687,0.992119 l -6.531703,17.004699 c -0.432204,1.126029 0.257457,2.408821 1.296156,2.408821 h 9.197369 l 0.481735,-5.190686 c 0.04018,-0.432555 0.360718,-0.76096 0.743397,-0.76096 h 3.214687 c 0.382679,0 0.703212,0.328405 0.743396,0.76096 l 0.481736,5.190686 h 9.197368 c 1.038699,0 1.728361,-1.282792 1.295687,-2.408821 z M 24.09472,15.3825 a 0.37380078,0.42511746 0 0 1 0.371931,-0.38048 h 1.835829 c 0.191106,0 0.351841,0.164202 0.371933,0.38048 l 0.214935,2.315828 c 0.03505,0.376761 -0.224748,0.704632 -0.557431,0.704632 h -1.894235 c -0.33315,0 -0.592475,-0.327871 -0.557431,-0.704632 z m 2.581095,8.972103 h -2.583431 c -0.443889,0 -0.790122,-0.437341 -0.743396,-0.939509 l 0.236895,-2.550704 c 0.04018,-0.432557 0.360718,-0.760962 0.743397,-0.760962 h 2.109638 c 0.382678,0 0.703213,0.328405 0.743396,0.760962 l 0.236897,2.550704 c 0.04673,0.502168 -0.299508,0.939509 -0.743396,0.939509 z"
       id="path6848"
       style="fill:#ffffff;stroke-width:0.0498293" /></g></svg>
