<?xml version="1.0" encoding="UTF-8" standalone="no"?>
<!-- Created with Inkscape (http://www.inkscape.org/) -->

<svg
   width="155.69099"
   height="193.44783"
   viewBox="0 0 41.193241 51.183071"
   version="1.1"
   id="svg5"
   xml:space="preserve"
   inkscape:version="1.2.2 (b0a8486, 2022-12-01)"
   sodipodi:docname="draws.svg"
   inkscape:export-filename="o_1_m.svg"
   inkscape:export-xdpi="96"
   inkscape:export-ydpi="96"
   xmlns:inkscape="http://www.inkscape.org/namespaces/inkscape"
   xmlns:sodipodi="http://sodipodi.sourceforge.net/DTD/sodipodi-0.dtd"
   xmlns="http://www.w3.org/2000/svg"
   xmlns:svg="http://www.w3.org/2000/svg"><sodipodi:namedview
     id="namedview7"
     pagecolor="#ffffff"
     bordercolor="#000000"
     borderopacity="0.25"
     inkscape:showpageshadow="2"
     inkscape:pageopacity="0.0"
     inkscape:pagecheckerboard="0"
     inkscape:deskcolor="#d1d1d1"
     inkscape:document-units="mm"
     showgrid="false"
     inkscape:zoom="0.9667301"
     inkscape:cx="37.756143"
     inkscape:cy="166.02359"
     inkscape:window-width="1440"
     inkscape:window-height="765"
     inkscape:window-x="0"
     inkscape:window-y="25"
     inkscape:window-maximized="0"
     inkscape:current-layer="layer1" /><defs
     id="defs2" /><g
     inkscape:label="Layer 1"
     inkscape:groupmode="layer"
     id="layer1"
     transform="translate(-5.0530078,-0.71278424)"><path
       style="fill:#999999;stroke:none;stroke-width:0.434191"
       d="m 24.184617,50.45293 c -62.886387,-68.194566 67.551409,-63.903201 4.194578,-0.06749 -1.899612,1.478514 -2.40869,1.480032 -4.194578,0.06749 z"
       id="path104-5-1-5"
       sodipodi:nodetypes="ccc"
       inkscape:export-filename="o_3_m.svg"
       inkscape:export-xdpi="96"
       inkscape:export-ydpi="96" /><path
       style="fill:#ffffff;stroke:none;stroke-width:0.436649"
       d="m 22.689946,50.83343 c -62.886387,-68.969121 67.551376,-64.629014 4.194578,-0.06832 -1.899612,1.495297 -2.40869,1.496833 -4.194578,0.06832 z"
       id="path104-2-5"
       sodipodi:nodetypes="ccc" /><path
       style="fill:#000000;stroke:none;stroke-width:0.381769"
       d="m 22.943585,47.483343 c -55.676524,-59.549591 59.806691,-55.8022409 3.713672,-0.05908 -1.681817,1.29107 -2.132539,1.29239 -3.713672,0.05908 z"
       id="path104-1-0-6"
       sodipodi:nodetypes="ccc" /><path
       style="fill:#0094ff;fill-opacity:1;fill-rule:evenodd;stroke:none;stroke-width:0.34555"
       d="m 23.130535,45.079753 c -50.363039,-53.9341186 54.098958,-50.5401324 3.359263,-0.05347 -1.521323,1.169342 -1.929021,1.170529 -3.359263,0.05347 z"
       id="path104-1-3-4-3"
       sodipodi:nodetypes="ccc" /><path
       fill="#5d6d7e"
       d="m 23.212825,8.3521858 c 0.936368,0 1.692867,0.7565005 1.692867,1.6928662 v 0.634826 l 5.078597,-0.634826 c 0.936367,0 1.692866,0.7565 1.692866,1.692866 0,0.936366 -0.756499,1.692866 -1.692866,1.692866 l -5.078597,-0.634825 -1.639963,-0.206318 -0.05291,-0.0052 -0.05289,0.0052 -1.639964,0.206318 -5.078595,0.634825 c -0.936369,0 -1.692869,-0.7565 -1.692869,-1.692866 0,-0.936366 0.7565,-1.692866 1.692869,-1.692866 l 5.078595,0.634826 v -0.634826 c 0,-0.9363657 0.756498,-1.6928662 1.692864,-1.6928662 z M 11.362766,20.202248 c 0,-0.93637 0.756498,-1.692867 1.692869,-1.692867 h 5.078594 l 1.195585,-1.195586 c 0.317412,-0.317413 0.745923,-0.49728 1.195589,-0.49728 h 0.994557 v -2.31711 l 1.692865,-0.211608 1.692867,0.211608 v 2.31711 h 0.989269 c 0.449668,0 0.878174,0.179867 1.195586,0.49728 l 1.200876,1.195586 h 1.692866 c 4.676542,0 8.46433,3.787789 8.46433,8.464331 0,0.936365 -0.756502,1.692863 -1.692867,1.692863 h -3.385731 c -0.936367,0 -1.692866,-0.756498 -1.692866,-1.692863 0,-0.93637 -0.756499,-1.692868 -1.692866,-1.692868 h -1.909764 c -1.068621,1.534161 -2.851421,2.539299 -4.8617,2.539299 -2.010277,0 -3.793079,-1.005138 -4.861696,-2.539299 h -5.295494 c -0.936371,0 -1.692869,-0.7565 -1.692869,-1.692865 z m 23.107617,10.548665 c 0.100517,-0.238055 0.333282,-0.391471 0.592503,-0.391471 0.259221,0 0.486699,0.153416 0.592504,0.391471 l 0.962816,2.243048 c 0.09522,0.216901 0.142837,0.454957 0.142837,0.69302 v 0.05818 c 0,0.936365 -0.7565,1.692872 -1.692867,1.692872 -0.936365,0 -1.692866,-0.756507 -1.692866,-1.692872 v -0.06345 c 0,-0.238063 0.04761,-0.470828 0.142837,-0.693019 l 0.962817,-2.243048 z"
       id="path6964"
       style="fill:#ffffff;stroke-width:0.0529019" /></g></svg>
