<?xml version="1.0" encoding="UTF-8" standalone="no"?>
<!-- Created with Inkscape (http://www.inkscape.org/) -->

<svg
   width="200"
   height="200"
   viewBox="0 0 52.916665 52.916666"
   version="1.1"
   id="svg5"
   xml:space="preserve"
   inkscape:version="1.2.2 (b0a8486, 2022-12-01)"
   sodipodi:docname="draws.svg"
   inkscape:export-filename="o_1_m.svg"
   inkscape:export-xdpi="96"
   inkscape:export-ydpi="96"
   xmlns:inkscape="http://www.inkscape.org/namespaces/inkscape"
   xmlns:sodipodi="http://sodipodi.sourceforge.net/DTD/sodipodi-0.dtd"
   xmlns="http://www.w3.org/2000/svg"
   xmlns:svg="http://www.w3.org/2000/svg"><sodipodi:namedview
     id="namedview7"
     pagecolor="#ffffff"
     bordercolor="#000000"
     borderopacity="0.25"
     inkscape:showpageshadow="2"
     inkscape:pageopacity="0.0"
     inkscape:pagecheckerboard="0"
     inkscape:deskcolor="#d1d1d1"
     inkscape:document-units="mm"
     showgrid="false"
     inkscape:zoom="0.9667301"
     inkscape:cx="37.756143"
     inkscape:cy="166.02359"
     inkscape:window-width="1440"
     inkscape:window-height="765"
     inkscape:window-x="0"
     inkscape:window-y="25"
     inkscape:window-maximized="0"
     inkscape:current-layer="layer1" /><defs
     id="defs2" /><g
     inkscape:label="Layer 1"
     inkscape:groupmode="layer"
     id="layer1"><path
       style="fill:#999999;stroke:none;stroke-width:0.434191"
       d="m 24.184617,50.45293 c -62.886387,-68.194566 67.551409,-63.903201 4.194578,-0.06749 -1.899612,1.478514 -2.40869,1.480032 -4.194578,0.06749 z"
       id="path104-5-1-5"
       sodipodi:nodetypes="ccc"
       inkscape:export-filename="o_4_m.svg"
       inkscape:export-xdpi="96"
       inkscape:export-ydpi="96" /><path
       style="fill:#ffffff;stroke:none;stroke-width:0.436649"
       d="m 22.689946,50.83343 c -62.886387,-68.969121 67.551376,-64.629014 4.194578,-0.06832 -1.899612,1.495297 -2.40869,1.496833 -4.194578,0.06832 z"
       id="path104-2-5"
       sodipodi:nodetypes="ccc" /><path
       style="fill:#000000;stroke:none;stroke-width:0.381769"
       d="m 22.943585,47.483343 c -55.676524,-59.549591 59.806691,-55.8022409 3.713672,-0.05908 -1.681817,1.29107 -2.132539,1.29239 -3.713672,0.05908 z"
       id="path104-1-0-6"
       sodipodi:nodetypes="ccc" /><path
       style="fill:#d45500;fill-opacity:1;fill-rule:evenodd;stroke:none;stroke-width:0.34555"
       d="m 23.130535,45.079753 c -50.363039,-53.9341186 54.098958,-50.5401324 3.359263,-0.05347 -1.521323,1.169342 -1.929021,1.170529 -3.359263,0.05347 z"
       id="path104-1-3-4-3"
       sodipodi:nodetypes="ccc" /><path
       fill="#af601a"
       d="m 16.839455,25.098326 c -0.57538,0 -1.038283,0.462901 -1.038283,1.038283 0,0.575383 0.462903,1.038284 1.038283,1.038284 0.575385,0 1.038283,-0.462901 1.038283,-1.038284 0,-0.575382 -0.462898,-1.038283 -1.038283,-1.038283 z m 3.460947,0 c -0.575384,0 -1.038283,0.462901 -1.038283,1.038283 0,0.575383 0.462899,1.038284 1.038283,1.038284 0.57538,0 1.038284,-0.462901 1.038284,-1.038284 0,-0.575382 -0.462904,-1.038283 -1.038284,-1.038283 z m 3.460948,0 c -0.575385,0 -1.038284,0.462901 -1.038284,1.038283 0,0.575383 0.462899,1.038284 1.038284,1.038284 0.575379,0 1.038283,-0.462901 1.038283,-1.038284 0,-0.575382 -0.462904,-1.038283 -1.038283,-1.038283 z m 3.460942,0 c -0.57538,0 -1.038283,0.462901 -1.038283,1.038283 0,0.575383 0.462903,1.038284 1.038283,1.038284 0.575385,0 1.038287,-0.462901 1.038287,-1.038284 0,-0.575382 -0.462902,-1.038283 -1.038287,-1.038283 z m 10.322272,2.137135 c -0.627298,-0.627298 -0.977719,-1.475228 -0.977719,-2.362096 v -4.395402 c 0,-0.886867 0.350421,-1.734799 0.977719,-2.362096 l 1.587708,-1.587708 c 0.268224,-0.268223 0.268224,-0.709494 0,-0.977718 l -0.977717,-0.977716 c -0.268223,-0.268225 -0.709494,-0.268225 -0.977718,0 l -1.587704,1.587708 c -1.146443,1.146439 -1.791041,2.699538 -1.791041,4.321856 v 0.808996 h -2.768759 v -2.202026 c 0,-0.376378 -0.07787,-0.744104 -0.224959,-1.090198 L 27.416971,10.090799 C 27.088183,9.3250658 26.339751,8.8318803 25.5048,8.8318803 h -6.242681 c -1.146438,0 -2.07657,0.9301297 -2.07657,2.0765677 v 4.845324 h -0.692188 c -1.146439,0 -2.076566,0.930129 -2.076566,2.076567 v 3.945479 c -1.630973,0.778713 -2.768758,2.431314 -2.768758,4.360791 0,2.677908 2.16742,4.845326 4.845324,4.845326 h 11.07503 c 2.677904,0 4.845319,-2.167418 4.845319,-4.845326 0,-0.748429 -0.181695,-1.444944 -0.48453,-2.076566 h 1.868912 v 0.808995 c 0,1.62232 0.644598,3.175419 1.791041,4.321857 l 1.587704,1.587708 c 0.268224,0.268224 0.709495,0.268224 0.977718,0 l 0.977717,-0.977717 c 0.268224,-0.268224 0.268224,-0.709495 0,-0.977717 z M 19.954308,11.600638 h 5.096242 l 2.96776,6.921891 h -5.295244 l -2.768758,-2.768757 z m 7.614083,16.612539 h -11.07503 c -1.146439,0 -2.076566,-0.930129 -2.076566,-2.076568 0,-1.146437 0.930127,-2.076566 2.076566,-2.076566 h 11.07503 c 1.146434,0 2.076565,0.930129 2.076565,2.076566 0,1.146439 -0.930131,2.076568 -2.076565,2.076568 z"
       id="path7103"
       style="fill:#ffffff;stroke-width:0.0432618" /></g></svg>
