<?xml version="1.0" encoding="UTF-8" standalone="no"?>
<!-- Created with Inkscape (http://www.inkscape.org/) -->

<svg
   width="155.69099"
   height="193.44783"
   viewBox="0 0 41.193241 51.183071"
   version="1.1"
   id="svg5"
   xml:space="preserve"
   inkscape:version="1.2.2 (b0a8486, 2022-12-01)"
   sodipodi:docname="draws.svg"
   inkscape:export-filename="o_6_m.svg"
   inkscape:export-xdpi="96"
   inkscape:export-ydpi="96"
   xmlns:inkscape="http://www.inkscape.org/namespaces/inkscape"
   xmlns:sodipodi="http://sodipodi.sourceforge.net/DTD/sodipodi-0.dtd"
   xmlns="http://www.w3.org/2000/svg"
   xmlns:svg="http://www.w3.org/2000/svg"><sodipodi:namedview
     id="namedview7"
     pagecolor="#ffffff"
     bordercolor="#000000"
     borderopacity="0.25"
     inkscape:showpageshadow="2"
     inkscape:pageopacity="0.0"
     inkscape:pagecheckerboard="0"
     inkscape:deskcolor="#d1d1d1"
     inkscape:document-units="mm"
     showgrid="false"
     inkscape:zoom="0.9667301"
     inkscape:cx="37.756143"
     inkscape:cy="166.02359"
     inkscape:window-width="1440"
     inkscape:window-height="765"
     inkscape:window-x="0"
     inkscape:window-y="25"
     inkscape:window-maximized="0"
     inkscape:current-layer="layer1" /><defs
     id="defs2" /><g
     inkscape:label="Layer 1"
     inkscape:groupmode="layer"
     id="layer1"
     transform="translate(-5.0530078,-0.71278424)"><path
       style="fill:#999999;stroke:none;stroke-width:0.434191"
       d="m 24.184617,50.45293 c -62.886387,-68.194566 67.551409,-63.903201 4.194578,-0.06749 -1.899612,1.478514 -2.40869,1.480032 -4.194578,0.06749 z"
       id="path104-5-1-5"
       sodipodi:nodetypes="ccc"
       inkscape:export-filename="o_4_m.svg"
       inkscape:export-xdpi="96"
       inkscape:export-ydpi="96" /><path
       style="fill:#ffffff;stroke:none;stroke-width:0.436649"
       d="m 22.689946,50.83343 c -62.886387,-68.969121 67.551376,-64.629014 4.194578,-0.06832 -1.899612,1.495297 -2.40869,1.496833 -4.194578,0.06832 z"
       id="path104-2-5"
       sodipodi:nodetypes="ccc" /><path
       style="fill:#000000;stroke:none;stroke-width:0.381769"
       d="m 22.943585,47.483343 c -55.676524,-59.549591 59.806691,-55.8022409 3.713672,-0.05908 -1.681817,1.29107 -2.132539,1.29239 -3.713672,0.05908 z"
       id="path104-1-0-6"
       sodipodi:nodetypes="ccc" /><path
       style="fill:#808080;fill-opacity:1;fill-rule:evenodd;stroke:none;stroke-width:0.34555"
       d="m 23.130535,45.079753 c -50.363039,-53.9341186 54.098958,-50.5401324 3.359263,-0.05347 -1.521323,1.169342 -1.929021,1.170529 -3.359263,0.05347 z"
       id="path104-1-3-4-3"
       sodipodi:nodetypes="ccc" /><path
       fill="#424949"
       d="m 12.621254,11.479593 c -0.850103,0 -1.536907,0.686806 -1.536907,1.536907 0,0.850101 0.686804,1.536907 1.536907,1.536907 h 1.921134 v 3.073813 h -3.458041 v 6.147629 c 2.545502,0 4.610722,2.065218 4.610722,4.61072 v 3.073813 c 0,0.850102 0.686804,1.536908 1.536905,1.536908 h 1.536907 c 0.850101,0 1.536906,-0.686806 1.536906,-1.536908 v -3.073813 c 0,-2.545502 2.065219,-4.61072 4.610721,-4.61072 2.545502,0 4.610721,2.065218 4.610721,4.61072 v 3.073813 c 0,0.850102 0.686805,1.536908 1.536908,1.536908 h 1.536905 c 0.8501,0 1.536909,-0.686806 1.536909,-1.536908 v -3.073813 c 0,-2.545502 2.065218,-4.61072 4.610719,-4.61072 V 17.62722 h -3.458038 v -3.073813 h 1.92113 c 0.850106,0 1.536908,-0.686806 1.536908,-1.536907 0,-0.850101 -0.686802,-1.536907 -1.536908,-1.536907 z m 20.364015,3.073814 v 3.073813 h -3.842266 v -3.073813 z m -6.147627,0 v 3.073813 h -3.842268 v -3.073813 z m -6.147627,0 v 3.073813 h -3.842268 v -3.073813 z"
       id="path7239"
       style="fill:#ffffff;stroke-width:0.0480282" /></g></svg>
