<?xml version="1.0" encoding="UTF-8" standalone="no"?>
<!-- Created with Inkscape (http://www.inkscape.org/) -->

<svg
   width="155.69099"
   height="193.44783"
   viewBox="0 0 41.193241 51.183071"
   version="1.1"
   id="svg5"
   xml:space="preserve"
   inkscape:version="1.2.2 (b0a8486, 2022-12-01)"
   sodipodi:docname="draws.svg"
   inkscape:export-filename="o_6_m.svg"
   inkscape:export-xdpi="96"
   inkscape:export-ydpi="96"
   xmlns:inkscape="http://www.inkscape.org/namespaces/inkscape"
   xmlns:sodipodi="http://sodipodi.sourceforge.net/DTD/sodipodi-0.dtd"
   xmlns="http://www.w3.org/2000/svg"
   xmlns:svg="http://www.w3.org/2000/svg"><sodipodi:namedview
     id="namedview7"
     pagecolor="#ffffff"
     bordercolor="#000000"
     borderopacity="0.25"
     inkscape:showpageshadow="2"
     inkscape:pageopacity="0.0"
     inkscape:pagecheckerboard="0"
     inkscape:deskcolor="#d1d1d1"
     inkscape:document-units="mm"
     showgrid="false"
     inkscape:zoom="0.9667301"
     inkscape:cx="37.756143"
     inkscape:cy="166.02359"
     inkscape:window-width="1440"
     inkscape:window-height="765"
     inkscape:window-x="0"
     inkscape:window-y="25"
     inkscape:window-maximized="0"
     inkscape:current-layer="layer1" /><defs
     id="defs2" /><g
     inkscape:label="Layer 1"
     inkscape:groupmode="layer"
     id="layer1"
     transform="translate(-5.0530078,-0.71278424)"><path
       style="fill:#999999;stroke:none;stroke-width:0.434191"
       d="m 24.184617,50.45293 c -62.886387,-68.194566 67.551409,-63.903201 4.194578,-0.06749 -1.899612,1.478514 -2.40869,1.480032 -4.194578,0.06749 z"
       id="path104-5-1-5"
       sodipodi:nodetypes="ccc"
       inkscape:export-filename="o_6_m.svg"
       inkscape:export-xdpi="96"
       inkscape:export-ydpi="96" /><path
       style="fill:#ffffff;stroke:none;stroke-width:0.436649"
       d="m 22.689946,50.83343 c -62.886387,-68.969121 67.551376,-64.629014 4.194578,-0.06832 -1.899612,1.495297 -2.40869,1.496833 -4.194578,0.06832 z"
       id="path104-2-5"
       sodipodi:nodetypes="ccc" /><path
       style="fill:#000000;stroke:none;stroke-width:0.381769"
       d="m 22.943585,47.483343 c -55.676524,-59.549591 59.806691,-55.8022409 3.713672,-0.05908 -1.681817,1.29107 -2.132539,1.29239 -3.713672,0.05908 z"
       id="path104-1-0-6"
       sodipodi:nodetypes="ccc" /><path
       style="fill:#008000;fill-opacity:1;fill-rule:evenodd;stroke:none;stroke-width:0.34555"
       d="m 23.130535,45.079753 c -50.363039,-53.9341186 54.098958,-50.5401324 3.359263,-0.05347 -1.521323,1.169342 -1.929021,1.170529 -3.359263,0.05347 z"
       id="path104-1-3-4-3"
       sodipodi:nodetypes="ccc" /><path
       fill="#5499c7"
       d="m 17.387065,7.90804 c -1.201416,0 -2.176147,0.9747331 -2.176147,2.176148 v 9.429978 h -0.725383 c -1.201415,0 -2.17615,0.974732 -2.17615,2.176148 v 4.352296 c 0,0.362693 0.09068,0.707248 0.244819,1.006469 0.172278,-0.07707 0.353623,-0.140544 0.544033,-0.185879 0.59391,-0.140544 1.210484,-0.444298 1.69105,-0.843257 1.00647,-0.847792 2.461769,-0.911262 3.540776,-0.154144 0.816056,0.562171 1.81799,0.920329 2.683919,0.920329 0.956597,0 1.904127,-0.38536 2.683915,-0.920329 1.001934,-0.702715 2.33936,-0.702715 3.341294,0 0.834186,0.575772 1.795323,0.920329 2.683914,0.920329 0.861393,0 1.867862,-0.358158 2.683915,-0.920329 1.079008,-0.757118 2.529775,-0.693648 3.54078,0.154144 0.480561,0.398959 1.097142,0.707248 1.691045,0.843257 0.190416,0.04533 0.371761,0.108807 0.544042,0.185879 0.149605,-0.299221 0.240278,-0.643776 0.240278,-1.006469 v -4.352296 c 0,-1.201416 -0.974729,-2.176148 -2.176142,-2.176148 h -2.17615 v -6.650855 l 1.151546,1.151546 c 0.566699,0.566705 1.48703,0.566705 2.053736,0 0.566705,-0.566706 0.566705,-1.487035 0,-2.053741 L 33.649244,8.3342023 c -0.566705,-0.5667054 -1.487036,-0.5667054 -2.053742,0 l -3.62691,3.6269137 c -0.566709,0.566706 -0.566709,1.487035 0,2.053741 0.566704,0.566705 1.48703,0.566705 2.053736,0 l 1.147016,-1.151546 v 6.650855 h -5.803066 v -9.429978 c 0,-1.2014149 -0.974734,-2.176148 -2.176149,-2.176148 z m 8.817937,19.127439 c -0.503237,-0.358159 -1.174215,-0.358159 -1.677448,0 -1.020071,0.702714 -2.266823,1.18328 -3.513572,1.18328 -1.219552,0 -2.507106,-0.489634 -3.50904,-1.18328 v 0 c -0.539506,-0.38536 -1.273957,-0.353624 -1.77719,0.07707 -0.652843,0.539502 -1.473436,0.952064 -2.294023,1.142477 -0.779784,0.181345 -1.264885,0.961134 -1.08354,1.740919 0.181346,0.779787 0.961135,1.264885 1.740918,1.083541 1.110744,-0.258417 2.035605,-0.748051 2.638579,-1.13341 1.314758,0.707248 2.788193,1.174214 4.284296,1.174214 1.446231,0 2.747384,-0.448832 3.645045,-0.856861 0.262955,-0.122407 0.503237,-0.240282 0.707251,-0.349089 0.204014,0.108807 0.439761,0.231214 0.707247,0.349089 0.897662,0.408029 2.203353,0.856861 3.645051,0.856861 1.496102,0 2.969532,-0.466966 4.284289,-1.169681 0.607509,0.380826 1.527835,0.874993 2.638582,1.133411 0.779785,0.181345 1.559574,-0.303755 1.740914,-1.08354 0.181352,-0.779788 -0.303752,-1.559575 -1.083536,-1.740919 -0.820589,-0.190415 -1.641178,-0.602976 -2.294027,-1.142479 -0.503231,-0.426163 -1.237682,-0.457897 -1.777183,-0.07707 v 0 c -0.997404,0.689113 -2.289491,1.178747 -3.509039,1.178747 -1.246754,0 -2.493506,-0.480566 -3.513574,-1.18328 z"
       id="path7480"
       style="fill:#ffffff;stroke-width:0.0453365" /></g></svg>
