<?xml version="1.0" encoding="UTF-8" standalone="no"?>
<!-- Created with Inkscape (http://www.inkscape.org/) -->

<svg
   width="155.69099"
   height="193.44783"
   viewBox="0 0 41.193241 51.183071"
   version="1.1"
   id="svg5"
   xml:space="preserve"
   inkscape:version="1.2.2 (b0a8486, 2022-12-01)"
   sodipodi:docname="draws.svg"
   inkscape:export-filename="o_6_m.svg"
   inkscape:export-xdpi="96"
   inkscape:export-ydpi="96"
   xmlns:inkscape="http://www.inkscape.org/namespaces/inkscape"
   xmlns:sodipodi="http://sodipodi.sourceforge.net/DTD/sodipodi-0.dtd"
   xmlns="http://www.w3.org/2000/svg"
   xmlns:svg="http://www.w3.org/2000/svg"><sodipodi:namedview
     id="namedview7"
     pagecolor="#ffffff"
     bordercolor="#000000"
     borderopacity="0.25"
     inkscape:showpageshadow="2"
     inkscape:pageopacity="0.0"
     inkscape:pagecheckerboard="0"
     inkscape:deskcolor="#d1d1d1"
     inkscape:document-units="mm"
     showgrid="false"
     inkscape:zoom="0.9667301"
     inkscape:cx="37.756143"
     inkscape:cy="166.02359"
     inkscape:window-width="1440"
     inkscape:window-height="765"
     inkscape:window-x="0"
     inkscape:window-y="25"
     inkscape:window-maximized="0"
     inkscape:current-layer="layer1" /><defs
     id="defs2" /><g
     inkscape:label="Layer 1"
     inkscape:groupmode="layer"
     id="layer1"
     transform="translate(-5.0530078,-0.71278424)"><path
       style="fill:#999999;stroke:none;stroke-width:0.434191"
       d="m 24.184617,50.45293 c -62.886387,-68.194566 67.551409,-63.903201 4.194578,-0.06749 -1.899612,1.478514 -2.40869,1.480032 -4.194578,0.06749 z"
       id="path104-5-1-5"
       sodipodi:nodetypes="ccc"
       inkscape:export-filename="o_7_m.svg"
       inkscape:export-xdpi="96"
       inkscape:export-ydpi="96" /><path
       style="fill:#ffffff;stroke:none;stroke-width:0.436649"
       d="m 22.689946,50.83343 c -62.886387,-68.969121 67.551376,-64.629014 4.194578,-0.06832 -1.899612,1.495297 -2.40869,1.496833 -4.194578,0.06832 z"
       id="path104-2-5"
       sodipodi:nodetypes="ccc" /><path
       style="fill:#000000;stroke:none;stroke-width:0.381769"
       d="m 22.943585,47.483343 c -55.676524,-59.549591 59.806691,-55.8022409 3.713672,-0.05908 -1.681817,1.29107 -2.132539,1.29239 -3.713672,0.05908 z"
       id="path104-1-0-6"
       sodipodi:nodetypes="ccc" /><path
       style="fill:#93aca7;fill-opacity:1;fill-rule:evenodd;stroke:none;stroke-width:0.34555"
       d="m 23.130535,45.079753 c -50.363039,-53.9341186 54.098958,-50.5401324 3.359263,-0.05347 -1.521323,1.169342 -1.929021,1.170529 -3.359263,0.05347 z"
       id="path104-1-3-4-3"
       sodipodi:nodetypes="ccc" /><path
       fill="#b03a2e"
       d="m 35.044142,23.748559 c -1.218462,0.988877 -2.55999,1.808482 -4.014848,2.385853 l 2.645109,4.581522 2.624198,1.120695 c 0.477171,0.203806 1.016117,-0.107497 1.078378,-0.622609 l 0.341461,-2.833354 z m 2.066766,-4.599518 c 0.236398,-0.373078 0.09193,-0.875056 -0.294277,-1.089078 l -1.365362,-0.757344 c -0.363836,-0.201862 -0.807931,-0.07102 -1.034113,0.278228 -1.999641,3.090179 -5.441496,4.979893 -9.150392,4.979893 -1.163988,0 -2.297328,-0.206726 -3.376191,-0.560834 l 3.276475,-5.675463 c 0.03406,9.84e-4 0.06518,0.01022 0.09923,0.01022 0.03406,0 0.06567,-0.0092 0.09923,-0.01022 l 2.485083,4.304752 c 1.519067,-0.435826 2.897074,-1.252513 4.018255,-2.379531 l -2.51913,-4.363607 c 0.362377,-0.662981 0.586615,-1.412056 0.586615,-2.220961 0,-2.5789588 -2.090605,-4.6695608 -4.669563,-4.6695608 -2.578961,0 -4.669561,2.090602 -4.669561,4.6695608 0,0.808905 0.224237,1.55798 0.586126,2.220961 l -3.322196,5.754747 C 17.250688,19.076079 16.69569,18.444716 16.222899,17.743795 15.989908,17.398442 15.54338,17.275866 15.182947,17.484537 l -1.349795,0.781665 c -0.381835,0.220832 -0.517057,0.724755 -0.274335,1.092969 0.757341,1.14988 1.687365,2.15043 2.722936,3.016731 l -3.467148,6.005252 0.341461,2.833353 c 0.06226,0.51511 0.601207,0.826415 1.078374,0.622607 l 2.624198,-1.120694 3.443802,-5.964878 c 1.565762,0.595369 3.243399,0.922238 4.964328,0.922238 4.817914,0 9.284644,-2.481191 11.844144,-6.524739 z M 25.266764,10.108576 c 0.859491,0 1.55652,0.697029 1.55652,1.55652 0,0.859491 -0.697029,1.556521 -1.55652,1.556521 -0.859491,0 -1.556523,-0.69703 -1.556523,-1.556521 0,-0.859491 0.697032,-1.55652 1.556523,-1.55652 z"
       id="path7636"
       style="fill:#ffffff;stroke-width:0.0486413" /></g></svg>
