<?xml version="1.0" encoding="UTF-8" standalone="no"?>
<!-- Created with Inkscape (http://www.inkscape.org/) -->

<svg
   width="155.69101"
   height="193.44783"
   viewBox="0 0 41.193245 51.183071"
   version="1.1"
   id="svg5"
   xml:space="preserve"
   xmlns="http://www.w3.org/2000/svg"
   xmlns:svg="http://www.w3.org/2000/svg"><defs
     id="defs2" /><g
     id="layer1"
     transform="translate(-6.7105767,-1.7156621)"><path
       style="fill:#999999;stroke:none;stroke-width:0.434191"
       d="m 25.842182,51.455806 c -62.88638,-68.19457 67.55141,-63.9032 4.19458,-0.06749 -1.89961,1.478514 -2.40869,1.480032 -4.19458,0.06749 z"
       id="path104-5-1-5-6-4-0" /><path
       style="fill:#ffffff;stroke:none;stroke-width:0.436649"
       d="m 24.347512,51.836306 c -62.88638,-68.96912 67.55138,-64.62901 4.19458,-0.06832 -1.89961,1.495297 -2.40869,1.496833 -4.19458,0.06832 z"
       id="path104-2-5-66-6-2" /><path
       style="fill:#000000;stroke:none;stroke-width:0.381769"
       d="m 24.601152,48.486219 c -55.67652,-59.549593 59.80669,-55.8022431 3.71367,-0.05908 -1.68181,1.29107 -2.13254,1.29239 -3.71367,0.05908 z"
       id="path104-1-0-6-70-0-4" /><path
       style="fill:#009eff;fill-opacity:1;fill-rule:evenodd;stroke:none;stroke-width:0.34555"
       d="m 24.788102,46.082629 c -50.36304,-53.9341231 54.09896,-50.5401331 3.35926,-0.05347 -1.52132,1.169342 -1.92902,1.170529 -3.35926,0.05347 z"
       id="path104-1-3-4-3-41-3-8" /><path
       d="m 36.690464,22.375017 v 0.145505 l 3.073247,-3.073248 c 0.96563,-0.965626 0.96563,-2.5265 0,-3.492126 l -3.443625,-3.439216 c -0.965623,-0.965625 -2.5265,-0.965625 -3.492122,0 l -1.768116,1.768109 c -0.119044,-0.01324 -0.242509,-0.02205 -0.365966,-0.02205 h -4.938358 c -1.635835,0 -2.980653,1.234589 -3.157029,2.821919 h -0.01765 v 5.291103 c 0,0.974443 0.789255,1.763699 1.763703,1.763699 0.974442,0 1.763697,-0.789256 1.763697,-1.763699 v -3.174662 c 0,0 0,-0.0044 0,-0.0044 v -0.701115 h 0.705479 5.996583 c 0,0 0,0 0.0046,0 h 0.348331 c 1.948888,0 3.527398,1.578512 3.527398,3.527401 z m -9.171244,-2.46918 v 2.46918 c 0,1.754882 -1.419778,3.17466 -3.174656,3.17466 -1.754886,0 -3.174662,-1.419778 -3.174662,-3.17466 v -5.229372 c -1.582924,0.273375 -2.90129,1.424188 -3.351031,3.00711 l -0.727527,2.539728 -3.227574,3.227572 c -0.965623,0.965625 -0.965623,2.5265 0,3.492126 l 3.44363,3.443624 c 0.965624,0.965628 2.526499,0.965628 3.492124,0 l 1.662285,-1.662286 c 0.0397,0 0.07937,0.0044 0.119052,0.0044 h 7.054805 c 1.168451,0 2.116439,-0.947987 2.116439,-2.116439 0,-0.24692 -0.04413,-0.485019 -0.119051,-0.705481 h 0.119051 c 1.168452,0 2.11644,-0.947988 2.11644,-2.11644 0,-0.564385 -0.220462,-1.075858 -0.582023,-1.455052 1.133181,-0.220464 1.988571,-1.216954 1.992982,-2.41627 v -0.01763 c -0.0046,-1.35805 -1.106721,-2.460363 -2.469183,-2.460363 0,0 0,0 0,0 H 27.51922 Z"
       id="path774"
       style="fill:#ffffff;stroke-width:0.0440925" /></g></svg>
