<?xml version="1.0" encoding="UTF-8" standalone="no"?>
<!-- Created with Inkscape (http://www.inkscape.org/) -->

<svg
   width="155.69098"
   height="193.44785"
   viewBox="0 0 41.193237 51.183075"
   version="1.1"
   id="svg5"
   xml:space="preserve"
   inkscape:version="1.2.2 (b0a8486, 2022-12-01)"
   sodipodi:docname="draws.svg"
   inkscape:export-filename="../../../../../../Desktop/oo_4.svg"
   inkscape:export-xdpi="96"
   inkscape:export-ydpi="96"
   xmlns:inkscape="http://www.inkscape.org/namespaces/inkscape"
   xmlns:sodipodi="http://sodipodi.sourceforge.net/DTD/sodipodi-0.dtd"
   xmlns="http://www.w3.org/2000/svg"
   xmlns:svg="http://www.w3.org/2000/svg"><sodipodi:namedview
     id="namedview7"
     pagecolor="#ffffff"
     bordercolor="#000000"
     borderopacity="0.25"
     inkscape:showpageshadow="2"
     inkscape:pageopacity="0.0"
     inkscape:pagecheckerboard="0"
     inkscape:deskcolor="#d1d1d1"
     inkscape:document-units="mm"
     showgrid="false"
     inkscape:zoom="0.49157134"
     inkscape:cx="3.0514391"
     inkscape:cy="127.14329"
     inkscape:window-width="1440"
     inkscape:window-height="765"
     inkscape:window-x="0"
     inkscape:window-y="25"
     inkscape:window-maximized="0"
     inkscape:current-layer="layer1" /><defs
     id="defs2" /><g
     inkscape:label="Layer 1"
     inkscape:groupmode="layer"
     id="layer1"
     transform="translate(-238.1366,172.59906)"><path
       style="fill:#999999;stroke:none;stroke-width:0.434191"
       d="m 257.26822,-122.85892 c -62.88639,-68.19457 67.55141,-63.9032 4.19458,-0.0675 -1.89961,1.47851 -2.40869,1.48003 -4.19458,0.0675 z"
       id="path104-5-1-5-1-36"
       sodipodi:nodetypes="ccc"
       inkscape:export-filename="../../../../../gobierno/src/assets/markers/o_3_m.png"
       inkscape:export-xdpi="96"
       inkscape:export-ydpi="96" /><path
       style="fill:#ffffff;stroke:none;stroke-width:0.436649"
       d="m 255.77355,-122.47842 c -62.88639,-68.96912 67.55138,-64.62901 4.19458,-0.0683 -1.89961,1.49529 -2.40869,1.49683 -4.19458,0.0683 z"
       id="path104-2-5-9-5"
       sodipodi:nodetypes="ccc" /><path
       style="fill:#000000;stroke:none;stroke-width:0.381769"
       d="m 256.02719,-125.82851 c -55.67653,-59.54959 59.80669,-55.80224 3.71367,-0.0591 -1.68182,1.29107 -2.13254,1.29239 -3.71367,0.0591 z"
       id="path104-1-0-6-5-5"
       sodipodi:nodetypes="ccc" /><path
       style="fill:#c97b7c;fill-opacity:1;fill-rule:evenodd;stroke:none;stroke-width:0.34555"
       d="m 256.21414,-128.2321 c -50.36304,-53.93412 54.09896,-50.54013 3.35926,-0.0535 -1.52132,1.16934 -1.92902,1.17053 -3.35926,0.0535 z"
       id="path104-1-3-4-3-76-8"
       sodipodi:nodetypes="ccc" /><path
       fill="#f1241d"
       d="m 268.74581,-157.79395 h -0.37959 v -2.27756 c 0,-2.12573 -4.70696,-3.79594 -10.62861,-3.79594 -5.92166,0 -10.62862,1.67021 -10.62862,3.79594 v 2.27756 h -0.37959 c -0.6287,0 -1.13878,0.5096 -1.13878,1.13878 v 3.79593 c 0,0.6287 0.51008,1.13878 1.13878,1.13878 h 0.37959 v 7.59187 c 0,0.83842 0.67995,1.51837 1.51838,1.51837 v 1.51837 c 0,0.83843 0.67994,1.51838 1.51837,1.51838 h 1.51837 c 0.83843,0 1.51837,-0.67995 1.51837,-1.51838 v -1.51837 h 9.11025 v 1.51837 c 0,0.83843 0.67994,1.51838 1.51837,1.51838 h 1.51837 c 0.83843,0 1.51838,-0.67995 1.51838,-1.51838 v -1.51837 h 0.30367 c 0.75919,0 1.2147,-0.60735 1.2147,-1.2147 v -7.89554 h 0.37959 c 0.6287,0 1.13878,-0.51008 1.13878,-1.13878 v -3.79593 c 0,-0.62918 -0.51008,-1.13878 -1.13878,-1.13878 z m -15.56333,-2.65716 c 0,-0.20972 0.16987,-0.37959 0.3796,-0.37959 h 8.35105 c 0.20973,0 0.3796,0.16987 0.3796,0.37959 v 0.75919 c 0,0.20972 -0.16987,0.37959 -0.3796,0.37959 h -8.35105 c -0.20973,0 -0.3796,-0.16987 -0.3796,-0.37959 z m -2.27755,15.56333 c -0.83843,0 -1.51838,-0.67995 -1.51838,-1.51837 0,-0.83843 0.67995,-1.51838 1.51838,-1.51838 0.83842,0 1.51837,0.67995 1.51837,1.51838 0,0.83842 -0.67995,1.51837 -1.51837,1.51837 z m 6.07349,-5.31431 h -5.31431 c -0.83842,0 -1.51837,-0.67994 -1.51837,-1.51837 v -4.55512 c 0,-0.83843 0.67995,-1.51837 1.51837,-1.51837 h 5.31431 z m 1.51837,0 v -7.59186 h 5.31431 c 0.83843,0 1.51837,0.67994 1.51837,1.51837 v 4.55512 c 0,0.83843 -0.67994,1.51837 -1.51837,1.51837 z m 6.07349,5.31431 c -0.83842,0 -1.51837,-0.67995 -1.51837,-1.51837 0,-0.83843 0.67995,-1.51838 1.51837,-1.51838 0.83843,0 1.51838,0.67995 1.51838,1.51838 0,0.83842 -0.67995,1.51837 -1.51838,1.51837 z"
       id="path8608-8-1"
       style="fill:#ffffff;stroke-width:0.0474491" /></g></svg>
