<?xml version="1.0" encoding="UTF-8" standalone="no"?>
<!-- Created with Inkscape (http://www.inkscape.org/) -->

<svg
   width="200"
   height="200"
   viewBox="0 0 52.916665 52.916666"
   version="1.1"
   id="svg5"
   xml:space="preserve"
   inkscape:version="1.2.2 (b0a8486, 2022-12-01)"
   sodipodi:docname="draws.svg"
   inkscape:export-filename="../../../../../../Desktop/rojo.png"
   inkscape:export-xdpi="96"
   inkscape:export-ydpi="96"
   xmlns:inkscape="http://www.inkscape.org/namespaces/inkscape"
   xmlns:sodipodi="http://sodipodi.sourceforge.net/DTD/sodipodi-0.dtd"
   xmlns="http://www.w3.org/2000/svg"
   xmlns:svg="http://www.w3.org/2000/svg"><sodipodi:namedview
     id="namedview7"
     pagecolor="#ffffff"
     bordercolor="#000000"
     borderopacity="0.25"
     inkscape:showpageshadow="2"
     inkscape:pageopacity="0.0"
     inkscape:pagecheckerboard="0"
     inkscape:deskcolor="#d1d1d1"
     inkscape:document-units="mm"
     showgrid="false"
     inkscape:zoom="0.49157134"
     inkscape:cx="3.0514391"
     inkscape:cy="127.14329"
     inkscape:window-width="1440"
     inkscape:window-height="765"
     inkscape:window-x="0"
     inkscape:window-y="25"
     inkscape:window-maximized="0"
     inkscape:current-layer="layer1" /><defs
     id="defs2" /><g
     inkscape:label="Layer 1"
     inkscape:groupmode="layer"
     id="layer1"><path
       style="fill:#999999;stroke:none;stroke-width:0.434191"
       d="m 24.99634,50.404093 c -62.886386,-68.194566 67.551408,-63.903201 4.194578,-0.06749 -1.899612,1.478514 -2.40869,1.480032 -4.194578,0.06749 z"
       id="path104-5-1-5-6-4"
       sodipodi:nodetypes="ccc"
       inkscape:export-filename="../../../../../gobierno/src/assets/markers/o_4_m.png"
       inkscape:export-xdpi="96"
       inkscape:export-ydpi="96" /><path
       style="fill:#ffffff;stroke:none;stroke-width:0.436649"
       d="m 23.501669,50.784593 c -62.886385,-68.969121 67.551379,-64.629014 4.194578,-0.06832 -1.899612,1.495297 -2.40869,1.496833 -4.194578,0.06832 z"
       id="path104-2-5-66-6"
       sodipodi:nodetypes="ccc" /><path
       style="fill:#000000;stroke:none;stroke-width:0.381769"
       d="m 23.755308,47.434506 c -55.676524,-59.549591 59.80669,-55.8022412 3.713672,-0.05908 -1.681817,1.29107 -2.132539,1.29239 -3.713672,0.05908 z"
       id="path104-1-0-6-70-0"
       sodipodi:nodetypes="ccc" /><path
       style="fill:#b18147;fill-opacity:1;fill-rule:evenodd;stroke:none;stroke-width:0.34555"
       d="m 23.942258,45.030916 c -50.363044,-53.9341192 54.09896,-50.5401322 3.359263,-0.05347 -1.521323,1.169342 -1.929021,1.170529 -3.359263,0.05347 z"
       id="path104-1-3-4-3-41-3"
       sodipodi:nodetypes="ccc" /><path
       fill="#074fce"
       d="m 26.188304,18.732373 c 2.461861,0 4.45922,-1.955554 4.45922,-4.366319 0,-1.858009 -2.652307,-5.6065422 -3.864657,-7.2276532 -0.297282,-0.394827 -0.891844,-0.394827 -1.189125,0 -1.212351,1.621111 -3.864659,5.3696442 -3.864659,7.2276532 0,2.410765 1.997361,4.366319 4.459221,4.366319 z m 12.880643,3.34906 c -0.548113,-0.497017 -1.402797,-0.464502 -1.978779,0 l -4.291999,3.43267 c -0.524887,0.422698 -1.179836,0.650304 -1.858009,0.650304 h -5.495059 c -0.408762,0 -0.743204,-0.334442 -0.743204,-0.743205 0,-0.408761 0.334442,-0.743203 0.743204,-0.743203 h 3.637051 c 0.738558,0 1.426022,-0.506306 1.546793,-1.235575 0.153285,-0.929004 -0.562048,-1.737238 -1.467827,-1.737238 h -7.432035 c -1.254154,0 -2.466504,0.431987 -3.441959,1.221641 l -2.159933,1.751172 h -2.573343 c -0.408761,0 -0.743204,0.334442 -0.743204,0.743203 v 4.45922 c 0,0.408763 0.334443,0.743205 0.743204,0.743205 h 16.573434 c 0.673527,0 1.328476,-0.227607 1.858008,-0.650304 l 7.023272,-5.620475 c 0.706044,-0.562047 0.761784,-1.639692 0.06039,-2.271415 z"
       id="path8824-0-2"
       style="fill:#ffffff;stroke-width:0.0464501" /></g></svg>
