<?xml version="1.0" encoding="UTF-8" standalone="no"?>
<!-- Created with Inkscape (http://www.inkscape.org/) -->

<svg
   width="155.69101"
   height="193.44783"
   viewBox="0 0 41.193245 51.183071"
   version="1.1"
   id="svg5"
   xml:space="preserve"
   inkscape:version="1.2.2 (b0a8486, 2022-12-01)"
   sodipodi:docname="draws.svg"
   inkscape:export-filename="../../../../../../Desktop/oo_4.svg"
   inkscape:export-xdpi="96"
   inkscape:export-ydpi="96"
   xmlns:inkscape="http://www.inkscape.org/namespaces/inkscape"
   xmlns:sodipodi="http://sodipodi.sourceforge.net/DTD/sodipodi-0.dtd"
   xmlns="http://www.w3.org/2000/svg"
   xmlns:svg="http://www.w3.org/2000/svg"><sodipodi:namedview
     id="namedview7"
     pagecolor="#ffffff"
     bordercolor="#000000"
     borderopacity="0.25"
     inkscape:showpageshadow="2"
     inkscape:pageopacity="0.0"
     inkscape:pagecheckerboard="0"
     inkscape:deskcolor="#d1d1d1"
     inkscape:document-units="mm"
     showgrid="false"
     inkscape:zoom="0.5057635"
     inkscape:cx="133.46159"
     inkscape:cy="258.02573"
     inkscape:window-width="1440"
     inkscape:window-height="765"
     inkscape:window-x="0"
     inkscape:window-y="25"
     inkscape:window-maximized="0"
     inkscape:current-layer="layer1" /><defs
     id="defs2" /><g
     inkscape:label="Layer 1"
     inkscape:groupmode="layer"
     id="layer1"
     transform="translate(-6.7105767,-1.7156621)"><path
       style="fill:#999999;stroke:none;stroke-width:0.434191"
       d="m 25.842182,51.455806 c -62.88638,-68.19457 67.55141,-63.9032 4.19458,-0.06749 -1.89961,1.478514 -2.40869,1.480032 -4.19458,0.06749 z"
       id="path104-5-1-5-6-4-0"
       sodipodi:nodetypes="ccc"
       inkscape:export-filename="../../../../../gobierno/src/assets/markers/obras/oo_9_m.svg"
       inkscape:export-xdpi="96"
       inkscape:export-ydpi="96" /><path
       style="fill:#ffffff;stroke:none;stroke-width:0.436649"
       d="m 24.347512,51.836306 c -62.88638,-68.96912 67.55138,-64.62901 4.19458,-0.06832 -1.89961,1.495297 -2.40869,1.496833 -4.19458,0.06832 z"
       id="path104-2-5-66-6-2"
       sodipodi:nodetypes="ccc" /><path
       style="fill:#000000;stroke:none;stroke-width:0.381769"
       d="m 24.601152,48.486219 c -55.67652,-59.549593 59.80669,-55.8022431 3.71367,-0.05908 -1.68181,1.29107 -2.13254,1.29239 -3.71367,0.05908 z"
       id="path104-1-0-6-70-0-4"
       sodipodi:nodetypes="ccc" /><path
       style="fill:#d92562;fill-opacity:1;fill-rule:evenodd;stroke:none;stroke-width:0.34555"
       d="m 24.788102,46.082629 c -50.36304,-53.9341231 54.09896,-50.5401331 3.35926,-0.05347 -1.52132,1.169342 -1.92902,1.170529 -3.35926,0.05347 z"
       id="path104-1-3-4-3-41-3-8"
       sodipodi:nodetypes="ccc" /><g
       id="g10499"
       transform="matrix(0.02157113,0,0,0.02157113,14.537533,10.908209)">
	<path
   class="st11"
   d="m 141.27,1080 c -8.96,-6.16 -11.03,-14.76 -11.02,-25.34 0.24,-180.7 0.18,-361.4 0.18,-542.1 0,-4.5 0,-9 0,-14.9 -13.76,0 -26.66,0.46 -39.5,-0.15 C 81.19,497.04 71.2,496.35 61.87,493.76 35.14,486.35 21.1,467.12 21.09,439.56 21.07,312.3 21.06,185.03 21.09,57.77 21.1,22.32 43.51,0.04 79.07,0.03 c 47.12,-0.02 94.23,-0.05 141.35,0.01 31.24,0.04 55.41,22.85 55.49,54.01 0.31,129.72 0.23,259.45 0.02,389.17 -0.03,16.86 -6.84,31.42 -19.15,43.09 -7.92,7.5 -17.19,11.64 -28.49,11.45 -20.02,-0.35 -40.05,-0.1 -61.73,-0.1 0,4.8 0,9.2 0,13.59 0,180.7 -0.09,361.4 0.22,542.1 0.02,10.94 -2.19,19.75 -10.74,26.65 -4.93,0 -9.85,0 -14.77,0 z m 7.38,-672.88 c 18.75,-0.15 34.98,-16.69 34.59,-35.25 -0.38,-18.37 -16.24,-34.12 -34.55,-34.33 -18.7,-0.21 -34.87,15.92 -34.89,34.81 -0.02,18.94 15.99,34.92 34.85,34.77 z m -0.56,-316.6 c -19.27,0.13 -34.61,15.76 -34.29,34.95 0.31,18.59 15.78,33.86 34.44,33.99 18.86,0.14 35.09,-15.95 35,-34.68 -0.09,-19.07 -15.81,-34.39 -35.15,-34.26 z m 0.02,192.41 c 19.41,0.1 35.06,-15.15 35.13,-34.24 0.07,-18.86 -15.9,-34.58 -35.01,-34.47 -18.81,0.11 -34.13,15.16 -34.42,33.83 -0.31,19.2 15.01,34.78 34.3,34.88 z"
   id="path10491" />
	<path
   class="st11"
   d="m 854.35,1080 c -9.28,-5.7 -12.41,-13.98 -12.37,-24.79 0.27,-75.18 0.12,-150.36 0.16,-225.53 0.01,-17.98 6.11,-24.11 23.9,-24.16 27.05,-0.07 54.11,0.24 81.16,-0.14 11.52,-0.16 18.06,4.79 22.05,15.43 28.91,77.05 58.13,153.98 87.16,230.99 5.06,13.42 2.84,19.19 -10.08,28.2 -63.99,0 -127.98,0 -191.98,0 z"
   id="path10493" />
	<path
   class="st11"
   d="m 278.4,1080 c -13.29,-10.07 -14.57,-14.45 -8.56,-30.41 28.51,-75.69 57.05,-151.38 85.62,-227.05 5.59,-14.81 8.88,-17 25.01,-17.02 26.71,-0.04 53.42,-0.09 80.12,0.02 16,0.07 22.31,6.4 22.32,22.33 0.05,76.6 -0.1,153.19 0.17,229.79 0.04,10.42 -4.09,17.38 -12.7,22.35 C 406.39,1080 342.39,1080 278.4,1080 Z"
   id="path10495" />
	<path
   class="st11"
   d="m 565.32,1080 c -10.88,-7.87 -11.39,-18.07 -8.97,-30.52 14.63,-75.24 28.57,-150.62 42.77,-225.95 2.48,-13.15 8.01,-17.92 21.52,-17.98 28.09,-0.13 56.19,-0.13 84.28,0 13.21,0.06 18.42,4.17 20.92,17.23 14.08,73.57 27.97,147.18 41.93,220.78 0.52,2.75 1.1,5.49 1.74,8.22 2.72,11.6 0.68,21.47 -10.1,28.22 -64.69,0 -129.39,0 -194.09,0 z"
   id="path10497" />
</g></g><style
     type="text/css"
     id="style897">
	.st0{fill:#44BBED;}
	.st1{fill:#27578A;}
	.st2{fill:#691B32;}
	.st3{fill:#235C4E;}
	.st4{fill:#E397B4;}
	.st5{fill:#EA9256;}
	.st6{fill:#84559E;}
	.st7{fill:#777777;}
	.st8{fill:#BC955B;}
	.st9{fill:#D92562;}
	.st10{fill:#2D2A26;}
	.st11{fill:#FFFFFF;}
</style><style
     type="text/css"
     id="style2146">
	.st0{fill:#44BBED;}
	.st1{fill:#27578A;}
	.st2{fill:#691B32;}
	.st3{fill:#235C4E;}
	.st4{fill:#E397B4;}
	.st5{fill:#EA9256;}
	.st6{fill:#84559E;}
	.st7{fill:#777777;}
	.st8{fill:#BC955B;}
	.st9{fill:#D92562;}
	.st10{fill:#2D2A26;}
	.st11{fill:#FFFFFF;}
</style><style
     type="text/css"
     id="style4440">
	.st0{fill:#44BBED;}
	.st1{fill:#27578A;}
	.st2{fill:#691B32;}
	.st3{fill:#235C4E;}
	.st4{fill:#E397B4;}
	.st5{fill:#EA9256;}
	.st6{fill:#84559E;}
	.st7{fill:#777777;}
	.st8{fill:#BC955B;}
	.st9{fill:#D92562;}
	.st10{fill:#2D2A26;}
	.st11{fill:#FFFFFF;}
</style><style
     type="text/css"
     id="style5255">
	.st0{fill:#44BBED;}
	.st1{fill:#27578A;}
	.st2{fill:#691B32;}
	.st3{fill:#235C4E;}
	.st4{fill:#E397B4;}
	.st5{fill:#EA9256;}
	.st6{fill:#84559E;}
	.st7{fill:#777777;}
	.st8{fill:#BC955B;}
	.st9{fill:#D92562;}
	.st10{fill:#2D2A26;}
	.st11{fill:#FFFFFF;}
</style><style
     type="text/css"
     id="style5886">
	.st0{fill:#44BBED;}
	.st1{fill:#27578A;}
	.st2{fill:#691B32;}
	.st3{fill:#235C4E;}
	.st4{fill:#E397B4;}
	.st5{fill:#EA9256;}
	.st6{fill:#84559E;}
	.st7{fill:#777777;}
	.st8{fill:#BC955B;}
	.st9{fill:#D92562;}
	.st10{fill:#2D2A26;}
	.st11{fill:#FFFFFF;}
</style><style
     type="text/css"
     id="style6736">
	.st0{fill:#44BBED;}
	.st1{fill:#27578A;}
	.st2{fill:#691B32;}
	.st3{fill:#235C4E;}
	.st4{fill:#E397B4;}
	.st5{fill:#EA9256;}
	.st6{fill:#84559E;}
	.st7{fill:#777777;}
	.st8{fill:#BC955B;}
	.st9{fill:#D92562;}
	.st10{fill:#2D2A26;}
	.st11{fill:#FFFFFF;}
</style><style
     type="text/css"
     id="style7559">
	.st0{fill:#44BBED;}
	.st1{fill:#27578A;}
	.st2{fill:#691B32;}
	.st3{fill:#235C4E;}
	.st4{fill:#E397B4;}
	.st5{fill:#EA9256;}
	.st6{fill:#84559E;}
	.st7{fill:#777777;}
	.st8{fill:#BC955B;}
	.st9{fill:#D92562;}
	.st10{fill:#2D2A26;}
	.st11{fill:#FFFFFF;}
</style><style
     type="text/css"
     id="style8025">
	.st0{fill:#44BBED;}
	.st1{fill:#27578A;}
	.st2{fill:#691B32;}
	.st3{fill:#235C4E;}
	.st4{fill:#E397B4;}
	.st5{fill:#EA9256;}
	.st6{fill:#84559E;}
	.st7{fill:#777777;}
	.st8{fill:#BC955B;}
	.st9{fill:#D92562;}
	.st10{fill:#2D2A26;}
	.st11{fill:#FFFFFF;}
</style><style
     type="text/css"
     id="style9969">
	.st0{fill:#44BBED;}
	.st1{fill:#27578A;}
	.st2{fill:#691B32;}
	.st3{fill:#235C4E;}
	.st4{fill:#E397B4;}
	.st5{fill:#EA9256;}
	.st6{fill:#84559E;}
	.st7{fill:#777777;}
	.st8{fill:#BC955B;}
	.st9{fill:#D92562;}
	.st10{fill:#2D2A26;}
	.st11{fill:#FFFFFF;}
</style><style
     type="text/css"
     id="style10489">
	.st0{fill:#44BBED;}
	.st1{fill:#27578A;}
	.st2{fill:#691B32;}
	.st3{fill:#235C4E;}
	.st4{fill:#E397B4;}
	.st5{fill:#EA9256;}
	.st6{fill:#84559E;}
	.st7{fill:#777777;}
	.st8{fill:#BC955B;}
	.st9{fill:#D92562;}
	.st10{fill:#2D2A26;}
	.st11{fill:#FFFFFF;}
</style></svg>
