<?xml version="1.0" encoding="UTF-8" standalone="no"?>
<!-- Created with Inkscape (http://www.inkscape.org/) -->

<svg
   width="155.69101"
   height="193.44783"
   viewBox="0 0 41.193245 51.183071"
   version="1.1"
   id="svg5"
   xml:space="preserve"
   inkscape:version="1.2.2 (b0a8486, 2022-12-01)"
   sodipodi:docname="draws.svg"
   inkscape:export-filename="../../../../../../Desktop/oo_4.svg"
   inkscape:export-xdpi="96"
   inkscape:export-ydpi="96"
   xmlns:inkscape="http://www.inkscape.org/namespaces/inkscape"
   xmlns:sodipodi="http://sodipodi.sourceforge.net/DTD/sodipodi-0.dtd"
   xmlns="http://www.w3.org/2000/svg"
   xmlns:svg="http://www.w3.org/2000/svg"><sodipodi:namedview
     id="namedview7"
     pagecolor="#ffffff"
     bordercolor="#000000"
     borderopacity="0.25"
     inkscape:showpageshadow="2"
     inkscape:pageopacity="0.0"
     inkscape:pagecheckerboard="0"
     inkscape:deskcolor="#d1d1d1"
     inkscape:document-units="mm"
     showgrid="false"
     inkscape:zoom="0.5057635"
     inkscape:cx="133.46159"
     inkscape:cy="258.02573"
     inkscape:window-width="1440"
     inkscape:window-height="765"
     inkscape:window-x="0"
     inkscape:window-y="25"
     inkscape:window-maximized="0"
     inkscape:current-layer="layer1" /><defs
     id="defs2" /><g
     inkscape:label="Layer 1"
     inkscape:groupmode="layer"
     id="layer1"
     transform="translate(-6.7105767,-1.7156621)"><path
       style="fill:#999999;stroke:none;stroke-width:0.434191"
       d="m 25.842182,51.455806 c -62.88638,-68.19457 67.55141,-63.9032 4.19458,-0.06749 -1.89961,1.478514 -2.40869,1.480032 -4.19458,0.06749 z"
       id="path104-5-1-5-6-4-0"
       sodipodi:nodetypes="ccc"
       inkscape:export-filename="../../../../../gobierno/src/assets/markers/obras/oo_8_m.svg"
       inkscape:export-xdpi="96"
       inkscape:export-ydpi="96" /><path
       style="fill:#ffffff;stroke:none;stroke-width:0.436649"
       d="m 24.347512,51.836306 c -62.88638,-68.96912 67.55138,-64.62901 4.19458,-0.06832 -1.89961,1.495297 -2.40869,1.496833 -4.19458,0.06832 z"
       id="path104-2-5-66-6-2"
       sodipodi:nodetypes="ccc" /><path
       style="fill:#000000;stroke:none;stroke-width:0.381769"
       d="m 24.601152,48.486219 c -55.67652,-59.549593 59.80669,-55.8022431 3.71367,-0.05908 -1.68181,1.29107 -2.13254,1.29239 -3.71367,0.05908 z"
       id="path104-1-0-6-70-0-4"
       sodipodi:nodetypes="ccc" /><path
       style="fill:#777777;fill-opacity:1;fill-rule:evenodd;stroke:none;stroke-width:0.34555"
       d="m 24.788102,46.082629 c -50.36304,-53.9341231 54.09896,-50.5401331 3.35926,-0.05347 -1.52132,1.169342 -1.92902,1.170529 -3.35926,0.05347 z"
       id="path104-1-3-4-3-41-3-8"
       sodipodi:nodetypes="ccc" /><g
       id="g9977"
       transform="matrix(0.02117925,0,0,0.02117925,14.700568,11.43217)">
	<path
   class="st11"
   d="m 111.7,0 c 196.96,0 393.92,0 590.88,0 -0.12,4.92 -0.35,9.83 -0.35,14.75 -0.03,350.25 -0.03,700.51 -0.03,1050.77 0,4.77 0,9.55 0,14.26 -59.77,0 -117.97,0 -177.25,0 0,-83.8 0,-166.93 0,-250.18 -78.32,0 -155.55,0 -233.88,0 0,83.62 0,166.76 0,250.16 -60.29,0 -119.48,0 -179.37,0 0,-360.37 0,-720.06 0,-1079.76 z m 89.07,241.84 c 21.4,0 41.89,0 62.03,0 0,-30.45 0,-60.1 0,-89.52 -21.1,0 -41.35,0 -62.03,0 0,30.01 0,59.41 0,89.52 z m 414.81,-89.36 c -21.28,0 -41.77,0 -62.02,0 0,30.42 0,60.06 0,89.58 21.07,0 41.31,0 62.02,0 0,-29.96 0,-59.35 0,-89.58 z m -352.85,254.7 c 0,-30.79 0,-60.36 0,-89.72 -21.12,0 -41.32,0 -61.72,0 0,30.25 0,59.85 0,89.72 20.93,0 41.15,0 61.72,0 z m 352.44,0.02 c 0,-30.77 0,-60.34 0,-89.76 -21.1,0 -41.3,0 -61.76,0 0,30.23 0,59.83 0,89.76 20.9,0 41.13,0 61.76,0 z M 263,573.45 c 0,-30.51 0,-60.1 0,-89.75 -21.11,0 -41.57,0 -61.83,0 0,30.34 0,59.91 0,89.75 20.8,0 40.73,0 61.83,0 z m 290.25,-0.48 c 21.26,0 41.71,0 62,0 0,-30.38 0,-59.99 0,-89.48 -21.04,0 -41.27,0 -62,0 0,29.9 0,59.24 0,89.48 z M 200.79,738.05 c 21.29,0 41.78,0 62.02,0 0,-30.43 0,-60.07 0,-89.57 -21.08,0 -41.32,0 -62.02,0 0,29.96 0,59.35 0,89.57 z m 352.63,-89.88 c 0,30.66 0,60.31 0,89.83 21.19,0 41.68,0 61.75,0 0,-30.49 0,-60.13 0,-89.83 -20.87,0 -40.86,0 -61.75,0 z M 319.11,152.19 c 0,30.7 0,60.31 0,89.86 20.73,0 40.6,0 60.86,0 0,-30.19 0,-59.78 0,-89.86 -20.6,0 -40.46,0 -60.86,0 z m 117.5,-0.03 c 0,30.66 0,60.24 0,89.89 20.8,0 40.66,0 60.86,0 0,-30.2 0,-59.82 0,-89.89 -20.5,0 -40.36,0 -60.86,0 z M 380,317.61 c -20.85,0 -40.99,0 -61.14,0 0,30.2 0,59.58 0,89.23 20.76,0 40.92,0 61.14,0 0,-30.14 0,-59.51 0,-89.23 z m 56.1,89.16 c 21.19,0 41.32,0 61.36,0 0,-30.2 0,-59.57 0,-89.07 -20.76,0 -40.85,0 -61.36,0 0,30.02 0,59.14 0,89.07 z m -55.85,76.93 c -21.02,0 -41.15,0 -61.4,0 0,30.14 0,59.51 0,89.21 20.71,0 40.83,0 61.4,0 0,-29.93 0,-59.04 0,-89.21 z m 56.42,-0.42 c 0,30.57 0,60.15 0,89.76 20.87,0 40.72,0 60.59,0 0,-30.34 0,-59.98 0,-89.76 -20.47,0 -40.09,0 -60.59,0 z m -56.89,255.08 c 0,-30.62 0,-60.2 0,-89.89 -20.79,0 -40.64,0 -60.89,0 0,30.19 0,59.8 0,89.89 20.48,0 40.34,0 60.89,0 z m 56.69,-90.12 c 0,30.54 0,60.14 0,89.75 20.93,0 41.04,0 60.74,0 0,-30.46 0,-60.06 0,-89.75 -20.49,0 -40.09,0 -60.74,0 z"
   id="path9971" />
	<path
   class="st11"
   d="m 1022.57,1080 c -86.12,0 -171.47,0 -257.48,0 0,-273.2 0,-545.94 0,-819.56 85.59,0 171.16,0 257.48,0 0,272.7 0,545.71 0,819.56 z M 926.1,466.28 c 0,-30.5 0,-59.83 0,-89.4 -20.73,0 -40.79,0 -60.89,0 0,30.23 0,59.56 0,89.4 20.48,0 40.32,0 60.89,0 z m -0.09,166.02 c 0,-30.21 0,-59.82 0,-89.65 -20.61,0 -40.46,0 -60.68,0 0,30.18 0,59.77 0,89.65 20.61,0 40.45,0 60.68,0 z m -0.12,165.34 c 0,-30.61 0,-60.21 0,-89.83 -20.72,0 -40.56,0 -60.48,0 0,30.3 0,59.91 0,89.83 20.44,0 40.04,0 60.48,0 z m 0.29,76.18 c -20.79,0 -40.63,0 -60.83,0 0,30.16 0,59.73 0,89.6 20.61,0 40.43,0 60.83,0 0,-29.97 0,-59.31 0,-89.6 z"
   id="path9973" />
	<path
   class="st11"
   d="m 355.09,892.2 c 35.33,0 70.63,0 106.41,0 0,62.56 0,124.61 0,187.46 -35.22,0 -70.46,0 -106.41,0 0,-62.17 0,-124.49 0,-187.46 z"
   id="path9975" />
</g></g><style
     type="text/css"
     id="style897">
	.st0{fill:#44BBED;}
	.st1{fill:#27578A;}
	.st2{fill:#691B32;}
	.st3{fill:#235C4E;}
	.st4{fill:#E397B4;}
	.st5{fill:#EA9256;}
	.st6{fill:#84559E;}
	.st7{fill:#777777;}
	.st8{fill:#BC955B;}
	.st9{fill:#D92562;}
	.st10{fill:#2D2A26;}
	.st11{fill:#FFFFFF;}
</style><style
     type="text/css"
     id="style2146">
	.st0{fill:#44BBED;}
	.st1{fill:#27578A;}
	.st2{fill:#691B32;}
	.st3{fill:#235C4E;}
	.st4{fill:#E397B4;}
	.st5{fill:#EA9256;}
	.st6{fill:#84559E;}
	.st7{fill:#777777;}
	.st8{fill:#BC955B;}
	.st9{fill:#D92562;}
	.st10{fill:#2D2A26;}
	.st11{fill:#FFFFFF;}
</style><style
     type="text/css"
     id="style4440">
	.st0{fill:#44BBED;}
	.st1{fill:#27578A;}
	.st2{fill:#691B32;}
	.st3{fill:#235C4E;}
	.st4{fill:#E397B4;}
	.st5{fill:#EA9256;}
	.st6{fill:#84559E;}
	.st7{fill:#777777;}
	.st8{fill:#BC955B;}
	.st9{fill:#D92562;}
	.st10{fill:#2D2A26;}
	.st11{fill:#FFFFFF;}
</style><style
     type="text/css"
     id="style5255">
	.st0{fill:#44BBED;}
	.st1{fill:#27578A;}
	.st2{fill:#691B32;}
	.st3{fill:#235C4E;}
	.st4{fill:#E397B4;}
	.st5{fill:#EA9256;}
	.st6{fill:#84559E;}
	.st7{fill:#777777;}
	.st8{fill:#BC955B;}
	.st9{fill:#D92562;}
	.st10{fill:#2D2A26;}
	.st11{fill:#FFFFFF;}
</style><style
     type="text/css"
     id="style5886">
	.st0{fill:#44BBED;}
	.st1{fill:#27578A;}
	.st2{fill:#691B32;}
	.st3{fill:#235C4E;}
	.st4{fill:#E397B4;}
	.st5{fill:#EA9256;}
	.st6{fill:#84559E;}
	.st7{fill:#777777;}
	.st8{fill:#BC955B;}
	.st9{fill:#D92562;}
	.st10{fill:#2D2A26;}
	.st11{fill:#FFFFFF;}
</style><style
     type="text/css"
     id="style6736">
	.st0{fill:#44BBED;}
	.st1{fill:#27578A;}
	.st2{fill:#691B32;}
	.st3{fill:#235C4E;}
	.st4{fill:#E397B4;}
	.st5{fill:#EA9256;}
	.st6{fill:#84559E;}
	.st7{fill:#777777;}
	.st8{fill:#BC955B;}
	.st9{fill:#D92562;}
	.st10{fill:#2D2A26;}
	.st11{fill:#FFFFFF;}
</style><style
     type="text/css"
     id="style7559">
	.st0{fill:#44BBED;}
	.st1{fill:#27578A;}
	.st2{fill:#691B32;}
	.st3{fill:#235C4E;}
	.st4{fill:#E397B4;}
	.st5{fill:#EA9256;}
	.st6{fill:#84559E;}
	.st7{fill:#777777;}
	.st8{fill:#BC955B;}
	.st9{fill:#D92562;}
	.st10{fill:#2D2A26;}
	.st11{fill:#FFFFFF;}
</style><style
     type="text/css"
     id="style8025">
	.st0{fill:#44BBED;}
	.st1{fill:#27578A;}
	.st2{fill:#691B32;}
	.st3{fill:#235C4E;}
	.st4{fill:#E397B4;}
	.st5{fill:#EA9256;}
	.st6{fill:#84559E;}
	.st7{fill:#777777;}
	.st8{fill:#BC955B;}
	.st9{fill:#D92562;}
	.st10{fill:#2D2A26;}
	.st11{fill:#FFFFFF;}
</style><style
     type="text/css"
     id="style9969">
	.st0{fill:#44BBED;}
	.st1{fill:#27578A;}
	.st2{fill:#691B32;}
	.st3{fill:#235C4E;}
	.st4{fill:#E397B4;}
	.st5{fill:#EA9256;}
	.st6{fill:#84559E;}
	.st7{fill:#777777;}
	.st8{fill:#BC955B;}
	.st9{fill:#D92562;}
	.st10{fill:#2D2A26;}
	.st11{fill:#FFFFFF;}
</style></svg>
