<?xml version="1.0" encoding="UTF-8" standalone="no"?>
<!-- Created with Inkscape (http://www.inkscape.org/) -->

<svg
   width="155.69087"
   height="193.44788"
   viewBox="0 0 41.193209 51.183083"
   version="1.1"
   id="svg5"
   xml:space="preserve"
   inkscape:version="1.2.2 (b0a8486, 2022-12-01)"
   sodipodi:docname="draws.svg"
   inkscape:export-filename="../../../../../../Desktop/oo_4.svg"
   inkscape:export-xdpi="96"
   inkscape:export-ydpi="96"
   xmlns:inkscape="http://www.inkscape.org/namespaces/inkscape"
   xmlns:sodipodi="http://sodipodi.sourceforge.net/DTD/sodipodi-0.dtd"
   xmlns="http://www.w3.org/2000/svg"
   xmlns:svg="http://www.w3.org/2000/svg"><sodipodi:namedview
     id="namedview7"
     pagecolor="#ffffff"
     bordercolor="#000000"
     borderopacity="0.25"
     inkscape:showpageshadow="2"
     inkscape:pageopacity="0.0"
     inkscape:pagecheckerboard="0"
     inkscape:deskcolor="#d1d1d1"
     inkscape:document-units="mm"
     showgrid="false"
     inkscape:zoom="0.49157134"
     inkscape:cx="3.0514391"
     inkscape:cy="127.14329"
     inkscape:window-width="1440"
     inkscape:window-height="765"
     inkscape:window-x="0"
     inkscape:window-y="25"
     inkscape:window-maximized="0"
     inkscape:current-layer="layer1" /><defs
     id="defs2" /><g
     inkscape:label="Layer 1"
     inkscape:groupmode="layer"
     id="layer1"
     transform="translate(-286.39231,172.63164)"><path
       style="fill:#999999;stroke:none;stroke-width:0.434191"
       d="m 305.5239,-122.89149 c -62.88638,-68.19457 67.55141,-63.9032 4.19458,-0.0675 -1.89961,1.47852 -2.40869,1.48003 -4.19458,0.0675 z"
       id="path104-5-1-5-77-9"
       sodipodi:nodetypes="ccc"
       inkscape:export-filename="../../../../../gobierno/src/assets/markers/o_1_m.png"
       inkscape:export-xdpi="96"
       inkscape:export-ydpi="96" /><path
       style="fill:#ffffff;stroke:none;stroke-width:0.436649"
       d="m 304.02923,-122.51099 c -62.88639,-68.96912 67.55138,-64.62902 4.19458,-0.0683 -1.89961,1.4953 -2.40869,1.49683 -4.19458,0.0683 z"
       id="path104-2-5-51-0"
       sodipodi:nodetypes="ccc" /><path
       style="fill:#000000;stroke:none;stroke-width:0.381769"
       d="m 304.28287,-125.86108 c -55.67652,-59.54959 59.80669,-55.80224 3.71367,-0.0591 -1.68181,1.29107 -2.13254,1.29239 -3.71367,0.0591 z"
       id="path104-1-0-6-26-5"
       sodipodi:nodetypes="ccc" /><path
       style="fill:#691b33;fill-opacity:1;fill-rule:evenodd;stroke:none;stroke-width:0.34555"
       d="m 304.46982,-128.26467 c -50.36304,-53.93412 54.09896,-50.54013 3.35926,-0.0535 -1.52132,1.16935 -1.92902,1.17053 -3.35926,0.0535 z"
       id="path104-1-3-4-3-6-2"
       sodipodi:nodetypes="ccc" /><path
       fill="#626567"
       d="m 317.66017,-159.63967 -10.84074,-4.16599 a 1.4781481,1.4781481 0 0 0 -1.0393,0 l -10.84121,4.16599 a 0.74009157,0.74009157 0 0 0 -0.4801,0.69287 v 1.70719 c 0,0.40887 0.33117,0.74004 0.74005,0.74004 h 22.20135 c 0.40888,0 0.74005,-0.33117 0.74005,-0.74004 v -1.70719 c 0,-0.30851 -0.19149,-0.58464 -0.4801,-0.69287 z m -20.24117,4.6202 v 7.40045 h -0.74004 c -0.40888,0 -0.74005,0.33117 -0.74005,0.74004 v 2.22014 h 20.72127 v -2.22014 c 0,-0.40887 -0.33117,-0.74004 -0.74004,-0.74004 h -0.74005 v -7.40045 h -2.96018 v 7.40045 h -4.44027 v -7.40045 h -2.96019 v 7.40045 h -4.44027 v -7.40045 z m 19.98122,11.84072 h -22.20135 c -0.40888,0 -0.74005,0.33117 -0.74005,0.74005 v 1.48009 c 0,0.40888 0.33117,0.74005 0.74005,0.74005 h 22.20135 c 0.40888,0 0.74005,-0.33117 0.74005,-0.74005 v -1.48009 c 0,-0.40888 -0.33117,-0.74005 -0.74005,-0.74005 z"
       id="path8206-5-2"
       style="fill:#ffffff;stroke-width:0.0462528" /></g></svg>
