<?xml version="1.0" encoding="UTF-8" standalone="no"?>
<!-- Created with Inkscape (http://www.inkscape.org/) -->

<svg
   width="155.6911"
   height="193.44785"
   viewBox="0 0 41.193269 51.183075"
   version="1.1"
   id="svg5"
   xml:space="preserve"
   inkscape:version="1.2.2 (b0a8486, 2022-12-01)"
   sodipodi:docname="draws.svg"
   inkscape:export-filename="../../../../../../Desktop/oo_4.svg"
   inkscape:export-xdpi="96"
   inkscape:export-ydpi="96"
   xmlns:inkscape="http://www.inkscape.org/namespaces/inkscape"
   xmlns:sodipodi="http://sodipodi.sourceforge.net/DTD/sodipodi-0.dtd"
   xmlns="http://www.w3.org/2000/svg"
   xmlns:svg="http://www.w3.org/2000/svg"><sodipodi:namedview
     id="namedview7"
     pagecolor="#ffffff"
     bordercolor="#000000"
     borderopacity="0.25"
     inkscape:showpageshadow="2"
     inkscape:pageopacity="0.0"
     inkscape:pagecheckerboard="0"
     inkscape:deskcolor="#d1d1d1"
     inkscape:document-units="mm"
     showgrid="false"
     inkscape:zoom="0.49157134"
     inkscape:cx="3.0514391"
     inkscape:cy="127.14329"
     inkscape:window-width="1440"
     inkscape:window-height="765"
     inkscape:window-x="0"
     inkscape:window-y="25"
     inkscape:window-maximized="0"
     inkscape:current-layer="layer1" /><defs
     id="defs2" /><g
     inkscape:label="Layer 1"
     inkscape:groupmode="layer"
     id="layer1"
     transform="translate(-263.99949,115.63324)"><path
       style="fill:#999999;stroke:none;stroke-width:0.434191"
       d="m 283.1311,-65.893099 c -62.88639,-68.194561 67.55141,-63.903201 4.19457,-0.06749 -1.89961,1.478514 -2.40869,1.480032 -4.19457,0.06749 z"
       id="path104-5-1-5-48-2"
       sodipodi:nodetypes="ccc"
       inkscape:export-filename="s_2_m.svg"
       inkscape:export-xdpi="96"
       inkscape:export-ydpi="96" /><path
       style="fill:#ffffff;stroke:none;stroke-width:0.436649"
       d="m 281.63643,-65.512599 c -62.88639,-68.969121 67.55138,-64.629011 4.19457,-0.06832 -1.89961,1.495301 -2.40869,1.496831 -4.19457,0.06832 z"
       id="path104-2-5-6-1"
       sodipodi:nodetypes="ccc" /><path
       style="fill:#000000;stroke:none;stroke-width:0.381769"
       d="m 281.89006,-68.862686 c -55.67652,-59.549594 59.8067,-55.802244 3.71368,-0.05908 -1.68182,1.29107 -2.13254,1.29239 -3.71368,0.05908 z"
       id="path104-1-0-6-1-1"
       sodipodi:nodetypes="ccc" /><path
       style="fill:#2b5c4e;fill-opacity:1;fill-rule:evenodd;stroke:none;stroke-width:0.34555"
       d="m 282.07701,-71.266276 c -50.36303,-53.934114 54.09897,-50.540134 3.35927,-0.05347 -1.52133,1.169342 -1.92902,1.170529 -3.35927,0.05347 z"
       id="path104-1-3-4-3-5-0"
       sodipodi:nodetypes="ccc" /><path
       fill="#5f6a6a"
       d="m 296.03566,-97.469811 h -5.37926 v -6.644969 c 0,-0.52448 -0.42481,-0.94928 -0.94929,-0.94928 h -5.69568 c -0.52448,0 -0.94928,0.4248 -0.94928,0.94928 v 2.84784 h -2.53142 v -3.16427 c 0,-0.34965 -0.2832,-0.63285 -0.63285,-0.63285 h -0.63286 c -0.34965,0 -0.63285,0.2832 -0.63285,0.63285 v 3.16427 h -2.53142 v -3.16427 c 0,-0.34965 -0.2832,-0.63285 -0.63285,-0.63285 h -0.63286 c -0.34965,0 -0.63285,0.2832 -0.63285,0.63285 v 3.16427 h -1.58214 c -0.52448,0 -0.94928,0.42481 -0.94928,0.94929 v 14.239212 c 0,0.69891 0.5668,1.26571 1.26571,1.26571 h 22.78275 c 0.69891,0 1.26571,-0.5668 1.26571,-1.26571 V -96.52053 c 0,-0.524478 -0.4252,-0.949281 -0.94928,-0.949281 z m -19.30206,8.385318 c 0,0.262237 -0.2124,0.474641 -0.47464,0.474641 h -1.58213 c -0.26224,0 -0.47464,-0.212404 -0.47464,-0.474641 v -1.582137 c 0,-0.262238 0.2124,-0.47464 0.47464,-0.47464 h 1.58213 c 0.26224,0 0.47464,0.212402 0.47464,0.47464 z m 0,-3.797126 c 0,0.262239 -0.2124,0.474641 -0.47464,0.474641 h -1.58213 c -0.26224,0 -0.47464,-0.212402 -0.47464,-0.474641 v -1.582136 c 0,-0.262237 0.2124,-0.474639 0.47464,-0.474639 h 1.58213 c 0.26224,0 0.47464,0.212402 0.47464,0.474639 z m 0,-3.797125 c 0,0.262239 -0.2124,0.47464 -0.47464,0.47464 h -1.58213 c -0.26224,0 -0.47464,-0.212401 -0.47464,-0.47464 v -1.582135 c 0,-0.26224 0.2124,-0.474641 0.47464,-0.474641 h 1.58213 c 0.26224,0 0.47464,0.212401 0.47464,0.474641 z m 5.06284,7.594251 c 0,0.262237 -0.2124,0.474641 -0.47464,0.474641 h -1.58214 c -0.26224,0 -0.47464,-0.212404 -0.47464,-0.474641 v -1.582137 c 0,-0.262238 0.2124,-0.47464 0.47464,-0.47464 h 1.58214 c 0.26224,0 0.47464,0.212402 0.47464,0.47464 z m 0,-3.797126 c 0,0.262239 -0.2124,0.474641 -0.47464,0.474641 h -1.58214 c -0.26224,0 -0.47464,-0.212402 -0.47464,-0.474641 v -1.582136 c 0,-0.262237 0.2124,-0.474639 0.47464,-0.474639 h 1.58214 c 0.26224,0 0.47464,0.212402 0.47464,0.474639 z m 0,-3.797125 c 0,0.262239 -0.2124,0.47464 -0.47464,0.47464 h -1.58214 c -0.26224,0 -0.47464,-0.212401 -0.47464,-0.47464 v -1.582135 c 0,-0.26224 0.2124,-0.474641 0.47464,-0.474641 h 1.58214 c 0.26224,0 0.47464,0.212401 0.47464,0.474641 z m 6.32854,3.797125 c 0,0.262239 -0.2124,0.474641 -0.47464,0.474641 h -1.58214 c -0.26223,0 -0.47464,-0.212402 -0.47464,-0.474641 v -1.582136 c 0,-0.262237 0.21241,-0.474639 0.47464,-0.474639 h 1.58214 c 0.26224,0 0.47464,0.212402 0.47464,0.474639 z m 0,-3.797125 c 0,0.262239 -0.2124,0.47464 -0.47464,0.47464 h -1.58214 c -0.26223,0 -0.47464,-0.212401 -0.47464,-0.47464 v -1.582135 c 0,-0.26224 0.21241,-0.474641 0.47464,-0.474641 h 1.58214 c 0.26224,0 0.47464,0.212401 0.47464,0.474641 z m 0,-3.797126 c 0,0.26224 -0.2124,0.47464 -0.47464,0.47464 h -1.58214 c -0.26223,0 -0.47464,-0.2124 -0.47464,-0.47464 v -1.58213 c 0,-0.26224 0.21241,-0.47464 0.47464,-0.47464 h 1.58214 c 0.26224,0 0.47464,0.2124 0.47464,0.47464 z m 6.32854,11.391377 c 0,0.262237 -0.2124,0.474641 -0.47464,0.474641 h -1.58213 c -0.26224,0 -0.47464,-0.212404 -0.47464,-0.474641 v -1.582137 c 0,-0.262238 0.2124,-0.47464 0.47464,-0.47464 h 1.58213 c 0.26224,0 0.47464,0.212402 0.47464,0.47464 z m 0,-3.797126 c 0,0.262239 -0.2124,0.474641 -0.47464,0.474641 h -1.58213 c -0.26224,0 -0.47464,-0.212402 -0.47464,-0.474641 v -1.582136 c 0,-0.262237 0.2124,-0.474639 0.47464,-0.474639 h 1.58213 c 0.26224,0 0.47464,0.212402 0.47464,0.474639 z"
       id="path8402-0-1"
       style="fill:#ffffff;stroke-width:0.0395531" /></g></svg>
