<?xml version="1.0" encoding="utf-8"?>
<!-- Generator: Adobe Illustrator 27.1.1, SVG Export Plug-In . SVG Version: 6.00 Build 0)  -->
<svg version="1.1" id="Capa_1" xmlns="http://www.w3.org/2000/svg" xmlns:xlink="http://www.w3.org/1999/xlink" x="0px" y="0px"
	 viewBox="0 0 663.48 1080" style="enable-background:new 0 0 663.48 1080;" xml:space="preserve">
<style type="text/css">
	.st0{fill:#235B4E;}
	.st1{fill:#9C182F;}
	.st2{fill:#636569;}
	.st3{fill:#00A19B;}
	.st4{fill:#BC955C;}
</style>
<g>
	<path class="st0" d="M330.67,0c169.69-0.02,310.85,125.36,331.18,294.64c6.53,54.35-7.55,105.65-25.52,156.13
		C578.42,613.46,502.69,768.36,428.9,924.1c-20.81,43.92-42.86,87.33-61.68,132.1c-7.6,18.07-19.23,23.2-35.79,23.78
		c-18.31,0.64-29.48-9.37-36.9-25.36c-17.92-38.66-36.2-77.16-54.42-115.68C163.28,776.59,86.55,614.4,23.06,445.99
		C-40.22,278.16,37.62,139.05,125.23,70.86C185.62,23.86,253.96-0.26,330.67,0z M331.72,201.16
		c-73.46-0.13-133.3,58.84-133.12,131.19c0.17,71.35,59.76,130.98,131.53,131.63c71.8,0.65,131.98-58.48,132.26-129.96
		C462.69,259.83,405.11,201.29,331.72,201.16z"/>
</g>
</svg>
