<?xml version="1.0" encoding="UTF-8" standalone="no"?>
<!-- Created with Inkscape (http://www.inkscape.org/) -->

<svg
   width="155.69101"
   height="193.44783"
   viewBox="0 0 41.193245 51.183071"
   version="1.1"
   id="svg5"
   xml:space="preserve"
   inkscape:version="1.2.2 (b0a8486, 2022-12-01)"
   sodipodi:docname="draws.svg"
   inkscape:export-filename="../../../../../../Desktop/oo_4.svg"
   inkscape:export-xdpi="96"
   inkscape:export-ydpi="96"
   xmlns:inkscape="http://www.inkscape.org/namespaces/inkscape"
   xmlns:sodipodi="http://sodipodi.sourceforge.net/DTD/sodipodi-0.dtd"
   xmlns="http://www.w3.org/2000/svg"
   xmlns:svg="http://www.w3.org/2000/svg"><sodipodi:namedview
     id="namedview7"
     pagecolor="#ffffff"
     bordercolor="#000000"
     borderopacity="0.25"
     inkscape:showpageshadow="2"
     inkscape:pageopacity="0.0"
     inkscape:pagecheckerboard="0"
     inkscape:deskcolor="#d1d1d1"
     inkscape:document-units="mm"
     showgrid="false"
     inkscape:zoom="0.5057635"
     inkscape:cx="133.46159"
     inkscape:cy="258.02573"
     inkscape:window-width="1440"
     inkscape:window-height="765"
     inkscape:window-x="0"
     inkscape:window-y="25"
     inkscape:window-maximized="0"
     inkscape:current-layer="layer1" /><defs
     id="defs2" /><g
     inkscape:label="Layer 1"
     inkscape:groupmode="layer"
     id="layer1"
     transform="translate(-6.7105767,-1.7156621)"><path
       style="fill:#999999;stroke:none;stroke-width:0.434191"
       d="m 25.842182,51.455806 c -62.88638,-68.19457 67.55141,-63.9032 4.19458,-0.06749 -1.89961,1.478514 -2.40869,1.480032 -4.19458,0.06749 z"
       id="path104-5-1-5-6-4-0"
       sodipodi:nodetypes="ccc"
       inkscape:export-filename="../../../../../gobierno/src/assets/markers/obras/oo_2_m.svg"
       inkscape:export-xdpi="96"
       inkscape:export-ydpi="96" /><path
       style="fill:#ffffff;stroke:none;stroke-width:0.436649"
       d="m 24.347512,51.836306 c -62.88638,-68.96912 67.55138,-64.62901 4.19458,-0.06832 -1.89961,1.495297 -2.40869,1.496833 -4.19458,0.06832 z"
       id="path104-2-5-66-6-2"
       sodipodi:nodetypes="ccc" /><path
       style="fill:#000000;stroke:none;stroke-width:0.381769"
       d="m 24.601152,48.486219 c -55.67652,-59.549593 59.80669,-55.8022431 3.71367,-0.05908 -1.68181,1.29107 -2.13254,1.29239 -3.71367,0.05908 z"
       id="path104-1-0-6-70-0-4"
       sodipodi:nodetypes="ccc" /><path
       style="fill:#e397b4;fill-opacity:1;fill-rule:evenodd;stroke:none;stroke-width:0.34555"
       d="m 24.788102,46.082629 c -50.36304,-53.9341231 54.09896,-50.5401331 3.35926,-0.05347 -1.52132,1.169342 -1.92902,1.170529 -3.35926,0.05347 z"
       id="path104-1-3-4-3-41-3-8"
       sodipodi:nodetypes="ccc" /><g
       id="g4456"
       transform="matrix(0.02224357,0,0,0.02224357,16.158653,11.112232)">
	<path
   class="st11"
   d="m 0,293.22 c 8.93,-17.76 23.73,-23.21 42.95,-22.93 48.04,0.7 96.1,0.13 144.16,0.28 21.1,0.07 35.47,12.2 36.35,30.03 0.97,19.89 -13.23,33.99 -35.29,34.21 -29.11,0.3 -58.22,0.08 -87.34,0.08 -19.29,0 -38.61,-0.66 -57.87,0.18 C 23.72,335.92 8.93,329.96 0,312.2 0,305.87 0,299.55 0,293.22 Z"
   id="path4442" />
	<path
   class="st11"
   d="m 697.96,457.28 c -33.88,33.83 -66.18,66.07 -99.05,98.88 2.3,2.43 4.82,5.21 7.47,7.86 44.22,44.24 88.52,88.39 132.65,132.72 24.26,24.37 29.18,53.27 13.53,80.35 -3.63,6.29 -8.51,12.07 -13.67,17.24 -71.2,71.42 -142.47,142.78 -213.9,213.97 -27.51,27.42 -63.22,29.45 -90.62,5.74 -24.62,-21.31 -28.27,-60.05 -7.92,-85.57 3.71,-4.66 7.77,-9.07 11.98,-13.29 53.63,-53.71 107.29,-107.39 161.03,-160.98 2.72,-2.71 6.21,-4.64 11.87,-8.8 -5.54,-3.95 -9.09,-5.82 -11.8,-8.52 -43.81,-43.65 -87.56,-87.37 -131.24,-131.15 -31.71,-31.78 -31.77,-68.2 -0.08,-99.91 81.46,-81.53 163.34,-162.66 244.36,-244.63 34.18,-34.58 78.75,-23.86 99.31,3.53 8.27,11.01 12.59,23.31 12.58,37.14 -0.03,37.95 0,75.9 0,113.85 0,3.81 0,7.62 0,12.94 4.76,0 8.81,0 12.87,0 57.63,0 115.26,-0.03 172.88,0.02 25.53,0.02 46.94,8.63 60.43,31.39 25.63,43.23 -4.07,95.1 -56.42,95.88 -83.61,1.23 -167.27,0.95 -250.89,0.06 -40.53,-0.43 -65.29,-27.64 -65.37,-68.17 -0.01,-9.69 0,-19.39 0,-30.55 z"
   id="path4444" />
	<path
   class="st11"
   d="m 386.98,587.72 c 10.7,46.24 47.93,70.6 76.28,102.22 -2.46,2.67 -4.46,5.01 -6.63,7.18 -103.29,103.33 -206.57,206.67 -309.9,309.96 -25.18,25.17 -54.43,30.16 -81.98,14.25 -32.62,-18.85 -41.19,-63.64 -17.72,-93.03 3.06,-3.83 6.3,-7.56 9.77,-11.02 107.25,-107.32 214.54,-214.6 321.83,-321.87 2.18,-2.19 4.54,-4.2 8.35,-7.69 z"
   id="path4446" />
	<path
   class="st11"
   d="m 705.28,186.55 c -16.79,14.55 -33.31,28.01 -48.81,42.54 -15.61,14.64 -30.21,30.36 -46.12,46.48 -15.79,-11.29 -31.04,-22.2 -46.67,-33.38 -24.24,24.24 -48.07,48.08 -71.9,71.91 -20.87,20.88 -41.5,42 -62.66,62.58 -34.24,33.31 -85.06,25.59 -104.78,-15.61 -11.44,-23.89 -7.56,-51.04 12.92,-71.83 57.46,-58.33 115.34,-116.25 173.71,-173.67 22,-21.64 51.61,-25.61 76.38,-9.56 40.3,26.12 79.4,54.09 117.93,80.54 z"
   id="path4448" />
	<path
   class="st11"
   d="m 761.23,144.56 c 0.35,-52 40.78,-94.59 95.13,-95.02 52.35,-0.42 94.83,43.33 94.59,95.55 -0.24,51.7 -42.67,94.92 -94.59,94.5 -54.34,-0.45 -94.78,-43.03 -95.13,-95.03 z"
   id="path4450" />
	<path
   class="st11"
   d="m 175.09,208.36 c -25.98,0 -51.96,0.28 -77.94,-0.1 -16.7,-0.25 -28.33,-8.97 -32.72,-23.19 -3.85,-12.49 0.48,-27.19 11.99,-34.23 6.26,-3.83 14.34,-6.45 21.64,-6.53 51.25,-0.55 102.51,-0.48 153.76,-0.2 21.11,0.12 35.1,13.66 34.92,32.54 -0.18,18.27 -14.16,31.36 -34.77,31.64 -25.62,0.34 -51.25,0.08 -76.88,0.07 z"
   id="path4452" />
	<path
   class="st11"
   d="m 175.03,461.39 c -25.98,0 -51.96,0.29 -77.94,-0.1 -16.64,-0.25 -28.34,-9.06 -32.68,-23.24 -3.83,-12.5 0.52,-27.18 12.06,-34.21 6.27,-3.82 14.35,-6.42 21.65,-6.5 51.25,-0.54 102.51,-0.48 153.76,-0.2 21.1,0.12 35.07,13.7 34.86,32.59 -0.2,18.26 -14.2,31.31 -34.83,31.58 -25.62,0.35 -51.25,0.09 -76.88,0.08 z"
   id="path4454" />
</g></g><style
     type="text/css"
     id="style897">
	.st0{fill:#44BBED;}
	.st1{fill:#27578A;}
	.st2{fill:#691B32;}
	.st3{fill:#235C4E;}
	.st4{fill:#E397B4;}
	.st5{fill:#EA9256;}
	.st6{fill:#84559E;}
	.st7{fill:#777777;}
	.st8{fill:#BC955B;}
	.st9{fill:#D92562;}
	.st10{fill:#2D2A26;}
	.st11{fill:#FFFFFF;}
</style><style
     type="text/css"
     id="style2146">
	.st0{fill:#44BBED;}
	.st1{fill:#27578A;}
	.st2{fill:#691B32;}
	.st3{fill:#235C4E;}
	.st4{fill:#E397B4;}
	.st5{fill:#EA9256;}
	.st6{fill:#84559E;}
	.st7{fill:#777777;}
	.st8{fill:#BC955B;}
	.st9{fill:#D92562;}
	.st10{fill:#2D2A26;}
	.st11{fill:#FFFFFF;}
</style><style
     type="text/css"
     id="style4440">
	.st0{fill:#44BBED;}
	.st1{fill:#27578A;}
	.st2{fill:#691B32;}
	.st3{fill:#235C4E;}
	.st4{fill:#E397B4;}
	.st5{fill:#EA9256;}
	.st6{fill:#84559E;}
	.st7{fill:#777777;}
	.st8{fill:#BC955B;}
	.st9{fill:#D92562;}
	.st10{fill:#2D2A26;}
	.st11{fill:#FFFFFF;}
</style></svg>
