<?xml version="1.0" encoding="utf-8"?>
<!-- Generator: Adobe Illustrator 27.1.1, SVG Export Plug-In . SVG Version: 6.00 Build 0)  -->
<svg version="1.1" id="Capa_1" xmlns="http://www.w3.org/2000/svg" xmlns:xlink="http://www.w3.org/1999/xlink" x="0px" y="0px"
	 viewBox="0 0 851.99 1080" style="enable-background:new 0 0 851.99 1080;" xml:space="preserve">
<style type="text/css">
	.st0{fill:#636569;}
	.st1{fill:#235B4E;}
	.st2{fill:#9C182F;}
	.st3{fill:#00A19B;}
	.st4{fill:#BC955C;}
</style>
<g>
	<path class="st0" d="M851.99,418.41c-0.19,71.7-19.11,133.63-47.38,193.11c-45.75,96.26-109.08,180.75-178.96,260.22
		c-60.44,68.73-123.79,134.91-185.96,202.12c-7.69,8.31-19.38,8.08-27.18-0.07c-79.33-82.9-158.95-165.53-230.73-255.25
		C125.43,748.1,74.28,674.31,38.16,591.14C9.55,525.25-5.83,456.9,2.06,384.52c9.56-87.65,41.68-165.85,98.83-233.1
		C164.26,76.86,244.14,28.54,340.03,9.21c101.71-20.51,199.6-7.15,290.5,43.92c120.56,67.73,192.03,171.02,216.29,307.04
		c1.37,7.69,2.18,15.51,2.81,23.31C850.71,396.79,851.45,410.13,851.99,418.41z M575.94,424.33
		c-1.13-82.02-67.54-146.12-150.29-144.92c-77.81,1.12-148.18,67.7-143.14,156.17c4.21,74.08,67.5,140.68,152.66,137.44
		C515.81,569.95,577.4,502.72,575.94,424.33z"/>
</g>
</svg>
