<?xml version="1.0" encoding="UTF-8" standalone="no"?>
<!-- Created with Inkscape (http://www.inkscape.org/) -->

<svg
   width="155.69101"
   height="193.44783"
   viewBox="0 0 41.193245 51.183071"
   version="1.1"
   id="svg5"
   xml:space="preserve"
   inkscape:version="1.2.2 (b0a8486, 2022-12-01)"
   sodipodi:docname="draws.svg"
   inkscape:export-filename="../../../../../../Desktop/oo_4.svg"
   inkscape:export-xdpi="96"
   inkscape:export-ydpi="96"
   xmlns:inkscape="http://www.inkscape.org/namespaces/inkscape"
   xmlns:sodipodi="http://sodipodi.sourceforge.net/DTD/sodipodi-0.dtd"
   xmlns="http://www.w3.org/2000/svg"
   xmlns:svg="http://www.w3.org/2000/svg"><sodipodi:namedview
     id="namedview7"
     pagecolor="#ffffff"
     bordercolor="#000000"
     borderopacity="0.25"
     inkscape:showpageshadow="2"
     inkscape:pageopacity="0.0"
     inkscape:pagecheckerboard="0"
     inkscape:deskcolor="#d1d1d1"
     inkscape:document-units="mm"
     showgrid="false"
     inkscape:zoom="0.5057635"
     inkscape:cx="133.46159"
     inkscape:cy="258.02573"
     inkscape:window-width="1440"
     inkscape:window-height="765"
     inkscape:window-x="0"
     inkscape:window-y="25"
     inkscape:window-maximized="0"
     inkscape:current-layer="layer1" /><defs
     id="defs2" /><g
     inkscape:label="Layer 1"
     inkscape:groupmode="layer"
     id="layer1"
     transform="translate(-6.7105767,-1.7156621)"><path
       style="fill:#999999;stroke:none;stroke-width:0.434191"
       d="m 25.842182,51.455806 c -62.88638,-68.19457 67.55141,-63.9032 4.19458,-0.06749 -1.89961,1.478514 -2.40869,1.480032 -4.19458,0.06749 z"
       id="path104-5-1-5-6-4-0"
       sodipodi:nodetypes="ccc"
       inkscape:export-filename="../../../../../gobierno/src/assets/markers/obras/oo_3_m.svg"
       inkscape:export-xdpi="96"
       inkscape:export-ydpi="96" /><path
       style="fill:#ffffff;stroke:none;stroke-width:0.436649"
       d="m 24.347512,51.836306 c -62.88638,-68.96912 67.55138,-64.62901 4.19458,-0.06832 -1.89961,1.495297 -2.40869,1.496833 -4.19458,0.06832 z"
       id="path104-2-5-66-6-2"
       sodipodi:nodetypes="ccc" /><path
       style="fill:#000000;stroke:none;stroke-width:0.381769"
       d="m 24.601152,48.486219 c -55.67652,-59.549593 59.80669,-55.8022431 3.71367,-0.05908 -1.68181,1.29107 -2.13254,1.29239 -3.71367,0.05908 z"
       id="path104-1-0-6-70-0-4"
       sodipodi:nodetypes="ccc" /><path
       style="fill:#84559e;fill-opacity:1;fill-rule:evenodd;stroke:none;stroke-width:0.34555"
       d="m 24.788102,46.082629 c -50.36304,-53.9341231 54.09896,-50.5401331 3.35926,-0.05347 -1.52132,1.169342 -1.92902,1.170529 -3.35926,0.05347 z"
       id="path104-1-3-4-3-41-3-8"
       sodipodi:nodetypes="ccc" /><g
       id="g5267"
       transform="matrix(0.02185034,0,0,0.02185034,15.629321,10.619946)">
	<path
   class="st11"
   d="m 1080,1016.56 c -355.16,-0.02 -710.31,-0.04 -1065.47,-0.06 -4.53,0 -9.06,0 -14.34,0 0,-53.12 0,-105.65 0,-159.9 13.27,0 26.54,-0.07 39.8,0.01 29.03,0.18 56.22,-7.09 82.01,-20.07 20.12,-10.12 40.44,-19.02 63.44,-20.98 28.35,-2.41 55.46,0.8 80.59,14.61 37.36,20.54 77.1,28.94 119.62,26.43 27.12,-1.6 52.69,-8.07 76.52,-20.8 30.89,-16.51 63.47,-25.9 98.25,-19.23 18.61,3.57 37.14,10.3 54.21,18.64 49.03,23.96 99.68,27.65 151.68,14.32 16.11,-4.13 31.32,-12.16 46.53,-19.28 44.44,-20.8 89.11,-22.56 132.61,0.82 42.52,22.85 87.45,28.77 134.54,25.09 0.01,53.46 0.01,106.93 0.01,160.4 z"
   id="path5257" />
	<path
   class="st11"
   d="m 1080,794.95 c -16.14,-0.63 -32.57,0.41 -48.34,-2.35 -17.02,-2.98 -34.55,-7.24 -49.88,-14.9 -68.61,-34.29 -136.25,-35.26 -204.96,-0.13 -44.26,22.63 -89.39,22.57 -134.71,0.67 -18.18,-8.78 -37.23,-17.18 -56.82,-21.34 -47.53,-10.1 -94.36,-7 -138.22,16.49 -30.56,16.37 -62.81,24.93 -97.34,19.08 -14.98,-2.54 -30.42,-6.71 -43.75,-13.73 -39.4,-20.75 -80.69,-29.52 -124.99,-26.27 -27.48,2.02 -53.08,9.76 -77,22.96 -32.37,17.86 -67.21,20.57 -103.8,18.43 0,-52.85 0,-105.37 0,-159.2 8.32,0 16.65,-0.29 24.96,0.05 27.72,1.16 53.49,-5.23 77.86,-18.5 30.84,-16.8 63.99,-24.22 99.16,-23.94 31.45,0.25 61.35,6.08 89.35,20.7 25.18,13.15 51.3,22.41 80.34,21.77 21.41,-0.47 41.93,-4.03 60.91,-14.17 33.34,-17.81 68.27,-28.61 106.58,-28.37 33.32,0.21 64.83,6.57 94.3,22.2 24.59,13.04 50.34,21.01 78.55,20.31 20.68,-0.51 40.6,-3.93 58.87,-13.82 35.92,-19.44 73.74,-30.24 114.97,-28.58 27.01,1.09 53.64,4.7 77.24,17.94 36.63,20.56 75.49,27.38 116.72,24.3 0,53.47 0,106.94 0,160.4 z"
   id="path5259" />
	<path
   class="st11"
   d="m 62.81,125.78 c 74.66,0 148.05,0 222.32,0 0,117.02 0,233.17 0,350.15 -73.72,0 -147.11,0 -221.74,0 0,21.32 0,41.85 0,63.01 -21.76,0 -42.29,0 -63.39,0 0,-158.44 0,-316.58 0,-475.5 20.47,0 40.99,0 62.81,0 0,20.45 0,40.97 0,62.34 z"
   id="path5261" />
	<path
   class="st11"
   d="m 540.15,429.31 c 0,-66.48 0,-131.8 0,-198.45 73.82,14.26 141.2,42.23 203.28,83.1 85.3,56.17 151.73,129.52 200.69,221.21 -14.29,-1.63 -26.87,-3.18 -39.48,-4.48 -52.7,-5.41 -102.68,3.73 -149.85,28.05 -18.27,9.42 -18.26,9.13 -31.41,-6.51 -47.01,-55.91 -105.52,-95.13 -174.09,-119.71 -2.96,-1.05 -5.93,-2.08 -9.14,-3.21 z"
   id="path5263" />
	<path
   class="st11"
   d="m 475.49,475.92 c -42.12,0 -83.54,0 -125.91,0 0,-116.31 0,-232.38 0,-349.16 41.77,0 83.41,0 125.91,0 0,115.92 0,232.02 0,349.16 z"
   id="path5265" />
</g></g><style
     type="text/css"
     id="style897">
	.st0{fill:#44BBED;}
	.st1{fill:#27578A;}
	.st2{fill:#691B32;}
	.st3{fill:#235C4E;}
	.st4{fill:#E397B4;}
	.st5{fill:#EA9256;}
	.st6{fill:#84559E;}
	.st7{fill:#777777;}
	.st8{fill:#BC955B;}
	.st9{fill:#D92562;}
	.st10{fill:#2D2A26;}
	.st11{fill:#FFFFFF;}
</style><style
     type="text/css"
     id="style2146">
	.st0{fill:#44BBED;}
	.st1{fill:#27578A;}
	.st2{fill:#691B32;}
	.st3{fill:#235C4E;}
	.st4{fill:#E397B4;}
	.st5{fill:#EA9256;}
	.st6{fill:#84559E;}
	.st7{fill:#777777;}
	.st8{fill:#BC955B;}
	.st9{fill:#D92562;}
	.st10{fill:#2D2A26;}
	.st11{fill:#FFFFFF;}
</style><style
     type="text/css"
     id="style4440">
	.st0{fill:#44BBED;}
	.st1{fill:#27578A;}
	.st2{fill:#691B32;}
	.st3{fill:#235C4E;}
	.st4{fill:#E397B4;}
	.st5{fill:#EA9256;}
	.st6{fill:#84559E;}
	.st7{fill:#777777;}
	.st8{fill:#BC955B;}
	.st9{fill:#D92562;}
	.st10{fill:#2D2A26;}
	.st11{fill:#FFFFFF;}
</style><style
     type="text/css"
     id="style5255">
	.st0{fill:#44BBED;}
	.st1{fill:#27578A;}
	.st2{fill:#691B32;}
	.st3{fill:#235C4E;}
	.st4{fill:#E397B4;}
	.st5{fill:#EA9256;}
	.st6{fill:#84559E;}
	.st7{fill:#777777;}
	.st8{fill:#BC955B;}
	.st9{fill:#D92562;}
	.st10{fill:#2D2A26;}
	.st11{fill:#FFFFFF;}
</style></svg>
