<?xml version="1.0" encoding="UTF-8" standalone="no"?>
<!-- Created with Inkscape (http://www.inkscape.org/) -->

<svg
   width="155.69101"
   height="193.44783"
   viewBox="0 0 41.193245 51.183071"
   version="1.1"
   id="svg5"
   xml:space="preserve"
   inkscape:version="1.2.2 (b0a8486, 2022-12-01)"
   sodipodi:docname="draws.svg"
   inkscape:export-filename="../../../../../../Desktop/oo_4.svg"
   inkscape:export-xdpi="96"
   inkscape:export-ydpi="96"
   xmlns:inkscape="http://www.inkscape.org/namespaces/inkscape"
   xmlns:sodipodi="http://sodipodi.sourceforge.net/DTD/sodipodi-0.dtd"
   xmlns="http://www.w3.org/2000/svg"
   xmlns:svg="http://www.w3.org/2000/svg"><sodipodi:namedview
     id="namedview7"
     pagecolor="#ffffff"
     bordercolor="#000000"
     borderopacity="0.25"
     inkscape:showpageshadow="2"
     inkscape:pageopacity="0.0"
     inkscape:pagecheckerboard="0"
     inkscape:deskcolor="#d1d1d1"
     inkscape:document-units="mm"
     showgrid="false"
     inkscape:zoom="0.35869009"
     inkscape:cx="545.03875"
     inkscape:cy="-12.545649"
     inkscape:window-width="1440"
     inkscape:window-height="765"
     inkscape:window-x="0"
     inkscape:window-y="25"
     inkscape:window-maximized="0"
     inkscape:current-layer="layer1" /><defs
     id="defs2" /><g
     inkscape:label="Layer 1"
     inkscape:groupmode="layer"
     id="layer1"
     transform="translate(-6.7105767,-1.7156621)"><path
       style="fill:#999999;stroke:none;stroke-width:0.434191"
       d="m 25.842182,51.455806 c -62.88638,-68.19457 67.55141,-63.9032 4.19458,-0.06749 -1.89961,1.478514 -2.40869,1.480032 -4.19458,0.06749 z"
       id="path104-5-1-5-6-4-0"
       sodipodi:nodetypes="ccc"
       inkscape:export-filename="../../../../../../Desktop/o_6_m.png"
       inkscape:export-xdpi="96"
       inkscape:export-ydpi="96" /><path
       style="fill:#ffffff;stroke:none;stroke-width:0.436649"
       d="m 24.347512,51.836306 c -62.88638,-68.96912 67.55138,-64.62901 4.19458,-0.06832 -1.89961,1.495297 -2.40869,1.496833 -4.19458,0.06832 z"
       id="path104-2-5-66-6-2"
       sodipodi:nodetypes="ccc" /><path
       style="fill:#000000;stroke:none;stroke-width:0.381769"
       d="m 24.601152,48.486219 c -55.67652,-59.549593 59.80669,-55.8022431 3.71367,-0.05908 -1.68181,1.29107 -2.13254,1.29239 -3.71367,0.05908 z"
       id="path104-1-0-6-70-0-4"
       sodipodi:nodetypes="ccc" /><path
       style="fill:#333333;fill-opacity:1;fill-rule:evenodd;stroke:none;stroke-width:0.34555"
       d="m 24.788102,46.082629 c -50.36304,-53.9341231 54.09896,-50.5401331 3.35926,-0.05347 -1.52132,1.169342 -1.92902,1.170529 -3.35926,0.05347 z"
       id="path104-1-3-4-3-41-3-8"
       sodipodi:nodetypes="ccc" /><path
       d="m 15.095807,16.20844 c 0,-0.712757 0.575843,-1.288599 1.288599,-1.288599 H 37.00199 c 0.712758,0 1.288601,0.575842 1.288601,1.288599 v 1.433566 c 0,0.632219 -0.511415,1.143632 -1.143634,1.143632 -1.502021,0 -2.722163,1.216116 -2.722163,2.722164 v 5.029563 c -0.519467,0 -1.038935,0.157049 -1.48189,0.471144 -0.724838,0.499335 -1.614777,0.817454 -2.383907,0.817454 v 0 -0.02014 -5.154395 c 0,-2.134244 -1.731557,-3.865798 -3.865798,-3.865798 -2.134242,0 -3.865798,1.731554 -3.865798,3.865798 v 5.154395 0.02014 c -0.765106,0 -1.659071,-0.318119 -2.379882,-0.817454 -0.446982,-0.314095 -0.966448,-0.471144 -1.485915,-0.471144 v -5.029563 c 0,-1.506048 -1.216115,-2.722164 -2.722165,-2.722164 -0.63222,0 -1.143632,-0.511413 -1.143632,-1.143632 z M 27.43817,28.043415 c 0.906046,0.624166 2.013437,1.051014 3.120827,1.051014 1.083226,0 2.230884,-0.434899 3.116798,-1.051014 v 0 c 0.479196,-0.342284 1.13155,-0.314096 1.578534,0.06846 0.579867,0.479195 1.308733,0.845642 2.037596,1.01477 0.692623,0.161076 1.123498,0.853699 0.962423,1.546321 -0.161076,0.692619 -0.853699,1.123495 -1.546318,0.962422 -0.986586,-0.229535 -1.808065,-0.664434 -2.34364,-1.006722 -1.167794,0.628196 -2.476528,1.042963 -3.805393,1.042963 -1.284574,0 -2.440286,-0.39866 -3.237607,-0.761079 -0.233558,-0.108728 -0.446982,-0.213424 -0.628191,-0.310068 -0.18121,0.09664 -0.390607,0.205368 -0.628193,0.310068 -0.79732,0.362419 -1.953033,0.761079 -3.237605,0.761079 -1.328868,0 -2.637601,-0.414767 -3.805394,-1.038934 -0.539601,0.338259 -1.357056,0.777186 -2.343639,1.006718 -0.692622,0.161075 -1.385244,-0.2698 -1.546319,-0.962423 -0.161075,-0.692622 0.2698,-1.385242 0.962422,-1.546317 0.728864,-0.169132 1.457728,-0.535575 2.037597,-1.014774 0.446983,-0.378524 1.099337,-0.406711 1.578534,-0.06845 v 0 c 0.889939,0.612087 2.03357,1.046986 3.116799,1.046986 1.10739,0 2.21478,-0.426847 3.120826,-1.051014 0.446983,-0.318119 1.04296,-0.318119 1.489943,0 z"
       id="path841"
       style="fill:#ffffff;stroke-width:0.0402688" /></g></svg>
