<?xml version="1.0" encoding="UTF-8" standalone="no"?>
<!-- Created with Inkscape (http://www.inkscape.org/) -->

<svg
   width="155.69101"
   height="193.44783"
   viewBox="0 0 41.193245 51.183071"
   version="1.1"
   id="svg5"
   xml:space="preserve"
   inkscape:version="1.2.2 (b0a8486, 2022-12-01)"
   sodipodi:docname="draws.svg"
   inkscape:export-filename="../../../../../../Desktop/oo_4.svg"
   inkscape:export-xdpi="96"
   inkscape:export-ydpi="96"
   xmlns:inkscape="http://www.inkscape.org/namespaces/inkscape"
   xmlns:sodipodi="http://sodipodi.sourceforge.net/DTD/sodipodi-0.dtd"
   xmlns="http://www.w3.org/2000/svg"
   xmlns:svg="http://www.w3.org/2000/svg"><sodipodi:namedview
     id="namedview7"
     pagecolor="#ffffff"
     bordercolor="#000000"
     borderopacity="0.25"
     inkscape:showpageshadow="2"
     inkscape:pageopacity="0.0"
     inkscape:pagecheckerboard="0"
     inkscape:deskcolor="#d1d1d1"
     inkscape:document-units="mm"
     showgrid="false"
     inkscape:zoom="0.5057635"
     inkscape:cx="133.46159"
     inkscape:cy="258.02573"
     inkscape:window-width="1440"
     inkscape:window-height="765"
     inkscape:window-x="0"
     inkscape:window-y="25"
     inkscape:window-maximized="0"
     inkscape:current-layer="layer1" /><defs
     id="defs2" /><g
     inkscape:label="Layer 1"
     inkscape:groupmode="layer"
     id="layer1"
     transform="translate(-6.7105767,-1.7156621)"><path
       style="fill:#999999;stroke:none;stroke-width:0.434191"
       d="m 25.842182,51.455806 c -62.88638,-68.19457 67.55141,-63.9032 4.19458,-0.06749 -1.89961,1.478514 -2.40869,1.480032 -4.19458,0.06749 z"
       id="path104-5-1-5-6-4-0"
       sodipodi:nodetypes="ccc"
       inkscape:export-filename="../../../../../gobierno/src/assets/markers/obras/oo_10_m.svg"
       inkscape:export-xdpi="96"
       inkscape:export-ydpi="96" /><path
       style="fill:#ffffff;stroke:none;stroke-width:0.436649"
       d="m 24.347512,51.836306 c -62.88638,-68.96912 67.55138,-64.62901 4.19458,-0.06832 -1.89961,1.495297 -2.40869,1.496833 -4.19458,0.06832 z"
       id="path104-2-5-66-6-2"
       sodipodi:nodetypes="ccc" /><path
       style="fill:#000000;stroke:none;stroke-width:0.381769"
       d="m 24.601152,48.486219 c -55.67652,-59.549593 59.80669,-55.8022431 3.71367,-0.05908 -1.68181,1.29107 -2.13254,1.29239 -3.71367,0.05908 z"
       id="path104-1-0-6-70-0-4"
       sodipodi:nodetypes="ccc" /><path
       style="fill:#2d2a26;fill-opacity:1;fill-rule:evenodd;stroke:none;stroke-width:0.34555"
       d="m 24.788102,46.082629 c -50.36304,-53.9341231 54.09896,-50.5401331 3.35926,-0.05347 -1.52132,1.169342 -1.92902,1.170529 -3.35926,0.05347 z"
       id="path104-1-3-4-3-41-3-8"
       sodipodi:nodetypes="ccc" /><g
       id="g11057"
       transform="matrix(0.02031757,0,0,0.02031757,15.662402,11.706734)">
	<path
   class="st11"
   d="m 0,1080 c 0,-96.93 0,-193.86 0,-291.86 28.72,7.22 56.56,13.05 80.54,29.45 18.82,12.87 39.13,22.03 62.14,17.56 14.46,-2.81 29.63,-7.32 41.86,-15.17 33.16,-21.27 68.37,-29.76 107.28,-24.76 21.74,2.79 41.06,11.28 59.33,22.84 16.84,10.66 34.47,18.12 55.14,18.03 20,-0.09 36.6,-7.93 52.82,-18.28 44.8,-28.6 92.03,-31.54 140.69,-11.51 11.9,4.9 22.57,12.76 33.96,18.98 27.37,14.95 55.03,15.16 82.26,0.03 20.52,-11.39 40.06,-24.54 63.9,-28.67 35.76,-6.19 69.89,-2.69 101.79,15.67 6.39,3.68 12.6,7.65 18.99,11.33 29.61,17.09 59.78,18.13 88.63,-0.38 28.01,-17.98 58.37,-28.41 90.68,-34.37 0,97.03 0,194.06 0,291.09 C 720,1080 360,1080 0,1080 Z"
   id="path11041" />
	<path
   class="st11"
   d="m 1080,723.52 c -20.62,5.22 -41.25,10.45 -62.7,15.88 0,-246.13 0,-492.07 0,-739.39 20.81,0 41.75,0 62.7,0 0,241.16 0,482.33 0,723.51 z"
   id="path11043" />
	<path
   class="st11"
   d="m 476.99,0.39 c 42.41,0 83.77,0 125.83,0 0,246.21 0,492.04 0,739.04 -41.77,-10.96 -83.58,-11.34 -125.83,0.27 0,-246.59 0,-492.47 0,-739.31 z"
   id="path11045" />
	<path
   class="st11"
   d="m 953.31,771.11 c -10.03,4.84 -17.38,0.63 -24.54,-4.08 -25.19,-16.59 -52.28,-28.4 -82.22,-33.24 -56.24,-9.08 -107.92,3.32 -155.96,32.98 -2.39,1.47 -4.61,3.24 -7.1,4.53 -11.15,5.75 -16.8,2.28 -16.8,-10.25 -0.01,-67.47 -0.07,-134.94 0.02,-202.41 0.09,-73.6 49.29,-131.89 121.85,-144.53 76.02,-13.24 152.95,43.72 162.76,120.7 1.19,9.37 1.88,18.87 1.9,28.31 0.16,65.36 0.09,130.72 0.09,196.08 0,3.85 0,7.7 0,11.91 z"
   id="path11047" />
	<path
   class="st11"
   d="m 126.69,771.1 c 0,-3.65 0,-7.1 0,-10.55 0,-66.79 -0.04,-133.57 0.01,-200.36 0.05,-74.67 47.03,-131.49 120.4,-145.74 74.95,-14.56 154.77,43.19 164.11,118.93 1.28,10.42 1.97,20.98 2,31.48 0.18,65.73 0.1,131.46 0.08,197.19 0,11.43 -2.95,13.91 -13.76,9.67 -8.09,-3.17 -15.57,-7.94 -23.25,-12.14 -72.05,-39.32 -143.76,-39.48 -215.26,1.59 -10.06,5.78 -19.27,15.09 -34.33,9.93 z"
   id="path11049" />
	<path
   class="st11"
   d="m 127.26,404.99 c 0,-103.2 0,-206.01 0,-309.38 95.24,0 189.91,0 285.32,0 0,103.21 0,206.2 0,309.13 -95.06,-74.2 -189.79,-74.21 -285.32,0.25 z"
   id="path11051" />
	<path
   class="st11"
   d="m 952.43,405.7 c -83.89,-76.61 -206.05,-72.28 -284.84,0.25 0,-103.71 0,-206.6 0,-310.21 94.62,0 189.29,0 284.84,0 0,102.84 0,205.87 0,309.96 z"
   id="path11053" />
	<path
   class="st11"
   d="m 0.45,0.45 c 21.29,0 41.55,0 62.44,0 0,246.21 0,492 0,739.14 -20.92,-5.72 -41.55,-11.35 -62.44,-17.06 0,-240.76 0,-480.97 0,-722.08 z"
   id="path11055" />
</g></g><style
     type="text/css"
     id="style897">
	.st0{fill:#44BBED;}
	.st1{fill:#27578A;}
	.st2{fill:#691B32;}
	.st3{fill:#235C4E;}
	.st4{fill:#E397B4;}
	.st5{fill:#EA9256;}
	.st6{fill:#84559E;}
	.st7{fill:#777777;}
	.st8{fill:#BC955B;}
	.st9{fill:#D92562;}
	.st10{fill:#2D2A26;}
	.st11{fill:#FFFFFF;}
</style><style
     type="text/css"
     id="style2146">
	.st0{fill:#44BBED;}
	.st1{fill:#27578A;}
	.st2{fill:#691B32;}
	.st3{fill:#235C4E;}
	.st4{fill:#E397B4;}
	.st5{fill:#EA9256;}
	.st6{fill:#84559E;}
	.st7{fill:#777777;}
	.st8{fill:#BC955B;}
	.st9{fill:#D92562;}
	.st10{fill:#2D2A26;}
	.st11{fill:#FFFFFF;}
</style><style
     type="text/css"
     id="style4440">
	.st0{fill:#44BBED;}
	.st1{fill:#27578A;}
	.st2{fill:#691B32;}
	.st3{fill:#235C4E;}
	.st4{fill:#E397B4;}
	.st5{fill:#EA9256;}
	.st6{fill:#84559E;}
	.st7{fill:#777777;}
	.st8{fill:#BC955B;}
	.st9{fill:#D92562;}
	.st10{fill:#2D2A26;}
	.st11{fill:#FFFFFF;}
</style><style
     type="text/css"
     id="style5255">
	.st0{fill:#44BBED;}
	.st1{fill:#27578A;}
	.st2{fill:#691B32;}
	.st3{fill:#235C4E;}
	.st4{fill:#E397B4;}
	.st5{fill:#EA9256;}
	.st6{fill:#84559E;}
	.st7{fill:#777777;}
	.st8{fill:#BC955B;}
	.st9{fill:#D92562;}
	.st10{fill:#2D2A26;}
	.st11{fill:#FFFFFF;}
</style><style
     type="text/css"
     id="style5886">
	.st0{fill:#44BBED;}
	.st1{fill:#27578A;}
	.st2{fill:#691B32;}
	.st3{fill:#235C4E;}
	.st4{fill:#E397B4;}
	.st5{fill:#EA9256;}
	.st6{fill:#84559E;}
	.st7{fill:#777777;}
	.st8{fill:#BC955B;}
	.st9{fill:#D92562;}
	.st10{fill:#2D2A26;}
	.st11{fill:#FFFFFF;}
</style><style
     type="text/css"
     id="style6736">
	.st0{fill:#44BBED;}
	.st1{fill:#27578A;}
	.st2{fill:#691B32;}
	.st3{fill:#235C4E;}
	.st4{fill:#E397B4;}
	.st5{fill:#EA9256;}
	.st6{fill:#84559E;}
	.st7{fill:#777777;}
	.st8{fill:#BC955B;}
	.st9{fill:#D92562;}
	.st10{fill:#2D2A26;}
	.st11{fill:#FFFFFF;}
</style><style
     type="text/css"
     id="style7559">
	.st0{fill:#44BBED;}
	.st1{fill:#27578A;}
	.st2{fill:#691B32;}
	.st3{fill:#235C4E;}
	.st4{fill:#E397B4;}
	.st5{fill:#EA9256;}
	.st6{fill:#84559E;}
	.st7{fill:#777777;}
	.st8{fill:#BC955B;}
	.st9{fill:#D92562;}
	.st10{fill:#2D2A26;}
	.st11{fill:#FFFFFF;}
</style><style
     type="text/css"
     id="style8025">
	.st0{fill:#44BBED;}
	.st1{fill:#27578A;}
	.st2{fill:#691B32;}
	.st3{fill:#235C4E;}
	.st4{fill:#E397B4;}
	.st5{fill:#EA9256;}
	.st6{fill:#84559E;}
	.st7{fill:#777777;}
	.st8{fill:#BC955B;}
	.st9{fill:#D92562;}
	.st10{fill:#2D2A26;}
	.st11{fill:#FFFFFF;}
</style><style
     type="text/css"
     id="style9969">
	.st0{fill:#44BBED;}
	.st1{fill:#27578A;}
	.st2{fill:#691B32;}
	.st3{fill:#235C4E;}
	.st4{fill:#E397B4;}
	.st5{fill:#EA9256;}
	.st6{fill:#84559E;}
	.st7{fill:#777777;}
	.st8{fill:#BC955B;}
	.st9{fill:#D92562;}
	.st10{fill:#2D2A26;}
	.st11{fill:#FFFFFF;}
</style><style
     type="text/css"
     id="style10489">
	.st0{fill:#44BBED;}
	.st1{fill:#27578A;}
	.st2{fill:#691B32;}
	.st3{fill:#235C4E;}
	.st4{fill:#E397B4;}
	.st5{fill:#EA9256;}
	.st6{fill:#84559E;}
	.st7{fill:#777777;}
	.st8{fill:#BC955B;}
	.st9{fill:#D92562;}
	.st10{fill:#2D2A26;}
	.st11{fill:#FFFFFF;}
</style><style
     type="text/css"
     id="style11039">
	.st0{fill:#44BBED;}
	.st1{fill:#27578A;}
	.st2{fill:#691B32;}
	.st3{fill:#235C4E;}
	.st4{fill:#E397B4;}
	.st5{fill:#EA9256;}
	.st6{fill:#84559E;}
	.st7{fill:#777777;}
	.st8{fill:#BC955B;}
	.st9{fill:#D92562;}
	.st10{fill:#2D2A26;}
	.st11{fill:#FFFFFF;}
</style></svg>
