<?xml version="1.0" encoding="UTF-8" standalone="no"?>
<!-- Created with Inkscape (http://www.inkscape.org/) -->

<svg
   width="155.69101"
   height="193.44783"
   viewBox="0 0 41.193245 51.183071"
   version="1.1"
   id="svg5"
   xml:space="preserve"
   inkscape:version="1.2.2 (b0a8486, 2022-12-01)"
   sodipodi:docname="draws.svg"
   inkscape:export-filename="../../../../../../Desktop/oo_4.svg"
   inkscape:export-xdpi="96"
   inkscape:export-ydpi="96"
   xmlns:inkscape="http://www.inkscape.org/namespaces/inkscape"
   xmlns:sodipodi="http://sodipodi.sourceforge.net/DTD/sodipodi-0.dtd"
   xmlns="http://www.w3.org/2000/svg"
   xmlns:svg="http://www.w3.org/2000/svg"><sodipodi:namedview
     id="namedview7"
     pagecolor="#ffffff"
     bordercolor="#000000"
     borderopacity="0.25"
     inkscape:showpageshadow="2"
     inkscape:pageopacity="0.0"
     inkscape:pagecheckerboard="0"
     inkscape:deskcolor="#d1d1d1"
     inkscape:document-units="mm"
     showgrid="false"
     inkscape:zoom="0.5057635"
     inkscape:cx="133.46159"
     inkscape:cy="258.02573"
     inkscape:window-width="1440"
     inkscape:window-height="765"
     inkscape:window-x="0"
     inkscape:window-y="25"
     inkscape:window-maximized="0"
     inkscape:current-layer="layer1" /><defs
     id="defs2" /><g
     inkscape:label="Layer 1"
     inkscape:groupmode="layer"
     id="layer1"
     transform="translate(-6.7105767,-1.7156621)"><path
       style="fill:#999999;stroke:none;stroke-width:0.434191"
       d="m 25.842182,51.455806 c -62.88638,-68.19457 67.55141,-63.9032 4.19458,-0.06749 -1.89961,1.478514 -2.40869,1.480032 -4.19458,0.06749 z"
       id="path104-5-1-5-6-4-0"
       sodipodi:nodetypes="ccc"
       inkscape:export-filename="../../../../../gobierno/src/assets/markers/obras/oo_5_m.svg"
       inkscape:export-xdpi="96"
       inkscape:export-ydpi="96" /><path
       style="fill:#ffffff;stroke:none;stroke-width:0.436649"
       d="m 24.347512,51.836306 c -62.88638,-68.96912 67.55138,-64.62901 4.19458,-0.06832 -1.89961,1.495297 -2.40869,1.496833 -4.19458,0.06832 z"
       id="path104-2-5-66-6-2"
       sodipodi:nodetypes="ccc" /><path
       style="fill:#000000;stroke:none;stroke-width:0.381769"
       d="m 24.601152,48.486219 c -55.67652,-59.549593 59.80669,-55.8022431 3.71367,-0.05908 -1.68181,1.29107 -2.13254,1.29239 -3.71367,0.05908 z"
       id="path104-1-0-6-70-0-4"
       sodipodi:nodetypes="ccc" /><path
       style="fill:#27578a;fill-opacity:1;fill-rule:evenodd;stroke:none;stroke-width:0.34555"
       d="m 24.788102,46.082629 c -50.36304,-53.9341231 54.09896,-50.5401331 3.35926,-0.05347 -1.52132,1.169342 -1.92902,1.170529 -3.35926,0.05347 z"
       id="path104-1-3-4-3-41-3-8"
       sodipodi:nodetypes="ccc" /><g
       id="g6742"
       transform="matrix(0.02586859,0,0,0.02586859,13.024565,8.3635152)">
	<path
   class="st11"
   d="m 1080,436.64 c 0,6.33 0,12.65 0,18.98 -0.62,1.25 -1.44,2.43 -1.83,3.75 -7.4,24.81 -22.7,36.26 -48.65,36.29 -17.22,0.02 -34.44,0 -51.65,0 -10.74,0 -21.49,0 -32.84,0 0,5.59 0,9.76 0,13.93 0,158.12 -0.44,316.24 0.35,474.36 0.17,33.69 -19.05,51.98 -52.36,51.89 -235.07,-0.63 -470.14,-0.65 -705.22,0.01 -33.72,0.09 -53.11,-17.94 -52.92,-52.41 0.85,-158.47 0.37,-316.94 0.37,-475.41 0,-4.02 0,-8.04 0,-12.38 -30.9,0 -60.06,0.11 -89.22,-0.04 C 26.25,495.51 9.07,482.37 2.79,463 -3.9,442.37 1.37,426.62 19.53,413.41 182.5,294.85 345.47,176.3 508.46,57.78 c 25.09,-18.24 38.31,-18.19 63.64,0.23 161.58,117.48 323.21,234.9 484.51,352.76 9.2,6.71 15.66,17.16 23.39,25.87 z M 539.85,944.98 C 684.23,944.86 809.14,829.89 809.55,676 809.95,524.37 687.58,405.99 539.89,406.14 392.27,406.3 270.69,524.49 270.71,675.42 270.72,828.46 394.68,944.5 539.85,944.98 Z"
   id="path6738" />
	<path
   class="st11"
   d="m 338.19,743.5 c 0,-45.87 0,-90.05 0,-135.45 44.34,0 88.74,0 134.37,0 0,-45.58 0,-89.98 0,-134.88 45.36,0 89.49,0 134.86,0 0,44.6 0,89 0,134.22 45.37,0 89.51,0 134.4,0 0,45.26 0,89.67 0,135.46 -44.33,0 -88.71,0 -134.04,0 0,45.47 0,89.59 0,134.44 -45.33,0 -89.69,0 -134.98,0 0,-44.55 0,-88.7 0,-133.79 -45.09,0 -89.25,0 -134.61,0 z"
   id="path6740" />
</g></g><style
     type="text/css"
     id="style897">
	.st0{fill:#44BBED;}
	.st1{fill:#27578A;}
	.st2{fill:#691B32;}
	.st3{fill:#235C4E;}
	.st4{fill:#E397B4;}
	.st5{fill:#EA9256;}
	.st6{fill:#84559E;}
	.st7{fill:#777777;}
	.st8{fill:#BC955B;}
	.st9{fill:#D92562;}
	.st10{fill:#2D2A26;}
	.st11{fill:#FFFFFF;}
</style><style
     type="text/css"
     id="style2146">
	.st0{fill:#44BBED;}
	.st1{fill:#27578A;}
	.st2{fill:#691B32;}
	.st3{fill:#235C4E;}
	.st4{fill:#E397B4;}
	.st5{fill:#EA9256;}
	.st6{fill:#84559E;}
	.st7{fill:#777777;}
	.st8{fill:#BC955B;}
	.st9{fill:#D92562;}
	.st10{fill:#2D2A26;}
	.st11{fill:#FFFFFF;}
</style><style
     type="text/css"
     id="style4440">
	.st0{fill:#44BBED;}
	.st1{fill:#27578A;}
	.st2{fill:#691B32;}
	.st3{fill:#235C4E;}
	.st4{fill:#E397B4;}
	.st5{fill:#EA9256;}
	.st6{fill:#84559E;}
	.st7{fill:#777777;}
	.st8{fill:#BC955B;}
	.st9{fill:#D92562;}
	.st10{fill:#2D2A26;}
	.st11{fill:#FFFFFF;}
</style><style
     type="text/css"
     id="style5255">
	.st0{fill:#44BBED;}
	.st1{fill:#27578A;}
	.st2{fill:#691B32;}
	.st3{fill:#235C4E;}
	.st4{fill:#E397B4;}
	.st5{fill:#EA9256;}
	.st6{fill:#84559E;}
	.st7{fill:#777777;}
	.st8{fill:#BC955B;}
	.st9{fill:#D92562;}
	.st10{fill:#2D2A26;}
	.st11{fill:#FFFFFF;}
</style><style
     type="text/css"
     id="style5886">
	.st0{fill:#44BBED;}
	.st1{fill:#27578A;}
	.st2{fill:#691B32;}
	.st3{fill:#235C4E;}
	.st4{fill:#E397B4;}
	.st5{fill:#EA9256;}
	.st6{fill:#84559E;}
	.st7{fill:#777777;}
	.st8{fill:#BC955B;}
	.st9{fill:#D92562;}
	.st10{fill:#2D2A26;}
	.st11{fill:#FFFFFF;}
</style><style
     type="text/css"
     id="style6736">
	.st0{fill:#44BBED;}
	.st1{fill:#27578A;}
	.st2{fill:#691B32;}
	.st3{fill:#235C4E;}
	.st4{fill:#E397B4;}
	.st5{fill:#EA9256;}
	.st6{fill:#84559E;}
	.st7{fill:#777777;}
	.st8{fill:#BC955B;}
	.st9{fill:#D92562;}
	.st10{fill:#2D2A26;}
	.st11{fill:#FFFFFF;}
</style></svg>
