<?xml version="1.0" encoding="UTF-8" standalone="no"?>
<!-- Created with Inkscape (http://www.inkscape.org/) -->

<svg
   width="155.69101"
   height="193.44783"
   viewBox="0 0 41.193245 51.183071"
   version="1.1"
   id="svg5"
   xml:space="preserve"
   inkscape:version="1.2.2 (b0a8486, 2022-12-01)"
   sodipodi:docname="draws.svg"
   inkscape:export-filename="../../../../../../Desktop/oo_4.svg"
   inkscape:export-xdpi="96"
   inkscape:export-ydpi="96"
   xmlns:inkscape="http://www.inkscape.org/namespaces/inkscape"
   xmlns:sodipodi="http://sodipodi.sourceforge.net/DTD/sodipodi-0.dtd"
   xmlns="http://www.w3.org/2000/svg"
   xmlns:svg="http://www.w3.org/2000/svg"><sodipodi:namedview
     id="namedview7"
     pagecolor="#ffffff"
     bordercolor="#000000"
     borderopacity="0.25"
     inkscape:showpageshadow="2"
     inkscape:pageopacity="0.0"
     inkscape:pagecheckerboard="0"
     inkscape:deskcolor="#d1d1d1"
     inkscape:document-units="mm"
     showgrid="false"
     inkscape:zoom="0.5057635"
     inkscape:cx="133.46159"
     inkscape:cy="258.02573"
     inkscape:window-width="1440"
     inkscape:window-height="765"
     inkscape:window-x="0"
     inkscape:window-y="25"
     inkscape:window-maximized="0"
     inkscape:current-layer="layer1" /><defs
     id="defs2" /><g
     inkscape:label="Layer 1"
     inkscape:groupmode="layer"
     id="layer1"
     transform="translate(-6.7105767,-1.7156621)"><path
       style="fill:#999999;stroke:none;stroke-width:0.434191"
       d="m 25.842182,51.455806 c -62.88638,-68.19457 67.55141,-63.9032 4.19458,-0.06749 -1.89961,1.478514 -2.40869,1.480032 -4.19458,0.06749 z"
       id="path104-5-1-5-6-4-0"
       sodipodi:nodetypes="ccc"
       inkscape:export-filename="../../../../../gobierno/src/assets/markers/obras/oo_7_m.svg"
       inkscape:export-xdpi="96"
       inkscape:export-ydpi="96" /><path
       style="fill:#ffffff;stroke:none;stroke-width:0.436649"
       d="m 24.347512,51.836306 c -62.88638,-68.96912 67.55138,-64.62901 4.19458,-0.06832 -1.89961,1.495297 -2.40869,1.496833 -4.19458,0.06832 z"
       id="path104-2-5-66-6-2"
       sodipodi:nodetypes="ccc" /><path
       style="fill:#000000;stroke:none;stroke-width:0.381769"
       d="m 24.601152,48.486219 c -55.67652,-59.549593 59.80669,-55.8022431 3.71367,-0.05908 -1.68181,1.29107 -2.13254,1.29239 -3.71367,0.05908 z"
       id="path104-1-0-6-70-0-4"
       sodipodi:nodetypes="ccc" /><path
       style="fill:#ea9256;fill-opacity:1;fill-rule:evenodd;stroke:none;stroke-width:0.34555"
       d="m 24.788102,46.082629 c -50.36304,-53.9341231 54.09896,-50.5401331 3.35926,-0.05347 -1.52132,1.169342 -1.92902,1.170529 -3.35926,0.05347 z"
       id="path104-1-3-4-3-41-3-8"
       sodipodi:nodetypes="ccc" /><g
       id="g8031"
       transform="matrix(0.02185612,0,0,0.02185612,15.120056,10.474251)">
	<path
   class="st11"
   d="m 315.4,222.66 c 6.61,59.68 13.09,118.24 19.58,176.8 4.15,37.45 7.91,74.96 12.59,112.35 2.96,23.63 22.01,38.4 43.39,35.05 22.71,-3.56 35.54,-22.61 32.7,-46.54 -6.56,-55.33 -12.48,-110.74 -18.73,-166.11 -6.07,-53.77 -11.72,-107.6 -18.52,-161.28 -4.43,-35.01 10.85,-53.56 46.28,-53.57 72.7,0 145.4,-0.02 218.09,0.01 29.25,0.01 45.89,17.22 42.95,46.47 -5.33,53.05 -11.72,105.99 -17.68,158.97 -5.24,46.61 -10.49,93.21 -15.74,139.82 -1.3,11.55 -2.31,23.15 -3.99,34.64 -3.63,24.81 9.53,44.21 32.61,47.53 21.57,3.1 40.43,-11.58 43.28,-35.24 5.46,-45.37 10.04,-90.85 15.09,-136.27 5.62,-50.55 11.35,-101.08 17.27,-153.74 70.55,43.1 124.83,99.79 165.64,169.41 55.28,94.3 78.09,196.35 71.46,306.01 -307.92,0 -615.01,0 -923.42,0 -6.08,-89.1 8.87,-174.42 45.27,-256.04 C 168.56,339.94 246.2,260.8 315.4,222.66 Z"
   id="path8027" />
	<path
   class="st11"
   d="m 541.19,774.83 c 159.81,0 319.62,-0.02 479.43,0.02 30.39,0.01 55.37,21.12 58.89,49.48 3.78,30.51 -14.87,57.71 -44.81,64.89 -4.61,1.11 -9.53,1.2 -14.31,1.21 -320.42,0.05 -640.85,0.06 -961.27,0.03 -33.84,0 -59.14,-24.95 -59.11,-57.93 0.03,-32.92 25.36,-57.67 59.35,-57.67 160.6,-0.05 321.22,-0.03 481.83,-0.03 z"
   id="path8029" />
</g></g><style
     type="text/css"
     id="style897">
	.st0{fill:#44BBED;}
	.st1{fill:#27578A;}
	.st2{fill:#691B32;}
	.st3{fill:#235C4E;}
	.st4{fill:#E397B4;}
	.st5{fill:#EA9256;}
	.st6{fill:#84559E;}
	.st7{fill:#777777;}
	.st8{fill:#BC955B;}
	.st9{fill:#D92562;}
	.st10{fill:#2D2A26;}
	.st11{fill:#FFFFFF;}
</style><style
     type="text/css"
     id="style2146">
	.st0{fill:#44BBED;}
	.st1{fill:#27578A;}
	.st2{fill:#691B32;}
	.st3{fill:#235C4E;}
	.st4{fill:#E397B4;}
	.st5{fill:#EA9256;}
	.st6{fill:#84559E;}
	.st7{fill:#777777;}
	.st8{fill:#BC955B;}
	.st9{fill:#D92562;}
	.st10{fill:#2D2A26;}
	.st11{fill:#FFFFFF;}
</style><style
     type="text/css"
     id="style4440">
	.st0{fill:#44BBED;}
	.st1{fill:#27578A;}
	.st2{fill:#691B32;}
	.st3{fill:#235C4E;}
	.st4{fill:#E397B4;}
	.st5{fill:#EA9256;}
	.st6{fill:#84559E;}
	.st7{fill:#777777;}
	.st8{fill:#BC955B;}
	.st9{fill:#D92562;}
	.st10{fill:#2D2A26;}
	.st11{fill:#FFFFFF;}
</style><style
     type="text/css"
     id="style5255">
	.st0{fill:#44BBED;}
	.st1{fill:#27578A;}
	.st2{fill:#691B32;}
	.st3{fill:#235C4E;}
	.st4{fill:#E397B4;}
	.st5{fill:#EA9256;}
	.st6{fill:#84559E;}
	.st7{fill:#777777;}
	.st8{fill:#BC955B;}
	.st9{fill:#D92562;}
	.st10{fill:#2D2A26;}
	.st11{fill:#FFFFFF;}
</style><style
     type="text/css"
     id="style5886">
	.st0{fill:#44BBED;}
	.st1{fill:#27578A;}
	.st2{fill:#691B32;}
	.st3{fill:#235C4E;}
	.st4{fill:#E397B4;}
	.st5{fill:#EA9256;}
	.st6{fill:#84559E;}
	.st7{fill:#777777;}
	.st8{fill:#BC955B;}
	.st9{fill:#D92562;}
	.st10{fill:#2D2A26;}
	.st11{fill:#FFFFFF;}
</style><style
     type="text/css"
     id="style6736">
	.st0{fill:#44BBED;}
	.st1{fill:#27578A;}
	.st2{fill:#691B32;}
	.st3{fill:#235C4E;}
	.st4{fill:#E397B4;}
	.st5{fill:#EA9256;}
	.st6{fill:#84559E;}
	.st7{fill:#777777;}
	.st8{fill:#BC955B;}
	.st9{fill:#D92562;}
	.st10{fill:#2D2A26;}
	.st11{fill:#FFFFFF;}
</style><style
     type="text/css"
     id="style7559">
	.st0{fill:#44BBED;}
	.st1{fill:#27578A;}
	.st2{fill:#691B32;}
	.st3{fill:#235C4E;}
	.st4{fill:#E397B4;}
	.st5{fill:#EA9256;}
	.st6{fill:#84559E;}
	.st7{fill:#777777;}
	.st8{fill:#BC955B;}
	.st9{fill:#D92562;}
	.st10{fill:#2D2A26;}
	.st11{fill:#FFFFFF;}
</style><style
     type="text/css"
     id="style8025">
	.st0{fill:#44BBED;}
	.st1{fill:#27578A;}
	.st2{fill:#691B32;}
	.st3{fill:#235C4E;}
	.st4{fill:#E397B4;}
	.st5{fill:#EA9256;}
	.st6{fill:#84559E;}
	.st7{fill:#777777;}
	.st8{fill:#BC955B;}
	.st9{fill:#D92562;}
	.st10{fill:#2D2A26;}
	.st11{fill:#FFFFFF;}
</style></svg>
