<?xml version="1.0" encoding="UTF-8" standalone="no"?>
<!-- Created with Inkscape (http://www.inkscape.org/) -->

<svg
   width="155.69099"
   height="193.44783"
   viewBox="0 0 41.193241 51.183071"
   version="1.1"
   id="svg5"
   xml:space="preserve"
   inkscape:version="1.2.2 (b0a8486, 2022-12-01)"
   sodipodi:docname="draws.svg"
   inkscape:export-filename="o_6_m.svg"
   inkscape:export-xdpi="96"
   inkscape:export-ydpi="96"
   xmlns:inkscape="http://www.inkscape.org/namespaces/inkscape"
   xmlns:sodipodi="http://sodipodi.sourceforge.net/DTD/sodipodi-0.dtd"
   xmlns="http://www.w3.org/2000/svg"
   xmlns:svg="http://www.w3.org/2000/svg"><sodipodi:namedview
     id="namedview7"
     pagecolor="#ffffff"
     bordercolor="#000000"
     borderopacity="0.25"
     inkscape:showpageshadow="2"
     inkscape:pageopacity="0.0"
     inkscape:pagecheckerboard="0"
     inkscape:deskcolor="#d1d1d1"
     inkscape:document-units="mm"
     showgrid="false"
     inkscape:zoom="0.9667301"
     inkscape:cx="37.756143"
     inkscape:cy="166.02359"
     inkscape:window-width="1440"
     inkscape:window-height="765"
     inkscape:window-x="0"
     inkscape:window-y="25"
     inkscape:window-maximized="0"
     inkscape:current-layer="layer1" /><defs
     id="defs2" /><g
     inkscape:label="Layer 1"
     inkscape:groupmode="layer"
     id="layer1"
     transform="translate(-5.0530078,-0.71278424)"><path
       style="fill:#999999;stroke:none;stroke-width:0.434191"
       d="m 24.184617,50.45293 c -62.886387,-68.194566 67.551409,-63.903201 4.194578,-0.06749 -1.899612,1.478514 -2.40869,1.480032 -4.194578,0.06749 z"
       id="path104-5-1-5"
       sodipodi:nodetypes="ccc"
       inkscape:export-filename="o_10_m.svg"
       inkscape:export-xdpi="96"
       inkscape:export-ydpi="96" /><path
       style="fill:#ffffff;stroke:none;stroke-width:0.436649"
       d="m 22.689946,50.83343 c -62.886387,-68.969121 67.551376,-64.629014 4.194578,-0.06832 -1.899612,1.495297 -2.40869,1.496833 -4.194578,0.06832 z"
       id="path104-2-5"
       sodipodi:nodetypes="ccc" /><path
       style="fill:#000000;stroke:none;stroke-width:0.381769"
       d="m 22.943585,47.483343 c -55.676524,-59.549591 59.806691,-55.8022409 3.713672,-0.05908 -1.681817,1.29107 -2.132539,1.29239 -3.713672,0.05908 z"
       id="path104-1-0-6"
       sodipodi:nodetypes="ccc" /><path
       style="fill:#501616;fill-opacity:1;fill-rule:evenodd;stroke:none;stroke-width:0.34555"
       d="m 23.130535,45.079753 c -50.363039,-53.9341186 54.098958,-50.5401324 3.359263,-0.05347 -1.521323,1.169342 -1.929021,1.170529 -3.359263,0.05347 z"
       id="path104-1-3-4-3"
       sodipodi:nodetypes="ccc" /><path
       fill="#626567"
       d="M 36.320881,13.704753 25.480142,9.5387599 a 1.4781481,1.4781481 0 0 0 -1.039302,0 L 13.599639,13.704753 a 0.74009157,0.74009157 0 0 0 -0.480105,0.692868 v 1.707191 c 0,0.408876 0.331171,0.740046 0.740047,0.740046 h 22.201358 c 0.408876,0 0.740047,-0.33117 0.740047,-0.740046 v -1.707191 c 0,-0.308507 -0.191487,-0.584636 -0.480105,-0.692868 z m -20.241166,4.620196 v 7.400453 H 15.33967 c -0.408874,0 -0.740045,0.33117 -0.740045,0.740046 v 2.220136 h 20.72127 v -2.220136 c 0,-0.408876 -0.331171,-0.740046 -0.740045,-0.740046 h -0.740046 v -7.400453 h -2.960182 v 7.400453 h -4.440271 v -7.400453 h -2.960182 v 7.400453 H 19.039897 V 18.324949 Z M 36.060939,30.165673 H 13.859581 c -0.408876,0 -0.740047,0.331173 -0.740047,0.740048 v 1.480089 c 0,0.408876 0.331171,0.740047 0.740047,0.740047 h 22.201358 c 0.408876,0 0.740047,-0.331171 0.740047,-0.740047 v -1.480089 c 0,-0.408875 -0.331171,-0.740048 -0.740047,-0.740048 z"
       id="path8206"
       style="fill:#ffffff;stroke-width:0.0462528" /></g></svg>
