<?xml version="1.0" encoding="UTF-8" standalone="no"?>
<!-- Created with Inkscape (http://www.inkscape.org/) -->

<svg
   width="155.69099"
   height="193.44783"
   viewBox="0 0 41.193241 51.183071"
   version="1.1"
   id="svg5"
   xml:space="preserve"
   inkscape:version="1.2.2 (b0a8486, 2022-12-01)"
   sodipodi:docname="draws.svg"
   inkscape:export-filename="o_6_m.svg"
   inkscape:export-xdpi="96"
   inkscape:export-ydpi="96"
   xmlns:inkscape="http://www.inkscape.org/namespaces/inkscape"
   xmlns:sodipodi="http://sodipodi.sourceforge.net/DTD/sodipodi-0.dtd"
   xmlns="http://www.w3.org/2000/svg"
   xmlns:svg="http://www.w3.org/2000/svg"><sodipodi:namedview
     id="namedview7"
     pagecolor="#ffffff"
     bordercolor="#000000"
     borderopacity="0.25"
     inkscape:showpageshadow="2"
     inkscape:pageopacity="0.0"
     inkscape:pagecheckerboard="0"
     inkscape:deskcolor="#d1d1d1"
     inkscape:document-units="mm"
     showgrid="false"
     inkscape:zoom="0.9667301"
     inkscape:cx="37.756143"
     inkscape:cy="166.02359"
     inkscape:window-width="1440"
     inkscape:window-height="765"
     inkscape:window-x="0"
     inkscape:window-y="25"
     inkscape:window-maximized="0"
     inkscape:current-layer="layer1" /><defs
     id="defs2" /><g
     inkscape:label="Layer 1"
     inkscape:groupmode="layer"
     id="layer1"
     transform="translate(-5.0530078,-0.71278424)"><path
       style="fill:#999999;stroke:none;stroke-width:0.434191"
       d="m 24.184617,50.45293 c -62.886387,-68.194566 67.551409,-63.903201 4.194578,-0.06749 -1.899612,1.478514 -2.40869,1.480032 -4.194578,0.06749 z"
       id="path104-5-1-5"
       sodipodi:nodetypes="ccc"
       inkscape:export-filename="s_1_m.svg"
       inkscape:export-xdpi="96"
       inkscape:export-ydpi="96" /><path
       style="fill:#ffffff;stroke:none;stroke-width:0.436649"
       d="m 22.689946,50.83343 c -62.886387,-68.969121 67.551376,-64.629014 4.194578,-0.06832 -1.899612,1.495297 -2.40869,1.496833 -4.194578,0.06832 z"
       id="path104-2-5"
       sodipodi:nodetypes="ccc" /><path
       style="fill:#000000;stroke:none;stroke-width:0.381769"
       d="m 22.943585,47.483343 c -55.676524,-59.549591 59.806691,-55.8022409 3.713672,-0.05908 -1.681817,1.29107 -2.132539,1.29239 -3.713672,0.05908 z"
       id="path104-1-0-6"
       sodipodi:nodetypes="ccc" /><path
       style="fill:#aa0088;fill-opacity:1;fill-rule:evenodd;stroke:none;stroke-width:0.34555"
       d="m 23.130535,45.079753 c -50.363039,-53.9341186 54.098958,-50.5401324 3.359263,-0.05347 -1.521323,1.169342 -1.929021,1.170529 -3.359263,0.05347 z"
       id="path104-1-3-4-3"
       sodipodi:nodetypes="ccc" /><path
       fill="#5f6a6a"
       d="m 37.089176,18.876218 h -5.37926 v -6.644969 c 0,-0.524477 -0.424803,-0.949281 -0.949281,-0.949281 h -5.695686 c -0.524478,0 -0.949282,0.424804 -0.949282,0.949281 v 2.847844 h -2.531416 v -3.164271 c 0,-0.349652 -0.283205,-0.632854 -0.632854,-0.632854 h -0.632855 c -0.349653,0 -0.632852,0.283202 -0.632852,0.632854 v 3.164271 h -2.53142 v -3.164271 c 0,-0.349652 -0.2832,-0.632854 -0.632853,-0.632854 h -0.632855 c -0.34965,0 -0.632853,0.283202 -0.632853,0.632854 v 3.164271 h -1.582134 c -0.524481,0 -0.949282,0.424804 -0.949282,0.949281 v 14.239217 c 0,0.69891 0.566801,1.26571 1.265708,1.26571 H 36.77275 c 0.698907,0 1.265707,-0.5668 1.265707,-1.26571 V 19.825499 c 0,-0.524478 -0.425199,-0.949281 -0.949281,-0.949281 z m -19.302051,8.385318 c 0,0.262237 -0.212401,0.474641 -0.474641,0.474641 h -1.582133 c -0.262239,0 -0.474642,-0.212404 -0.474642,-0.474641 v -1.582137 c 0,-0.262238 0.212403,-0.47464 0.474642,-0.47464 h 1.582133 c 0.26224,0 0.474641,0.212402 0.474641,0.47464 z m 0,-3.797126 c 0,0.262239 -0.212401,0.474641 -0.474641,0.474641 h -1.582133 c -0.262239,0 -0.474642,-0.212402 -0.474642,-0.474641 v -1.582136 c 0,-0.262237 0.212403,-0.474639 0.474642,-0.474639 h 1.582133 c 0.26224,0 0.474641,0.212402 0.474641,0.474639 z m 0,-3.797125 c 0,0.262239 -0.212401,0.47464 -0.474641,0.47464 h -1.582133 c -0.262239,0 -0.474642,-0.212401 -0.474642,-0.47464 V 18.08515 c 0,-0.26224 0.212403,-0.474641 0.474642,-0.474641 h 1.582133 c 0.26224,0 0.474641,0.212401 0.474641,0.474641 z m 5.062833,7.594251 c 0,0.262237 -0.212402,0.474641 -0.47464,0.474641 h -1.582136 c -0.262237,0 -0.47464,-0.212404 -0.47464,-0.474641 v -1.582137 c 0,-0.262238 0.212403,-0.47464 0.47464,-0.47464 h 1.582136 c 0.262238,0 0.47464,0.212402 0.47464,0.47464 z m 0,-3.797126 c 0,0.262239 -0.212402,0.474641 -0.47464,0.474641 h -1.582136 c -0.262237,0 -0.47464,-0.212402 -0.47464,-0.474641 v -1.582136 c 0,-0.262237 0.212403,-0.474639 0.47464,-0.474639 h 1.582136 c 0.262238,0 0.47464,0.212402 0.47464,0.474639 z m 0,-3.797125 c 0,0.262239 -0.212402,0.47464 -0.47464,0.47464 h -1.582136 c -0.262237,0 -0.47464,-0.212401 -0.47464,-0.47464 V 18.08515 c 0,-0.26224 0.212403,-0.474641 0.47464,-0.474641 h 1.582136 c 0.262238,0 0.47464,0.212401 0.47464,0.474641 z m 6.328543,3.797125 c 0,0.262239 -0.212403,0.474641 -0.474642,0.474641 h -1.582135 c -0.262238,0 -0.47464,-0.212402 -0.47464,-0.474641 v -1.582136 c 0,-0.262237 0.212402,-0.474639 0.47464,-0.474639 h 1.582135 c 0.262239,0 0.474642,0.212402 0.474642,0.474639 z m 0,-3.797125 c 0,0.262239 -0.212403,0.47464 -0.474642,0.47464 h -1.582135 c -0.262238,0 -0.47464,-0.212401 -0.47464,-0.47464 V 18.08515 c 0,-0.26224 0.212402,-0.474641 0.47464,-0.474641 h 1.582135 c 0.262239,0 0.474642,0.212401 0.474642,0.474641 z m 0,-3.797125 c 0,0.26224 -0.212403,0.47464 -0.474642,0.47464 h -1.582135 c -0.262238,0 -0.47464,-0.2124 -0.47464,-0.47464 v -1.582135 c 0,-0.26224 0.212402,-0.474641 0.47464,-0.474641 h 1.582135 c 0.262239,0 0.474642,0.212401 0.474642,0.474641 z m 6.32854,11.391376 c 0,0.262237 -0.212401,0.474641 -0.47464,0.474641 h -1.582135 c -0.262238,0 -0.47464,-0.212404 -0.47464,-0.474641 v -1.582137 c 0,-0.262238 0.212402,-0.47464 0.47464,-0.47464 h 1.582135 c 0.262239,0 0.47464,0.212402 0.47464,0.47464 z m 0,-3.797126 c 0,0.262239 -0.212401,0.474641 -0.47464,0.474641 h -1.582135 c -0.262238,0 -0.47464,-0.212402 -0.47464,-0.474641 v -1.582136 c 0,-0.262237 0.212402,-0.474639 0.47464,-0.474639 h 1.582135 c 0.262239,0 0.47464,0.212402 0.47464,0.474639 z"
       id="path8402"
       style="fill:#ffffff;stroke-width:0.0395531" /></g></svg>
