<?xml version="1.0" encoding="UTF-8" standalone="no"?>
<!-- Created with Inkscape (http://www.inkscape.org/) -->

<svg
   width="155.69099"
   height="193.44783"
   viewBox="0 0 41.193241 51.183071"
   version="1.1"
   id="svg5"
   xml:space="preserve"
   inkscape:version="1.2.2 (b0a8486, 2022-12-01)"
   sodipodi:docname="draws.svg"
   inkscape:export-filename="o_6_m.svg"
   inkscape:export-xdpi="96"
   inkscape:export-ydpi="96"
   xmlns:inkscape="http://www.inkscape.org/namespaces/inkscape"
   xmlns:sodipodi="http://sodipodi.sourceforge.net/DTD/sodipodi-0.dtd"
   xmlns="http://www.w3.org/2000/svg"
   xmlns:svg="http://www.w3.org/2000/svg"><sodipodi:namedview
     id="namedview7"
     pagecolor="#ffffff"
     bordercolor="#000000"
     borderopacity="0.25"
     inkscape:showpageshadow="2"
     inkscape:pageopacity="0.0"
     inkscape:pagecheckerboard="0"
     inkscape:deskcolor="#d1d1d1"
     inkscape:document-units="mm"
     showgrid="false"
     inkscape:zoom="0.9667301"
     inkscape:cx="37.756143"
     inkscape:cy="166.02359"
     inkscape:window-width="1440"
     inkscape:window-height="765"
     inkscape:window-x="0"
     inkscape:window-y="25"
     inkscape:window-maximized="0"
     inkscape:current-layer="layer1" /><defs
     id="defs2" /><g
     inkscape:label="Layer 1"
     inkscape:groupmode="layer"
     id="layer1"
     transform="translate(-5.0530078,-0.71278424)"><path
       style="fill:#999999;stroke:none;stroke-width:0.434191"
       d="m 24.184617,50.45293 c -62.886387,-68.194566 67.551409,-63.903201 4.194578,-0.06749 -1.899612,1.478514 -2.40869,1.480032 -4.194578,0.06749 z"
       id="path104-5-1-5"
       sodipodi:nodetypes="ccc"
       inkscape:export-filename="s_2_m.svg"
       inkscape:export-xdpi="96"
       inkscape:export-ydpi="96" /><path
       style="fill:#ffffff;stroke:none;stroke-width:0.436649"
       d="m 22.689946,50.83343 c -62.886387,-68.969121 67.551376,-64.629014 4.194578,-0.06832 -1.899612,1.495297 -2.40869,1.496833 -4.194578,0.06832 z"
       id="path104-2-5"
       sodipodi:nodetypes="ccc" /><path
       style="fill:#000000;stroke:none;stroke-width:0.381769"
       d="m 22.943585,47.483343 c -55.676524,-59.549591 59.806691,-55.8022409 3.713672,-0.05908 -1.681817,1.29107 -2.132539,1.29239 -3.713672,0.05908 z"
       id="path104-1-0-6"
       sodipodi:nodetypes="ccc" /><path
       style="fill:#ff2a7f;fill-opacity:1;fill-rule:evenodd;stroke:none;stroke-width:0.34555"
       d="m 23.130535,45.079753 c -50.363039,-53.9341186 54.098958,-50.5401324 3.359263,-0.05347 -1.521323,1.169342 -1.929021,1.170529 -3.359263,0.05347 z"
       id="path104-1-3-4-3"
       sodipodi:nodetypes="ccc" /><path
       fill="#f1241d"
       d="m 35.66221,15.517896 h -0.379594 v -2.27756 c 0,-2.125723 -4.706959,-3.7959342 -10.628614,-3.7959342 -5.921657,0 -10.628614,1.6702112 -10.628614,3.7959342 v 2.27756 h -0.379593 c -0.628703,0 -1.13878,0.509604 -1.13878,1.13878 v 3.795934 c 0,0.628701 0.510077,1.13878 1.13878,1.13878 h 0.379593 v 7.591868 c 0,0.838425 0.679946,1.518372 1.518373,1.518372 v 1.518374 c 0,0.838427 0.679947,1.518374 1.518374,1.518374 h 1.518373 c 0.838427,0 1.518373,-0.679947 1.518373,-1.518374 V 30.70163 h 9.110241 v 1.518374 c 0,0.838427 0.679947,1.518374 1.518373,1.518374 h 1.518374 c 0.838426,0 1.518373,-0.679947 1.518373,-1.518374 V 30.70163 h 0.303676 c 0.759186,0 1.214698,-0.607348 1.214698,-1.214698 V 21.59139 h 0.379594 c 0.628701,0 1.13878,-0.510079 1.13878,-1.13878 v -3.795934 c 0,-0.629176 -0.510079,-1.13878 -1.13878,-1.13878 z M 20.098881,12.860742 c 0,-0.209725 0.169869,-0.379593 0.379594,-0.379593 h 8.351054 c 0.209725,0 0.379593,0.169868 0.379593,0.379593 v 0.759187 c 0,0.209725 -0.169868,0.379593 -0.379593,0.379593 h -8.351054 c -0.209725,0 -0.379594,-0.169868 -0.379594,-0.379593 z M 17.821322,28.42407 c -0.838427,0 -1.518374,-0.679947 -1.518374,-1.518373 0,-0.838427 0.679947,-1.518373 1.518374,-1.518373 0.838426,0 1.518373,0.679946 1.518373,1.518373 0,0.838426 -0.679947,1.518373 -1.518373,1.518373 z m 6.073493,-5.314307 h -5.314307 c -0.838427,0 -1.518373,-0.679946 -1.518373,-1.518373 v -4.55512 c 0,-0.838427 0.679946,-1.518374 1.518373,-1.518374 h 5.314307 z m 1.518373,0 v -7.591867 h 5.314307 c 0.838428,0 1.518374,0.679947 1.518374,1.518374 v 4.55512 c 0,0.838427 -0.679946,1.518373 -1.518374,1.518373 z m 6.073493,5.314307 c -0.838425,0 -1.518372,-0.679947 -1.518372,-1.518373 0,-0.838427 0.679947,-1.518373 1.518372,-1.518373 0.838428,0 1.518375,0.679946 1.518375,1.518373 0,0.838426 -0.679947,1.518373 -1.518375,1.518373 z"
       id="path8608"
       style="fill:#ffffff;stroke-width:0.0474491" /></g></svg>
